%TF.GenerationSoftware,KiCad,Pcbnew,(5.1.10)-1*%
%TF.CreationDate,2022-02-17T21:55:53+01:00*%
%TF.ProjectId,keyboardEink,6b657962-6f61-4726-9445-696e6b2e6b69,rev?*%
%TF.SameCoordinates,Original*%
%TF.FileFunction,Other,Fab,Top*%
%FSLAX46Y46*%
G04 Gerber Fmt 4.6, Leading zero omitted, Abs format (unit mm)*
G04 Created by KiCad (PCBNEW (5.1.10)-1) date 2022-02-17 21:55:53*
%MOMM*%
%LPD*%
G01*
G04 APERTURE LIST*
%ADD10C,0.100000*%
%ADD11C,0.150000*%
%ADD12C,0.080000*%
%ADD13C,0.060000*%
%ADD14C,0.120000*%
%ADD15C,0.075000*%
G04 APERTURE END LIST*
D10*
%TO.C,J12*%
X193011000Y-120970000D02*
X192376000Y-120335000D01*
X202536000Y-120970000D02*
X193011000Y-120970000D01*
X202536000Y-118430000D02*
X202536000Y-120970000D01*
X192376000Y-118430000D02*
X202536000Y-118430000D01*
X192376000Y-120335000D02*
X192376000Y-118430000D01*
%TO.C,R34*%
X225304000Y-112426000D02*
X225304000Y-110426000D01*
X226504000Y-112426000D02*
X225304000Y-112426000D01*
X226504000Y-110426000D02*
X226504000Y-112426000D01*
X225304000Y-110426000D02*
X226504000Y-110426000D01*
%TO.C,D20*%
X223494000Y-115882000D02*
X220694000Y-115882000D01*
X220694000Y-115882000D02*
X220694000Y-114082000D01*
X220694000Y-114082000D02*
X223494000Y-114082000D01*
X223494000Y-114082000D02*
X223494000Y-115882000D01*
X222844000Y-114982000D02*
X222444000Y-114982000D01*
X222444000Y-114982000D02*
X222444000Y-115532000D01*
X222444000Y-114982000D02*
X222444000Y-114432000D01*
X222444000Y-114982000D02*
X221844000Y-115382000D01*
X221844000Y-115382000D02*
X221844000Y-114582000D01*
X221844000Y-114582000D02*
X222444000Y-114982000D01*
X221844000Y-114982000D02*
X221344000Y-114982000D01*
%TO.C,D19*%
X223494000Y-113342000D02*
X220694000Y-113342000D01*
X220694000Y-113342000D02*
X220694000Y-111542000D01*
X220694000Y-111542000D02*
X223494000Y-111542000D01*
X223494000Y-111542000D02*
X223494000Y-113342000D01*
X222844000Y-112442000D02*
X222444000Y-112442000D01*
X222444000Y-112442000D02*
X222444000Y-112992000D01*
X222444000Y-112442000D02*
X222444000Y-111892000D01*
X222444000Y-112442000D02*
X221844000Y-112842000D01*
X221844000Y-112842000D02*
X221844000Y-112042000D01*
X221844000Y-112042000D02*
X222444000Y-112442000D01*
X221844000Y-112442000D02*
X221344000Y-112442000D01*
%TO.C,D18*%
X223494000Y-110802000D02*
X220694000Y-110802000D01*
X220694000Y-110802000D02*
X220694000Y-109002000D01*
X220694000Y-109002000D02*
X223494000Y-109002000D01*
X223494000Y-109002000D02*
X223494000Y-110802000D01*
X222844000Y-109902000D02*
X222444000Y-109902000D01*
X222444000Y-109902000D02*
X222444000Y-110452000D01*
X222444000Y-109902000D02*
X222444000Y-109352000D01*
X222444000Y-109902000D02*
X221844000Y-110302000D01*
X221844000Y-110302000D02*
X221844000Y-109502000D01*
X221844000Y-109502000D02*
X222444000Y-109902000D01*
X221844000Y-109902000D02*
X221344000Y-109902000D01*
%TO.C,AE1*%
X224667202Y-120859826D02*
X237794689Y-123174556D01*
X224807857Y-120062132D02*
X224667202Y-120859826D01*
X228559974Y-120723732D02*
X224807857Y-120062132D01*
X229381330Y-116065591D02*
X228559974Y-120723732D01*
X225629213Y-115403991D02*
X229381330Y-116065591D01*
X225769868Y-114606297D02*
X225629213Y-115403991D01*
X225769868Y-114606297D02*
X238897355Y-116921027D01*
X238895619Y-116930875D02*
X237796426Y-123164708D01*
X229100888Y-117656055D02*
X229955460Y-118568309D01*
X229955460Y-118568309D02*
X228840416Y-119133267D01*
%TO.C,J19*%
X208664778Y-136628706D02*
X207205464Y-137853217D01*
X207205464Y-137853217D02*
X197409381Y-126178699D01*
X197409381Y-126178699D02*
X199355134Y-124546019D01*
X199355134Y-124546019D02*
X208743047Y-135734098D01*
X208743047Y-135734098D02*
X208664778Y-136628706D01*
%TO.C,U7*%
X201683388Y-122243158D02*
X213174055Y-112601344D01*
X223458656Y-124858055D02*
X213174055Y-112601344D01*
X211201945Y-135142656D02*
X223458656Y-124858055D01*
X211201945Y-135142656D02*
X201560131Y-123651990D01*
X201683388Y-122243158D02*
X201560131Y-123651990D01*
%TO.C,J18*%
X87982000Y-109267000D02*
X87347000Y-109902000D01*
X87982000Y-99742000D02*
X87982000Y-109267000D01*
X85442000Y-99742000D02*
X87982000Y-99742000D01*
X85442000Y-109902000D02*
X85442000Y-99742000D01*
X87347000Y-109902000D02*
X85442000Y-109902000D01*
%TO.C,J17*%
X149958000Y-93519000D02*
X149958000Y-95424000D01*
X149958000Y-95424000D02*
X144878000Y-95424000D01*
X144878000Y-95424000D02*
X144878000Y-92884000D01*
X144878000Y-92884000D02*
X149323000Y-92884000D01*
X149323000Y-92884000D02*
X149958000Y-93519000D01*
%TO.C,J15*%
X203806000Y-69135000D02*
X204441000Y-68500000D01*
X203806000Y-71040000D02*
X203806000Y-69135000D01*
X206346000Y-71040000D02*
X203806000Y-71040000D01*
X206346000Y-68500000D02*
X206346000Y-71040000D01*
X204441000Y-68500000D02*
X206346000Y-68500000D01*
%TO.C,R31*%
X207985371Y-85038843D02*
X207136843Y-85887371D01*
X207136843Y-85887371D02*
X205722629Y-84473157D01*
X205722629Y-84473157D02*
X206571157Y-83624629D01*
X206571157Y-83624629D02*
X207985371Y-85038843D01*
%TO.C,J13*%
X194027000Y-85518000D02*
X194662000Y-86153000D01*
X189582000Y-85518000D02*
X194027000Y-85518000D01*
X189582000Y-88058000D02*
X189582000Y-85518000D01*
X194662000Y-88058000D02*
X189582000Y-88058000D01*
X194662000Y-86153000D02*
X194662000Y-88058000D01*
%TO.C,U2*%
X197352000Y-107778000D02*
X196552000Y-107378000D01*
X196552000Y-108178000D02*
X197352000Y-107778000D01*
X199352000Y-110088000D02*
X196552000Y-110088000D01*
X199352000Y-110743000D02*
X199352000Y-110088000D01*
X200952000Y-110743000D02*
X199352000Y-110743000D01*
X200952000Y-93313000D02*
X200952000Y-110743000D01*
X199352000Y-93313000D02*
X200952000Y-93313000D01*
X199352000Y-93968000D02*
X199352000Y-93313000D01*
X196552000Y-93968000D02*
X199352000Y-93968000D01*
X196552000Y-110088000D02*
X196552000Y-93968000D01*
%TO.C,J11*%
X191597000Y-97105000D02*
X193172000Y-97105000D01*
X193172000Y-97105000D02*
X193172000Y-105995000D01*
X193172000Y-105995000D02*
X191072000Y-105995000D01*
X191072000Y-105995000D02*
X191072000Y-97630000D01*
X191072000Y-97630000D02*
X191597000Y-97105000D01*
%TO.C,J4*%
X101825000Y-86830000D02*
X103730000Y-86830000D01*
X103730000Y-86830000D02*
X103730000Y-89370000D01*
X103730000Y-89370000D02*
X101190000Y-89370000D01*
X101190000Y-89370000D02*
X101190000Y-87465000D01*
X101190000Y-87465000D02*
X101825000Y-86830000D01*
%TO.C,F2*%
X162541000Y-104076000D02*
X163791000Y-104076000D01*
X163791000Y-104076000D02*
X163791000Y-106076000D01*
X163791000Y-106076000D02*
X162541000Y-106076000D01*
X162541000Y-106076000D02*
X162541000Y-104076000D01*
%TO.C,J10*%
X194530000Y-90365000D02*
X194530000Y-92270000D01*
X194530000Y-92270000D02*
X174210000Y-92270000D01*
X174210000Y-92270000D02*
X174210000Y-89730000D01*
X174210000Y-89730000D02*
X193895000Y-89730000D01*
X193895000Y-89730000D02*
X194530000Y-90365000D01*
%TO.C,R4*%
X114767371Y-115010843D02*
X113918843Y-115859371D01*
X113918843Y-115859371D02*
X112504629Y-114445157D01*
X112504629Y-114445157D02*
X113353157Y-113596629D01*
X113353157Y-113596629D02*
X114767371Y-115010843D01*
%TO.C,R3*%
X111719371Y-111962843D02*
X110870843Y-112811371D01*
X110870843Y-112811371D02*
X109456629Y-111397157D01*
X109456629Y-111397157D02*
X110305157Y-110548629D01*
X110305157Y-110548629D02*
X111719371Y-111962843D01*
%TO.C,D17*%
X169520000Y-84502000D02*
X169020000Y-84502000D01*
X169520000Y-84102000D02*
X170120000Y-84502000D01*
X169520000Y-84902000D02*
X169520000Y-84102000D01*
X170120000Y-84502000D02*
X169520000Y-84902000D01*
X170120000Y-84502000D02*
X170120000Y-83952000D01*
X170120000Y-84502000D02*
X170120000Y-85052000D01*
X170520000Y-84502000D02*
X170120000Y-84502000D01*
X171170000Y-83602000D02*
X171170000Y-85402000D01*
X168370000Y-83602000D02*
X171170000Y-83602000D01*
X168370000Y-85402000D02*
X168370000Y-83602000D01*
X171170000Y-85402000D02*
X168370000Y-85402000D01*
%TO.C,J8*%
X117523038Y-112754987D02*
X117523038Y-113653013D01*
X108991795Y-104223744D02*
X117523038Y-112754987D01*
X107195744Y-106019795D02*
X108991795Y-104223744D01*
X116176000Y-115000051D02*
X107195744Y-106019795D01*
X117523038Y-113653013D02*
X116176000Y-115000051D01*
%TO.C,J1*%
X157197000Y-95678000D02*
X156562000Y-95043000D01*
X166722000Y-95678000D02*
X157197000Y-95678000D01*
X166722000Y-93138000D02*
X166722000Y-95678000D01*
X156562000Y-93138000D02*
X166722000Y-93138000D01*
X156562000Y-95043000D02*
X156562000Y-93138000D01*
%TO.C,R25*%
X217792000Y-89236000D02*
X219792000Y-89236000D01*
X217792000Y-90436000D02*
X217792000Y-89236000D01*
X219792000Y-90436000D02*
X217792000Y-90436000D01*
X219792000Y-89236000D02*
X219792000Y-90436000D01*
%TO.C,R24*%
X215220000Y-90436000D02*
X213220000Y-90436000D01*
X215220000Y-89236000D02*
X215220000Y-90436000D01*
X213220000Y-89236000D02*
X215220000Y-89236000D01*
X213220000Y-90436000D02*
X213220000Y-89236000D01*
%TO.C,R16*%
X139452000Y-98964000D02*
X139452000Y-96964000D01*
X140652000Y-98964000D02*
X139452000Y-98964000D01*
X140652000Y-96964000D02*
X140652000Y-98964000D01*
X139452000Y-96964000D02*
X140652000Y-96964000D01*
%TO.C,R15*%
X136912000Y-97440000D02*
X136912000Y-95440000D01*
X138112000Y-97440000D02*
X136912000Y-97440000D01*
X138112000Y-95440000D02*
X138112000Y-97440000D01*
X136912000Y-95440000D02*
X138112000Y-95440000D01*
%TO.C,R12*%
X123450000Y-102520000D02*
X123450000Y-100520000D01*
X124650000Y-102520000D02*
X123450000Y-102520000D01*
X124650000Y-100520000D02*
X124650000Y-102520000D01*
X123450000Y-100520000D02*
X124650000Y-100520000D01*
%TO.C,R10*%
X120402000Y-102520000D02*
X120402000Y-100520000D01*
X121602000Y-102520000D02*
X120402000Y-102520000D01*
X121602000Y-100520000D02*
X121602000Y-102520000D01*
X120402000Y-100520000D02*
X121602000Y-100520000D01*
%TO.C,PWR2*%
X77811669Y-114435910D02*
X72288640Y-116780297D01*
X72538708Y-117369420D02*
X72288640Y-116780297D01*
X78061737Y-115025033D02*
X72538708Y-117369420D01*
X81825071Y-112732322D02*
X80149752Y-113443453D01*
X82075138Y-113321445D02*
X81825071Y-112732322D01*
X82075138Y-113321445D02*
X80399820Y-114032576D01*
X78804126Y-116773992D02*
X73281097Y-119118379D01*
X73531165Y-119707502D02*
X73281097Y-119118379D01*
X79054194Y-117363115D02*
X73531165Y-119707502D01*
X82817528Y-115070404D02*
X81142209Y-115781535D01*
X83067596Y-115659528D02*
X82817528Y-115070404D01*
X83067596Y-115659528D02*
X81392277Y-116370658D01*
X81515357Y-116660617D02*
X81178951Y-117493252D01*
X79778557Y-112568973D02*
X81515357Y-116660617D01*
X77440475Y-113561430D02*
X79778557Y-112568973D01*
X79425389Y-118237595D02*
X77440475Y-113561430D01*
X81178951Y-117493252D02*
X79425389Y-118237595D01*
%TO.C,J7*%
X132686000Y-91865000D02*
X133321000Y-91230000D01*
X132686000Y-101390000D02*
X132686000Y-91865000D01*
X135226000Y-101390000D02*
X132686000Y-101390000D01*
X135226000Y-91230000D02*
X135226000Y-101390000D01*
X133321000Y-91230000D02*
X135226000Y-91230000D01*
%TO.C,J6*%
X115922000Y-91865000D02*
X116557000Y-91230000D01*
X115922000Y-106470000D02*
X115922000Y-91865000D01*
X118462000Y-106470000D02*
X115922000Y-106470000D01*
X118462000Y-91230000D02*
X118462000Y-106470000D01*
X116557000Y-91230000D02*
X118462000Y-91230000D01*
%TO.C,C13*%
X122618000Y-93662000D02*
X122618000Y-95662000D01*
X121418000Y-93662000D02*
X122618000Y-93662000D01*
X121418000Y-95662000D02*
X121418000Y-93662000D01*
X122618000Y-95662000D02*
X121418000Y-95662000D01*
%TO.C,R8*%
X179031000Y-102282000D02*
X177781000Y-102282000D01*
X177781000Y-102282000D02*
X177781000Y-100282000D01*
X177781000Y-100282000D02*
X179031000Y-100282000D01*
X179031000Y-100282000D02*
X179031000Y-102282000D01*
%TO.C,U3*%
X163708000Y-110626000D02*
X164108000Y-111026000D01*
X161208000Y-110626000D02*
X163708000Y-110626000D01*
X161208000Y-112226000D02*
X161208000Y-110626000D01*
X164108000Y-112226000D02*
X161208000Y-112226000D01*
X164108000Y-111026000D02*
X164108000Y-112226000D01*
%TO.C,R5*%
X163658000Y-108749000D02*
X161658000Y-108749000D01*
X163658000Y-107499000D02*
X163658000Y-108749000D01*
X161658000Y-107499000D02*
X163658000Y-107499000D01*
X161658000Y-108749000D02*
X161658000Y-107499000D01*
%TO.C,C17*%
X166524000Y-111817000D02*
X168524000Y-111817000D01*
X166524000Y-113067000D02*
X166524000Y-111817000D01*
X168524000Y-113067000D02*
X166524000Y-113067000D01*
X168524000Y-111817000D02*
X168524000Y-113067000D01*
%TO.C,C16*%
X166524000Y-109531000D02*
X168524000Y-109531000D01*
X166524000Y-110781000D02*
X166524000Y-109531000D01*
X168524000Y-110781000D02*
X166524000Y-110781000D01*
X168524000Y-109531000D02*
X168524000Y-110781000D01*
%TO.C,C15*%
X168129000Y-103282000D02*
X168129000Y-101282000D01*
X169379000Y-103282000D02*
X168129000Y-103282000D01*
X169379000Y-101282000D02*
X169379000Y-103282000D01*
X168129000Y-101282000D02*
X169379000Y-101282000D01*
%TO.C,L1*%
X172584000Y-102460000D02*
X175084000Y-102460000D01*
X175084000Y-102460000D02*
X175084000Y-105660000D01*
X175084000Y-105660000D02*
X172584000Y-105660000D01*
X172584000Y-105660000D02*
X172584000Y-102460000D01*
%TO.C,Q1*%
X176290000Y-93838000D02*
X176290000Y-94688000D01*
X176790000Y-95188000D02*
X178490000Y-95188000D01*
X176290000Y-93838000D02*
X178490000Y-93838000D01*
X178490000Y-93838000D02*
X178490000Y-95188000D01*
X176290000Y-94688000D02*
X176790000Y-95188000D01*
%TO.C,R2*%
X176318000Y-98609000D02*
X176318000Y-99859000D01*
X176318000Y-99859000D02*
X174318000Y-99859000D01*
X174318000Y-99859000D02*
X174318000Y-98609000D01*
X174318000Y-98609000D02*
X176318000Y-98609000D01*
%TO.C,R1*%
X176318000Y-96577000D02*
X176318000Y-97827000D01*
X176318000Y-97827000D02*
X174318000Y-97827000D01*
X174318000Y-97827000D02*
X174318000Y-96577000D01*
X174318000Y-96577000D02*
X176318000Y-96577000D01*
%TO.C,D1*%
X178660000Y-105334000D02*
X178660000Y-104834000D01*
X179060000Y-105334000D02*
X178660000Y-105934000D01*
X178260000Y-105334000D02*
X179060000Y-105334000D01*
X178660000Y-105934000D02*
X178260000Y-105334000D01*
X178660000Y-105934000D02*
X179210000Y-105934000D01*
X178660000Y-105934000D02*
X178110000Y-105934000D01*
X178660000Y-106334000D02*
X178660000Y-105934000D01*
X179560000Y-106984000D02*
X177760000Y-106984000D01*
X179560000Y-104184000D02*
X179560000Y-106984000D01*
X177760000Y-104184000D02*
X179560000Y-104184000D01*
X177760000Y-106984000D02*
X177760000Y-104184000D01*
%TO.C,D2*%
X174338000Y-108886000D02*
X174838000Y-108886000D01*
X174338000Y-109286000D02*
X173738000Y-108886000D01*
X174338000Y-108486000D02*
X174338000Y-109286000D01*
X173738000Y-108886000D02*
X174338000Y-108486000D01*
X173738000Y-108886000D02*
X173738000Y-109436000D01*
X173738000Y-108886000D02*
X173738000Y-108336000D01*
X173338000Y-108886000D02*
X173738000Y-108886000D01*
X172688000Y-109786000D02*
X172688000Y-107986000D01*
X175488000Y-109786000D02*
X172688000Y-109786000D01*
X175488000Y-107986000D02*
X175488000Y-109786000D01*
X172688000Y-107986000D02*
X175488000Y-107986000D01*
%TO.C,D3*%
X169730000Y-97714000D02*
X169730000Y-97214000D01*
X170130000Y-97714000D02*
X169730000Y-98314000D01*
X169330000Y-97714000D02*
X170130000Y-97714000D01*
X169730000Y-98314000D02*
X169330000Y-97714000D01*
X169730000Y-98314000D02*
X170280000Y-98314000D01*
X169730000Y-98314000D02*
X169180000Y-98314000D01*
X169730000Y-98714000D02*
X169730000Y-98314000D01*
X170630000Y-99364000D02*
X168830000Y-99364000D01*
X170630000Y-96564000D02*
X170630000Y-99364000D01*
X168830000Y-96564000D02*
X170630000Y-96564000D01*
X168830000Y-99364000D02*
X168830000Y-96564000D01*
%TO.C,C12*%
X173778000Y-93783000D02*
X173778000Y-95033000D01*
X173778000Y-95033000D02*
X171778000Y-95033000D01*
X171778000Y-95033000D02*
X171778000Y-93783000D01*
X171778000Y-93783000D02*
X173778000Y-93783000D01*
%TO.C,C9*%
X186510000Y-97319000D02*
X186510000Y-96069000D01*
X186510000Y-96069000D02*
X188510000Y-96069000D01*
X188510000Y-96069000D02*
X188510000Y-97319000D01*
X188510000Y-97319000D02*
X186510000Y-97319000D01*
%TO.C,C6*%
X181176000Y-102399000D02*
X181176000Y-101149000D01*
X181176000Y-101149000D02*
X183176000Y-101149000D01*
X183176000Y-101149000D02*
X183176000Y-102399000D01*
X183176000Y-102399000D02*
X181176000Y-102399000D01*
%TO.C,C4*%
X181176000Y-105955000D02*
X181176000Y-104705000D01*
X181176000Y-104705000D02*
X183176000Y-104705000D01*
X183176000Y-104705000D02*
X183176000Y-105955000D01*
X183176000Y-105955000D02*
X181176000Y-105955000D01*
%TO.C,C2*%
X181176000Y-109257000D02*
X181176000Y-108007000D01*
X181176000Y-108007000D02*
X183176000Y-108007000D01*
X183176000Y-108007000D02*
X183176000Y-109257000D01*
X183176000Y-109257000D02*
X181176000Y-109257000D01*
%TO.C,C10*%
X168851000Y-92138000D02*
X170101000Y-92138000D01*
X170101000Y-92138000D02*
X170101000Y-94138000D01*
X170101000Y-94138000D02*
X168851000Y-94138000D01*
X168851000Y-94138000D02*
X168851000Y-92138000D01*
%TO.C,C7*%
X181176000Y-95541000D02*
X181176000Y-94291000D01*
X181176000Y-94291000D02*
X183176000Y-94291000D01*
X183176000Y-94291000D02*
X183176000Y-95541000D01*
X183176000Y-95541000D02*
X181176000Y-95541000D01*
%TO.C,C11*%
X186510000Y-100875000D02*
X186510000Y-99625000D01*
X186510000Y-99625000D02*
X188510000Y-99625000D01*
X188510000Y-99625000D02*
X188510000Y-100875000D01*
X188510000Y-100875000D02*
X186510000Y-100875000D01*
%TO.C,C5*%
X186256000Y-104431000D02*
X186256000Y-103181000D01*
X186256000Y-103181000D02*
X188256000Y-103181000D01*
X188256000Y-103181000D02*
X188256000Y-104431000D01*
X188256000Y-104431000D02*
X186256000Y-104431000D01*
%TO.C,C3*%
X186256000Y-107733000D02*
X186256000Y-106483000D01*
X186256000Y-106483000D02*
X188256000Y-106483000D01*
X188256000Y-106483000D02*
X188256000Y-107733000D01*
X188256000Y-107733000D02*
X186256000Y-107733000D01*
%TO.C,C1*%
X186256000Y-111035000D02*
X186256000Y-109785000D01*
X186256000Y-109785000D02*
X188256000Y-109785000D01*
X188256000Y-109785000D02*
X188256000Y-111035000D01*
X188256000Y-111035000D02*
X186256000Y-111035000D01*
%TD*%
%TO.C,J12*%
D11*
X203048380Y-122152380D02*
X203762666Y-122152380D01*
X203905523Y-122200000D01*
X204000761Y-122295238D01*
X204048380Y-122438095D01*
X204048380Y-122533333D01*
X204048380Y-121533333D02*
X204000761Y-121628571D01*
X203953142Y-121676190D01*
X203857904Y-121723809D01*
X203572190Y-121723809D01*
X203476952Y-121676190D01*
X203429333Y-121628571D01*
X203381714Y-121533333D01*
X203381714Y-121390476D01*
X203429333Y-121295238D01*
X203476952Y-121247619D01*
X203572190Y-121200000D01*
X203857904Y-121200000D01*
X203953142Y-121247619D01*
X204000761Y-121295238D01*
X204048380Y-121390476D01*
X204048380Y-121533333D01*
X203381714Y-120866666D02*
X204048380Y-120628571D01*
X203381714Y-120390476D02*
X204048380Y-120628571D01*
X204286476Y-120723809D01*
X204334095Y-120771428D01*
X204381714Y-120866666D01*
X204000761Y-120057142D02*
X204048380Y-119961904D01*
X204048380Y-119771428D01*
X204000761Y-119676190D01*
X203905523Y-119628571D01*
X203857904Y-119628571D01*
X203762666Y-119676190D01*
X203715047Y-119771428D01*
X203715047Y-119914285D01*
X203667428Y-120009523D01*
X203572190Y-120057142D01*
X203524571Y-120057142D01*
X203429333Y-120009523D01*
X203381714Y-119914285D01*
X203381714Y-119771428D01*
X203429333Y-119676190D01*
X203381714Y-119342857D02*
X203381714Y-118961904D01*
X203048380Y-119200000D02*
X203905523Y-119200000D01*
X204000761Y-119152380D01*
X204048380Y-119057142D01*
X204048380Y-118961904D01*
X204048380Y-118628571D02*
X203381714Y-118628571D01*
X203048380Y-118628571D02*
X203096000Y-118676190D01*
X203143619Y-118628571D01*
X203096000Y-118580952D01*
X203048380Y-118628571D01*
X203143619Y-118628571D01*
X204000761Y-117723809D02*
X204048380Y-117819047D01*
X204048380Y-118009523D01*
X204000761Y-118104761D01*
X203953142Y-118152380D01*
X203857904Y-118200000D01*
X203572190Y-118200000D01*
X203476952Y-118152380D01*
X203429333Y-118104761D01*
X203381714Y-118009523D01*
X203381714Y-117819047D01*
X203429333Y-117723809D01*
X204048380Y-117295238D02*
X203048380Y-117295238D01*
X203667428Y-117200000D02*
X204048380Y-116914285D01*
X203381714Y-116914285D02*
X203762666Y-117295238D01*
X196646476Y-119152380D02*
X196646476Y-119866666D01*
X196598857Y-120009523D01*
X196503619Y-120104761D01*
X196360761Y-120152380D01*
X196265523Y-120152380D01*
X197646476Y-120152380D02*
X197075047Y-120152380D01*
X197360761Y-120152380D02*
X197360761Y-119152380D01*
X197265523Y-119295238D01*
X197170285Y-119390476D01*
X197075047Y-119438095D01*
X198027428Y-119247619D02*
X198075047Y-119200000D01*
X198170285Y-119152380D01*
X198408380Y-119152380D01*
X198503619Y-119200000D01*
X198551238Y-119247619D01*
X198598857Y-119342857D01*
X198598857Y-119438095D01*
X198551238Y-119580952D01*
X197979809Y-120152380D01*
X198598857Y-120152380D01*
%TO.C,R34*%
X224706380Y-111640285D02*
X224706380Y-112211714D01*
X224706380Y-111926000D02*
X223706380Y-111926000D01*
X223849238Y-112021238D01*
X223944476Y-112116476D01*
X223992095Y-112211714D01*
X224706380Y-111211714D02*
X223706380Y-111211714D01*
X224706380Y-110640285D02*
X224134952Y-111068857D01*
X223706380Y-110640285D02*
X224277809Y-111211714D01*
D12*
X226130190Y-111747428D02*
X225892095Y-111914095D01*
X226130190Y-112033142D02*
X225630190Y-112033142D01*
X225630190Y-111842666D01*
X225654000Y-111795047D01*
X225677809Y-111771238D01*
X225725428Y-111747428D01*
X225796857Y-111747428D01*
X225844476Y-111771238D01*
X225868285Y-111795047D01*
X225892095Y-111842666D01*
X225892095Y-112033142D01*
X225630190Y-111580761D02*
X225630190Y-111271238D01*
X225820666Y-111437904D01*
X225820666Y-111366476D01*
X225844476Y-111318857D01*
X225868285Y-111295047D01*
X225915904Y-111271238D01*
X226034952Y-111271238D01*
X226082571Y-111295047D01*
X226106380Y-111318857D01*
X226130190Y-111366476D01*
X226130190Y-111509333D01*
X226106380Y-111556952D01*
X226082571Y-111580761D01*
X225796857Y-110842666D02*
X226130190Y-110842666D01*
X225606380Y-110961714D02*
X225963523Y-111080761D01*
X225963523Y-110771238D01*
%TO.C,D20*%
D11*
X218855904Y-113334380D02*
X218855904Y-112334380D01*
X219189238Y-113048666D01*
X219522571Y-112334380D01*
X219522571Y-113334380D01*
X220332095Y-112810571D02*
X220474952Y-112858190D01*
X220522571Y-112905809D01*
X220570190Y-113001047D01*
X220570190Y-113143904D01*
X220522571Y-113239142D01*
X220474952Y-113286761D01*
X220379714Y-113334380D01*
X219998761Y-113334380D01*
X219998761Y-112334380D01*
X220332095Y-112334380D01*
X220427333Y-112382000D01*
X220474952Y-112429619D01*
X220522571Y-112524857D01*
X220522571Y-112620095D01*
X220474952Y-112715333D01*
X220427333Y-112762952D01*
X220332095Y-112810571D01*
X219998761Y-112810571D01*
X221570190Y-113334380D02*
X221236857Y-112858190D01*
X220998761Y-113334380D02*
X220998761Y-112334380D01*
X221379714Y-112334380D01*
X221474952Y-112382000D01*
X221522571Y-112429619D01*
X221570190Y-112524857D01*
X221570190Y-112667714D01*
X221522571Y-112762952D01*
X221474952Y-112810571D01*
X221379714Y-112858190D01*
X220998761Y-112858190D01*
X222189238Y-112334380D02*
X222284476Y-112334380D01*
X222379714Y-112382000D01*
X222427333Y-112429619D01*
X222474952Y-112524857D01*
X222522571Y-112715333D01*
X222522571Y-112953428D01*
X222474952Y-113143904D01*
X222427333Y-113239142D01*
X222379714Y-113286761D01*
X222284476Y-113334380D01*
X222189238Y-113334380D01*
X222094000Y-113286761D01*
X222046380Y-113239142D01*
X221998761Y-113143904D01*
X221951142Y-112953428D01*
X221951142Y-112715333D01*
X221998761Y-112524857D01*
X222046380Y-112429619D01*
X222094000Y-112382000D01*
X222189238Y-112334380D01*
X223427333Y-112334380D02*
X222951142Y-112334380D01*
X222903523Y-112810571D01*
X222951142Y-112762952D01*
X223046380Y-112715333D01*
X223284476Y-112715333D01*
X223379714Y-112762952D01*
X223427333Y-112810571D01*
X223474952Y-112905809D01*
X223474952Y-113143904D01*
X223427333Y-113239142D01*
X223379714Y-113286761D01*
X223284476Y-113334380D01*
X223046380Y-113334380D01*
X222951142Y-113286761D01*
X222903523Y-113239142D01*
X223808285Y-112334380D02*
X224427333Y-112334380D01*
X224094000Y-112715333D01*
X224236857Y-112715333D01*
X224332095Y-112762952D01*
X224379714Y-112810571D01*
X224427333Y-112905809D01*
X224427333Y-113143904D01*
X224379714Y-113239142D01*
X224332095Y-113286761D01*
X224236857Y-113334380D01*
X223951142Y-113334380D01*
X223855904Y-113286761D01*
X223808285Y-113239142D01*
X225046380Y-112334380D02*
X225141619Y-112334380D01*
X225236857Y-112382000D01*
X225284476Y-112429619D01*
X225332095Y-112524857D01*
X225379714Y-112715333D01*
X225379714Y-112953428D01*
X225332095Y-113143904D01*
X225284476Y-113239142D01*
X225236857Y-113286761D01*
X225141619Y-113334380D01*
X225046380Y-113334380D01*
X224951142Y-113286761D01*
X224903523Y-113239142D01*
X224855904Y-113143904D01*
X224808285Y-112953428D01*
X224808285Y-112715333D01*
X224855904Y-112524857D01*
X224903523Y-112429619D01*
X224951142Y-112382000D01*
X225046380Y-112334380D01*
X220879714Y-117434380D02*
X220879714Y-116434380D01*
X221117809Y-116434380D01*
X221260666Y-116482000D01*
X221355904Y-116577238D01*
X221403523Y-116672476D01*
X221451142Y-116862952D01*
X221451142Y-117005809D01*
X221403523Y-117196285D01*
X221355904Y-117291523D01*
X221260666Y-117386761D01*
X221117809Y-117434380D01*
X220879714Y-117434380D01*
X221832095Y-116529619D02*
X221879714Y-116482000D01*
X221974952Y-116434380D01*
X222213047Y-116434380D01*
X222308285Y-116482000D01*
X222355904Y-116529619D01*
X222403523Y-116624857D01*
X222403523Y-116720095D01*
X222355904Y-116862952D01*
X221784476Y-117434380D01*
X222403523Y-117434380D01*
X223022571Y-116434380D02*
X223117809Y-116434380D01*
X223213047Y-116482000D01*
X223260666Y-116529619D01*
X223308285Y-116624857D01*
X223355904Y-116815333D01*
X223355904Y-117053428D01*
X223308285Y-117243904D01*
X223260666Y-117339142D01*
X223213047Y-117386761D01*
X223117809Y-117434380D01*
X223022571Y-117434380D01*
X222927333Y-117386761D01*
X222879714Y-117339142D01*
X222832095Y-117243904D01*
X222784476Y-117053428D01*
X222784476Y-116815333D01*
X222832095Y-116624857D01*
X222879714Y-116529619D01*
X222927333Y-116482000D01*
X223022571Y-116434380D01*
%TO.C,D19*%
X218855904Y-110794380D02*
X218855904Y-109794380D01*
X219189238Y-110508666D01*
X219522571Y-109794380D01*
X219522571Y-110794380D01*
X220332095Y-110270571D02*
X220474952Y-110318190D01*
X220522571Y-110365809D01*
X220570190Y-110461047D01*
X220570190Y-110603904D01*
X220522571Y-110699142D01*
X220474952Y-110746761D01*
X220379714Y-110794380D01*
X219998761Y-110794380D01*
X219998761Y-109794380D01*
X220332095Y-109794380D01*
X220427333Y-109842000D01*
X220474952Y-109889619D01*
X220522571Y-109984857D01*
X220522571Y-110080095D01*
X220474952Y-110175333D01*
X220427333Y-110222952D01*
X220332095Y-110270571D01*
X219998761Y-110270571D01*
X221570190Y-110794380D02*
X221236857Y-110318190D01*
X220998761Y-110794380D02*
X220998761Y-109794380D01*
X221379714Y-109794380D01*
X221474952Y-109842000D01*
X221522571Y-109889619D01*
X221570190Y-109984857D01*
X221570190Y-110127714D01*
X221522571Y-110222952D01*
X221474952Y-110270571D01*
X221379714Y-110318190D01*
X220998761Y-110318190D01*
X222189238Y-109794380D02*
X222284476Y-109794380D01*
X222379714Y-109842000D01*
X222427333Y-109889619D01*
X222474952Y-109984857D01*
X222522571Y-110175333D01*
X222522571Y-110413428D01*
X222474952Y-110603904D01*
X222427333Y-110699142D01*
X222379714Y-110746761D01*
X222284476Y-110794380D01*
X222189238Y-110794380D01*
X222094000Y-110746761D01*
X222046380Y-110699142D01*
X221998761Y-110603904D01*
X221951142Y-110413428D01*
X221951142Y-110175333D01*
X221998761Y-109984857D01*
X222046380Y-109889619D01*
X222094000Y-109842000D01*
X222189238Y-109794380D01*
X223427333Y-109794380D02*
X222951142Y-109794380D01*
X222903523Y-110270571D01*
X222951142Y-110222952D01*
X223046380Y-110175333D01*
X223284476Y-110175333D01*
X223379714Y-110222952D01*
X223427333Y-110270571D01*
X223474952Y-110365809D01*
X223474952Y-110603904D01*
X223427333Y-110699142D01*
X223379714Y-110746761D01*
X223284476Y-110794380D01*
X223046380Y-110794380D01*
X222951142Y-110746761D01*
X222903523Y-110699142D01*
X223808285Y-109794380D02*
X224427333Y-109794380D01*
X224094000Y-110175333D01*
X224236857Y-110175333D01*
X224332095Y-110222952D01*
X224379714Y-110270571D01*
X224427333Y-110365809D01*
X224427333Y-110603904D01*
X224379714Y-110699142D01*
X224332095Y-110746761D01*
X224236857Y-110794380D01*
X223951142Y-110794380D01*
X223855904Y-110746761D01*
X223808285Y-110699142D01*
X225046380Y-109794380D02*
X225141619Y-109794380D01*
X225236857Y-109842000D01*
X225284476Y-109889619D01*
X225332095Y-109984857D01*
X225379714Y-110175333D01*
X225379714Y-110413428D01*
X225332095Y-110603904D01*
X225284476Y-110699142D01*
X225236857Y-110746761D01*
X225141619Y-110794380D01*
X225046380Y-110794380D01*
X224951142Y-110746761D01*
X224903523Y-110699142D01*
X224855904Y-110603904D01*
X224808285Y-110413428D01*
X224808285Y-110175333D01*
X224855904Y-109984857D01*
X224903523Y-109889619D01*
X224951142Y-109842000D01*
X225046380Y-109794380D01*
X220879714Y-114894380D02*
X220879714Y-113894380D01*
X221117809Y-113894380D01*
X221260666Y-113942000D01*
X221355904Y-114037238D01*
X221403523Y-114132476D01*
X221451142Y-114322952D01*
X221451142Y-114465809D01*
X221403523Y-114656285D01*
X221355904Y-114751523D01*
X221260666Y-114846761D01*
X221117809Y-114894380D01*
X220879714Y-114894380D01*
X222403523Y-114894380D02*
X221832095Y-114894380D01*
X222117809Y-114894380D02*
X222117809Y-113894380D01*
X222022571Y-114037238D01*
X221927333Y-114132476D01*
X221832095Y-114180095D01*
X222879714Y-114894380D02*
X223070190Y-114894380D01*
X223165428Y-114846761D01*
X223213047Y-114799142D01*
X223308285Y-114656285D01*
X223355904Y-114465809D01*
X223355904Y-114084857D01*
X223308285Y-113989619D01*
X223260666Y-113942000D01*
X223165428Y-113894380D01*
X222974952Y-113894380D01*
X222879714Y-113942000D01*
X222832095Y-113989619D01*
X222784476Y-114084857D01*
X222784476Y-114322952D01*
X222832095Y-114418190D01*
X222879714Y-114465809D01*
X222974952Y-114513428D01*
X223165428Y-114513428D01*
X223260666Y-114465809D01*
X223308285Y-114418190D01*
X223355904Y-114322952D01*
%TO.C,D18*%
X218855904Y-108254380D02*
X218855904Y-107254380D01*
X219189238Y-107968666D01*
X219522571Y-107254380D01*
X219522571Y-108254380D01*
X220332095Y-107730571D02*
X220474952Y-107778190D01*
X220522571Y-107825809D01*
X220570190Y-107921047D01*
X220570190Y-108063904D01*
X220522571Y-108159142D01*
X220474952Y-108206761D01*
X220379714Y-108254380D01*
X219998761Y-108254380D01*
X219998761Y-107254380D01*
X220332095Y-107254380D01*
X220427333Y-107302000D01*
X220474952Y-107349619D01*
X220522571Y-107444857D01*
X220522571Y-107540095D01*
X220474952Y-107635333D01*
X220427333Y-107682952D01*
X220332095Y-107730571D01*
X219998761Y-107730571D01*
X221570190Y-108254380D02*
X221236857Y-107778190D01*
X220998761Y-108254380D02*
X220998761Y-107254380D01*
X221379714Y-107254380D01*
X221474952Y-107302000D01*
X221522571Y-107349619D01*
X221570190Y-107444857D01*
X221570190Y-107587714D01*
X221522571Y-107682952D01*
X221474952Y-107730571D01*
X221379714Y-107778190D01*
X220998761Y-107778190D01*
X222189238Y-107254380D02*
X222284476Y-107254380D01*
X222379714Y-107302000D01*
X222427333Y-107349619D01*
X222474952Y-107444857D01*
X222522571Y-107635333D01*
X222522571Y-107873428D01*
X222474952Y-108063904D01*
X222427333Y-108159142D01*
X222379714Y-108206761D01*
X222284476Y-108254380D01*
X222189238Y-108254380D01*
X222094000Y-108206761D01*
X222046380Y-108159142D01*
X221998761Y-108063904D01*
X221951142Y-107873428D01*
X221951142Y-107635333D01*
X221998761Y-107444857D01*
X222046380Y-107349619D01*
X222094000Y-107302000D01*
X222189238Y-107254380D01*
X223427333Y-107254380D02*
X222951142Y-107254380D01*
X222903523Y-107730571D01*
X222951142Y-107682952D01*
X223046380Y-107635333D01*
X223284476Y-107635333D01*
X223379714Y-107682952D01*
X223427333Y-107730571D01*
X223474952Y-107825809D01*
X223474952Y-108063904D01*
X223427333Y-108159142D01*
X223379714Y-108206761D01*
X223284476Y-108254380D01*
X223046380Y-108254380D01*
X222951142Y-108206761D01*
X222903523Y-108159142D01*
X223808285Y-107254380D02*
X224427333Y-107254380D01*
X224094000Y-107635333D01*
X224236857Y-107635333D01*
X224332095Y-107682952D01*
X224379714Y-107730571D01*
X224427333Y-107825809D01*
X224427333Y-108063904D01*
X224379714Y-108159142D01*
X224332095Y-108206761D01*
X224236857Y-108254380D01*
X223951142Y-108254380D01*
X223855904Y-108206761D01*
X223808285Y-108159142D01*
X225046380Y-107254380D02*
X225141619Y-107254380D01*
X225236857Y-107302000D01*
X225284476Y-107349619D01*
X225332095Y-107444857D01*
X225379714Y-107635333D01*
X225379714Y-107873428D01*
X225332095Y-108063904D01*
X225284476Y-108159142D01*
X225236857Y-108206761D01*
X225141619Y-108254380D01*
X225046380Y-108254380D01*
X224951142Y-108206761D01*
X224903523Y-108159142D01*
X224855904Y-108063904D01*
X224808285Y-107873428D01*
X224808285Y-107635333D01*
X224855904Y-107444857D01*
X224903523Y-107349619D01*
X224951142Y-107302000D01*
X225046380Y-107254380D01*
X220879714Y-112354380D02*
X220879714Y-111354380D01*
X221117809Y-111354380D01*
X221260666Y-111402000D01*
X221355904Y-111497238D01*
X221403523Y-111592476D01*
X221451142Y-111782952D01*
X221451142Y-111925809D01*
X221403523Y-112116285D01*
X221355904Y-112211523D01*
X221260666Y-112306761D01*
X221117809Y-112354380D01*
X220879714Y-112354380D01*
X222403523Y-112354380D02*
X221832095Y-112354380D01*
X222117809Y-112354380D02*
X222117809Y-111354380D01*
X222022571Y-111497238D01*
X221927333Y-111592476D01*
X221832095Y-111640095D01*
X222974952Y-111782952D02*
X222879714Y-111735333D01*
X222832095Y-111687714D01*
X222784476Y-111592476D01*
X222784476Y-111544857D01*
X222832095Y-111449619D01*
X222879714Y-111402000D01*
X222974952Y-111354380D01*
X223165428Y-111354380D01*
X223260666Y-111402000D01*
X223308285Y-111449619D01*
X223355904Y-111544857D01*
X223355904Y-111592476D01*
X223308285Y-111687714D01*
X223260666Y-111735333D01*
X223165428Y-111782952D01*
X222974952Y-111782952D01*
X222879714Y-111830571D01*
X222832095Y-111878190D01*
X222784476Y-111973428D01*
X222784476Y-112163904D01*
X222832095Y-112259142D01*
X222879714Y-112306761D01*
X222974952Y-112354380D01*
X223165428Y-112354380D01*
X223260666Y-112306761D01*
X223308285Y-112259142D01*
X223355904Y-112163904D01*
X223355904Y-111973428D01*
X223308285Y-111878190D01*
X223260666Y-111830571D01*
X223165428Y-111782952D01*
%TO.C,AE1*%
X225403583Y-123925945D02*
X225872539Y-124008635D01*
X225260178Y-124190781D02*
X225762096Y-123263856D01*
X225916717Y-124306546D01*
X226360751Y-123707891D02*
X226244986Y-124364429D01*
X226344213Y-123801682D02*
X226399378Y-123763055D01*
X226501438Y-123732697D01*
X226642125Y-123757504D01*
X226727647Y-123820938D01*
X226758005Y-123922998D01*
X226667046Y-124438850D01*
X227111081Y-123840194D02*
X227486246Y-123906346D01*
X227309651Y-123536732D02*
X227160809Y-124380852D01*
X227191167Y-124482913D01*
X227276689Y-124546346D01*
X227370480Y-124562884D01*
X228082184Y-124640023D02*
X227980123Y-124670381D01*
X227792541Y-124637305D01*
X227707019Y-124573871D01*
X227676661Y-124471811D01*
X227742813Y-124096646D01*
X227806246Y-124011124D01*
X227908306Y-123980766D01*
X228095889Y-124013842D01*
X228181411Y-124077276D01*
X228211769Y-124179336D01*
X228195231Y-124273127D01*
X227709737Y-124284229D01*
X228658636Y-124113070D02*
X228542871Y-124769608D01*
X228642098Y-124206861D02*
X228697263Y-124168234D01*
X228799323Y-124137876D01*
X228940010Y-124162683D01*
X229025532Y-124226117D01*
X229055890Y-124328177D01*
X228964931Y-124844029D01*
X229549653Y-124270180D02*
X229433887Y-124926718D01*
X229533115Y-124363971D02*
X229588279Y-124325344D01*
X229690339Y-124294987D01*
X229831026Y-124319794D01*
X229916549Y-124383227D01*
X229946906Y-124485287D01*
X229855948Y-125001139D01*
X230746964Y-125158249D02*
X230837923Y-124642398D01*
X230807565Y-124540337D01*
X230722043Y-124476904D01*
X230534460Y-124443828D01*
X230432400Y-124474186D01*
X230755233Y-125111354D02*
X230653173Y-125141711D01*
X230418695Y-125100367D01*
X230333173Y-125036933D01*
X230302815Y-124934873D01*
X230319353Y-124841082D01*
X230382786Y-124755559D01*
X230484847Y-124725202D01*
X230719325Y-124766546D01*
X230821385Y-124736189D01*
X230964904Y-125293385D02*
X231715234Y-125425689D01*
X231927623Y-125318078D02*
X232060041Y-125389780D01*
X232294519Y-125431125D01*
X232396579Y-125400767D01*
X232451744Y-125362141D01*
X232515177Y-125276618D01*
X232531715Y-125182827D01*
X232501358Y-125080767D01*
X232462731Y-125025602D01*
X232377209Y-124962169D01*
X232197895Y-124882197D01*
X232112373Y-124818764D01*
X232073746Y-124763599D01*
X232043389Y-124661539D01*
X232059927Y-124567748D01*
X232123360Y-124482226D01*
X232178525Y-124443599D01*
X232280585Y-124413241D01*
X232515063Y-124454586D01*
X232647481Y-124526289D01*
X232904162Y-125538621D02*
X233077810Y-124553814D01*
X233326223Y-125613042D02*
X233417181Y-125097190D01*
X233386823Y-124995130D01*
X233301301Y-124931697D01*
X233160614Y-124906890D01*
X233058554Y-124937248D01*
X233003390Y-124975874D01*
X233795179Y-125695732D02*
X233910944Y-125039193D01*
X233968827Y-124710924D02*
X233913662Y-124749551D01*
X233952289Y-124804715D01*
X234007453Y-124766089D01*
X233968827Y-124710924D01*
X233952289Y-124804715D01*
X234647569Y-125797677D02*
X234545508Y-125828035D01*
X234357926Y-125794959D01*
X234272404Y-125731526D01*
X234242046Y-125629466D01*
X234308198Y-125254301D01*
X234371631Y-125168778D01*
X234473691Y-125138421D01*
X234661274Y-125171497D01*
X234746796Y-125234930D01*
X234777154Y-125336990D01*
X234760616Y-125430781D01*
X234275122Y-125441883D01*
X235248942Y-125952069D02*
X235163420Y-125888636D01*
X235133063Y-125786576D01*
X235281904Y-124942455D01*
X236046168Y-126092642D02*
X236219816Y-125107834D01*
X236054437Y-126045746D02*
X235952377Y-126076104D01*
X235764794Y-126043028D01*
X235679272Y-125979595D01*
X235640645Y-125924430D01*
X235610288Y-125822370D01*
X235659901Y-125540996D01*
X235723335Y-125455474D01*
X235778499Y-125416847D01*
X235880560Y-125386490D01*
X236068142Y-125419565D01*
X236153664Y-125482999D01*
X231581330Y-120039658D02*
X231664019Y-119570702D01*
X231846165Y-120183063D02*
X230919240Y-119681146D01*
X231961931Y-119526525D01*
X231503962Y-119107297D02*
X231561845Y-118779028D01*
X232102503Y-118729299D02*
X232019813Y-119198255D01*
X231035006Y-119024607D01*
X231117695Y-118555651D01*
X232267882Y-117791387D02*
X232168655Y-118354135D01*
X232218269Y-118072761D02*
X231233461Y-117899113D01*
X231357610Y-118017711D01*
X231434863Y-118128040D01*
X231465221Y-118230100D01*
%TO.C,J19*%
X192732310Y-129185712D02*
X192726440Y-129252799D01*
X192647614Y-129381104D01*
X192574658Y-129442322D01*
X192434614Y-129497671D01*
X192300439Y-129485932D01*
X192202743Y-129443584D01*
X192043829Y-129328280D01*
X191952002Y-129218845D01*
X191866045Y-129042323D01*
X191841305Y-128938757D01*
X191853044Y-128804583D01*
X191931870Y-128676278D01*
X192004827Y-128615060D01*
X192144871Y-128559711D01*
X192211958Y-128565581D01*
X193231267Y-128891361D02*
X193127702Y-128916101D01*
X193060615Y-128910231D01*
X192962918Y-128867884D01*
X192779265Y-128649014D01*
X192754525Y-128545448D01*
X192760395Y-128478361D01*
X192802742Y-128380665D01*
X192912177Y-128288838D01*
X193015743Y-128264099D01*
X193082830Y-128269968D01*
X193180526Y-128312316D01*
X193364180Y-128531186D01*
X193388919Y-128634751D01*
X193383050Y-128701838D01*
X193340702Y-128799534D01*
X193231267Y-128891361D01*
X193386395Y-127890922D02*
X193814920Y-128401618D01*
X193447613Y-127963879D02*
X193453482Y-127896791D01*
X193495830Y-127799095D01*
X193605265Y-127707268D01*
X193708831Y-127682529D01*
X193806527Y-127724877D01*
X194143225Y-128126138D01*
X194079483Y-127309352D02*
X194508008Y-127820049D01*
X194140701Y-127382309D02*
X194146570Y-127315222D01*
X194188918Y-127217525D01*
X194298353Y-127125699D01*
X194401918Y-127100959D01*
X194499615Y-127143307D01*
X194836313Y-127544568D01*
X195079922Y-127464480D02*
X195663575Y-126974737D01*
X195287874Y-125860256D02*
X195360831Y-125799038D01*
X195464397Y-125774298D01*
X195531484Y-125780168D01*
X195629180Y-125822515D01*
X195788094Y-125937820D01*
X195941139Y-126120211D01*
X196027096Y-126296733D01*
X196051836Y-126400299D01*
X196045966Y-126467386D01*
X196003619Y-126565082D01*
X195930662Y-126626300D01*
X195827096Y-126651040D01*
X195760009Y-126645170D01*
X195662313Y-126602823D01*
X195503399Y-126487518D01*
X195350354Y-126305127D01*
X195264397Y-126128605D01*
X195239657Y-126025039D01*
X195245527Y-125957952D01*
X195287874Y-125860256D01*
X196915576Y-125799859D02*
X196477837Y-126167166D01*
X196696706Y-125983513D02*
X196053919Y-125217468D01*
X196072789Y-125388121D01*
X196061050Y-125522295D01*
X196018703Y-125619992D01*
X197170924Y-125585596D02*
X197143661Y-124738202D01*
X196742399Y-125074900D02*
X197572186Y-125248898D01*
X197367138Y-124115547D02*
X197440095Y-124054329D01*
X197543660Y-124029589D01*
X197610747Y-124035458D01*
X197708443Y-124077806D01*
X197867358Y-124193110D01*
X198020402Y-124375502D01*
X198106360Y-124552024D01*
X198131099Y-124655590D01*
X198125230Y-124722677D01*
X198082882Y-124820373D01*
X198009926Y-124881591D01*
X197906360Y-124906331D01*
X197839273Y-124900461D01*
X197741577Y-124858113D01*
X197582663Y-124742809D01*
X197429618Y-124560418D01*
X197343660Y-124383895D01*
X197318921Y-124280330D01*
X197324790Y-124213243D01*
X197367138Y-124115547D01*
X198279096Y-123350323D02*
X198133182Y-123472759D01*
X198090835Y-123570455D01*
X198084965Y-123637542D01*
X198103835Y-123808195D01*
X198189793Y-123984717D01*
X198434664Y-124276544D01*
X198532361Y-124318891D01*
X198599448Y-124324761D01*
X198703013Y-124300021D01*
X198848927Y-124177585D01*
X198891274Y-124079889D01*
X198897144Y-124012802D01*
X198872404Y-123909237D01*
X198719359Y-123726845D01*
X198621663Y-123684497D01*
X198554576Y-123678628D01*
X198451010Y-123703367D01*
X198305097Y-123825803D01*
X198262750Y-123923499D01*
X198256880Y-123990587D01*
X198281620Y-124094152D01*
X199201971Y-124005671D02*
X199785624Y-123515928D01*
X199825447Y-122674402D02*
X199570099Y-122888665D01*
X199906797Y-123289926D02*
X199264010Y-122523882D01*
X199628793Y-122217793D01*
X200824625Y-122457616D02*
X200782277Y-122555312D01*
X200636364Y-122677748D01*
X200532798Y-122702487D01*
X200435102Y-122660140D01*
X200190230Y-122368313D01*
X200165491Y-122264748D01*
X200207839Y-122167051D01*
X200353752Y-122044616D01*
X200457317Y-122019876D01*
X200555013Y-122062224D01*
X200616231Y-122135180D01*
X200312666Y-122514226D01*
X201220017Y-122188005D02*
X200791491Y-121677308D01*
X200852709Y-121750265D02*
X200858579Y-121683178D01*
X200900926Y-121585482D01*
X201010361Y-121493655D01*
X201113927Y-121468915D01*
X201211623Y-121511263D01*
X201548321Y-121912524D01*
X201211623Y-121511263D02*
X201186883Y-121407697D01*
X201229231Y-121310001D01*
X201338666Y-121218174D01*
X201442232Y-121193435D01*
X201539928Y-121235783D01*
X201876626Y-121637044D01*
X202569714Y-121055474D02*
X202233016Y-120654213D01*
X202135319Y-120611865D01*
X202031754Y-120636605D01*
X201885841Y-120759040D01*
X201843493Y-120856737D01*
X202539105Y-121018996D02*
X202496757Y-121116692D01*
X202314366Y-121269737D01*
X202210800Y-121294476D01*
X202113104Y-121252129D01*
X202051886Y-121179172D01*
X202027147Y-121075606D01*
X202069494Y-120977910D01*
X202251886Y-120824866D01*
X202294233Y-120727169D01*
X203043932Y-120657558D02*
X202940366Y-120682298D01*
X202842670Y-120639950D01*
X202291709Y-119983340D01*
X203596976Y-120131337D02*
X203554628Y-120229033D01*
X203408715Y-120351469D01*
X203305149Y-120376208D01*
X203207453Y-120333861D01*
X202962582Y-120042034D01*
X202937842Y-119938469D01*
X202980190Y-119840772D01*
X203126103Y-119718337D01*
X203229669Y-119693597D01*
X203327365Y-119735945D01*
X203388583Y-119808901D01*
X203085017Y-120187947D01*
X203179447Y-130227484D02*
X202632273Y-130686618D01*
X202492229Y-130741966D01*
X202358054Y-130730227D01*
X202229749Y-130651401D01*
X202168531Y-130578445D01*
X203056190Y-131636316D02*
X202688883Y-131198576D01*
X202872537Y-131417446D02*
X203638581Y-130774658D01*
X203467928Y-130793528D01*
X203333754Y-130781790D01*
X203236058Y-130739442D01*
X203362280Y-132001099D02*
X203484715Y-132147012D01*
X203582412Y-132189360D01*
X203649499Y-132195229D01*
X203820152Y-132176359D01*
X203996674Y-132090401D01*
X204288500Y-131845530D01*
X204330848Y-131747834D01*
X204336717Y-131680746D01*
X204311978Y-131577181D01*
X204189542Y-131431268D01*
X204091846Y-131388920D01*
X204024759Y-131383051D01*
X203921193Y-131407790D01*
X203738801Y-131560835D01*
X203696454Y-131658531D01*
X203690584Y-131725618D01*
X203715324Y-131829184D01*
X203837760Y-131975097D01*
X203935456Y-132017445D01*
X204002543Y-132023314D01*
X204106109Y-131998575D01*
%TO.C,U7*%
X214590892Y-134847644D02*
X214029454Y-134697123D01*
X214153152Y-135214951D02*
X213510364Y-134448906D01*
X213802191Y-134204035D01*
X213905756Y-134179295D01*
X213972844Y-134185165D01*
X214070540Y-134227512D01*
X214162367Y-134336947D01*
X214187106Y-134440513D01*
X214181237Y-134507600D01*
X214138889Y-134605296D01*
X213847063Y-134850168D01*
X214837846Y-133956639D02*
X214582498Y-134170902D01*
X214919197Y-134572163D02*
X214276409Y-133806119D01*
X214641192Y-133500029D01*
X215575806Y-134021202D02*
X214933018Y-133255158D01*
X215647501Y-133588070D01*
X215443715Y-132826633D01*
X216086502Y-133592677D01*
X216487764Y-133255979D02*
X216633677Y-133133543D01*
X216676025Y-133035847D01*
X216681894Y-132968760D01*
X216663024Y-132798107D01*
X216577066Y-132621585D01*
X216332195Y-132329759D01*
X216234499Y-132287411D01*
X216167412Y-132281542D01*
X216063846Y-132306281D01*
X215917933Y-132428717D01*
X215875585Y-132526413D01*
X215869716Y-132593500D01*
X215894455Y-132697066D01*
X216047500Y-132879457D01*
X216145196Y-132921805D01*
X216212283Y-132927674D01*
X216315849Y-132902935D01*
X216461762Y-132780499D01*
X216504110Y-132682803D01*
X216509979Y-132615716D01*
X216485240Y-132512150D01*
X216902847Y-131602276D02*
X216538064Y-131908365D01*
X216807675Y-132303757D01*
X216813544Y-132236670D01*
X216855892Y-132138974D01*
X217038284Y-131985929D01*
X217141849Y-131961189D01*
X217208936Y-131967059D01*
X217306633Y-132009406D01*
X217459677Y-132191798D01*
X217484417Y-132295363D01*
X217478547Y-132362451D01*
X217436200Y-132460147D01*
X217253808Y-132613191D01*
X217150243Y-132637931D01*
X217083155Y-132632062D01*
X217194673Y-131357404D02*
X218019853Y-131970404D01*
X217706632Y-131300794D01*
X218311679Y-131725532D01*
X217851283Y-130806443D01*
X218541026Y-131035790D02*
X219124678Y-130546047D01*
X219476461Y-130002218D02*
X219372895Y-130026957D01*
X219305808Y-130021088D01*
X219208112Y-129978740D01*
X219177503Y-129942262D01*
X219152763Y-129838696D01*
X219158633Y-129771609D01*
X219200980Y-129673913D01*
X219346894Y-129551477D01*
X219450459Y-129526737D01*
X219517546Y-129532607D01*
X219615243Y-129574955D01*
X219645851Y-129611433D01*
X219670591Y-129714998D01*
X219664722Y-129782086D01*
X219622374Y-129879782D01*
X219476461Y-130002218D01*
X219434113Y-130099914D01*
X219428244Y-130167001D01*
X219452983Y-130270566D01*
X219575419Y-130416480D01*
X219673115Y-130458827D01*
X219740202Y-130464697D01*
X219843768Y-130439957D01*
X219989681Y-130317521D01*
X220032029Y-130219825D01*
X220037898Y-130152738D01*
X220013159Y-130049173D01*
X219890723Y-129903259D01*
X219793027Y-129860912D01*
X219725940Y-129855042D01*
X219622374Y-129879782D01*
X220149416Y-128878080D02*
X220003503Y-129000516D01*
X219961155Y-129098212D01*
X219955286Y-129165300D01*
X219974156Y-129335952D01*
X220060114Y-129512475D01*
X220304985Y-129804301D01*
X220402681Y-129846649D01*
X220469769Y-129852518D01*
X220573334Y-129827779D01*
X220719247Y-129705343D01*
X220761595Y-129607647D01*
X220767464Y-129540559D01*
X220742725Y-129436994D01*
X220589680Y-129254602D01*
X220491984Y-129212255D01*
X220424897Y-129206385D01*
X220321331Y-129231125D01*
X220175418Y-129353561D01*
X220133070Y-129451257D01*
X220127201Y-129518344D01*
X220151940Y-129621909D01*
X220935593Y-128777860D02*
X220832027Y-128802600D01*
X220764940Y-128796730D01*
X220667244Y-128754383D01*
X220636635Y-128717904D01*
X220611896Y-128614339D01*
X220617765Y-128547252D01*
X220660113Y-128449555D01*
X220806026Y-128327120D01*
X220909591Y-128302380D01*
X220976679Y-128308249D01*
X221074375Y-128350597D01*
X221104984Y-128387075D01*
X221129723Y-128490641D01*
X221123854Y-128557728D01*
X221081506Y-128655424D01*
X220935593Y-128777860D01*
X220893245Y-128875556D01*
X220887376Y-128942644D01*
X220912116Y-129046209D01*
X221034551Y-129192122D01*
X221132247Y-129234470D01*
X221199335Y-129240339D01*
X221302900Y-129215600D01*
X221448813Y-129093164D01*
X221491161Y-128995468D01*
X221497031Y-128928381D01*
X221472291Y-128824815D01*
X221349855Y-128678902D01*
X221252159Y-128636554D01*
X221185072Y-128630685D01*
X221081506Y-128655424D01*
X221855944Y-128689379D02*
X221995988Y-128634030D01*
X222178380Y-128480985D01*
X222220727Y-128383289D01*
X222226597Y-128316202D01*
X222201857Y-128212636D01*
X222140639Y-128139680D01*
X222042943Y-128097332D01*
X221975856Y-128091463D01*
X221872290Y-128116202D01*
X221695768Y-128202160D01*
X221592203Y-128226899D01*
X221525115Y-128221030D01*
X221427419Y-128178682D01*
X221366201Y-128105726D01*
X221341462Y-128002160D01*
X221347331Y-127935073D01*
X221389679Y-127837377D01*
X221572070Y-127684332D01*
X221712114Y-127628984D01*
X222034550Y-127420590D02*
X222040419Y-127353503D01*
X222082767Y-127255807D01*
X222265158Y-127102762D01*
X222368724Y-127078023D01*
X222435811Y-127083892D01*
X222533507Y-127126240D01*
X222594725Y-127199196D01*
X222650073Y-127339240D01*
X222579641Y-128144287D01*
X223053859Y-127746371D01*
X211252344Y-123942242D02*
X211772696Y-124562373D01*
X211870392Y-124604721D01*
X211937479Y-124610590D01*
X212041045Y-124585851D01*
X212186958Y-124463415D01*
X212229306Y-124365719D01*
X212235175Y-124298631D01*
X212210435Y-124195066D01*
X211690084Y-123574935D01*
X211981910Y-123330063D02*
X212492606Y-122901538D01*
X212807089Y-123943063D01*
%TO.C,J18*%
X85973904Y-99134380D02*
X85973904Y-98134380D01*
X86354857Y-98134380D01*
X86450095Y-98182000D01*
X86497714Y-98229619D01*
X86545333Y-98324857D01*
X86545333Y-98467714D01*
X86497714Y-98562952D01*
X86450095Y-98610571D01*
X86354857Y-98658190D01*
X85973904Y-98658190D01*
X87497714Y-99134380D02*
X86926285Y-99134380D01*
X87212000Y-99134380D02*
X87212000Y-98134380D01*
X87116761Y-98277238D01*
X87021523Y-98372476D01*
X86926285Y-98420095D01*
X86164380Y-105631523D02*
X86878666Y-105631523D01*
X87021523Y-105679142D01*
X87116761Y-105774380D01*
X87164380Y-105917238D01*
X87164380Y-106012476D01*
X87164380Y-104631523D02*
X87164380Y-105202952D01*
X87164380Y-104917238D02*
X86164380Y-104917238D01*
X86307238Y-105012476D01*
X86402476Y-105107714D01*
X86450095Y-105202952D01*
X86592952Y-104060095D02*
X86545333Y-104155333D01*
X86497714Y-104202952D01*
X86402476Y-104250571D01*
X86354857Y-104250571D01*
X86259619Y-104202952D01*
X86212000Y-104155333D01*
X86164380Y-104060095D01*
X86164380Y-103869619D01*
X86212000Y-103774380D01*
X86259619Y-103726761D01*
X86354857Y-103679142D01*
X86402476Y-103679142D01*
X86497714Y-103726761D01*
X86545333Y-103774380D01*
X86592952Y-103869619D01*
X86592952Y-104060095D01*
X86640571Y-104155333D01*
X86688190Y-104202952D01*
X86783428Y-104250571D01*
X86973904Y-104250571D01*
X87069142Y-104202952D01*
X87116761Y-104155333D01*
X87164380Y-104060095D01*
X87164380Y-103869619D01*
X87116761Y-103774380D01*
X87069142Y-103726761D01*
X86973904Y-103679142D01*
X86783428Y-103679142D01*
X86688190Y-103726761D01*
X86640571Y-103774380D01*
X86592952Y-103869619D01*
%TO.C,J17*%
X144270380Y-97201619D02*
X143270380Y-97201619D01*
X143270380Y-96820666D01*
X143318000Y-96725428D01*
X143365619Y-96677809D01*
X143460857Y-96630190D01*
X143603714Y-96630190D01*
X143698952Y-96677809D01*
X143746571Y-96725428D01*
X143794190Y-96820666D01*
X143794190Y-97201619D01*
X143270380Y-96296857D02*
X144270380Y-96058761D01*
X143556095Y-95868285D01*
X144270380Y-95677809D01*
X143270380Y-95439714D01*
X144270380Y-94487333D02*
X143794190Y-94820666D01*
X144270380Y-95058761D02*
X143270380Y-95058761D01*
X143270380Y-94677809D01*
X143318000Y-94582571D01*
X143365619Y-94534952D01*
X143460857Y-94487333D01*
X143603714Y-94487333D01*
X143698952Y-94534952D01*
X143746571Y-94582571D01*
X143794190Y-94677809D01*
X143794190Y-95058761D01*
X144365619Y-94296857D02*
X144365619Y-93534952D01*
X144222761Y-93344476D02*
X144270380Y-93201619D01*
X144270380Y-92963523D01*
X144222761Y-92868285D01*
X144175142Y-92820666D01*
X144079904Y-92773047D01*
X143984666Y-92773047D01*
X143889428Y-92820666D01*
X143841809Y-92868285D01*
X143794190Y-92963523D01*
X143746571Y-93154000D01*
X143698952Y-93249238D01*
X143651333Y-93296857D01*
X143556095Y-93344476D01*
X143460857Y-93344476D01*
X143365619Y-93296857D01*
X143318000Y-93249238D01*
X143270380Y-93154000D01*
X143270380Y-92915904D01*
X143318000Y-92773047D01*
X143746571Y-92344476D02*
X143746571Y-92011142D01*
X144270380Y-91868285D02*
X144270380Y-92344476D01*
X143270380Y-92344476D01*
X143270380Y-91868285D01*
X144270380Y-90963523D02*
X144270380Y-91439714D01*
X143270380Y-91439714D01*
X146608476Y-93606380D02*
X146608476Y-94320666D01*
X146560857Y-94463523D01*
X146465619Y-94558761D01*
X146322761Y-94606380D01*
X146227523Y-94606380D01*
X147608476Y-94606380D02*
X147037047Y-94606380D01*
X147322761Y-94606380D02*
X147322761Y-93606380D01*
X147227523Y-93749238D01*
X147132285Y-93844476D01*
X147037047Y-93892095D01*
X147941809Y-93606380D02*
X148608476Y-93606380D01*
X148179904Y-94606380D01*
%TO.C,J15*%
X199242666Y-72457142D02*
X199195047Y-72504761D01*
X199052190Y-72552380D01*
X198956952Y-72552380D01*
X198814095Y-72504761D01*
X198718857Y-72409523D01*
X198671238Y-72314285D01*
X198623619Y-72123809D01*
X198623619Y-71980952D01*
X198671238Y-71790476D01*
X198718857Y-71695238D01*
X198814095Y-71600000D01*
X198956952Y-71552380D01*
X199052190Y-71552380D01*
X199195047Y-71600000D01*
X199242666Y-71647619D01*
X199814095Y-72552380D02*
X199718857Y-72504761D01*
X199671238Y-72457142D01*
X199623619Y-72361904D01*
X199623619Y-72076190D01*
X199671238Y-71980952D01*
X199718857Y-71933333D01*
X199814095Y-71885714D01*
X199956952Y-71885714D01*
X200052190Y-71933333D01*
X200099809Y-71980952D01*
X200147428Y-72076190D01*
X200147428Y-72361904D01*
X200099809Y-72457142D01*
X200052190Y-72504761D01*
X199956952Y-72552380D01*
X199814095Y-72552380D01*
X200576000Y-71885714D02*
X200576000Y-72552380D01*
X200576000Y-71980952D02*
X200623619Y-71933333D01*
X200718857Y-71885714D01*
X200861714Y-71885714D01*
X200956952Y-71933333D01*
X201004571Y-72028571D01*
X201004571Y-72552380D01*
X201480761Y-71885714D02*
X201480761Y-72552380D01*
X201480761Y-71980952D02*
X201528380Y-71933333D01*
X201623619Y-71885714D01*
X201766476Y-71885714D01*
X201861714Y-71933333D01*
X201909333Y-72028571D01*
X201909333Y-72552380D01*
X202147428Y-72647619D02*
X202909333Y-72647619D01*
X203337904Y-71552380D02*
X203433142Y-71552380D01*
X203528380Y-71600000D01*
X203576000Y-71647619D01*
X203623619Y-71742857D01*
X203671238Y-71933333D01*
X203671238Y-72171428D01*
X203623619Y-72361904D01*
X203576000Y-72457142D01*
X203528380Y-72504761D01*
X203433142Y-72552380D01*
X203337904Y-72552380D01*
X203242666Y-72504761D01*
X203195047Y-72457142D01*
X203147428Y-72361904D01*
X203099809Y-72171428D01*
X203099809Y-71933333D01*
X203147428Y-71742857D01*
X203195047Y-71647619D01*
X203242666Y-71600000D01*
X203337904Y-71552380D01*
X204623619Y-72552380D02*
X204052190Y-72552380D01*
X204337904Y-72552380D02*
X204337904Y-71552380D01*
X204242666Y-71695238D01*
X204147428Y-71790476D01*
X204052190Y-71838095D01*
X204956952Y-72552380D02*
X205480761Y-71885714D01*
X204956952Y-71885714D02*
X205480761Y-72552380D01*
X206052190Y-71552380D02*
X206147428Y-71552380D01*
X206242666Y-71600000D01*
X206290285Y-71647619D01*
X206337904Y-71742857D01*
X206385523Y-71933333D01*
X206385523Y-72171428D01*
X206337904Y-72361904D01*
X206290285Y-72457142D01*
X206242666Y-72504761D01*
X206147428Y-72552380D01*
X206052190Y-72552380D01*
X205956952Y-72504761D01*
X205909333Y-72457142D01*
X205861714Y-72361904D01*
X205814095Y-72171428D01*
X205814095Y-71933333D01*
X205861714Y-71742857D01*
X205909333Y-71647619D01*
X205956952Y-71600000D01*
X206052190Y-71552380D01*
X207337904Y-72552380D02*
X206766476Y-72552380D01*
X207052190Y-72552380D02*
X207052190Y-71552380D01*
X206956952Y-71695238D01*
X206861714Y-71790476D01*
X206766476Y-71838095D01*
X207528380Y-72647619D02*
X208290285Y-72647619D01*
X208528380Y-72552380D02*
X208528380Y-71552380D01*
X208861714Y-72266666D01*
X209195047Y-71552380D01*
X209195047Y-72552380D01*
X210099809Y-72552380D02*
X210099809Y-72028571D01*
X210052190Y-71933333D01*
X209956952Y-71885714D01*
X209766476Y-71885714D01*
X209671238Y-71933333D01*
X210099809Y-72504761D02*
X210004571Y-72552380D01*
X209766476Y-72552380D01*
X209671238Y-72504761D01*
X209623619Y-72409523D01*
X209623619Y-72314285D01*
X209671238Y-72219047D01*
X209766476Y-72171428D01*
X210004571Y-72171428D01*
X210099809Y-72123809D01*
X210718857Y-72552380D02*
X210623619Y-72504761D01*
X210576000Y-72409523D01*
X210576000Y-71552380D01*
X211480761Y-72504761D02*
X211385523Y-72552380D01*
X211195047Y-72552380D01*
X211099809Y-72504761D01*
X211052190Y-72409523D01*
X211052190Y-72028571D01*
X211099809Y-71933333D01*
X211195047Y-71885714D01*
X211385523Y-71885714D01*
X211480761Y-71933333D01*
X211528380Y-72028571D01*
X211528380Y-72123809D01*
X211052190Y-72219047D01*
X204528380Y-70579523D02*
X205242666Y-70579523D01*
X205385523Y-70627142D01*
X205480761Y-70722380D01*
X205528380Y-70865238D01*
X205528380Y-70960476D01*
X205528380Y-69579523D02*
X205528380Y-70150952D01*
X205528380Y-69865238D02*
X204528380Y-69865238D01*
X204671238Y-69960476D01*
X204766476Y-70055714D01*
X204814095Y-70150952D01*
X204528380Y-68674761D02*
X204528380Y-69150952D01*
X205004571Y-69198571D01*
X204956952Y-69150952D01*
X204909333Y-69055714D01*
X204909333Y-68817619D01*
X204956952Y-68722380D01*
X205004571Y-68674761D01*
X205099809Y-68627142D01*
X205337904Y-68627142D01*
X205433142Y-68674761D01*
X205480761Y-68722380D01*
X205528380Y-68817619D01*
X205528380Y-69055714D01*
X205480761Y-69150952D01*
X205433142Y-69198571D01*
%TO.C,R31*%
X207279947Y-83488258D02*
X206875886Y-83084197D01*
X207077916Y-83286228D02*
X207785023Y-82579121D01*
X207616664Y-82612793D01*
X207481977Y-82612793D01*
X207380962Y-82579121D01*
X208424787Y-83218884D02*
X208492130Y-83286228D01*
X208525802Y-83387243D01*
X208525802Y-83454586D01*
X208492130Y-83555602D01*
X208391115Y-83723961D01*
X208222756Y-83892319D01*
X208054397Y-83993335D01*
X207953382Y-84027006D01*
X207886038Y-84027006D01*
X207785023Y-83993335D01*
X207717680Y-83925991D01*
X207684008Y-83824976D01*
X207684008Y-83757632D01*
X207717680Y-83656617D01*
X207818695Y-83488258D01*
X207987054Y-83319899D01*
X208155413Y-83218884D01*
X208256428Y-83185212D01*
X208323771Y-83185212D01*
X208424787Y-83218884D01*
X208256428Y-84464739D02*
X208963535Y-83757632D01*
X208593145Y-84262709D02*
X208525802Y-84734113D01*
X208997206Y-84262709D02*
X208458458Y-84262709D01*
D12*
X206466774Y-84688656D02*
X206517282Y-84402446D01*
X206264744Y-84486625D02*
X206618297Y-84133072D01*
X206752984Y-84267759D01*
X206769820Y-84318267D01*
X206769820Y-84351938D01*
X206752984Y-84402446D01*
X206702477Y-84452954D01*
X206651969Y-84469790D01*
X206618297Y-84469790D01*
X206567790Y-84452954D01*
X206433103Y-84318267D01*
X206938179Y-84452954D02*
X207157045Y-84671820D01*
X206904507Y-84688656D01*
X206955015Y-84739164D01*
X206971851Y-84789671D01*
X206971851Y-84823343D01*
X206955015Y-84873851D01*
X206870835Y-84958030D01*
X206820328Y-84974866D01*
X206786656Y-84974866D01*
X206736148Y-84958030D01*
X206635133Y-84857015D01*
X206618297Y-84806507D01*
X206618297Y-84772835D01*
X207140209Y-85362091D02*
X206938179Y-85160061D01*
X207039194Y-85261076D02*
X207392748Y-84907522D01*
X207308568Y-84924358D01*
X207241225Y-84924358D01*
X207190717Y-84907522D01*
%TO.C,J13*%
D11*
X188974380Y-89835619D02*
X187974380Y-89835619D01*
X187974380Y-89454666D01*
X188022000Y-89359428D01*
X188069619Y-89311809D01*
X188164857Y-89264190D01*
X188307714Y-89264190D01*
X188402952Y-89311809D01*
X188450571Y-89359428D01*
X188498190Y-89454666D01*
X188498190Y-89835619D01*
X187974380Y-88930857D02*
X188974380Y-88692761D01*
X188260095Y-88502285D01*
X188974380Y-88311809D01*
X187974380Y-88073714D01*
X188974380Y-87121333D02*
X188498190Y-87454666D01*
X188974380Y-87692761D02*
X187974380Y-87692761D01*
X187974380Y-87311809D01*
X188022000Y-87216571D01*
X188069619Y-87168952D01*
X188164857Y-87121333D01*
X188307714Y-87121333D01*
X188402952Y-87168952D01*
X188450571Y-87216571D01*
X188498190Y-87311809D01*
X188498190Y-87692761D01*
X189069619Y-86930857D02*
X189069619Y-86168952D01*
X188926761Y-85978476D02*
X188974380Y-85835619D01*
X188974380Y-85597523D01*
X188926761Y-85502285D01*
X188879142Y-85454666D01*
X188783904Y-85407047D01*
X188688666Y-85407047D01*
X188593428Y-85454666D01*
X188545809Y-85502285D01*
X188498190Y-85597523D01*
X188450571Y-85788000D01*
X188402952Y-85883238D01*
X188355333Y-85930857D01*
X188260095Y-85978476D01*
X188164857Y-85978476D01*
X188069619Y-85930857D01*
X188022000Y-85883238D01*
X187974380Y-85788000D01*
X187974380Y-85549904D01*
X188022000Y-85407047D01*
X188450571Y-84978476D02*
X188450571Y-84645142D01*
X188974380Y-84502285D02*
X188974380Y-84978476D01*
X187974380Y-84978476D01*
X187974380Y-84502285D01*
X188974380Y-83597523D02*
X188974380Y-84073714D01*
X187974380Y-84073714D01*
X191312476Y-86240380D02*
X191312476Y-86954666D01*
X191264857Y-87097523D01*
X191169619Y-87192761D01*
X191026761Y-87240380D01*
X190931523Y-87240380D01*
X192312476Y-87240380D02*
X191741047Y-87240380D01*
X192026761Y-87240380D02*
X192026761Y-86240380D01*
X191931523Y-86383238D01*
X191836285Y-86478476D01*
X191741047Y-86526095D01*
X192645809Y-86240380D02*
X193264857Y-86240380D01*
X192931523Y-86621333D01*
X193074380Y-86621333D01*
X193169619Y-86668952D01*
X193217238Y-86716571D01*
X193264857Y-86811809D01*
X193264857Y-87049904D01*
X193217238Y-87145142D01*
X193169619Y-87192761D01*
X193074380Y-87240380D01*
X192788666Y-87240380D01*
X192693428Y-87192761D01*
X192645809Y-87145142D01*
%TO.C,JP5*%
X157396095Y-88404380D02*
X157396095Y-89118666D01*
X157348476Y-89261523D01*
X157253238Y-89356761D01*
X157110380Y-89404380D01*
X157015142Y-89404380D01*
X158300857Y-88737714D02*
X158300857Y-89404380D01*
X157872285Y-88737714D02*
X157872285Y-89261523D01*
X157919904Y-89356761D01*
X158015142Y-89404380D01*
X158158000Y-89404380D01*
X158253238Y-89356761D01*
X158300857Y-89309142D01*
X158777047Y-89404380D02*
X158777047Y-88737714D01*
X158777047Y-88832952D02*
X158824666Y-88785333D01*
X158919904Y-88737714D01*
X159062761Y-88737714D01*
X159158000Y-88785333D01*
X159205619Y-88880571D01*
X159205619Y-89404380D01*
X159205619Y-88880571D02*
X159253238Y-88785333D01*
X159348476Y-88737714D01*
X159491333Y-88737714D01*
X159586571Y-88785333D01*
X159634190Y-88880571D01*
X159634190Y-89404380D01*
X160110380Y-88737714D02*
X160110380Y-89737714D01*
X160110380Y-88785333D02*
X160205619Y-88737714D01*
X160396095Y-88737714D01*
X160491333Y-88785333D01*
X160538952Y-88832952D01*
X160586571Y-88928190D01*
X160586571Y-89213904D01*
X160538952Y-89309142D01*
X160491333Y-89356761D01*
X160396095Y-89404380D01*
X160205619Y-89404380D01*
X160110380Y-89356761D01*
X161396095Y-89356761D02*
X161300857Y-89404380D01*
X161110380Y-89404380D01*
X161015142Y-89356761D01*
X160967523Y-89261523D01*
X160967523Y-88880571D01*
X161015142Y-88785333D01*
X161110380Y-88737714D01*
X161300857Y-88737714D01*
X161396095Y-88785333D01*
X161443714Y-88880571D01*
X161443714Y-88975809D01*
X160967523Y-89071047D01*
X161872285Y-89404380D02*
X161872285Y-88737714D01*
X161872285Y-88928190D02*
X161919904Y-88832952D01*
X161967523Y-88785333D01*
X162062761Y-88737714D01*
X162158000Y-88737714D01*
X162253238Y-89499619D02*
X163015142Y-89499619D01*
X163205619Y-88499619D02*
X163253238Y-88452000D01*
X163348476Y-88404380D01*
X163586571Y-88404380D01*
X163681809Y-88452000D01*
X163729428Y-88499619D01*
X163777047Y-88594857D01*
X163777047Y-88690095D01*
X163729428Y-88832952D01*
X163158000Y-89404380D01*
X163777047Y-89404380D01*
X163967523Y-89499619D02*
X164729428Y-89499619D01*
X165158000Y-88404380D02*
X165348476Y-88404380D01*
X165443714Y-88452000D01*
X165538952Y-88547238D01*
X165586571Y-88737714D01*
X165586571Y-89071047D01*
X165538952Y-89261523D01*
X165443714Y-89356761D01*
X165348476Y-89404380D01*
X165158000Y-89404380D01*
X165062761Y-89356761D01*
X164967523Y-89261523D01*
X164919904Y-89071047D01*
X164919904Y-88737714D01*
X164967523Y-88547238D01*
X165062761Y-88452000D01*
X165158000Y-88404380D01*
X166015142Y-88737714D02*
X166015142Y-89737714D01*
X166015142Y-88785333D02*
X166110380Y-88737714D01*
X166300857Y-88737714D01*
X166396095Y-88785333D01*
X166443714Y-88832952D01*
X166491333Y-88928190D01*
X166491333Y-89213904D01*
X166443714Y-89309142D01*
X166396095Y-89356761D01*
X166300857Y-89404380D01*
X166110380Y-89404380D01*
X166015142Y-89356761D01*
X167300857Y-89356761D02*
X167205619Y-89404380D01*
X167015142Y-89404380D01*
X166919904Y-89356761D01*
X166872285Y-89261523D01*
X166872285Y-88880571D01*
X166919904Y-88785333D01*
X167015142Y-88737714D01*
X167205619Y-88737714D01*
X167300857Y-88785333D01*
X167348476Y-88880571D01*
X167348476Y-88975809D01*
X166872285Y-89071047D01*
X167777047Y-88737714D02*
X167777047Y-89404380D01*
X167777047Y-88832952D02*
X167824666Y-88785333D01*
X167919904Y-88737714D01*
X168062761Y-88737714D01*
X168158000Y-88785333D01*
X168205619Y-88880571D01*
X168205619Y-89404380D01*
%TO.C,JP4*%
X157396095Y-85864380D02*
X157396095Y-86578666D01*
X157348476Y-86721523D01*
X157253238Y-86816761D01*
X157110380Y-86864380D01*
X157015142Y-86864380D01*
X158300857Y-86197714D02*
X158300857Y-86864380D01*
X157872285Y-86197714D02*
X157872285Y-86721523D01*
X157919904Y-86816761D01*
X158015142Y-86864380D01*
X158158000Y-86864380D01*
X158253238Y-86816761D01*
X158300857Y-86769142D01*
X158777047Y-86864380D02*
X158777047Y-86197714D01*
X158777047Y-86292952D02*
X158824666Y-86245333D01*
X158919904Y-86197714D01*
X159062761Y-86197714D01*
X159158000Y-86245333D01*
X159205619Y-86340571D01*
X159205619Y-86864380D01*
X159205619Y-86340571D02*
X159253238Y-86245333D01*
X159348476Y-86197714D01*
X159491333Y-86197714D01*
X159586571Y-86245333D01*
X159634190Y-86340571D01*
X159634190Y-86864380D01*
X160110380Y-86197714D02*
X160110380Y-87197714D01*
X160110380Y-86245333D02*
X160205619Y-86197714D01*
X160396095Y-86197714D01*
X160491333Y-86245333D01*
X160538952Y-86292952D01*
X160586571Y-86388190D01*
X160586571Y-86673904D01*
X160538952Y-86769142D01*
X160491333Y-86816761D01*
X160396095Y-86864380D01*
X160205619Y-86864380D01*
X160110380Y-86816761D01*
X161396095Y-86816761D02*
X161300857Y-86864380D01*
X161110380Y-86864380D01*
X161015142Y-86816761D01*
X160967523Y-86721523D01*
X160967523Y-86340571D01*
X161015142Y-86245333D01*
X161110380Y-86197714D01*
X161300857Y-86197714D01*
X161396095Y-86245333D01*
X161443714Y-86340571D01*
X161443714Y-86435809D01*
X160967523Y-86531047D01*
X161872285Y-86864380D02*
X161872285Y-86197714D01*
X161872285Y-86388190D02*
X161919904Y-86292952D01*
X161967523Y-86245333D01*
X162062761Y-86197714D01*
X162158000Y-86197714D01*
X162253238Y-86959619D02*
X163015142Y-86959619D01*
X163205619Y-85959619D02*
X163253238Y-85912000D01*
X163348476Y-85864380D01*
X163586571Y-85864380D01*
X163681809Y-85912000D01*
X163729428Y-85959619D01*
X163777047Y-86054857D01*
X163777047Y-86150095D01*
X163729428Y-86292952D01*
X163158000Y-86864380D01*
X163777047Y-86864380D01*
X163967523Y-86959619D02*
X164729428Y-86959619D01*
X165158000Y-85864380D02*
X165348476Y-85864380D01*
X165443714Y-85912000D01*
X165538952Y-86007238D01*
X165586571Y-86197714D01*
X165586571Y-86531047D01*
X165538952Y-86721523D01*
X165443714Y-86816761D01*
X165348476Y-86864380D01*
X165158000Y-86864380D01*
X165062761Y-86816761D01*
X164967523Y-86721523D01*
X164919904Y-86531047D01*
X164919904Y-86197714D01*
X164967523Y-86007238D01*
X165062761Y-85912000D01*
X165158000Y-85864380D01*
X166015142Y-86197714D02*
X166015142Y-87197714D01*
X166015142Y-86245333D02*
X166110380Y-86197714D01*
X166300857Y-86197714D01*
X166396095Y-86245333D01*
X166443714Y-86292952D01*
X166491333Y-86388190D01*
X166491333Y-86673904D01*
X166443714Y-86769142D01*
X166396095Y-86816761D01*
X166300857Y-86864380D01*
X166110380Y-86864380D01*
X166015142Y-86816761D01*
X167300857Y-86816761D02*
X167205619Y-86864380D01*
X167015142Y-86864380D01*
X166919904Y-86816761D01*
X166872285Y-86721523D01*
X166872285Y-86340571D01*
X166919904Y-86245333D01*
X167015142Y-86197714D01*
X167205619Y-86197714D01*
X167300857Y-86245333D01*
X167348476Y-86340571D01*
X167348476Y-86435809D01*
X166872285Y-86531047D01*
X167777047Y-86197714D02*
X167777047Y-86864380D01*
X167777047Y-86292952D02*
X167824666Y-86245333D01*
X167919904Y-86197714D01*
X168062761Y-86197714D01*
X168158000Y-86245333D01*
X168205619Y-86340571D01*
X168205619Y-86864380D01*
%TO.C,U2*%
X198204380Y-102789904D02*
X199013904Y-102789904D01*
X199109142Y-102742285D01*
X199156761Y-102694666D01*
X199204380Y-102599428D01*
X199204380Y-102408952D01*
X199156761Y-102313714D01*
X199109142Y-102266095D01*
X199013904Y-102218476D01*
X198204380Y-102218476D01*
X198299619Y-101789904D02*
X198252000Y-101742285D01*
X198204380Y-101647047D01*
X198204380Y-101408952D01*
X198252000Y-101313714D01*
X198299619Y-101266095D01*
X198394857Y-101218476D01*
X198490095Y-101218476D01*
X198632952Y-101266095D01*
X199204380Y-101837523D01*
X199204380Y-101218476D01*
%TO.C,J11*%
X185336285Y-107412142D02*
X185288666Y-107459761D01*
X185145809Y-107507380D01*
X185050571Y-107507380D01*
X184907714Y-107459761D01*
X184812476Y-107364523D01*
X184764857Y-107269285D01*
X184717238Y-107078809D01*
X184717238Y-106935952D01*
X184764857Y-106745476D01*
X184812476Y-106650238D01*
X184907714Y-106555000D01*
X185050571Y-106507380D01*
X185145809Y-106507380D01*
X185288666Y-106555000D01*
X185336285Y-106602619D01*
X185907714Y-107507380D02*
X185812476Y-107459761D01*
X185764857Y-107412142D01*
X185717238Y-107316904D01*
X185717238Y-107031190D01*
X185764857Y-106935952D01*
X185812476Y-106888333D01*
X185907714Y-106840714D01*
X186050571Y-106840714D01*
X186145809Y-106888333D01*
X186193428Y-106935952D01*
X186241047Y-107031190D01*
X186241047Y-107316904D01*
X186193428Y-107412142D01*
X186145809Y-107459761D01*
X186050571Y-107507380D01*
X185907714Y-107507380D01*
X186669619Y-106840714D02*
X186669619Y-107507380D01*
X186669619Y-106935952D02*
X186717238Y-106888333D01*
X186812476Y-106840714D01*
X186955333Y-106840714D01*
X187050571Y-106888333D01*
X187098190Y-106983571D01*
X187098190Y-107507380D01*
X187574380Y-106840714D02*
X187574380Y-107507380D01*
X187574380Y-106935952D02*
X187622000Y-106888333D01*
X187717238Y-106840714D01*
X187860095Y-106840714D01*
X187955333Y-106888333D01*
X188002952Y-106983571D01*
X188002952Y-107507380D01*
X188241047Y-107602619D02*
X189002952Y-107602619D01*
X189431523Y-106507380D02*
X189526761Y-106507380D01*
X189622000Y-106555000D01*
X189669619Y-106602619D01*
X189717238Y-106697857D01*
X189764857Y-106888333D01*
X189764857Y-107126428D01*
X189717238Y-107316904D01*
X189669619Y-107412142D01*
X189622000Y-107459761D01*
X189526761Y-107507380D01*
X189431523Y-107507380D01*
X189336285Y-107459761D01*
X189288666Y-107412142D01*
X189241047Y-107316904D01*
X189193428Y-107126428D01*
X189193428Y-106888333D01*
X189241047Y-106697857D01*
X189288666Y-106602619D01*
X189336285Y-106555000D01*
X189431523Y-106507380D01*
X190717238Y-107507380D02*
X190145809Y-107507380D01*
X190431523Y-107507380D02*
X190431523Y-106507380D01*
X190336285Y-106650238D01*
X190241047Y-106745476D01*
X190145809Y-106793095D01*
X191050571Y-107507380D02*
X191574380Y-106840714D01*
X191050571Y-106840714D02*
X191574380Y-107507380D01*
X192145809Y-106507380D02*
X192241047Y-106507380D01*
X192336285Y-106555000D01*
X192383904Y-106602619D01*
X192431523Y-106697857D01*
X192479142Y-106888333D01*
X192479142Y-107126428D01*
X192431523Y-107316904D01*
X192383904Y-107412142D01*
X192336285Y-107459761D01*
X192241047Y-107507380D01*
X192145809Y-107507380D01*
X192050571Y-107459761D01*
X192002952Y-107412142D01*
X191955333Y-107316904D01*
X191907714Y-107126428D01*
X191907714Y-106888333D01*
X191955333Y-106697857D01*
X192002952Y-106602619D01*
X192050571Y-106555000D01*
X192145809Y-106507380D01*
X192812476Y-106507380D02*
X193479142Y-106507380D01*
X193050571Y-107507380D01*
X193622000Y-107602619D02*
X194383904Y-107602619D01*
X194955333Y-106983571D02*
X194622000Y-106983571D01*
X194622000Y-107507380D02*
X194622000Y-106507380D01*
X195098190Y-106507380D01*
X195860095Y-107459761D02*
X195764857Y-107507380D01*
X195574380Y-107507380D01*
X195479142Y-107459761D01*
X195431523Y-107364523D01*
X195431523Y-106983571D01*
X195479142Y-106888333D01*
X195574380Y-106840714D01*
X195764857Y-106840714D01*
X195860095Y-106888333D01*
X195907714Y-106983571D01*
X195907714Y-107078809D01*
X195431523Y-107174047D01*
X196336285Y-107507380D02*
X196336285Y-106840714D01*
X196336285Y-106935952D02*
X196383904Y-106888333D01*
X196479142Y-106840714D01*
X196622000Y-106840714D01*
X196717238Y-106888333D01*
X196764857Y-106983571D01*
X196764857Y-107507380D01*
X196764857Y-106983571D02*
X196812476Y-106888333D01*
X196907714Y-106840714D01*
X197050571Y-106840714D01*
X197145809Y-106888333D01*
X197193428Y-106983571D01*
X197193428Y-107507380D01*
X198098190Y-107507380D02*
X198098190Y-106983571D01*
X198050571Y-106888333D01*
X197955333Y-106840714D01*
X197764857Y-106840714D01*
X197669619Y-106888333D01*
X198098190Y-107459761D02*
X198002952Y-107507380D01*
X197764857Y-107507380D01*
X197669619Y-107459761D01*
X197622000Y-107364523D01*
X197622000Y-107269285D01*
X197669619Y-107174047D01*
X197764857Y-107126428D01*
X198002952Y-107126428D01*
X198098190Y-107078809D01*
X198717238Y-107507380D02*
X198622000Y-107459761D01*
X198574380Y-107364523D01*
X198574380Y-106507380D01*
X199479142Y-107459761D02*
X199383904Y-107507380D01*
X199193428Y-107507380D01*
X199098190Y-107459761D01*
X199050571Y-107364523D01*
X199050571Y-106983571D01*
X199098190Y-106888333D01*
X199193428Y-106840714D01*
X199383904Y-106840714D01*
X199479142Y-106888333D01*
X199526761Y-106983571D01*
X199526761Y-107078809D01*
X199050571Y-107174047D01*
X191574380Y-102359523D02*
X192288666Y-102359523D01*
X192431523Y-102407142D01*
X192526761Y-102502380D01*
X192574380Y-102645238D01*
X192574380Y-102740476D01*
X192574380Y-101359523D02*
X192574380Y-101930952D01*
X192574380Y-101645238D02*
X191574380Y-101645238D01*
X191717238Y-101740476D01*
X191812476Y-101835714D01*
X191860095Y-101930952D01*
X192574380Y-100407142D02*
X192574380Y-100978571D01*
X192574380Y-100692857D02*
X191574380Y-100692857D01*
X191717238Y-100788095D01*
X191812476Y-100883333D01*
X191860095Y-100978571D01*
%TO.C,J4*%
X96626666Y-90787142D02*
X96579047Y-90834761D01*
X96436190Y-90882380D01*
X96340952Y-90882380D01*
X96198095Y-90834761D01*
X96102857Y-90739523D01*
X96055238Y-90644285D01*
X96007619Y-90453809D01*
X96007619Y-90310952D01*
X96055238Y-90120476D01*
X96102857Y-90025238D01*
X96198095Y-89930000D01*
X96340952Y-89882380D01*
X96436190Y-89882380D01*
X96579047Y-89930000D01*
X96626666Y-89977619D01*
X97198095Y-90882380D02*
X97102857Y-90834761D01*
X97055238Y-90787142D01*
X97007619Y-90691904D01*
X97007619Y-90406190D01*
X97055238Y-90310952D01*
X97102857Y-90263333D01*
X97198095Y-90215714D01*
X97340952Y-90215714D01*
X97436190Y-90263333D01*
X97483809Y-90310952D01*
X97531428Y-90406190D01*
X97531428Y-90691904D01*
X97483809Y-90787142D01*
X97436190Y-90834761D01*
X97340952Y-90882380D01*
X97198095Y-90882380D01*
X97960000Y-90215714D02*
X97960000Y-90882380D01*
X97960000Y-90310952D02*
X98007619Y-90263333D01*
X98102857Y-90215714D01*
X98245714Y-90215714D01*
X98340952Y-90263333D01*
X98388571Y-90358571D01*
X98388571Y-90882380D01*
X98864761Y-90215714D02*
X98864761Y-90882380D01*
X98864761Y-90310952D02*
X98912380Y-90263333D01*
X99007619Y-90215714D01*
X99150476Y-90215714D01*
X99245714Y-90263333D01*
X99293333Y-90358571D01*
X99293333Y-90882380D01*
X99531428Y-90977619D02*
X100293333Y-90977619D01*
X100721904Y-89882380D02*
X100817142Y-89882380D01*
X100912380Y-89930000D01*
X100960000Y-89977619D01*
X101007619Y-90072857D01*
X101055238Y-90263333D01*
X101055238Y-90501428D01*
X101007619Y-90691904D01*
X100960000Y-90787142D01*
X100912380Y-90834761D01*
X100817142Y-90882380D01*
X100721904Y-90882380D01*
X100626666Y-90834761D01*
X100579047Y-90787142D01*
X100531428Y-90691904D01*
X100483809Y-90501428D01*
X100483809Y-90263333D01*
X100531428Y-90072857D01*
X100579047Y-89977619D01*
X100626666Y-89930000D01*
X100721904Y-89882380D01*
X102007619Y-90882380D02*
X101436190Y-90882380D01*
X101721904Y-90882380D02*
X101721904Y-89882380D01*
X101626666Y-90025238D01*
X101531428Y-90120476D01*
X101436190Y-90168095D01*
X102340952Y-90882380D02*
X102864761Y-90215714D01*
X102340952Y-90215714D02*
X102864761Y-90882380D01*
X103436190Y-89882380D02*
X103531428Y-89882380D01*
X103626666Y-89930000D01*
X103674285Y-89977619D01*
X103721904Y-90072857D01*
X103769523Y-90263333D01*
X103769523Y-90501428D01*
X103721904Y-90691904D01*
X103674285Y-90787142D01*
X103626666Y-90834761D01*
X103531428Y-90882380D01*
X103436190Y-90882380D01*
X103340952Y-90834761D01*
X103293333Y-90787142D01*
X103245714Y-90691904D01*
X103198095Y-90501428D01*
X103198095Y-90263333D01*
X103245714Y-90072857D01*
X103293333Y-89977619D01*
X103340952Y-89930000D01*
X103436190Y-89882380D01*
X104721904Y-90882380D02*
X104150476Y-90882380D01*
X104436190Y-90882380D02*
X104436190Y-89882380D01*
X104340952Y-90025238D01*
X104245714Y-90120476D01*
X104150476Y-90168095D01*
X104912380Y-90977619D02*
X105674285Y-90977619D01*
X105912380Y-90882380D02*
X105912380Y-89882380D01*
X106245714Y-90596666D01*
X106579047Y-89882380D01*
X106579047Y-90882380D01*
X107483809Y-90882380D02*
X107483809Y-90358571D01*
X107436190Y-90263333D01*
X107340952Y-90215714D01*
X107150476Y-90215714D01*
X107055238Y-90263333D01*
X107483809Y-90834761D02*
X107388571Y-90882380D01*
X107150476Y-90882380D01*
X107055238Y-90834761D01*
X107007619Y-90739523D01*
X107007619Y-90644285D01*
X107055238Y-90549047D01*
X107150476Y-90501428D01*
X107388571Y-90501428D01*
X107483809Y-90453809D01*
X108102857Y-90882380D02*
X108007619Y-90834761D01*
X107960000Y-90739523D01*
X107960000Y-89882380D01*
X108864761Y-90834761D02*
X108769523Y-90882380D01*
X108579047Y-90882380D01*
X108483809Y-90834761D01*
X108436190Y-90739523D01*
X108436190Y-90358571D01*
X108483809Y-90263333D01*
X108579047Y-90215714D01*
X108769523Y-90215714D01*
X108864761Y-90263333D01*
X108912380Y-90358571D01*
X108912380Y-90453809D01*
X108436190Y-90549047D01*
X101912380Y-88433333D02*
X102626666Y-88433333D01*
X102769523Y-88480952D01*
X102864761Y-88576190D01*
X102912380Y-88719047D01*
X102912380Y-88814285D01*
X102245714Y-87528571D02*
X102912380Y-87528571D01*
X101864761Y-87766666D02*
X102579047Y-88004761D01*
X102579047Y-87385714D01*
%TO.C,F2*%
X161444571Y-106218857D02*
X161444571Y-106552190D01*
X161968380Y-106552190D02*
X160968380Y-106552190D01*
X160968380Y-106076000D01*
X161301714Y-105266476D02*
X161968380Y-105266476D01*
X161301714Y-105695047D02*
X161825523Y-105695047D01*
X161920761Y-105647428D01*
X161968380Y-105552190D01*
X161968380Y-105409333D01*
X161920761Y-105314095D01*
X161873142Y-105266476D01*
X161920761Y-104837904D02*
X161968380Y-104742666D01*
X161968380Y-104552190D01*
X161920761Y-104456952D01*
X161825523Y-104409333D01*
X161777904Y-104409333D01*
X161682666Y-104456952D01*
X161635047Y-104552190D01*
X161635047Y-104695047D01*
X161587428Y-104790285D01*
X161492190Y-104837904D01*
X161444571Y-104837904D01*
X161349333Y-104790285D01*
X161301714Y-104695047D01*
X161301714Y-104552190D01*
X161349333Y-104456952D01*
X161920761Y-103599809D02*
X161968380Y-103695047D01*
X161968380Y-103885523D01*
X161920761Y-103980761D01*
X161825523Y-104028380D01*
X161444571Y-104028380D01*
X161349333Y-103980761D01*
X161301714Y-103885523D01*
X161301714Y-103695047D01*
X161349333Y-103599809D01*
X161444571Y-103552190D01*
X161539809Y-103552190D01*
X161635047Y-104028380D01*
D12*
X163130285Y-105242666D02*
X163130285Y-105409333D01*
X163392190Y-105409333D02*
X162892190Y-105409333D01*
X162892190Y-105171238D01*
X162939809Y-105004571D02*
X162916000Y-104980761D01*
X162892190Y-104933142D01*
X162892190Y-104814095D01*
X162916000Y-104766476D01*
X162939809Y-104742666D01*
X162987428Y-104718857D01*
X163035047Y-104718857D01*
X163106476Y-104742666D01*
X163392190Y-105028380D01*
X163392190Y-104718857D01*
%TO.C,J10*%
D11*
X173507142Y-96833333D02*
X173554761Y-96880952D01*
X173602380Y-97023809D01*
X173602380Y-97119047D01*
X173554761Y-97261904D01*
X173459523Y-97357142D01*
X173364285Y-97404761D01*
X173173809Y-97452380D01*
X173030952Y-97452380D01*
X172840476Y-97404761D01*
X172745238Y-97357142D01*
X172650000Y-97261904D01*
X172602380Y-97119047D01*
X172602380Y-97023809D01*
X172650000Y-96880952D01*
X172697619Y-96833333D01*
X173602380Y-96261904D02*
X173554761Y-96357142D01*
X173507142Y-96404761D01*
X173411904Y-96452380D01*
X173126190Y-96452380D01*
X173030952Y-96404761D01*
X172983333Y-96357142D01*
X172935714Y-96261904D01*
X172935714Y-96119047D01*
X172983333Y-96023809D01*
X173030952Y-95976190D01*
X173126190Y-95928571D01*
X173411904Y-95928571D01*
X173507142Y-95976190D01*
X173554761Y-96023809D01*
X173602380Y-96119047D01*
X173602380Y-96261904D01*
X172935714Y-95500000D02*
X173602380Y-95500000D01*
X173030952Y-95500000D02*
X172983333Y-95452380D01*
X172935714Y-95357142D01*
X172935714Y-95214285D01*
X172983333Y-95119047D01*
X173078571Y-95071428D01*
X173602380Y-95071428D01*
X172935714Y-94595238D02*
X173602380Y-94595238D01*
X173030952Y-94595238D02*
X172983333Y-94547619D01*
X172935714Y-94452380D01*
X172935714Y-94309523D01*
X172983333Y-94214285D01*
X173078571Y-94166666D01*
X173602380Y-94166666D01*
X173697619Y-93928571D02*
X173697619Y-93166666D01*
X172602380Y-92738095D02*
X172602380Y-92642857D01*
X172650000Y-92547619D01*
X172697619Y-92500000D01*
X172792857Y-92452380D01*
X172983333Y-92404761D01*
X173221428Y-92404761D01*
X173411904Y-92452380D01*
X173507142Y-92500000D01*
X173554761Y-92547619D01*
X173602380Y-92642857D01*
X173602380Y-92738095D01*
X173554761Y-92833333D01*
X173507142Y-92880952D01*
X173411904Y-92928571D01*
X173221428Y-92976190D01*
X172983333Y-92976190D01*
X172792857Y-92928571D01*
X172697619Y-92880952D01*
X172650000Y-92833333D01*
X172602380Y-92738095D01*
X173602380Y-91452380D02*
X173602380Y-92023809D01*
X173602380Y-91738095D02*
X172602380Y-91738095D01*
X172745238Y-91833333D01*
X172840476Y-91928571D01*
X172888095Y-92023809D01*
X173602380Y-91119047D02*
X172935714Y-90595238D01*
X172935714Y-91119047D02*
X173602380Y-90595238D01*
X172602380Y-90023809D02*
X172602380Y-89928571D01*
X172650000Y-89833333D01*
X172697619Y-89785714D01*
X172792857Y-89738095D01*
X172983333Y-89690476D01*
X173221428Y-89690476D01*
X173411904Y-89738095D01*
X173507142Y-89785714D01*
X173554761Y-89833333D01*
X173602380Y-89928571D01*
X173602380Y-90023809D01*
X173554761Y-90119047D01*
X173507142Y-90166666D01*
X173411904Y-90214285D01*
X173221428Y-90261904D01*
X172983333Y-90261904D01*
X172792857Y-90214285D01*
X172697619Y-90166666D01*
X172650000Y-90119047D01*
X172602380Y-90023809D01*
X173030952Y-89119047D02*
X172983333Y-89214285D01*
X172935714Y-89261904D01*
X172840476Y-89309523D01*
X172792857Y-89309523D01*
X172697619Y-89261904D01*
X172650000Y-89214285D01*
X172602380Y-89119047D01*
X172602380Y-88928571D01*
X172650000Y-88833333D01*
X172697619Y-88785714D01*
X172792857Y-88738095D01*
X172840476Y-88738095D01*
X172935714Y-88785714D01*
X172983333Y-88833333D01*
X173030952Y-88928571D01*
X173030952Y-89119047D01*
X173078571Y-89214285D01*
X173126190Y-89261904D01*
X173221428Y-89309523D01*
X173411904Y-89309523D01*
X173507142Y-89261904D01*
X173554761Y-89214285D01*
X173602380Y-89119047D01*
X173602380Y-88928571D01*
X173554761Y-88833333D01*
X173507142Y-88785714D01*
X173411904Y-88738095D01*
X173221428Y-88738095D01*
X173126190Y-88785714D01*
X173078571Y-88833333D01*
X173030952Y-88928571D01*
X173697619Y-88547619D02*
X173697619Y-87785714D01*
X173602380Y-87547619D02*
X172602380Y-87547619D01*
X173316666Y-87214285D01*
X172602380Y-86880952D01*
X173602380Y-86880952D01*
X173602380Y-85976190D02*
X173078571Y-85976190D01*
X172983333Y-86023809D01*
X172935714Y-86119047D01*
X172935714Y-86309523D01*
X172983333Y-86404761D01*
X173554761Y-85976190D02*
X173602380Y-86071428D01*
X173602380Y-86309523D01*
X173554761Y-86404761D01*
X173459523Y-86452380D01*
X173364285Y-86452380D01*
X173269047Y-86404761D01*
X173221428Y-86309523D01*
X173221428Y-86071428D01*
X173173809Y-85976190D01*
X173602380Y-85357142D02*
X173554761Y-85452380D01*
X173459523Y-85500000D01*
X172602380Y-85500000D01*
X173554761Y-84595238D02*
X173602380Y-84690476D01*
X173602380Y-84880952D01*
X173554761Y-84976190D01*
X173459523Y-85023809D01*
X173078571Y-85023809D01*
X172983333Y-84976190D01*
X172935714Y-84880952D01*
X172935714Y-84690476D01*
X172983333Y-84595238D01*
X173078571Y-84547619D01*
X173173809Y-84547619D01*
X173269047Y-85023809D01*
X183560476Y-90452380D02*
X183560476Y-91166666D01*
X183512857Y-91309523D01*
X183417619Y-91404761D01*
X183274761Y-91452380D01*
X183179523Y-91452380D01*
X184560476Y-91452380D02*
X183989047Y-91452380D01*
X184274761Y-91452380D02*
X184274761Y-90452380D01*
X184179523Y-90595238D01*
X184084285Y-90690476D01*
X183989047Y-90738095D01*
X185179523Y-90452380D02*
X185274761Y-90452380D01*
X185370000Y-90500000D01*
X185417619Y-90547619D01*
X185465238Y-90642857D01*
X185512857Y-90833333D01*
X185512857Y-91071428D01*
X185465238Y-91261904D01*
X185417619Y-91357142D01*
X185370000Y-91404761D01*
X185274761Y-91452380D01*
X185179523Y-91452380D01*
X185084285Y-91404761D01*
X185036666Y-91357142D01*
X184989047Y-91261904D01*
X184941428Y-91071428D01*
X184941428Y-90833333D01*
X184989047Y-90642857D01*
X185036666Y-90547619D01*
X185084285Y-90500000D01*
X185179523Y-90452380D01*
%TO.C,R4*%
X114061947Y-113460258D02*
X113657886Y-113056197D01*
X113859916Y-113258228D02*
X114567023Y-112551121D01*
X114398664Y-112584793D01*
X114263977Y-112584793D01*
X114162962Y-112551121D01*
X115206787Y-113190884D02*
X115274130Y-113258228D01*
X115307802Y-113359243D01*
X115307802Y-113426586D01*
X115274130Y-113527602D01*
X115173115Y-113695961D01*
X115004756Y-113864319D01*
X114836397Y-113965335D01*
X114735382Y-113999006D01*
X114668038Y-113999006D01*
X114567023Y-113965335D01*
X114499680Y-113897991D01*
X114466008Y-113796976D01*
X114466008Y-113729632D01*
X114499680Y-113628617D01*
X114600695Y-113460258D01*
X114769054Y-113291899D01*
X114937413Y-113190884D01*
X115038428Y-113157212D01*
X115105771Y-113157212D01*
X115206787Y-113190884D01*
X115038428Y-114436739D02*
X115745535Y-113729632D01*
X115375145Y-114234709D02*
X115307802Y-114706113D01*
X115779206Y-114234709D02*
X115240458Y-114234709D01*
D12*
X113417133Y-114829015D02*
X113467641Y-114542805D01*
X113215103Y-114626984D02*
X113568656Y-114273431D01*
X113703343Y-114408118D01*
X113720179Y-114458625D01*
X113720179Y-114492297D01*
X113703343Y-114542805D01*
X113652835Y-114593312D01*
X113602328Y-114610148D01*
X113568656Y-114610148D01*
X113518148Y-114593312D01*
X113383461Y-114458625D01*
X113955881Y-114896358D02*
X113720179Y-115132061D01*
X114006389Y-114677492D02*
X113669671Y-114845851D01*
X113888538Y-115064717D01*
%TO.C,R3*%
D11*
X111013947Y-110412258D02*
X110609886Y-110008197D01*
X110811916Y-110210228D02*
X111519023Y-109503121D01*
X111350664Y-109536793D01*
X111215977Y-109536793D01*
X111114962Y-109503121D01*
X112158787Y-110142884D02*
X112226130Y-110210228D01*
X112259802Y-110311243D01*
X112259802Y-110378586D01*
X112226130Y-110479602D01*
X112125115Y-110647961D01*
X111956756Y-110816319D01*
X111788397Y-110917335D01*
X111687382Y-110951006D01*
X111620038Y-110951006D01*
X111519023Y-110917335D01*
X111451680Y-110849991D01*
X111418008Y-110748976D01*
X111418008Y-110681632D01*
X111451680Y-110580617D01*
X111552695Y-110412258D01*
X111721054Y-110243899D01*
X111889413Y-110142884D01*
X111990428Y-110109212D01*
X112057771Y-110109212D01*
X112158787Y-110142884D01*
X111990428Y-111388739D02*
X112697535Y-110681632D01*
X112327145Y-111186709D02*
X112259802Y-111658113D01*
X112731206Y-111186709D02*
X112192458Y-111186709D01*
D12*
X110369133Y-111781015D02*
X110419641Y-111494805D01*
X110167103Y-111578984D02*
X110520656Y-111225431D01*
X110655343Y-111360118D01*
X110672179Y-111410625D01*
X110672179Y-111444297D01*
X110655343Y-111494805D01*
X110604835Y-111545312D01*
X110554328Y-111562148D01*
X110520656Y-111562148D01*
X110470148Y-111545312D01*
X110335461Y-111410625D01*
X110840538Y-111545312D02*
X111059404Y-111764179D01*
X110806866Y-111781015D01*
X110857374Y-111831522D01*
X110874209Y-111882030D01*
X110874209Y-111915702D01*
X110857374Y-111966209D01*
X110773194Y-112050389D01*
X110722687Y-112067225D01*
X110689015Y-112067225D01*
X110638507Y-112050389D01*
X110537492Y-111949374D01*
X110520656Y-111898866D01*
X110520656Y-111865194D01*
%TO.C,D17*%
D11*
X166531904Y-82854380D02*
X166531904Y-81854380D01*
X166865238Y-82568666D01*
X167198571Y-81854380D01*
X167198571Y-82854380D01*
X168008095Y-82330571D02*
X168150952Y-82378190D01*
X168198571Y-82425809D01*
X168246190Y-82521047D01*
X168246190Y-82663904D01*
X168198571Y-82759142D01*
X168150952Y-82806761D01*
X168055714Y-82854380D01*
X167674761Y-82854380D01*
X167674761Y-81854380D01*
X168008095Y-81854380D01*
X168103333Y-81902000D01*
X168150952Y-81949619D01*
X168198571Y-82044857D01*
X168198571Y-82140095D01*
X168150952Y-82235333D01*
X168103333Y-82282952D01*
X168008095Y-82330571D01*
X167674761Y-82330571D01*
X169246190Y-82854380D02*
X168912857Y-82378190D01*
X168674761Y-82854380D02*
X168674761Y-81854380D01*
X169055714Y-81854380D01*
X169150952Y-81902000D01*
X169198571Y-81949619D01*
X169246190Y-82044857D01*
X169246190Y-82187714D01*
X169198571Y-82282952D01*
X169150952Y-82330571D01*
X169055714Y-82378190D01*
X168674761Y-82378190D01*
X169865238Y-81854380D02*
X169960476Y-81854380D01*
X170055714Y-81902000D01*
X170103333Y-81949619D01*
X170150952Y-82044857D01*
X170198571Y-82235333D01*
X170198571Y-82473428D01*
X170150952Y-82663904D01*
X170103333Y-82759142D01*
X170055714Y-82806761D01*
X169960476Y-82854380D01*
X169865238Y-82854380D01*
X169770000Y-82806761D01*
X169722380Y-82759142D01*
X169674761Y-82663904D01*
X169627142Y-82473428D01*
X169627142Y-82235333D01*
X169674761Y-82044857D01*
X169722380Y-81949619D01*
X169770000Y-81902000D01*
X169865238Y-81854380D01*
X171103333Y-81854380D02*
X170627142Y-81854380D01*
X170579523Y-82330571D01*
X170627142Y-82282952D01*
X170722380Y-82235333D01*
X170960476Y-82235333D01*
X171055714Y-82282952D01*
X171103333Y-82330571D01*
X171150952Y-82425809D01*
X171150952Y-82663904D01*
X171103333Y-82759142D01*
X171055714Y-82806761D01*
X170960476Y-82854380D01*
X170722380Y-82854380D01*
X170627142Y-82806761D01*
X170579523Y-82759142D01*
X171484285Y-81854380D02*
X172103333Y-81854380D01*
X171770000Y-82235333D01*
X171912857Y-82235333D01*
X172008095Y-82282952D01*
X172055714Y-82330571D01*
X172103333Y-82425809D01*
X172103333Y-82663904D01*
X172055714Y-82759142D01*
X172008095Y-82806761D01*
X171912857Y-82854380D01*
X171627142Y-82854380D01*
X171531904Y-82806761D01*
X171484285Y-82759142D01*
X172722380Y-81854380D02*
X172817619Y-81854380D01*
X172912857Y-81902000D01*
X172960476Y-81949619D01*
X173008095Y-82044857D01*
X173055714Y-82235333D01*
X173055714Y-82473428D01*
X173008095Y-82663904D01*
X172960476Y-82759142D01*
X172912857Y-82806761D01*
X172817619Y-82854380D01*
X172722380Y-82854380D01*
X172627142Y-82806761D01*
X172579523Y-82759142D01*
X172531904Y-82663904D01*
X172484285Y-82473428D01*
X172484285Y-82235333D01*
X172531904Y-82044857D01*
X172579523Y-81949619D01*
X172627142Y-81902000D01*
X172722380Y-81854380D01*
X168555714Y-86954380D02*
X168555714Y-85954380D01*
X168793809Y-85954380D01*
X168936666Y-86002000D01*
X169031904Y-86097238D01*
X169079523Y-86192476D01*
X169127142Y-86382952D01*
X169127142Y-86525809D01*
X169079523Y-86716285D01*
X169031904Y-86811523D01*
X168936666Y-86906761D01*
X168793809Y-86954380D01*
X168555714Y-86954380D01*
X170079523Y-86954380D02*
X169508095Y-86954380D01*
X169793809Y-86954380D02*
X169793809Y-85954380D01*
X169698571Y-86097238D01*
X169603333Y-86192476D01*
X169508095Y-86240095D01*
X170412857Y-85954380D02*
X171079523Y-85954380D01*
X170650952Y-86954380D01*
%TO.C,J8*%
X105222915Y-105719106D02*
X105727991Y-106224182D01*
X105795335Y-106358869D01*
X105795335Y-106493556D01*
X105727991Y-106628243D01*
X105660648Y-106695586D01*
X106367755Y-105988480D02*
X106266739Y-106022151D01*
X106199396Y-106022151D01*
X106098381Y-105988480D01*
X105896350Y-105786449D01*
X105862678Y-105685434D01*
X105862678Y-105618090D01*
X105896350Y-105517075D01*
X105997365Y-105416060D01*
X106098381Y-105382388D01*
X106165724Y-105382388D01*
X106266739Y-105416060D01*
X106468770Y-105618090D01*
X106502442Y-105719106D01*
X106502442Y-105786449D01*
X106468770Y-105887464D01*
X106367755Y-105988480D01*
X106367755Y-105045671D02*
X107007518Y-105348716D01*
X106704472Y-104708953D02*
X107007518Y-105348716D01*
X107108533Y-105584419D01*
X107108533Y-105651762D01*
X107074861Y-105752777D01*
X107377907Y-104910984D02*
X107478923Y-104877312D01*
X107613610Y-104742625D01*
X107647281Y-104641610D01*
X107613610Y-104540594D01*
X107579938Y-104506923D01*
X107478923Y-104473251D01*
X107377907Y-104506923D01*
X107276892Y-104607938D01*
X107175877Y-104641610D01*
X107074861Y-104607938D01*
X107041190Y-104574266D01*
X107007518Y-104473251D01*
X107041190Y-104372236D01*
X107142205Y-104271220D01*
X107243220Y-104237548D01*
X107445251Y-103968174D02*
X107714625Y-103698800D01*
X107310564Y-103631457D02*
X107916655Y-104237548D01*
X108017671Y-104271220D01*
X108118686Y-104237548D01*
X108186029Y-104170205D01*
X108421732Y-103934503D02*
X107950327Y-103463098D01*
X107714625Y-103227396D02*
X107714625Y-103294739D01*
X107781968Y-103294739D01*
X107781968Y-103227396D01*
X107714625Y-103227396D01*
X107781968Y-103294739D01*
X109027823Y-103261068D02*
X108994151Y-103362083D01*
X108859464Y-103496770D01*
X108758449Y-103530442D01*
X108691106Y-103530442D01*
X108590090Y-103496770D01*
X108388060Y-103294739D01*
X108354388Y-103193724D01*
X108354388Y-103126381D01*
X108388060Y-103025365D01*
X108522747Y-102890678D01*
X108623762Y-102857007D01*
X109364541Y-102991694D02*
X108657434Y-102284587D01*
X109162510Y-102654976D02*
X109633915Y-102722320D01*
X109162510Y-102250915D02*
X109162510Y-102789663D01*
X112735420Y-108988970D02*
X112230344Y-109494046D01*
X112095657Y-109561390D01*
X111960970Y-109561390D01*
X111826283Y-109494046D01*
X111758940Y-109426703D01*
X112870107Y-109729749D02*
X112836436Y-109628733D01*
X112836436Y-109561390D01*
X112870107Y-109460375D01*
X112903779Y-109426703D01*
X113004794Y-109393031D01*
X113072138Y-109393031D01*
X113173153Y-109426703D01*
X113307840Y-109561390D01*
X113341512Y-109662405D01*
X113341512Y-109729749D01*
X113307840Y-109830764D01*
X113274168Y-109864436D01*
X113173153Y-109898107D01*
X113105810Y-109898107D01*
X113004794Y-109864436D01*
X112870107Y-109729749D01*
X112769092Y-109696077D01*
X112701749Y-109696077D01*
X112600733Y-109729749D01*
X112466046Y-109864436D01*
X112432375Y-109965451D01*
X112432375Y-110032794D01*
X112466046Y-110133810D01*
X112600733Y-110268497D01*
X112701749Y-110302168D01*
X112769092Y-110302168D01*
X112870107Y-110268497D01*
X113004794Y-110133810D01*
X113038466Y-110032794D01*
X113038466Y-109965451D01*
X113004794Y-109864436D01*
%TO.C,J1*%
X167234380Y-95669904D02*
X168043904Y-95669904D01*
X168139142Y-95622285D01*
X168186761Y-95574666D01*
X168234380Y-95479428D01*
X168234380Y-95288952D01*
X168186761Y-95193714D01*
X168139142Y-95146095D01*
X168043904Y-95098476D01*
X167234380Y-95098476D01*
X168186761Y-94669904D02*
X168234380Y-94527047D01*
X168234380Y-94288952D01*
X168186761Y-94193714D01*
X168139142Y-94146095D01*
X168043904Y-94098476D01*
X167948666Y-94098476D01*
X167853428Y-94146095D01*
X167805809Y-94193714D01*
X167758190Y-94288952D01*
X167710571Y-94479428D01*
X167662952Y-94574666D01*
X167615333Y-94622285D01*
X167520095Y-94669904D01*
X167424857Y-94669904D01*
X167329619Y-94622285D01*
X167282000Y-94574666D01*
X167234380Y-94479428D01*
X167234380Y-94241333D01*
X167282000Y-94098476D01*
X167710571Y-93336571D02*
X167758190Y-93193714D01*
X167805809Y-93146095D01*
X167901047Y-93098476D01*
X168043904Y-93098476D01*
X168139142Y-93146095D01*
X168186761Y-93193714D01*
X168234380Y-93288952D01*
X168234380Y-93669904D01*
X167234380Y-93669904D01*
X167234380Y-93336571D01*
X167282000Y-93241333D01*
X167329619Y-93193714D01*
X167424857Y-93146095D01*
X167520095Y-93146095D01*
X167615333Y-93193714D01*
X167662952Y-93241333D01*
X167710571Y-93336571D01*
X167710571Y-93669904D01*
X161308666Y-93860380D02*
X161308666Y-94574666D01*
X161261047Y-94717523D01*
X161165809Y-94812761D01*
X161022952Y-94860380D01*
X160927714Y-94860380D01*
X162308666Y-94860380D02*
X161737238Y-94860380D01*
X162022952Y-94860380D02*
X162022952Y-93860380D01*
X161927714Y-94003238D01*
X161832476Y-94098476D01*
X161737238Y-94146095D01*
%TO.C,R25*%
X218196761Y-88638380D02*
X217625333Y-88638380D01*
X217911047Y-88638380D02*
X217911047Y-87638380D01*
X217815809Y-87781238D01*
X217720571Y-87876476D01*
X217625333Y-87924095D01*
X218815809Y-87638380D02*
X218911047Y-87638380D01*
X219006285Y-87686000D01*
X219053904Y-87733619D01*
X219101523Y-87828857D01*
X219149142Y-88019333D01*
X219149142Y-88257428D01*
X219101523Y-88447904D01*
X219053904Y-88543142D01*
X219006285Y-88590761D01*
X218911047Y-88638380D01*
X218815809Y-88638380D01*
X218720571Y-88590761D01*
X218672952Y-88543142D01*
X218625333Y-88447904D01*
X218577714Y-88257428D01*
X218577714Y-88019333D01*
X218625333Y-87828857D01*
X218672952Y-87733619D01*
X218720571Y-87686000D01*
X218815809Y-87638380D01*
X219577714Y-88638380D02*
X219577714Y-87638380D01*
X219672952Y-88257428D02*
X219958666Y-88638380D01*
X219958666Y-87971714D02*
X219577714Y-88352666D01*
D12*
X218470571Y-90062190D02*
X218303904Y-89824095D01*
X218184857Y-90062190D02*
X218184857Y-89562190D01*
X218375333Y-89562190D01*
X218422952Y-89586000D01*
X218446761Y-89609809D01*
X218470571Y-89657428D01*
X218470571Y-89728857D01*
X218446761Y-89776476D01*
X218422952Y-89800285D01*
X218375333Y-89824095D01*
X218184857Y-89824095D01*
X218661047Y-89609809D02*
X218684857Y-89586000D01*
X218732476Y-89562190D01*
X218851523Y-89562190D01*
X218899142Y-89586000D01*
X218922952Y-89609809D01*
X218946761Y-89657428D01*
X218946761Y-89705047D01*
X218922952Y-89776476D01*
X218637238Y-90062190D01*
X218946761Y-90062190D01*
X219399142Y-89562190D02*
X219161047Y-89562190D01*
X219137238Y-89800285D01*
X219161047Y-89776476D01*
X219208666Y-89752666D01*
X219327714Y-89752666D01*
X219375333Y-89776476D01*
X219399142Y-89800285D01*
X219422952Y-89847904D01*
X219422952Y-89966952D01*
X219399142Y-90014571D01*
X219375333Y-90038380D01*
X219327714Y-90062190D01*
X219208666Y-90062190D01*
X219161047Y-90038380D01*
X219137238Y-90014571D01*
%TO.C,R24*%
D11*
X213624761Y-91938380D02*
X213053333Y-91938380D01*
X213339047Y-91938380D02*
X213339047Y-90938380D01*
X213243809Y-91081238D01*
X213148571Y-91176476D01*
X213053333Y-91224095D01*
X214243809Y-90938380D02*
X214339047Y-90938380D01*
X214434285Y-90986000D01*
X214481904Y-91033619D01*
X214529523Y-91128857D01*
X214577142Y-91319333D01*
X214577142Y-91557428D01*
X214529523Y-91747904D01*
X214481904Y-91843142D01*
X214434285Y-91890761D01*
X214339047Y-91938380D01*
X214243809Y-91938380D01*
X214148571Y-91890761D01*
X214100952Y-91843142D01*
X214053333Y-91747904D01*
X214005714Y-91557428D01*
X214005714Y-91319333D01*
X214053333Y-91128857D01*
X214100952Y-91033619D01*
X214148571Y-90986000D01*
X214243809Y-90938380D01*
X215005714Y-91938380D02*
X215005714Y-90938380D01*
X215100952Y-91557428D02*
X215386666Y-91938380D01*
X215386666Y-91271714D02*
X215005714Y-91652666D01*
D12*
X213898571Y-90062190D02*
X213731904Y-89824095D01*
X213612857Y-90062190D02*
X213612857Y-89562190D01*
X213803333Y-89562190D01*
X213850952Y-89586000D01*
X213874761Y-89609809D01*
X213898571Y-89657428D01*
X213898571Y-89728857D01*
X213874761Y-89776476D01*
X213850952Y-89800285D01*
X213803333Y-89824095D01*
X213612857Y-89824095D01*
X214089047Y-89609809D02*
X214112857Y-89586000D01*
X214160476Y-89562190D01*
X214279523Y-89562190D01*
X214327142Y-89586000D01*
X214350952Y-89609809D01*
X214374761Y-89657428D01*
X214374761Y-89705047D01*
X214350952Y-89776476D01*
X214065238Y-90062190D01*
X214374761Y-90062190D01*
X214803333Y-89728857D02*
X214803333Y-90062190D01*
X214684285Y-89538380D02*
X214565238Y-89895523D01*
X214874761Y-89895523D01*
%TO.C,R16*%
D11*
X138187714Y-98749714D02*
X138854380Y-98749714D01*
X137806761Y-98987809D02*
X138521047Y-99225904D01*
X138521047Y-98606857D01*
X138854380Y-98225904D02*
X137854380Y-98225904D01*
X138854380Y-97654476D02*
X138282952Y-98083047D01*
X137854380Y-97654476D02*
X138425809Y-98225904D01*
X137854380Y-97321142D02*
X137854380Y-96654476D01*
X138854380Y-97083047D01*
D12*
X140278190Y-98285428D02*
X140040095Y-98452095D01*
X140278190Y-98571142D02*
X139778190Y-98571142D01*
X139778190Y-98380666D01*
X139802000Y-98333047D01*
X139825809Y-98309238D01*
X139873428Y-98285428D01*
X139944857Y-98285428D01*
X139992476Y-98309238D01*
X140016285Y-98333047D01*
X140040095Y-98380666D01*
X140040095Y-98571142D01*
X140278190Y-97809238D02*
X140278190Y-98094952D01*
X140278190Y-97952095D02*
X139778190Y-97952095D01*
X139849619Y-97999714D01*
X139897238Y-98047333D01*
X139921047Y-98094952D01*
X139778190Y-97380666D02*
X139778190Y-97475904D01*
X139802000Y-97523523D01*
X139825809Y-97547333D01*
X139897238Y-97594952D01*
X139992476Y-97618761D01*
X140182952Y-97618761D01*
X140230571Y-97594952D01*
X140254380Y-97571142D01*
X140278190Y-97523523D01*
X140278190Y-97428285D01*
X140254380Y-97380666D01*
X140230571Y-97356857D01*
X140182952Y-97333047D01*
X140063904Y-97333047D01*
X140016285Y-97356857D01*
X139992476Y-97380666D01*
X139968666Y-97428285D01*
X139968666Y-97523523D01*
X139992476Y-97571142D01*
X140016285Y-97594952D01*
X140063904Y-97618761D01*
%TO.C,R15*%
D11*
X135647714Y-97225714D02*
X136314380Y-97225714D01*
X135266761Y-97463809D02*
X135981047Y-97701904D01*
X135981047Y-97082857D01*
X136314380Y-96701904D02*
X135314380Y-96701904D01*
X136314380Y-96130476D02*
X135742952Y-96559047D01*
X135314380Y-96130476D02*
X135885809Y-96701904D01*
X135314380Y-95797142D02*
X135314380Y-95130476D01*
X136314380Y-95559047D01*
D12*
X137738190Y-96761428D02*
X137500095Y-96928095D01*
X137738190Y-97047142D02*
X137238190Y-97047142D01*
X137238190Y-96856666D01*
X137262000Y-96809047D01*
X137285809Y-96785238D01*
X137333428Y-96761428D01*
X137404857Y-96761428D01*
X137452476Y-96785238D01*
X137476285Y-96809047D01*
X137500095Y-96856666D01*
X137500095Y-97047142D01*
X137738190Y-96285238D02*
X137738190Y-96570952D01*
X137738190Y-96428095D02*
X137238190Y-96428095D01*
X137309619Y-96475714D01*
X137357238Y-96523333D01*
X137381047Y-96570952D01*
X137238190Y-95832857D02*
X137238190Y-96070952D01*
X137476285Y-96094761D01*
X137452476Y-96070952D01*
X137428666Y-96023333D01*
X137428666Y-95904285D01*
X137452476Y-95856666D01*
X137476285Y-95832857D01*
X137523904Y-95809047D01*
X137642952Y-95809047D01*
X137690571Y-95832857D01*
X137714380Y-95856666D01*
X137738190Y-95904285D01*
X137738190Y-96023333D01*
X137714380Y-96070952D01*
X137690571Y-96094761D01*
%TO.C,R12*%
D11*
X122185714Y-102305714D02*
X122852380Y-102305714D01*
X121804761Y-102543809D02*
X122519047Y-102781904D01*
X122519047Y-102162857D01*
X122852380Y-101781904D02*
X121852380Y-101781904D01*
X122852380Y-101210476D02*
X122280952Y-101639047D01*
X121852380Y-101210476D02*
X122423809Y-101781904D01*
X121852380Y-100877142D02*
X121852380Y-100210476D01*
X122852380Y-100639047D01*
D12*
X124276190Y-101841428D02*
X124038095Y-102008095D01*
X124276190Y-102127142D02*
X123776190Y-102127142D01*
X123776190Y-101936666D01*
X123800000Y-101889047D01*
X123823809Y-101865238D01*
X123871428Y-101841428D01*
X123942857Y-101841428D01*
X123990476Y-101865238D01*
X124014285Y-101889047D01*
X124038095Y-101936666D01*
X124038095Y-102127142D01*
X124276190Y-101365238D02*
X124276190Y-101650952D01*
X124276190Y-101508095D02*
X123776190Y-101508095D01*
X123847619Y-101555714D01*
X123895238Y-101603333D01*
X123919047Y-101650952D01*
X123823809Y-101174761D02*
X123800000Y-101150952D01*
X123776190Y-101103333D01*
X123776190Y-100984285D01*
X123800000Y-100936666D01*
X123823809Y-100912857D01*
X123871428Y-100889047D01*
X123919047Y-100889047D01*
X123990476Y-100912857D01*
X124276190Y-101198571D01*
X124276190Y-100889047D01*
%TO.C,R10*%
D11*
X119137714Y-102305714D02*
X119804380Y-102305714D01*
X118756761Y-102543809D02*
X119471047Y-102781904D01*
X119471047Y-102162857D01*
X119804380Y-101781904D02*
X118804380Y-101781904D01*
X119804380Y-101210476D02*
X119232952Y-101639047D01*
X118804380Y-101210476D02*
X119375809Y-101781904D01*
X118804380Y-100877142D02*
X118804380Y-100210476D01*
X119804380Y-100639047D01*
D12*
X121228190Y-101841428D02*
X120990095Y-102008095D01*
X121228190Y-102127142D02*
X120728190Y-102127142D01*
X120728190Y-101936666D01*
X120752000Y-101889047D01*
X120775809Y-101865238D01*
X120823428Y-101841428D01*
X120894857Y-101841428D01*
X120942476Y-101865238D01*
X120966285Y-101889047D01*
X120990095Y-101936666D01*
X120990095Y-102127142D01*
X121228190Y-101365238D02*
X121228190Y-101650952D01*
X121228190Y-101508095D02*
X120728190Y-101508095D01*
X120799619Y-101555714D01*
X120847238Y-101603333D01*
X120871047Y-101650952D01*
X120728190Y-101055714D02*
X120728190Y-101008095D01*
X120752000Y-100960476D01*
X120775809Y-100936666D01*
X120823428Y-100912857D01*
X120918666Y-100889047D01*
X121037714Y-100889047D01*
X121132952Y-100912857D01*
X121180571Y-100936666D01*
X121204380Y-100960476D01*
X121228190Y-101008095D01*
X121228190Y-101055714D01*
X121204380Y-101103333D01*
X121180571Y-101127142D01*
X121132952Y-101150952D01*
X121037714Y-101174761D01*
X120918666Y-101174761D01*
X120823428Y-101150952D01*
X120775809Y-101127142D01*
X120752000Y-101103333D01*
X120728190Y-101055714D01*
%TO.C,PWR2*%
D11*
X75681588Y-113713121D02*
X75290857Y-112792616D01*
X75641525Y-112643766D01*
X75747799Y-112650387D01*
X75810239Y-112675615D01*
X75891285Y-112744676D01*
X75947103Y-112876176D01*
X75940482Y-112982450D01*
X75915255Y-113044890D01*
X75846194Y-113125936D01*
X75495526Y-113274786D01*
X76123695Y-112439098D02*
X76733594Y-113266571D01*
X76629834Y-112534643D01*
X77084262Y-113117721D01*
X76912699Y-112104185D01*
X78180101Y-112652565D02*
X77687204Y-112344473D01*
X77654098Y-112875840D02*
X77263367Y-111955335D01*
X77614036Y-111806485D01*
X77720309Y-111813106D01*
X77782749Y-111838334D01*
X77863795Y-111907395D01*
X77919614Y-112038895D01*
X77912993Y-112145169D01*
X77887765Y-112207609D01*
X77818704Y-112288655D01*
X77468036Y-112437505D01*
X78478516Y-113914367D02*
X79399021Y-113523636D01*
X79547871Y-113874305D01*
X79541250Y-113980578D01*
X79516023Y-114043018D01*
X79446962Y-114124064D01*
X79315461Y-114179883D01*
X79209188Y-114173262D01*
X79146748Y-114148034D01*
X79065702Y-114078973D01*
X78916852Y-113728305D01*
X79752540Y-114356474D02*
X78925066Y-114966373D01*
X79656995Y-114862614D01*
X79073916Y-115317041D01*
X80087452Y-115145478D01*
X79539072Y-116412881D02*
X79847164Y-115919983D01*
X79315797Y-115886878D02*
X80236302Y-115496147D01*
X80385152Y-115846815D01*
X80378531Y-115953089D01*
X80353304Y-116015528D01*
X80284243Y-116096574D01*
X80152742Y-116152393D01*
X80046469Y-116145772D01*
X79984029Y-116120545D01*
X79902983Y-116051484D01*
X79754133Y-115700815D01*
X80520760Y-116410030D02*
X80583200Y-116435258D01*
X80664246Y-116504319D01*
X80757277Y-116723486D01*
X80750656Y-116829760D01*
X80725429Y-116892200D01*
X80656368Y-116973246D01*
X80568701Y-117010458D01*
X80418594Y-117022443D01*
X79669316Y-116719715D01*
X79911197Y-117289552D01*
%TO.C,J7*%
X132979809Y-102902380D02*
X132979809Y-101902380D01*
X133408380Y-101997619D02*
X133456000Y-101950000D01*
X133551238Y-101902380D01*
X133789333Y-101902380D01*
X133884571Y-101950000D01*
X133932190Y-101997619D01*
X133979809Y-102092857D01*
X133979809Y-102188095D01*
X133932190Y-102330952D01*
X133360761Y-102902380D01*
X133979809Y-102902380D01*
X134979809Y-102807142D02*
X134932190Y-102854761D01*
X134789333Y-102902380D01*
X134694095Y-102902380D01*
X134551238Y-102854761D01*
X134456000Y-102759523D01*
X134408380Y-102664285D01*
X134360761Y-102473809D01*
X134360761Y-102330952D01*
X134408380Y-102140476D01*
X134456000Y-102045238D01*
X134551238Y-101950000D01*
X134694095Y-101902380D01*
X134789333Y-101902380D01*
X134932190Y-101950000D01*
X134979809Y-101997619D01*
X133408380Y-96643333D02*
X134122666Y-96643333D01*
X134265523Y-96690952D01*
X134360761Y-96786190D01*
X134408380Y-96929047D01*
X134408380Y-97024285D01*
X133408380Y-96262380D02*
X133408380Y-95595714D01*
X134408380Y-96024285D01*
%TO.C,J6*%
X116215809Y-107982380D02*
X116215809Y-106982380D01*
X116644380Y-107077619D02*
X116692000Y-107030000D01*
X116787238Y-106982380D01*
X117025333Y-106982380D01*
X117120571Y-107030000D01*
X117168190Y-107077619D01*
X117215809Y-107172857D01*
X117215809Y-107268095D01*
X117168190Y-107410952D01*
X116596761Y-107982380D01*
X117215809Y-107982380D01*
X118215809Y-107887142D02*
X118168190Y-107934761D01*
X118025333Y-107982380D01*
X117930095Y-107982380D01*
X117787238Y-107934761D01*
X117692000Y-107839523D01*
X117644380Y-107744285D01*
X117596761Y-107553809D01*
X117596761Y-107410952D01*
X117644380Y-107220476D01*
X117692000Y-107125238D01*
X117787238Y-107030000D01*
X117930095Y-106982380D01*
X118025333Y-106982380D01*
X118168190Y-107030000D01*
X118215809Y-107077619D01*
X116644380Y-99183333D02*
X117358666Y-99183333D01*
X117501523Y-99230952D01*
X117596761Y-99326190D01*
X117644380Y-99469047D01*
X117644380Y-99564285D01*
X116644380Y-98278571D02*
X116644380Y-98469047D01*
X116692000Y-98564285D01*
X116739619Y-98611904D01*
X116882476Y-98707142D01*
X117072952Y-98754761D01*
X117453904Y-98754761D01*
X117549142Y-98707142D01*
X117596761Y-98659523D01*
X117644380Y-98564285D01*
X117644380Y-98373809D01*
X117596761Y-98278571D01*
X117549142Y-98230952D01*
X117453904Y-98183333D01*
X117215809Y-98183333D01*
X117120571Y-98230952D01*
X117072952Y-98278571D01*
X117025333Y-98373809D01*
X117025333Y-98564285D01*
X117072952Y-98659523D01*
X117120571Y-98707142D01*
X117215809Y-98754761D01*
%TO.C,C13*%
X124120380Y-96209619D02*
X124120380Y-96781047D01*
X124120380Y-96495333D02*
X123120380Y-96495333D01*
X123263238Y-96590571D01*
X123358476Y-96685809D01*
X123406095Y-96781047D01*
X123120380Y-95590571D02*
X123120380Y-95495333D01*
X123168000Y-95400095D01*
X123215619Y-95352476D01*
X123310857Y-95304857D01*
X123501333Y-95257238D01*
X123739428Y-95257238D01*
X123929904Y-95304857D01*
X124025142Y-95352476D01*
X124072761Y-95400095D01*
X124120380Y-95495333D01*
X124120380Y-95590571D01*
X124072761Y-95685809D01*
X124025142Y-95733428D01*
X123929904Y-95781047D01*
X123739428Y-95828666D01*
X123501333Y-95828666D01*
X123310857Y-95781047D01*
X123215619Y-95733428D01*
X123168000Y-95685809D01*
X123120380Y-95590571D01*
X123120380Y-94638190D02*
X123120380Y-94542952D01*
X123168000Y-94447714D01*
X123215619Y-94400095D01*
X123310857Y-94352476D01*
X123501333Y-94304857D01*
X123739428Y-94304857D01*
X123929904Y-94352476D01*
X124025142Y-94400095D01*
X124072761Y-94447714D01*
X124120380Y-94542952D01*
X124120380Y-94638190D01*
X124072761Y-94733428D01*
X124025142Y-94781047D01*
X123929904Y-94828666D01*
X123739428Y-94876285D01*
X123501333Y-94876285D01*
X123310857Y-94828666D01*
X123215619Y-94781047D01*
X123168000Y-94733428D01*
X123120380Y-94638190D01*
X123453714Y-93876285D02*
X124120380Y-93876285D01*
X123548952Y-93876285D02*
X123501333Y-93828666D01*
X123453714Y-93733428D01*
X123453714Y-93590571D01*
X123501333Y-93495333D01*
X123596571Y-93447714D01*
X124120380Y-93447714D01*
X123596571Y-92638190D02*
X123596571Y-92971523D01*
X124120380Y-92971523D02*
X123120380Y-92971523D01*
X123120380Y-92495333D01*
D12*
X122196571Y-94983428D02*
X122220380Y-95007238D01*
X122244190Y-95078666D01*
X122244190Y-95126285D01*
X122220380Y-95197714D01*
X122172761Y-95245333D01*
X122125142Y-95269142D01*
X122029904Y-95292952D01*
X121958476Y-95292952D01*
X121863238Y-95269142D01*
X121815619Y-95245333D01*
X121768000Y-95197714D01*
X121744190Y-95126285D01*
X121744190Y-95078666D01*
X121768000Y-95007238D01*
X121791809Y-94983428D01*
X122244190Y-94507238D02*
X122244190Y-94792952D01*
X122244190Y-94650095D02*
X121744190Y-94650095D01*
X121815619Y-94697714D01*
X121863238Y-94745333D01*
X121887047Y-94792952D01*
X121744190Y-94340571D02*
X121744190Y-94031047D01*
X121934666Y-94197714D01*
X121934666Y-94126285D01*
X121958476Y-94078666D01*
X121982285Y-94054857D01*
X122029904Y-94031047D01*
X122148952Y-94031047D01*
X122196571Y-94054857D01*
X122220380Y-94078666D01*
X122244190Y-94126285D01*
X122244190Y-94269142D01*
X122220380Y-94316761D01*
X122196571Y-94340571D01*
%TO.C,R8*%
D11*
X179508380Y-102115333D02*
X179508380Y-101496285D01*
X179889333Y-101829619D01*
X179889333Y-101686761D01*
X179936952Y-101591523D01*
X179984571Y-101543904D01*
X180079809Y-101496285D01*
X180317904Y-101496285D01*
X180413142Y-101543904D01*
X180460761Y-101591523D01*
X180508380Y-101686761D01*
X180508380Y-101972476D01*
X180460761Y-102067714D01*
X180413142Y-102115333D01*
X180508380Y-100496285D02*
X180032190Y-100829619D01*
X180508380Y-101067714D02*
X179508380Y-101067714D01*
X179508380Y-100686761D01*
X179556000Y-100591523D01*
X179603619Y-100543904D01*
X179698857Y-100496285D01*
X179841714Y-100496285D01*
X179936952Y-100543904D01*
X179984571Y-100591523D01*
X180032190Y-100686761D01*
X180032190Y-101067714D01*
D12*
X178632190Y-101365333D02*
X178394095Y-101532000D01*
X178632190Y-101651047D02*
X178132190Y-101651047D01*
X178132190Y-101460571D01*
X178156000Y-101412952D01*
X178179809Y-101389142D01*
X178227428Y-101365333D01*
X178298857Y-101365333D01*
X178346476Y-101389142D01*
X178370285Y-101412952D01*
X178394095Y-101460571D01*
X178394095Y-101651047D01*
X178346476Y-101079619D02*
X178322666Y-101127238D01*
X178298857Y-101151047D01*
X178251238Y-101174857D01*
X178227428Y-101174857D01*
X178179809Y-101151047D01*
X178156000Y-101127238D01*
X178132190Y-101079619D01*
X178132190Y-100984380D01*
X178156000Y-100936761D01*
X178179809Y-100912952D01*
X178227428Y-100889142D01*
X178251238Y-100889142D01*
X178298857Y-100912952D01*
X178322666Y-100936761D01*
X178346476Y-100984380D01*
X178346476Y-101079619D01*
X178370285Y-101127238D01*
X178394095Y-101151047D01*
X178441714Y-101174857D01*
X178536952Y-101174857D01*
X178584571Y-101151047D01*
X178608380Y-101127238D01*
X178632190Y-101079619D01*
X178632190Y-100984380D01*
X178608380Y-100936761D01*
X178584571Y-100912952D01*
X178536952Y-100889142D01*
X178441714Y-100889142D01*
X178394095Y-100912952D01*
X178370285Y-100936761D01*
X178346476Y-100984380D01*
%TO.C,JP1*%
D11*
X172485523Y-99316380D02*
X172485523Y-100030666D01*
X172437904Y-100173523D01*
X172342666Y-100268761D01*
X172199809Y-100316380D01*
X172104571Y-100316380D01*
X173390285Y-99649714D02*
X173390285Y-100316380D01*
X172961714Y-99649714D02*
X172961714Y-100173523D01*
X173009333Y-100268761D01*
X173104571Y-100316380D01*
X173247428Y-100316380D01*
X173342666Y-100268761D01*
X173390285Y-100221142D01*
X173866476Y-100316380D02*
X173866476Y-99649714D01*
X173866476Y-99744952D02*
X173914095Y-99697333D01*
X174009333Y-99649714D01*
X174152190Y-99649714D01*
X174247428Y-99697333D01*
X174295047Y-99792571D01*
X174295047Y-100316380D01*
X174295047Y-99792571D02*
X174342666Y-99697333D01*
X174437904Y-99649714D01*
X174580761Y-99649714D01*
X174676000Y-99697333D01*
X174723619Y-99792571D01*
X174723619Y-100316380D01*
X175199809Y-99649714D02*
X175199809Y-100649714D01*
X175199809Y-99697333D02*
X175295047Y-99649714D01*
X175485523Y-99649714D01*
X175580761Y-99697333D01*
X175628380Y-99744952D01*
X175676000Y-99840190D01*
X175676000Y-100125904D01*
X175628380Y-100221142D01*
X175580761Y-100268761D01*
X175485523Y-100316380D01*
X175295047Y-100316380D01*
X175199809Y-100268761D01*
X176485523Y-100268761D02*
X176390285Y-100316380D01*
X176199809Y-100316380D01*
X176104571Y-100268761D01*
X176056952Y-100173523D01*
X176056952Y-99792571D01*
X176104571Y-99697333D01*
X176199809Y-99649714D01*
X176390285Y-99649714D01*
X176485523Y-99697333D01*
X176533142Y-99792571D01*
X176533142Y-99887809D01*
X176056952Y-99983047D01*
X176961714Y-100316380D02*
X176961714Y-99649714D01*
X176961714Y-99840190D02*
X177009333Y-99744952D01*
X177056952Y-99697333D01*
X177152190Y-99649714D01*
X177247428Y-99649714D01*
X177342666Y-100411619D02*
X178104571Y-100411619D01*
X178247428Y-99316380D02*
X178866476Y-99316380D01*
X178533142Y-99697333D01*
X178676000Y-99697333D01*
X178771238Y-99744952D01*
X178818857Y-99792571D01*
X178866476Y-99887809D01*
X178866476Y-100125904D01*
X178818857Y-100221142D01*
X178771238Y-100268761D01*
X178676000Y-100316380D01*
X178390285Y-100316380D01*
X178295047Y-100268761D01*
X178247428Y-100221142D01*
X179056952Y-100411619D02*
X179818857Y-100411619D01*
X180390285Y-99792571D02*
X180533142Y-99840190D01*
X180580761Y-99887809D01*
X180628380Y-99983047D01*
X180628380Y-100125904D01*
X180580761Y-100221142D01*
X180533142Y-100268761D01*
X180437904Y-100316380D01*
X180056952Y-100316380D01*
X180056952Y-99316380D01*
X180390285Y-99316380D01*
X180485523Y-99364000D01*
X180533142Y-99411619D01*
X180580761Y-99506857D01*
X180580761Y-99602095D01*
X180533142Y-99697333D01*
X180485523Y-99744952D01*
X180390285Y-99792571D01*
X180056952Y-99792571D01*
X181056952Y-100316380D02*
X181056952Y-99649714D01*
X181056952Y-99840190D02*
X181104571Y-99744952D01*
X181152190Y-99697333D01*
X181247428Y-99649714D01*
X181342666Y-99649714D01*
X181676000Y-100316380D02*
X181676000Y-99649714D01*
X181676000Y-99316380D02*
X181628380Y-99364000D01*
X181676000Y-99411619D01*
X181723619Y-99364000D01*
X181676000Y-99316380D01*
X181676000Y-99411619D01*
X182580761Y-100316380D02*
X182580761Y-99316380D01*
X182580761Y-100268761D02*
X182485523Y-100316380D01*
X182295047Y-100316380D01*
X182199809Y-100268761D01*
X182152190Y-100221142D01*
X182104571Y-100125904D01*
X182104571Y-99840190D01*
X182152190Y-99744952D01*
X182199809Y-99697333D01*
X182295047Y-99649714D01*
X182485523Y-99649714D01*
X182580761Y-99697333D01*
X183485523Y-99649714D02*
X183485523Y-100459238D01*
X183437904Y-100554476D01*
X183390285Y-100602095D01*
X183295047Y-100649714D01*
X183152190Y-100649714D01*
X183056952Y-100602095D01*
X183485523Y-100268761D02*
X183390285Y-100316380D01*
X183199809Y-100316380D01*
X183104571Y-100268761D01*
X183056952Y-100221142D01*
X183009333Y-100125904D01*
X183009333Y-99840190D01*
X183056952Y-99744952D01*
X183104571Y-99697333D01*
X183199809Y-99649714D01*
X183390285Y-99649714D01*
X183485523Y-99697333D01*
X184342666Y-100268761D02*
X184247428Y-100316380D01*
X184056952Y-100316380D01*
X183961714Y-100268761D01*
X183914095Y-100173523D01*
X183914095Y-99792571D01*
X183961714Y-99697333D01*
X184056952Y-99649714D01*
X184247428Y-99649714D01*
X184342666Y-99697333D01*
X184390285Y-99792571D01*
X184390285Y-99887809D01*
X183914095Y-99983047D01*
X185247428Y-100316380D02*
X185247428Y-99316380D01*
X185247428Y-100268761D02*
X185152190Y-100316380D01*
X184961714Y-100316380D01*
X184866476Y-100268761D01*
X184818857Y-100221142D01*
X184771238Y-100125904D01*
X184771238Y-99840190D01*
X184818857Y-99744952D01*
X184866476Y-99697333D01*
X184961714Y-99649714D01*
X185152190Y-99649714D01*
X185247428Y-99697333D01*
X186247428Y-100316380D02*
X185676000Y-100316380D01*
X185961714Y-100316380D02*
X185961714Y-99316380D01*
X185866476Y-99459238D01*
X185771238Y-99554476D01*
X185676000Y-99602095D01*
X186628380Y-99411619D02*
X186676000Y-99364000D01*
X186771238Y-99316380D01*
X187009333Y-99316380D01*
X187104571Y-99364000D01*
X187152190Y-99411619D01*
X187199809Y-99506857D01*
X187199809Y-99602095D01*
X187152190Y-99744952D01*
X186580761Y-100316380D01*
X187199809Y-100316380D01*
%TO.C,U3*%
X160710380Y-113402190D02*
X160234190Y-113735523D01*
X160710380Y-113973619D02*
X159710380Y-113973619D01*
X159710380Y-113592666D01*
X159758000Y-113497428D01*
X159805619Y-113449809D01*
X159900857Y-113402190D01*
X160043714Y-113402190D01*
X160138952Y-113449809D01*
X160186571Y-113497428D01*
X160234190Y-113592666D01*
X160234190Y-113973619D01*
X159710380Y-113116476D02*
X159710380Y-112545047D01*
X160710380Y-112830761D02*
X159710380Y-112830761D01*
X160710380Y-112164095D02*
X160710380Y-111973619D01*
X160662761Y-111878380D01*
X160615142Y-111830761D01*
X160472285Y-111735523D01*
X160281809Y-111687904D01*
X159900857Y-111687904D01*
X159805619Y-111735523D01*
X159758000Y-111783142D01*
X159710380Y-111878380D01*
X159710380Y-112068857D01*
X159758000Y-112164095D01*
X159805619Y-112211714D01*
X159900857Y-112259333D01*
X160138952Y-112259333D01*
X160234190Y-112211714D01*
X160281809Y-112164095D01*
X160329428Y-112068857D01*
X160329428Y-111878380D01*
X160281809Y-111783142D01*
X160234190Y-111735523D01*
X160138952Y-111687904D01*
X159710380Y-111068857D02*
X159710380Y-110973619D01*
X159758000Y-110878380D01*
X159805619Y-110830761D01*
X159900857Y-110783142D01*
X160091333Y-110735523D01*
X160329428Y-110735523D01*
X160519904Y-110783142D01*
X160615142Y-110830761D01*
X160662761Y-110878380D01*
X160710380Y-110973619D01*
X160710380Y-111068857D01*
X160662761Y-111164095D01*
X160615142Y-111211714D01*
X160519904Y-111259333D01*
X160329428Y-111306952D01*
X160091333Y-111306952D01*
X159900857Y-111259333D01*
X159805619Y-111211714D01*
X159758000Y-111164095D01*
X159710380Y-111068857D01*
X160710380Y-109783142D02*
X160710380Y-110354571D01*
X160710380Y-110068857D02*
X159710380Y-110068857D01*
X159853238Y-110164095D01*
X159948476Y-110259333D01*
X159996095Y-110354571D01*
X159710380Y-109449809D02*
X159710380Y-108830761D01*
X160091333Y-109164095D01*
X160091333Y-109021238D01*
X160138952Y-108926000D01*
X160186571Y-108878380D01*
X160281809Y-108830761D01*
X160519904Y-108830761D01*
X160615142Y-108878380D01*
X160662761Y-108926000D01*
X160710380Y-109021238D01*
X160710380Y-109306952D01*
X160662761Y-109402190D01*
X160615142Y-109449809D01*
D13*
X162438952Y-111730761D02*
X162762761Y-111730761D01*
X162800857Y-111711714D01*
X162819904Y-111692666D01*
X162838952Y-111654571D01*
X162838952Y-111578380D01*
X162819904Y-111540285D01*
X162800857Y-111521238D01*
X162762761Y-111502190D01*
X162438952Y-111502190D01*
X162438952Y-111349809D02*
X162438952Y-111102190D01*
X162591333Y-111235523D01*
X162591333Y-111178380D01*
X162610380Y-111140285D01*
X162629428Y-111121238D01*
X162667523Y-111102190D01*
X162762761Y-111102190D01*
X162800857Y-111121238D01*
X162819904Y-111140285D01*
X162838952Y-111178380D01*
X162838952Y-111292666D01*
X162819904Y-111330761D01*
X162800857Y-111349809D01*
%TO.C,R5*%
D11*
X161967523Y-110226380D02*
X161396095Y-110226380D01*
X161681809Y-110226380D02*
X161681809Y-109226380D01*
X161586571Y-109369238D01*
X161491333Y-109464476D01*
X161396095Y-109512095D01*
X162586571Y-109226380D02*
X162681809Y-109226380D01*
X162777047Y-109274000D01*
X162824666Y-109321619D01*
X162872285Y-109416857D01*
X162919904Y-109607333D01*
X162919904Y-109845428D01*
X162872285Y-110035904D01*
X162824666Y-110131142D01*
X162777047Y-110178761D01*
X162681809Y-110226380D01*
X162586571Y-110226380D01*
X162491333Y-110178761D01*
X162443714Y-110131142D01*
X162396095Y-110035904D01*
X162348476Y-109845428D01*
X162348476Y-109607333D01*
X162396095Y-109416857D01*
X162443714Y-109321619D01*
X162491333Y-109274000D01*
X162586571Y-109226380D01*
X163348476Y-110226380D02*
X163348476Y-109226380D01*
X163919904Y-110226380D02*
X163491333Y-109654952D01*
X163919904Y-109226380D02*
X163348476Y-109797809D01*
D12*
X162574666Y-108350190D02*
X162408000Y-108112095D01*
X162288952Y-108350190D02*
X162288952Y-107850190D01*
X162479428Y-107850190D01*
X162527047Y-107874000D01*
X162550857Y-107897809D01*
X162574666Y-107945428D01*
X162574666Y-108016857D01*
X162550857Y-108064476D01*
X162527047Y-108088285D01*
X162479428Y-108112095D01*
X162288952Y-108112095D01*
X163027047Y-107850190D02*
X162788952Y-107850190D01*
X162765142Y-108088285D01*
X162788952Y-108064476D01*
X162836571Y-108040666D01*
X162955619Y-108040666D01*
X163003238Y-108064476D01*
X163027047Y-108088285D01*
X163050857Y-108135904D01*
X163050857Y-108254952D01*
X163027047Y-108302571D01*
X163003238Y-108326380D01*
X162955619Y-108350190D01*
X162836571Y-108350190D01*
X162788952Y-108326380D01*
X162765142Y-108302571D01*
%TO.C,C17*%
D11*
X166857333Y-111214380D02*
X166285904Y-111214380D01*
X166571619Y-111214380D02*
X166571619Y-110214380D01*
X166476380Y-110357238D01*
X166381142Y-110452476D01*
X166285904Y-110500095D01*
X167476380Y-110214380D02*
X167571619Y-110214380D01*
X167666857Y-110262000D01*
X167714476Y-110309619D01*
X167762095Y-110404857D01*
X167809714Y-110595333D01*
X167809714Y-110833428D01*
X167762095Y-111023904D01*
X167714476Y-111119142D01*
X167666857Y-111166761D01*
X167571619Y-111214380D01*
X167476380Y-111214380D01*
X167381142Y-111166761D01*
X167333523Y-111119142D01*
X167285904Y-111023904D01*
X167238285Y-110833428D01*
X167238285Y-110595333D01*
X167285904Y-110404857D01*
X167333523Y-110309619D01*
X167381142Y-110262000D01*
X167476380Y-110214380D01*
X168714476Y-110214380D02*
X168238285Y-110214380D01*
X168190666Y-110690571D01*
X168238285Y-110642952D01*
X168333523Y-110595333D01*
X168571619Y-110595333D01*
X168666857Y-110642952D01*
X168714476Y-110690571D01*
X168762095Y-110785809D01*
X168762095Y-111023904D01*
X168714476Y-111119142D01*
X168666857Y-111166761D01*
X168571619Y-111214380D01*
X168333523Y-111214380D01*
X168238285Y-111166761D01*
X168190666Y-111119142D01*
D12*
X167202571Y-112620571D02*
X167178761Y-112644380D01*
X167107333Y-112668190D01*
X167059714Y-112668190D01*
X166988285Y-112644380D01*
X166940666Y-112596761D01*
X166916857Y-112549142D01*
X166893047Y-112453904D01*
X166893047Y-112382476D01*
X166916857Y-112287238D01*
X166940666Y-112239619D01*
X166988285Y-112192000D01*
X167059714Y-112168190D01*
X167107333Y-112168190D01*
X167178761Y-112192000D01*
X167202571Y-112215809D01*
X167678761Y-112668190D02*
X167393047Y-112668190D01*
X167535904Y-112668190D02*
X167535904Y-112168190D01*
X167488285Y-112239619D01*
X167440666Y-112287238D01*
X167393047Y-112311047D01*
X167845428Y-112168190D02*
X168178761Y-112168190D01*
X167964476Y-112668190D01*
%TO.C,C16*%
D11*
X166857333Y-108928380D02*
X166285904Y-108928380D01*
X166571619Y-108928380D02*
X166571619Y-107928380D01*
X166476380Y-108071238D01*
X166381142Y-108166476D01*
X166285904Y-108214095D01*
X167476380Y-107928380D02*
X167571619Y-107928380D01*
X167666857Y-107976000D01*
X167714476Y-108023619D01*
X167762095Y-108118857D01*
X167809714Y-108309333D01*
X167809714Y-108547428D01*
X167762095Y-108737904D01*
X167714476Y-108833142D01*
X167666857Y-108880761D01*
X167571619Y-108928380D01*
X167476380Y-108928380D01*
X167381142Y-108880761D01*
X167333523Y-108833142D01*
X167285904Y-108737904D01*
X167238285Y-108547428D01*
X167238285Y-108309333D01*
X167285904Y-108118857D01*
X167333523Y-108023619D01*
X167381142Y-107976000D01*
X167476380Y-107928380D01*
X168714476Y-107928380D02*
X168238285Y-107928380D01*
X168190666Y-108404571D01*
X168238285Y-108356952D01*
X168333523Y-108309333D01*
X168571619Y-108309333D01*
X168666857Y-108356952D01*
X168714476Y-108404571D01*
X168762095Y-108499809D01*
X168762095Y-108737904D01*
X168714476Y-108833142D01*
X168666857Y-108880761D01*
X168571619Y-108928380D01*
X168333523Y-108928380D01*
X168238285Y-108880761D01*
X168190666Y-108833142D01*
D12*
X167202571Y-110334571D02*
X167178761Y-110358380D01*
X167107333Y-110382190D01*
X167059714Y-110382190D01*
X166988285Y-110358380D01*
X166940666Y-110310761D01*
X166916857Y-110263142D01*
X166893047Y-110167904D01*
X166893047Y-110096476D01*
X166916857Y-110001238D01*
X166940666Y-109953619D01*
X166988285Y-109906000D01*
X167059714Y-109882190D01*
X167107333Y-109882190D01*
X167178761Y-109906000D01*
X167202571Y-109929809D01*
X167678761Y-110382190D02*
X167393047Y-110382190D01*
X167535904Y-110382190D02*
X167535904Y-109882190D01*
X167488285Y-109953619D01*
X167440666Y-110001238D01*
X167393047Y-110025047D01*
X168107333Y-109882190D02*
X168012095Y-109882190D01*
X167964476Y-109906000D01*
X167940666Y-109929809D01*
X167893047Y-110001238D01*
X167869238Y-110096476D01*
X167869238Y-110286952D01*
X167893047Y-110334571D01*
X167916857Y-110358380D01*
X167964476Y-110382190D01*
X168059714Y-110382190D01*
X168107333Y-110358380D01*
X168131142Y-110334571D01*
X168154952Y-110286952D01*
X168154952Y-110167904D01*
X168131142Y-110120285D01*
X168107333Y-110096476D01*
X168059714Y-110072666D01*
X167964476Y-110072666D01*
X167916857Y-110096476D01*
X167893047Y-110120285D01*
X167869238Y-110167904D01*
%TO.C,C15*%
D11*
X167526380Y-102948666D02*
X167526380Y-103520095D01*
X167526380Y-103234380D02*
X166526380Y-103234380D01*
X166669238Y-103329619D01*
X166764476Y-103424857D01*
X166812095Y-103520095D01*
X166526380Y-102329619D02*
X166526380Y-102234380D01*
X166574000Y-102139142D01*
X166621619Y-102091523D01*
X166716857Y-102043904D01*
X166907333Y-101996285D01*
X167145428Y-101996285D01*
X167335904Y-102043904D01*
X167431142Y-102091523D01*
X167478761Y-102139142D01*
X167526380Y-102234380D01*
X167526380Y-102329619D01*
X167478761Y-102424857D01*
X167431142Y-102472476D01*
X167335904Y-102520095D01*
X167145428Y-102567714D01*
X166907333Y-102567714D01*
X166716857Y-102520095D01*
X166621619Y-102472476D01*
X166574000Y-102424857D01*
X166526380Y-102329619D01*
X166526380Y-101091523D02*
X166526380Y-101567714D01*
X167002571Y-101615333D01*
X166954952Y-101567714D01*
X166907333Y-101472476D01*
X166907333Y-101234380D01*
X166954952Y-101139142D01*
X167002571Y-101091523D01*
X167097809Y-101043904D01*
X167335904Y-101043904D01*
X167431142Y-101091523D01*
X167478761Y-101139142D01*
X167526380Y-101234380D01*
X167526380Y-101472476D01*
X167478761Y-101567714D01*
X167431142Y-101615333D01*
D12*
X168932571Y-102603428D02*
X168956380Y-102627238D01*
X168980190Y-102698666D01*
X168980190Y-102746285D01*
X168956380Y-102817714D01*
X168908761Y-102865333D01*
X168861142Y-102889142D01*
X168765904Y-102912952D01*
X168694476Y-102912952D01*
X168599238Y-102889142D01*
X168551619Y-102865333D01*
X168504000Y-102817714D01*
X168480190Y-102746285D01*
X168480190Y-102698666D01*
X168504000Y-102627238D01*
X168527809Y-102603428D01*
X168980190Y-102127238D02*
X168980190Y-102412952D01*
X168980190Y-102270095D02*
X168480190Y-102270095D01*
X168551619Y-102317714D01*
X168599238Y-102365333D01*
X168623047Y-102412952D01*
X168480190Y-101674857D02*
X168480190Y-101912952D01*
X168718285Y-101936761D01*
X168694476Y-101912952D01*
X168670666Y-101865333D01*
X168670666Y-101746285D01*
X168694476Y-101698666D01*
X168718285Y-101674857D01*
X168765904Y-101651047D01*
X168884952Y-101651047D01*
X168932571Y-101674857D01*
X168956380Y-101698666D01*
X168980190Y-101746285D01*
X168980190Y-101865333D01*
X168956380Y-101912952D01*
X168932571Y-101936761D01*
%TO.C,L1*%
D11*
X171006380Y-106226666D02*
X171006380Y-106417142D01*
X171054000Y-106512380D01*
X171101619Y-106560000D01*
X171244476Y-106655238D01*
X171434952Y-106702857D01*
X171815904Y-106702857D01*
X171911142Y-106655238D01*
X171958761Y-106607619D01*
X172006380Y-106512380D01*
X172006380Y-106321904D01*
X171958761Y-106226666D01*
X171911142Y-106179047D01*
X171815904Y-106131428D01*
X171577809Y-106131428D01*
X171482571Y-106179047D01*
X171434952Y-106226666D01*
X171387333Y-106321904D01*
X171387333Y-106512380D01*
X171434952Y-106607619D01*
X171482571Y-106655238D01*
X171577809Y-106702857D01*
X171434952Y-105560000D02*
X171387333Y-105655238D01*
X171339714Y-105702857D01*
X171244476Y-105750476D01*
X171196857Y-105750476D01*
X171101619Y-105702857D01*
X171054000Y-105655238D01*
X171006380Y-105560000D01*
X171006380Y-105369523D01*
X171054000Y-105274285D01*
X171101619Y-105226666D01*
X171196857Y-105179047D01*
X171244476Y-105179047D01*
X171339714Y-105226666D01*
X171387333Y-105274285D01*
X171434952Y-105369523D01*
X171434952Y-105560000D01*
X171482571Y-105655238D01*
X171530190Y-105702857D01*
X171625428Y-105750476D01*
X171815904Y-105750476D01*
X171911142Y-105702857D01*
X171958761Y-105655238D01*
X172006380Y-105560000D01*
X172006380Y-105369523D01*
X171958761Y-105274285D01*
X171911142Y-105226666D01*
X171815904Y-105179047D01*
X171625428Y-105179047D01*
X171530190Y-105226666D01*
X171482571Y-105274285D01*
X171434952Y-105369523D01*
X171339714Y-104321904D02*
X172006380Y-104321904D01*
X171339714Y-104750476D02*
X171863523Y-104750476D01*
X171958761Y-104702857D01*
X172006380Y-104607619D01*
X172006380Y-104464761D01*
X171958761Y-104369523D01*
X171911142Y-104321904D01*
X172006380Y-103845714D02*
X171006380Y-103845714D01*
X171482571Y-103845714D02*
X171482571Y-103274285D01*
X172006380Y-103274285D02*
X171006380Y-103274285D01*
X172006380Y-102274285D02*
X172006380Y-102845714D01*
X172006380Y-102560000D02*
X171006380Y-102560000D01*
X171149238Y-102655238D01*
X171244476Y-102750476D01*
X171292095Y-102845714D01*
X171720666Y-101893333D02*
X171720666Y-101417142D01*
X172006380Y-101988571D02*
X171006380Y-101655238D01*
X172006380Y-101321904D01*
D14*
X174195904Y-104193333D02*
X174195904Y-104574285D01*
X173395904Y-104574285D01*
X174195904Y-103507619D02*
X174195904Y-103964761D01*
X174195904Y-103736190D02*
X173395904Y-103736190D01*
X173510190Y-103812380D01*
X173586380Y-103888571D01*
X173624476Y-103964761D01*
%TO.C,Q1*%
D11*
X179844761Y-96986571D02*
X179892380Y-96843714D01*
X179892380Y-96605619D01*
X179844761Y-96510380D01*
X179797142Y-96462761D01*
X179701904Y-96415142D01*
X179606666Y-96415142D01*
X179511428Y-96462761D01*
X179463809Y-96510380D01*
X179416190Y-96605619D01*
X179368571Y-96796095D01*
X179320952Y-96891333D01*
X179273333Y-96938952D01*
X179178095Y-96986571D01*
X179082857Y-96986571D01*
X178987619Y-96938952D01*
X178940000Y-96891333D01*
X178892380Y-96796095D01*
X178892380Y-96558000D01*
X178940000Y-96415142D01*
X179892380Y-95986571D02*
X179225714Y-95986571D01*
X178892380Y-95986571D02*
X178940000Y-96034190D01*
X178987619Y-95986571D01*
X178940000Y-95938952D01*
X178892380Y-95986571D01*
X178987619Y-95986571D01*
X179892380Y-94986571D02*
X179892380Y-95558000D01*
X179892380Y-95272285D02*
X178892380Y-95272285D01*
X179035238Y-95367523D01*
X179130476Y-95462761D01*
X179178095Y-95558000D01*
X178892380Y-94653238D02*
X178892380Y-94034190D01*
X179273333Y-94367523D01*
X179273333Y-94224666D01*
X179320952Y-94129428D01*
X179368571Y-94081809D01*
X179463809Y-94034190D01*
X179701904Y-94034190D01*
X179797142Y-94081809D01*
X179844761Y-94129428D01*
X179892380Y-94224666D01*
X179892380Y-94510380D01*
X179844761Y-94605619D01*
X179797142Y-94653238D01*
X178892380Y-93415142D02*
X178892380Y-93319904D01*
X178940000Y-93224666D01*
X178987619Y-93177047D01*
X179082857Y-93129428D01*
X179273333Y-93081809D01*
X179511428Y-93081809D01*
X179701904Y-93129428D01*
X179797142Y-93177047D01*
X179844761Y-93224666D01*
X179892380Y-93319904D01*
X179892380Y-93415142D01*
X179844761Y-93510380D01*
X179797142Y-93558000D01*
X179701904Y-93605619D01*
X179511428Y-93653238D01*
X179273333Y-93653238D01*
X179082857Y-93605619D01*
X178987619Y-93558000D01*
X178940000Y-93510380D01*
X178892380Y-93415142D01*
X179320952Y-92510380D02*
X179273333Y-92605619D01*
X179225714Y-92653238D01*
X179130476Y-92700857D01*
X179082857Y-92700857D01*
X178987619Y-92653238D01*
X178940000Y-92605619D01*
X178892380Y-92510380D01*
X178892380Y-92319904D01*
X178940000Y-92224666D01*
X178987619Y-92177047D01*
X179082857Y-92129428D01*
X179130476Y-92129428D01*
X179225714Y-92177047D01*
X179273333Y-92224666D01*
X179320952Y-92319904D01*
X179320952Y-92510380D01*
X179368571Y-92605619D01*
X179416190Y-92653238D01*
X179511428Y-92700857D01*
X179701904Y-92700857D01*
X179797142Y-92653238D01*
X179844761Y-92605619D01*
X179892380Y-92510380D01*
X179892380Y-92319904D01*
X179844761Y-92224666D01*
X179797142Y-92177047D01*
X179701904Y-92129428D01*
X179511428Y-92129428D01*
X179416190Y-92177047D01*
X179368571Y-92224666D01*
X179320952Y-92319904D01*
D15*
X177342380Y-94781809D02*
X177294761Y-94758000D01*
X177247142Y-94710380D01*
X177175714Y-94638952D01*
X177128095Y-94615142D01*
X177080476Y-94615142D01*
X177104285Y-94734190D02*
X177056666Y-94710380D01*
X177009047Y-94662761D01*
X176985238Y-94567523D01*
X176985238Y-94400857D01*
X177009047Y-94305619D01*
X177056666Y-94258000D01*
X177104285Y-94234190D01*
X177199523Y-94234190D01*
X177247142Y-94258000D01*
X177294761Y-94305619D01*
X177318571Y-94400857D01*
X177318571Y-94567523D01*
X177294761Y-94662761D01*
X177247142Y-94710380D01*
X177199523Y-94734190D01*
X177104285Y-94734190D01*
X177794761Y-94734190D02*
X177509047Y-94734190D01*
X177651904Y-94734190D02*
X177651904Y-94234190D01*
X177604285Y-94305619D01*
X177556666Y-94353238D01*
X177509047Y-94377047D01*
%TO.C,R2*%
D11*
X173579904Y-97036380D02*
X173675142Y-97036380D01*
X173770380Y-97084000D01*
X173818000Y-97131619D01*
X173865619Y-97226857D01*
X173913238Y-97417333D01*
X173913238Y-97655428D01*
X173865619Y-97845904D01*
X173818000Y-97941142D01*
X173770380Y-97988761D01*
X173675142Y-98036380D01*
X173579904Y-98036380D01*
X173484666Y-97988761D01*
X173437047Y-97941142D01*
X173389428Y-97845904D01*
X173341809Y-97655428D01*
X173341809Y-97417333D01*
X173389428Y-97226857D01*
X173437047Y-97131619D01*
X173484666Y-97084000D01*
X173579904Y-97036380D01*
X174341809Y-97941142D02*
X174389428Y-97988761D01*
X174341809Y-98036380D01*
X174294190Y-97988761D01*
X174341809Y-97941142D01*
X174341809Y-98036380D01*
X175246571Y-97369714D02*
X175246571Y-98036380D01*
X175008476Y-96988761D02*
X174770380Y-97703047D01*
X175389428Y-97703047D01*
X175675142Y-97036380D02*
X176341809Y-97036380D01*
X175913238Y-98036380D01*
X177294190Y-98036380D02*
X176960857Y-97560190D01*
X176722761Y-98036380D02*
X176722761Y-97036380D01*
X177103714Y-97036380D01*
X177198952Y-97084000D01*
X177246571Y-97131619D01*
X177294190Y-97226857D01*
X177294190Y-97369714D01*
X177246571Y-97464952D01*
X177198952Y-97512571D01*
X177103714Y-97560190D01*
X176722761Y-97560190D01*
D12*
X175234666Y-99460190D02*
X175068000Y-99222095D01*
X174948952Y-99460190D02*
X174948952Y-98960190D01*
X175139428Y-98960190D01*
X175187047Y-98984000D01*
X175210857Y-99007809D01*
X175234666Y-99055428D01*
X175234666Y-99126857D01*
X175210857Y-99174476D01*
X175187047Y-99198285D01*
X175139428Y-99222095D01*
X174948952Y-99222095D01*
X175425142Y-99007809D02*
X175448952Y-98984000D01*
X175496571Y-98960190D01*
X175615619Y-98960190D01*
X175663238Y-98984000D01*
X175687047Y-99007809D01*
X175710857Y-99055428D01*
X175710857Y-99103047D01*
X175687047Y-99174476D01*
X175401333Y-99460190D01*
X175710857Y-99460190D01*
%TO.C,R1*%
D11*
X174627523Y-96004380D02*
X174056095Y-96004380D01*
X174341809Y-96004380D02*
X174341809Y-95004380D01*
X174246571Y-95147238D01*
X174151333Y-95242476D01*
X174056095Y-95290095D01*
X175246571Y-95004380D02*
X175341809Y-95004380D01*
X175437047Y-95052000D01*
X175484666Y-95099619D01*
X175532285Y-95194857D01*
X175579904Y-95385333D01*
X175579904Y-95623428D01*
X175532285Y-95813904D01*
X175484666Y-95909142D01*
X175437047Y-95956761D01*
X175341809Y-96004380D01*
X175246571Y-96004380D01*
X175151333Y-95956761D01*
X175103714Y-95909142D01*
X175056095Y-95813904D01*
X175008476Y-95623428D01*
X175008476Y-95385333D01*
X175056095Y-95194857D01*
X175103714Y-95099619D01*
X175151333Y-95052000D01*
X175246571Y-95004380D01*
X176008476Y-96004380D02*
X176008476Y-95004380D01*
X176579904Y-96004380D02*
X176151333Y-95432952D01*
X176579904Y-95004380D02*
X176008476Y-95575809D01*
D12*
X175234666Y-97428190D02*
X175068000Y-97190095D01*
X174948952Y-97428190D02*
X174948952Y-96928190D01*
X175139428Y-96928190D01*
X175187047Y-96952000D01*
X175210857Y-96975809D01*
X175234666Y-97023428D01*
X175234666Y-97094857D01*
X175210857Y-97142476D01*
X175187047Y-97166285D01*
X175139428Y-97190095D01*
X174948952Y-97190095D01*
X175710857Y-97428190D02*
X175425142Y-97428190D01*
X175568000Y-97428190D02*
X175568000Y-96928190D01*
X175520380Y-96999619D01*
X175472761Y-97047238D01*
X175425142Y-97071047D01*
%TO.C,D1*%
D11*
X181212380Y-108822095D02*
X180212380Y-108822095D01*
X180926666Y-108488761D01*
X180212380Y-108155428D01*
X181212380Y-108155428D01*
X180688571Y-107345904D02*
X180736190Y-107203047D01*
X180783809Y-107155428D01*
X180879047Y-107107809D01*
X181021904Y-107107809D01*
X181117142Y-107155428D01*
X181164761Y-107203047D01*
X181212380Y-107298285D01*
X181212380Y-107679238D01*
X180212380Y-107679238D01*
X180212380Y-107345904D01*
X180260000Y-107250666D01*
X180307619Y-107203047D01*
X180402857Y-107155428D01*
X180498095Y-107155428D01*
X180593333Y-107203047D01*
X180640952Y-107250666D01*
X180688571Y-107345904D01*
X180688571Y-107679238D01*
X181212380Y-106107809D02*
X180736190Y-106441142D01*
X181212380Y-106679238D02*
X180212380Y-106679238D01*
X180212380Y-106298285D01*
X180260000Y-106203047D01*
X180307619Y-106155428D01*
X180402857Y-106107809D01*
X180545714Y-106107809D01*
X180640952Y-106155428D01*
X180688571Y-106203047D01*
X180736190Y-106298285D01*
X180736190Y-106679238D01*
X180212380Y-105488761D02*
X180212380Y-105393523D01*
X180260000Y-105298285D01*
X180307619Y-105250666D01*
X180402857Y-105203047D01*
X180593333Y-105155428D01*
X180831428Y-105155428D01*
X181021904Y-105203047D01*
X181117142Y-105250666D01*
X181164761Y-105298285D01*
X181212380Y-105393523D01*
X181212380Y-105488761D01*
X181164761Y-105584000D01*
X181117142Y-105631619D01*
X181021904Y-105679238D01*
X180831428Y-105726857D01*
X180593333Y-105726857D01*
X180402857Y-105679238D01*
X180307619Y-105631619D01*
X180260000Y-105584000D01*
X180212380Y-105488761D01*
X180212380Y-104250666D02*
X180212380Y-104726857D01*
X180688571Y-104774476D01*
X180640952Y-104726857D01*
X180593333Y-104631619D01*
X180593333Y-104393523D01*
X180640952Y-104298285D01*
X180688571Y-104250666D01*
X180783809Y-104203047D01*
X181021904Y-104203047D01*
X181117142Y-104250666D01*
X181164761Y-104298285D01*
X181212380Y-104393523D01*
X181212380Y-104631619D01*
X181164761Y-104726857D01*
X181117142Y-104774476D01*
X180212380Y-103869714D02*
X180212380Y-103250666D01*
X180593333Y-103584000D01*
X180593333Y-103441142D01*
X180640952Y-103345904D01*
X180688571Y-103298285D01*
X180783809Y-103250666D01*
X181021904Y-103250666D01*
X181117142Y-103298285D01*
X181164761Y-103345904D01*
X181212380Y-103441142D01*
X181212380Y-103726857D01*
X181164761Y-103822095D01*
X181117142Y-103869714D01*
X180212380Y-102631619D02*
X180212380Y-102536380D01*
X180260000Y-102441142D01*
X180307619Y-102393523D01*
X180402857Y-102345904D01*
X180593333Y-102298285D01*
X180831428Y-102298285D01*
X181021904Y-102345904D01*
X181117142Y-102393523D01*
X181164761Y-102441142D01*
X181212380Y-102536380D01*
X181212380Y-102631619D01*
X181164761Y-102726857D01*
X181117142Y-102774476D01*
X181021904Y-102822095D01*
X180831428Y-102869714D01*
X180593333Y-102869714D01*
X180402857Y-102822095D01*
X180307619Y-102774476D01*
X180260000Y-102726857D01*
X180212380Y-102631619D01*
X177112380Y-106322095D02*
X176112380Y-106322095D01*
X176112380Y-106084000D01*
X176160000Y-105941142D01*
X176255238Y-105845904D01*
X176350476Y-105798285D01*
X176540952Y-105750666D01*
X176683809Y-105750666D01*
X176874285Y-105798285D01*
X176969523Y-105845904D01*
X177064761Y-105941142D01*
X177112380Y-106084000D01*
X177112380Y-106322095D01*
X177112380Y-104798285D02*
X177112380Y-105369714D01*
X177112380Y-105084000D02*
X176112380Y-105084000D01*
X176255238Y-105179238D01*
X176350476Y-105274476D01*
X176398095Y-105369714D01*
%TO.C,D2*%
X170849904Y-111438380D02*
X170849904Y-110438380D01*
X171183238Y-111152666D01*
X171516571Y-110438380D01*
X171516571Y-111438380D01*
X172326095Y-110914571D02*
X172468952Y-110962190D01*
X172516571Y-111009809D01*
X172564190Y-111105047D01*
X172564190Y-111247904D01*
X172516571Y-111343142D01*
X172468952Y-111390761D01*
X172373714Y-111438380D01*
X171992761Y-111438380D01*
X171992761Y-110438380D01*
X172326095Y-110438380D01*
X172421333Y-110486000D01*
X172468952Y-110533619D01*
X172516571Y-110628857D01*
X172516571Y-110724095D01*
X172468952Y-110819333D01*
X172421333Y-110866952D01*
X172326095Y-110914571D01*
X171992761Y-110914571D01*
X173564190Y-111438380D02*
X173230857Y-110962190D01*
X172992761Y-111438380D02*
X172992761Y-110438380D01*
X173373714Y-110438380D01*
X173468952Y-110486000D01*
X173516571Y-110533619D01*
X173564190Y-110628857D01*
X173564190Y-110771714D01*
X173516571Y-110866952D01*
X173468952Y-110914571D01*
X173373714Y-110962190D01*
X172992761Y-110962190D01*
X174183238Y-110438380D02*
X174278476Y-110438380D01*
X174373714Y-110486000D01*
X174421333Y-110533619D01*
X174468952Y-110628857D01*
X174516571Y-110819333D01*
X174516571Y-111057428D01*
X174468952Y-111247904D01*
X174421333Y-111343142D01*
X174373714Y-111390761D01*
X174278476Y-111438380D01*
X174183238Y-111438380D01*
X174088000Y-111390761D01*
X174040380Y-111343142D01*
X173992761Y-111247904D01*
X173945142Y-111057428D01*
X173945142Y-110819333D01*
X173992761Y-110628857D01*
X174040380Y-110533619D01*
X174088000Y-110486000D01*
X174183238Y-110438380D01*
X175421333Y-110438380D02*
X174945142Y-110438380D01*
X174897523Y-110914571D01*
X174945142Y-110866952D01*
X175040380Y-110819333D01*
X175278476Y-110819333D01*
X175373714Y-110866952D01*
X175421333Y-110914571D01*
X175468952Y-111009809D01*
X175468952Y-111247904D01*
X175421333Y-111343142D01*
X175373714Y-111390761D01*
X175278476Y-111438380D01*
X175040380Y-111438380D01*
X174945142Y-111390761D01*
X174897523Y-111343142D01*
X175802285Y-110438380D02*
X176421333Y-110438380D01*
X176088000Y-110819333D01*
X176230857Y-110819333D01*
X176326095Y-110866952D01*
X176373714Y-110914571D01*
X176421333Y-111009809D01*
X176421333Y-111247904D01*
X176373714Y-111343142D01*
X176326095Y-111390761D01*
X176230857Y-111438380D01*
X175945142Y-111438380D01*
X175849904Y-111390761D01*
X175802285Y-111343142D01*
X177040380Y-110438380D02*
X177135619Y-110438380D01*
X177230857Y-110486000D01*
X177278476Y-110533619D01*
X177326095Y-110628857D01*
X177373714Y-110819333D01*
X177373714Y-111057428D01*
X177326095Y-111247904D01*
X177278476Y-111343142D01*
X177230857Y-111390761D01*
X177135619Y-111438380D01*
X177040380Y-111438380D01*
X176945142Y-111390761D01*
X176897523Y-111343142D01*
X176849904Y-111247904D01*
X176802285Y-111057428D01*
X176802285Y-110819333D01*
X176849904Y-110628857D01*
X176897523Y-110533619D01*
X176945142Y-110486000D01*
X177040380Y-110438380D01*
X173349904Y-107338380D02*
X173349904Y-106338380D01*
X173588000Y-106338380D01*
X173730857Y-106386000D01*
X173826095Y-106481238D01*
X173873714Y-106576476D01*
X173921333Y-106766952D01*
X173921333Y-106909809D01*
X173873714Y-107100285D01*
X173826095Y-107195523D01*
X173730857Y-107290761D01*
X173588000Y-107338380D01*
X173349904Y-107338380D01*
X174302285Y-106433619D02*
X174349904Y-106386000D01*
X174445142Y-106338380D01*
X174683238Y-106338380D01*
X174778476Y-106386000D01*
X174826095Y-106433619D01*
X174873714Y-106528857D01*
X174873714Y-106624095D01*
X174826095Y-106766952D01*
X174254666Y-107338380D01*
X174873714Y-107338380D01*
%TO.C,D3*%
X172282380Y-101202095D02*
X171282380Y-101202095D01*
X171996666Y-100868761D01*
X171282380Y-100535428D01*
X172282380Y-100535428D01*
X171758571Y-99725904D02*
X171806190Y-99583047D01*
X171853809Y-99535428D01*
X171949047Y-99487809D01*
X172091904Y-99487809D01*
X172187142Y-99535428D01*
X172234761Y-99583047D01*
X172282380Y-99678285D01*
X172282380Y-100059238D01*
X171282380Y-100059238D01*
X171282380Y-99725904D01*
X171330000Y-99630666D01*
X171377619Y-99583047D01*
X171472857Y-99535428D01*
X171568095Y-99535428D01*
X171663333Y-99583047D01*
X171710952Y-99630666D01*
X171758571Y-99725904D01*
X171758571Y-100059238D01*
X172282380Y-98487809D02*
X171806190Y-98821142D01*
X172282380Y-99059238D02*
X171282380Y-99059238D01*
X171282380Y-98678285D01*
X171330000Y-98583047D01*
X171377619Y-98535428D01*
X171472857Y-98487809D01*
X171615714Y-98487809D01*
X171710952Y-98535428D01*
X171758571Y-98583047D01*
X171806190Y-98678285D01*
X171806190Y-99059238D01*
X171282380Y-97868761D02*
X171282380Y-97773523D01*
X171330000Y-97678285D01*
X171377619Y-97630666D01*
X171472857Y-97583047D01*
X171663333Y-97535428D01*
X171901428Y-97535428D01*
X172091904Y-97583047D01*
X172187142Y-97630666D01*
X172234761Y-97678285D01*
X172282380Y-97773523D01*
X172282380Y-97868761D01*
X172234761Y-97964000D01*
X172187142Y-98011619D01*
X172091904Y-98059238D01*
X171901428Y-98106857D01*
X171663333Y-98106857D01*
X171472857Y-98059238D01*
X171377619Y-98011619D01*
X171330000Y-97964000D01*
X171282380Y-97868761D01*
X171282380Y-96630666D02*
X171282380Y-97106857D01*
X171758571Y-97154476D01*
X171710952Y-97106857D01*
X171663333Y-97011619D01*
X171663333Y-96773523D01*
X171710952Y-96678285D01*
X171758571Y-96630666D01*
X171853809Y-96583047D01*
X172091904Y-96583047D01*
X172187142Y-96630666D01*
X172234761Y-96678285D01*
X172282380Y-96773523D01*
X172282380Y-97011619D01*
X172234761Y-97106857D01*
X172187142Y-97154476D01*
X171282380Y-96249714D02*
X171282380Y-95630666D01*
X171663333Y-95964000D01*
X171663333Y-95821142D01*
X171710952Y-95725904D01*
X171758571Y-95678285D01*
X171853809Y-95630666D01*
X172091904Y-95630666D01*
X172187142Y-95678285D01*
X172234761Y-95725904D01*
X172282380Y-95821142D01*
X172282380Y-96106857D01*
X172234761Y-96202095D01*
X172187142Y-96249714D01*
X171282380Y-95011619D02*
X171282380Y-94916380D01*
X171330000Y-94821142D01*
X171377619Y-94773523D01*
X171472857Y-94725904D01*
X171663333Y-94678285D01*
X171901428Y-94678285D01*
X172091904Y-94725904D01*
X172187142Y-94773523D01*
X172234761Y-94821142D01*
X172282380Y-94916380D01*
X172282380Y-95011619D01*
X172234761Y-95106857D01*
X172187142Y-95154476D01*
X172091904Y-95202095D01*
X171901428Y-95249714D01*
X171663333Y-95249714D01*
X171472857Y-95202095D01*
X171377619Y-95154476D01*
X171330000Y-95106857D01*
X171282380Y-95011619D01*
X168182380Y-98702095D02*
X167182380Y-98702095D01*
X167182380Y-98464000D01*
X167230000Y-98321142D01*
X167325238Y-98225904D01*
X167420476Y-98178285D01*
X167610952Y-98130666D01*
X167753809Y-98130666D01*
X167944285Y-98178285D01*
X168039523Y-98225904D01*
X168134761Y-98321142D01*
X168182380Y-98464000D01*
X168182380Y-98702095D01*
X167182380Y-97797333D02*
X167182380Y-97178285D01*
X167563333Y-97511619D01*
X167563333Y-97368761D01*
X167610952Y-97273523D01*
X167658571Y-97225904D01*
X167753809Y-97178285D01*
X167991904Y-97178285D01*
X168087142Y-97225904D01*
X168134761Y-97273523D01*
X168182380Y-97368761D01*
X168182380Y-97654476D01*
X168134761Y-97749714D01*
X168087142Y-97797333D01*
%TO.C,C12*%
X169992285Y-92513714D02*
X169992285Y-93180380D01*
X169754190Y-92132761D02*
X169516095Y-92847047D01*
X170135142Y-92847047D01*
X170516095Y-93085142D02*
X170563714Y-93132761D01*
X170516095Y-93180380D01*
X170468476Y-93132761D01*
X170516095Y-93085142D01*
X170516095Y-93180380D01*
X170897047Y-92180380D02*
X171563714Y-92180380D01*
X171135142Y-93180380D01*
X172373238Y-92513714D02*
X172373238Y-93180380D01*
X171944666Y-92513714D02*
X171944666Y-93037523D01*
X171992285Y-93132761D01*
X172087523Y-93180380D01*
X172230380Y-93180380D01*
X172325619Y-93132761D01*
X172373238Y-93085142D01*
X173182761Y-92656571D02*
X172849428Y-92656571D01*
X172849428Y-93180380D02*
X172849428Y-92180380D01*
X173325619Y-92180380D01*
X174182761Y-92180380D02*
X173706571Y-92180380D01*
X173658952Y-92656571D01*
X173706571Y-92608952D01*
X173801809Y-92561333D01*
X174039904Y-92561333D01*
X174135142Y-92608952D01*
X174182761Y-92656571D01*
X174230380Y-92751809D01*
X174230380Y-92989904D01*
X174182761Y-93085142D01*
X174135142Y-93132761D01*
X174039904Y-93180380D01*
X173801809Y-93180380D01*
X173706571Y-93132761D01*
X173658952Y-93085142D01*
X174849428Y-92180380D02*
X174944666Y-92180380D01*
X175039904Y-92228000D01*
X175087523Y-92275619D01*
X175135142Y-92370857D01*
X175182761Y-92561333D01*
X175182761Y-92799428D01*
X175135142Y-92989904D01*
X175087523Y-93085142D01*
X175039904Y-93132761D01*
X174944666Y-93180380D01*
X174849428Y-93180380D01*
X174754190Y-93132761D01*
X174706571Y-93085142D01*
X174658952Y-92989904D01*
X174611333Y-92799428D01*
X174611333Y-92561333D01*
X174658952Y-92370857D01*
X174706571Y-92275619D01*
X174754190Y-92228000D01*
X174849428Y-92180380D01*
X175468476Y-92180380D02*
X175801809Y-93180380D01*
X176135142Y-92180380D01*
D12*
X172456571Y-94586571D02*
X172432761Y-94610380D01*
X172361333Y-94634190D01*
X172313714Y-94634190D01*
X172242285Y-94610380D01*
X172194666Y-94562761D01*
X172170857Y-94515142D01*
X172147047Y-94419904D01*
X172147047Y-94348476D01*
X172170857Y-94253238D01*
X172194666Y-94205619D01*
X172242285Y-94158000D01*
X172313714Y-94134190D01*
X172361333Y-94134190D01*
X172432761Y-94158000D01*
X172456571Y-94181809D01*
X172932761Y-94634190D02*
X172647047Y-94634190D01*
X172789904Y-94634190D02*
X172789904Y-94134190D01*
X172742285Y-94205619D01*
X172694666Y-94253238D01*
X172647047Y-94277047D01*
X173123238Y-94181809D02*
X173147047Y-94158000D01*
X173194666Y-94134190D01*
X173313714Y-94134190D01*
X173361333Y-94158000D01*
X173385142Y-94181809D01*
X173408952Y-94229428D01*
X173408952Y-94277047D01*
X173385142Y-94348476D01*
X173099428Y-94634190D01*
X173408952Y-94634190D01*
%TO.C,C9*%
D11*
X186843333Y-98826380D02*
X186271904Y-98826380D01*
X186557619Y-98826380D02*
X186557619Y-97826380D01*
X186462380Y-97969238D01*
X186367142Y-98064476D01*
X186271904Y-98112095D01*
X187462380Y-97826380D02*
X187557619Y-97826380D01*
X187652857Y-97874000D01*
X187700476Y-97921619D01*
X187748095Y-98016857D01*
X187795714Y-98207333D01*
X187795714Y-98445428D01*
X187748095Y-98635904D01*
X187700476Y-98731142D01*
X187652857Y-98778761D01*
X187557619Y-98826380D01*
X187462380Y-98826380D01*
X187367142Y-98778761D01*
X187319523Y-98731142D01*
X187271904Y-98635904D01*
X187224285Y-98445428D01*
X187224285Y-98207333D01*
X187271904Y-98016857D01*
X187319523Y-97921619D01*
X187367142Y-97874000D01*
X187462380Y-97826380D01*
X188700476Y-97826380D02*
X188224285Y-97826380D01*
X188176666Y-98302571D01*
X188224285Y-98254952D01*
X188319523Y-98207333D01*
X188557619Y-98207333D01*
X188652857Y-98254952D01*
X188700476Y-98302571D01*
X188748095Y-98397809D01*
X188748095Y-98635904D01*
X188700476Y-98731142D01*
X188652857Y-98778761D01*
X188557619Y-98826380D01*
X188319523Y-98826380D01*
X188224285Y-98778761D01*
X188176666Y-98731142D01*
D12*
X187426666Y-96872571D02*
X187402857Y-96896380D01*
X187331428Y-96920190D01*
X187283809Y-96920190D01*
X187212380Y-96896380D01*
X187164761Y-96848761D01*
X187140952Y-96801142D01*
X187117142Y-96705904D01*
X187117142Y-96634476D01*
X187140952Y-96539238D01*
X187164761Y-96491619D01*
X187212380Y-96444000D01*
X187283809Y-96420190D01*
X187331428Y-96420190D01*
X187402857Y-96444000D01*
X187426666Y-96467809D01*
X187664761Y-96920190D02*
X187760000Y-96920190D01*
X187807619Y-96896380D01*
X187831428Y-96872571D01*
X187879047Y-96801142D01*
X187902857Y-96705904D01*
X187902857Y-96515428D01*
X187879047Y-96467809D01*
X187855238Y-96444000D01*
X187807619Y-96420190D01*
X187712380Y-96420190D01*
X187664761Y-96444000D01*
X187640952Y-96467809D01*
X187617142Y-96515428D01*
X187617142Y-96634476D01*
X187640952Y-96682095D01*
X187664761Y-96705904D01*
X187712380Y-96729714D01*
X187807619Y-96729714D01*
X187855238Y-96705904D01*
X187879047Y-96682095D01*
X187902857Y-96634476D01*
%TO.C,C6*%
D11*
X181509333Y-103906380D02*
X180937904Y-103906380D01*
X181223619Y-103906380D02*
X181223619Y-102906380D01*
X181128380Y-103049238D01*
X181033142Y-103144476D01*
X180937904Y-103192095D01*
X182128380Y-102906380D02*
X182223619Y-102906380D01*
X182318857Y-102954000D01*
X182366476Y-103001619D01*
X182414095Y-103096857D01*
X182461714Y-103287333D01*
X182461714Y-103525428D01*
X182414095Y-103715904D01*
X182366476Y-103811142D01*
X182318857Y-103858761D01*
X182223619Y-103906380D01*
X182128380Y-103906380D01*
X182033142Y-103858761D01*
X181985523Y-103811142D01*
X181937904Y-103715904D01*
X181890285Y-103525428D01*
X181890285Y-103287333D01*
X181937904Y-103096857D01*
X181985523Y-103001619D01*
X182033142Y-102954000D01*
X182128380Y-102906380D01*
X183366476Y-102906380D02*
X182890285Y-102906380D01*
X182842666Y-103382571D01*
X182890285Y-103334952D01*
X182985523Y-103287333D01*
X183223619Y-103287333D01*
X183318857Y-103334952D01*
X183366476Y-103382571D01*
X183414095Y-103477809D01*
X183414095Y-103715904D01*
X183366476Y-103811142D01*
X183318857Y-103858761D01*
X183223619Y-103906380D01*
X182985523Y-103906380D01*
X182890285Y-103858761D01*
X182842666Y-103811142D01*
D12*
X182092666Y-101952571D02*
X182068857Y-101976380D01*
X181997428Y-102000190D01*
X181949809Y-102000190D01*
X181878380Y-101976380D01*
X181830761Y-101928761D01*
X181806952Y-101881142D01*
X181783142Y-101785904D01*
X181783142Y-101714476D01*
X181806952Y-101619238D01*
X181830761Y-101571619D01*
X181878380Y-101524000D01*
X181949809Y-101500190D01*
X181997428Y-101500190D01*
X182068857Y-101524000D01*
X182092666Y-101547809D01*
X182521238Y-101500190D02*
X182426000Y-101500190D01*
X182378380Y-101524000D01*
X182354571Y-101547809D01*
X182306952Y-101619238D01*
X182283142Y-101714476D01*
X182283142Y-101904952D01*
X182306952Y-101952571D01*
X182330761Y-101976380D01*
X182378380Y-102000190D01*
X182473619Y-102000190D01*
X182521238Y-101976380D01*
X182545047Y-101952571D01*
X182568857Y-101904952D01*
X182568857Y-101785904D01*
X182545047Y-101738285D01*
X182521238Y-101714476D01*
X182473619Y-101690666D01*
X182378380Y-101690666D01*
X182330761Y-101714476D01*
X182306952Y-101738285D01*
X182283142Y-101785904D01*
%TO.C,C4*%
D11*
X181509333Y-107462380D02*
X180937904Y-107462380D01*
X181223619Y-107462380D02*
X181223619Y-106462380D01*
X181128380Y-106605238D01*
X181033142Y-106700476D01*
X180937904Y-106748095D01*
X182128380Y-106462380D02*
X182223619Y-106462380D01*
X182318857Y-106510000D01*
X182366476Y-106557619D01*
X182414095Y-106652857D01*
X182461714Y-106843333D01*
X182461714Y-107081428D01*
X182414095Y-107271904D01*
X182366476Y-107367142D01*
X182318857Y-107414761D01*
X182223619Y-107462380D01*
X182128380Y-107462380D01*
X182033142Y-107414761D01*
X181985523Y-107367142D01*
X181937904Y-107271904D01*
X181890285Y-107081428D01*
X181890285Y-106843333D01*
X181937904Y-106652857D01*
X181985523Y-106557619D01*
X182033142Y-106510000D01*
X182128380Y-106462380D01*
X183366476Y-106462380D02*
X182890285Y-106462380D01*
X182842666Y-106938571D01*
X182890285Y-106890952D01*
X182985523Y-106843333D01*
X183223619Y-106843333D01*
X183318857Y-106890952D01*
X183366476Y-106938571D01*
X183414095Y-107033809D01*
X183414095Y-107271904D01*
X183366476Y-107367142D01*
X183318857Y-107414761D01*
X183223619Y-107462380D01*
X182985523Y-107462380D01*
X182890285Y-107414761D01*
X182842666Y-107367142D01*
D12*
X182092666Y-105508571D02*
X182068857Y-105532380D01*
X181997428Y-105556190D01*
X181949809Y-105556190D01*
X181878380Y-105532380D01*
X181830761Y-105484761D01*
X181806952Y-105437142D01*
X181783142Y-105341904D01*
X181783142Y-105270476D01*
X181806952Y-105175238D01*
X181830761Y-105127619D01*
X181878380Y-105080000D01*
X181949809Y-105056190D01*
X181997428Y-105056190D01*
X182068857Y-105080000D01*
X182092666Y-105103809D01*
X182521238Y-105222857D02*
X182521238Y-105556190D01*
X182402190Y-105032380D02*
X182283142Y-105389523D01*
X182592666Y-105389523D01*
%TO.C,C2*%
D11*
X181509333Y-110764380D02*
X180937904Y-110764380D01*
X181223619Y-110764380D02*
X181223619Y-109764380D01*
X181128380Y-109907238D01*
X181033142Y-110002476D01*
X180937904Y-110050095D01*
X182128380Y-109764380D02*
X182223619Y-109764380D01*
X182318857Y-109812000D01*
X182366476Y-109859619D01*
X182414095Y-109954857D01*
X182461714Y-110145333D01*
X182461714Y-110383428D01*
X182414095Y-110573904D01*
X182366476Y-110669142D01*
X182318857Y-110716761D01*
X182223619Y-110764380D01*
X182128380Y-110764380D01*
X182033142Y-110716761D01*
X181985523Y-110669142D01*
X181937904Y-110573904D01*
X181890285Y-110383428D01*
X181890285Y-110145333D01*
X181937904Y-109954857D01*
X181985523Y-109859619D01*
X182033142Y-109812000D01*
X182128380Y-109764380D01*
X183366476Y-109764380D02*
X182890285Y-109764380D01*
X182842666Y-110240571D01*
X182890285Y-110192952D01*
X182985523Y-110145333D01*
X183223619Y-110145333D01*
X183318857Y-110192952D01*
X183366476Y-110240571D01*
X183414095Y-110335809D01*
X183414095Y-110573904D01*
X183366476Y-110669142D01*
X183318857Y-110716761D01*
X183223619Y-110764380D01*
X182985523Y-110764380D01*
X182890285Y-110716761D01*
X182842666Y-110669142D01*
D12*
X182184666Y-108940571D02*
X182160857Y-108964380D01*
X182089428Y-108988190D01*
X182041809Y-108988190D01*
X181970380Y-108964380D01*
X181922761Y-108916761D01*
X181898952Y-108869142D01*
X181875142Y-108773904D01*
X181875142Y-108702476D01*
X181898952Y-108607238D01*
X181922761Y-108559619D01*
X181970380Y-108512000D01*
X182041809Y-108488190D01*
X182089428Y-108488190D01*
X182160857Y-108512000D01*
X182184666Y-108535809D01*
X182375142Y-108535809D02*
X182398952Y-108512000D01*
X182446571Y-108488190D01*
X182565619Y-108488190D01*
X182613238Y-108512000D01*
X182637047Y-108535809D01*
X182660857Y-108583428D01*
X182660857Y-108631047D01*
X182637047Y-108702476D01*
X182351333Y-108988190D01*
X182660857Y-108988190D01*
%TO.C,C10*%
D11*
X167581714Y-95923714D02*
X168248380Y-95923714D01*
X167200761Y-96161809D02*
X167915047Y-96399904D01*
X167915047Y-95780857D01*
X168153142Y-95399904D02*
X168200761Y-95352285D01*
X168248380Y-95399904D01*
X168200761Y-95447523D01*
X168153142Y-95399904D01*
X168248380Y-95399904D01*
X167248380Y-95018952D02*
X167248380Y-94352285D01*
X168248380Y-94780857D01*
X167581714Y-93542761D02*
X168248380Y-93542761D01*
X167581714Y-93971333D02*
X168105523Y-93971333D01*
X168200761Y-93923714D01*
X168248380Y-93828476D01*
X168248380Y-93685619D01*
X168200761Y-93590380D01*
X168153142Y-93542761D01*
X167724571Y-92733238D02*
X167724571Y-93066571D01*
X168248380Y-93066571D02*
X167248380Y-93066571D01*
X167248380Y-92590380D01*
X167248380Y-91733238D02*
X167248380Y-92209428D01*
X167724571Y-92257047D01*
X167676952Y-92209428D01*
X167629333Y-92114190D01*
X167629333Y-91876095D01*
X167676952Y-91780857D01*
X167724571Y-91733238D01*
X167819809Y-91685619D01*
X168057904Y-91685619D01*
X168153142Y-91733238D01*
X168200761Y-91780857D01*
X168248380Y-91876095D01*
X168248380Y-92114190D01*
X168200761Y-92209428D01*
X168153142Y-92257047D01*
X167248380Y-91066571D02*
X167248380Y-90971333D01*
X167296000Y-90876095D01*
X167343619Y-90828476D01*
X167438857Y-90780857D01*
X167629333Y-90733238D01*
X167867428Y-90733238D01*
X168057904Y-90780857D01*
X168153142Y-90828476D01*
X168200761Y-90876095D01*
X168248380Y-90971333D01*
X168248380Y-91066571D01*
X168200761Y-91161809D01*
X168153142Y-91209428D01*
X168057904Y-91257047D01*
X167867428Y-91304666D01*
X167629333Y-91304666D01*
X167438857Y-91257047D01*
X167343619Y-91209428D01*
X167296000Y-91161809D01*
X167248380Y-91066571D01*
X167248380Y-90447523D02*
X168248380Y-90114190D01*
X167248380Y-89780857D01*
D12*
X169654571Y-93459428D02*
X169678380Y-93483238D01*
X169702190Y-93554666D01*
X169702190Y-93602285D01*
X169678380Y-93673714D01*
X169630761Y-93721333D01*
X169583142Y-93745142D01*
X169487904Y-93768952D01*
X169416476Y-93768952D01*
X169321238Y-93745142D01*
X169273619Y-93721333D01*
X169226000Y-93673714D01*
X169202190Y-93602285D01*
X169202190Y-93554666D01*
X169226000Y-93483238D01*
X169249809Y-93459428D01*
X169702190Y-92983238D02*
X169702190Y-93268952D01*
X169702190Y-93126095D02*
X169202190Y-93126095D01*
X169273619Y-93173714D01*
X169321238Y-93221333D01*
X169345047Y-93268952D01*
X169202190Y-92673714D02*
X169202190Y-92626095D01*
X169226000Y-92578476D01*
X169249809Y-92554666D01*
X169297428Y-92530857D01*
X169392666Y-92507047D01*
X169511714Y-92507047D01*
X169606952Y-92530857D01*
X169654571Y-92554666D01*
X169678380Y-92578476D01*
X169702190Y-92626095D01*
X169702190Y-92673714D01*
X169678380Y-92721333D01*
X169654571Y-92745142D01*
X169606952Y-92768952D01*
X169511714Y-92792761D01*
X169392666Y-92792761D01*
X169297428Y-92768952D01*
X169249809Y-92745142D01*
X169226000Y-92721333D01*
X169202190Y-92673714D01*
%TO.C,C7*%
D11*
X181509333Y-97048380D02*
X180937904Y-97048380D01*
X181223619Y-97048380D02*
X181223619Y-96048380D01*
X181128380Y-96191238D01*
X181033142Y-96286476D01*
X180937904Y-96334095D01*
X182128380Y-96048380D02*
X182223619Y-96048380D01*
X182318857Y-96096000D01*
X182366476Y-96143619D01*
X182414095Y-96238857D01*
X182461714Y-96429333D01*
X182461714Y-96667428D01*
X182414095Y-96857904D01*
X182366476Y-96953142D01*
X182318857Y-97000761D01*
X182223619Y-97048380D01*
X182128380Y-97048380D01*
X182033142Y-97000761D01*
X181985523Y-96953142D01*
X181937904Y-96857904D01*
X181890285Y-96667428D01*
X181890285Y-96429333D01*
X181937904Y-96238857D01*
X181985523Y-96143619D01*
X182033142Y-96096000D01*
X182128380Y-96048380D01*
X183366476Y-96048380D02*
X182890285Y-96048380D01*
X182842666Y-96524571D01*
X182890285Y-96476952D01*
X182985523Y-96429333D01*
X183223619Y-96429333D01*
X183318857Y-96476952D01*
X183366476Y-96524571D01*
X183414095Y-96619809D01*
X183414095Y-96857904D01*
X183366476Y-96953142D01*
X183318857Y-97000761D01*
X183223619Y-97048380D01*
X182985523Y-97048380D01*
X182890285Y-97000761D01*
X182842666Y-96953142D01*
D12*
X182092666Y-95094571D02*
X182068857Y-95118380D01*
X181997428Y-95142190D01*
X181949809Y-95142190D01*
X181878380Y-95118380D01*
X181830761Y-95070761D01*
X181806952Y-95023142D01*
X181783142Y-94927904D01*
X181783142Y-94856476D01*
X181806952Y-94761238D01*
X181830761Y-94713619D01*
X181878380Y-94666000D01*
X181949809Y-94642190D01*
X181997428Y-94642190D01*
X182068857Y-94666000D01*
X182092666Y-94689809D01*
X182259333Y-94642190D02*
X182592666Y-94642190D01*
X182378380Y-95142190D01*
%TO.C,C11*%
D11*
X186843333Y-102382380D02*
X186271904Y-102382380D01*
X186557619Y-102382380D02*
X186557619Y-101382380D01*
X186462380Y-101525238D01*
X186367142Y-101620476D01*
X186271904Y-101668095D01*
X187462380Y-101382380D02*
X187557619Y-101382380D01*
X187652857Y-101430000D01*
X187700476Y-101477619D01*
X187748095Y-101572857D01*
X187795714Y-101763333D01*
X187795714Y-102001428D01*
X187748095Y-102191904D01*
X187700476Y-102287142D01*
X187652857Y-102334761D01*
X187557619Y-102382380D01*
X187462380Y-102382380D01*
X187367142Y-102334761D01*
X187319523Y-102287142D01*
X187271904Y-102191904D01*
X187224285Y-102001428D01*
X187224285Y-101763333D01*
X187271904Y-101572857D01*
X187319523Y-101477619D01*
X187367142Y-101430000D01*
X187462380Y-101382380D01*
X188700476Y-101382380D02*
X188224285Y-101382380D01*
X188176666Y-101858571D01*
X188224285Y-101810952D01*
X188319523Y-101763333D01*
X188557619Y-101763333D01*
X188652857Y-101810952D01*
X188700476Y-101858571D01*
X188748095Y-101953809D01*
X188748095Y-102191904D01*
X188700476Y-102287142D01*
X188652857Y-102334761D01*
X188557619Y-102382380D01*
X188319523Y-102382380D01*
X188224285Y-102334761D01*
X188176666Y-102287142D01*
D12*
X187188571Y-100428571D02*
X187164761Y-100452380D01*
X187093333Y-100476190D01*
X187045714Y-100476190D01*
X186974285Y-100452380D01*
X186926666Y-100404761D01*
X186902857Y-100357142D01*
X186879047Y-100261904D01*
X186879047Y-100190476D01*
X186902857Y-100095238D01*
X186926666Y-100047619D01*
X186974285Y-100000000D01*
X187045714Y-99976190D01*
X187093333Y-99976190D01*
X187164761Y-100000000D01*
X187188571Y-100023809D01*
X187664761Y-100476190D02*
X187379047Y-100476190D01*
X187521904Y-100476190D02*
X187521904Y-99976190D01*
X187474285Y-100047619D01*
X187426666Y-100095238D01*
X187379047Y-100119047D01*
X188140952Y-100476190D02*
X187855238Y-100476190D01*
X187998095Y-100476190D02*
X187998095Y-99976190D01*
X187950476Y-100047619D01*
X187902857Y-100095238D01*
X187855238Y-100119047D01*
%TO.C,C5*%
D11*
X186589333Y-105938380D02*
X186017904Y-105938380D01*
X186303619Y-105938380D02*
X186303619Y-104938380D01*
X186208380Y-105081238D01*
X186113142Y-105176476D01*
X186017904Y-105224095D01*
X187208380Y-104938380D02*
X187303619Y-104938380D01*
X187398857Y-104986000D01*
X187446476Y-105033619D01*
X187494095Y-105128857D01*
X187541714Y-105319333D01*
X187541714Y-105557428D01*
X187494095Y-105747904D01*
X187446476Y-105843142D01*
X187398857Y-105890761D01*
X187303619Y-105938380D01*
X187208380Y-105938380D01*
X187113142Y-105890761D01*
X187065523Y-105843142D01*
X187017904Y-105747904D01*
X186970285Y-105557428D01*
X186970285Y-105319333D01*
X187017904Y-105128857D01*
X187065523Y-105033619D01*
X187113142Y-104986000D01*
X187208380Y-104938380D01*
X188446476Y-104938380D02*
X187970285Y-104938380D01*
X187922666Y-105414571D01*
X187970285Y-105366952D01*
X188065523Y-105319333D01*
X188303619Y-105319333D01*
X188398857Y-105366952D01*
X188446476Y-105414571D01*
X188494095Y-105509809D01*
X188494095Y-105747904D01*
X188446476Y-105843142D01*
X188398857Y-105890761D01*
X188303619Y-105938380D01*
X188065523Y-105938380D01*
X187970285Y-105890761D01*
X187922666Y-105843142D01*
D12*
X187172666Y-103984571D02*
X187148857Y-104008380D01*
X187077428Y-104032190D01*
X187029809Y-104032190D01*
X186958380Y-104008380D01*
X186910761Y-103960761D01*
X186886952Y-103913142D01*
X186863142Y-103817904D01*
X186863142Y-103746476D01*
X186886952Y-103651238D01*
X186910761Y-103603619D01*
X186958380Y-103556000D01*
X187029809Y-103532190D01*
X187077428Y-103532190D01*
X187148857Y-103556000D01*
X187172666Y-103579809D01*
X187625047Y-103532190D02*
X187386952Y-103532190D01*
X187363142Y-103770285D01*
X187386952Y-103746476D01*
X187434571Y-103722666D01*
X187553619Y-103722666D01*
X187601238Y-103746476D01*
X187625047Y-103770285D01*
X187648857Y-103817904D01*
X187648857Y-103936952D01*
X187625047Y-103984571D01*
X187601238Y-104008380D01*
X187553619Y-104032190D01*
X187434571Y-104032190D01*
X187386952Y-104008380D01*
X187363142Y-103984571D01*
%TO.C,C3*%
D11*
X186589333Y-109240380D02*
X186017904Y-109240380D01*
X186303619Y-109240380D02*
X186303619Y-108240380D01*
X186208380Y-108383238D01*
X186113142Y-108478476D01*
X186017904Y-108526095D01*
X187208380Y-108240380D02*
X187303619Y-108240380D01*
X187398857Y-108288000D01*
X187446476Y-108335619D01*
X187494095Y-108430857D01*
X187541714Y-108621333D01*
X187541714Y-108859428D01*
X187494095Y-109049904D01*
X187446476Y-109145142D01*
X187398857Y-109192761D01*
X187303619Y-109240380D01*
X187208380Y-109240380D01*
X187113142Y-109192761D01*
X187065523Y-109145142D01*
X187017904Y-109049904D01*
X186970285Y-108859428D01*
X186970285Y-108621333D01*
X187017904Y-108430857D01*
X187065523Y-108335619D01*
X187113142Y-108288000D01*
X187208380Y-108240380D01*
X188446476Y-108240380D02*
X187970285Y-108240380D01*
X187922666Y-108716571D01*
X187970285Y-108668952D01*
X188065523Y-108621333D01*
X188303619Y-108621333D01*
X188398857Y-108668952D01*
X188446476Y-108716571D01*
X188494095Y-108811809D01*
X188494095Y-109049904D01*
X188446476Y-109145142D01*
X188398857Y-109192761D01*
X188303619Y-109240380D01*
X188065523Y-109240380D01*
X187970285Y-109192761D01*
X187922666Y-109145142D01*
D12*
X187172666Y-107286571D02*
X187148857Y-107310380D01*
X187077428Y-107334190D01*
X187029809Y-107334190D01*
X186958380Y-107310380D01*
X186910761Y-107262761D01*
X186886952Y-107215142D01*
X186863142Y-107119904D01*
X186863142Y-107048476D01*
X186886952Y-106953238D01*
X186910761Y-106905619D01*
X186958380Y-106858000D01*
X187029809Y-106834190D01*
X187077428Y-106834190D01*
X187148857Y-106858000D01*
X187172666Y-106881809D01*
X187339333Y-106834190D02*
X187648857Y-106834190D01*
X187482190Y-107024666D01*
X187553619Y-107024666D01*
X187601238Y-107048476D01*
X187625047Y-107072285D01*
X187648857Y-107119904D01*
X187648857Y-107238952D01*
X187625047Y-107286571D01*
X187601238Y-107310380D01*
X187553619Y-107334190D01*
X187410761Y-107334190D01*
X187363142Y-107310380D01*
X187339333Y-107286571D01*
%TO.C,C1*%
D11*
X186589333Y-112542380D02*
X186017904Y-112542380D01*
X186303619Y-112542380D02*
X186303619Y-111542380D01*
X186208380Y-111685238D01*
X186113142Y-111780476D01*
X186017904Y-111828095D01*
X187208380Y-111542380D02*
X187303619Y-111542380D01*
X187398857Y-111590000D01*
X187446476Y-111637619D01*
X187494095Y-111732857D01*
X187541714Y-111923333D01*
X187541714Y-112161428D01*
X187494095Y-112351904D01*
X187446476Y-112447142D01*
X187398857Y-112494761D01*
X187303619Y-112542380D01*
X187208380Y-112542380D01*
X187113142Y-112494761D01*
X187065523Y-112447142D01*
X187017904Y-112351904D01*
X186970285Y-112161428D01*
X186970285Y-111923333D01*
X187017904Y-111732857D01*
X187065523Y-111637619D01*
X187113142Y-111590000D01*
X187208380Y-111542380D01*
X188446476Y-111542380D02*
X187970285Y-111542380D01*
X187922666Y-112018571D01*
X187970285Y-111970952D01*
X188065523Y-111923333D01*
X188303619Y-111923333D01*
X188398857Y-111970952D01*
X188446476Y-112018571D01*
X188494095Y-112113809D01*
X188494095Y-112351904D01*
X188446476Y-112447142D01*
X188398857Y-112494761D01*
X188303619Y-112542380D01*
X188065523Y-112542380D01*
X187970285Y-112494761D01*
X187922666Y-112447142D01*
D12*
X187172666Y-110588571D02*
X187148857Y-110612380D01*
X187077428Y-110636190D01*
X187029809Y-110636190D01*
X186958380Y-110612380D01*
X186910761Y-110564761D01*
X186886952Y-110517142D01*
X186863142Y-110421904D01*
X186863142Y-110350476D01*
X186886952Y-110255238D01*
X186910761Y-110207619D01*
X186958380Y-110160000D01*
X187029809Y-110136190D01*
X187077428Y-110136190D01*
X187148857Y-110160000D01*
X187172666Y-110183809D01*
X187648857Y-110636190D02*
X187363142Y-110636190D01*
X187506000Y-110636190D02*
X187506000Y-110136190D01*
X187458380Y-110207619D01*
X187410761Y-110255238D01*
X187363142Y-110279047D01*
%TD*%
M02*
