M48
; DRILL file {KiCad (5.1.10)-1} date 02/17/22 21:56:03
; FORMAT={-:-/ absolute / inch / decimal}
; #@! TF.CreationDate,2022-02-17T21:56:03+01:00
; #@! TF.GenerationSoftware,Kicad,Pcbnew,(5.1.10)-1
FMAT,2
INCH
T1C0.0157
T2C0.0256
T3C0.0315
T4C0.0394
T5C0.0591
T6C0.0787
T7C0.1339
T8C0.0295
T9C0.0669
T10C0.1575
%
G90
G05
T1
X3.1839Y-3.5369
X3.2939Y-3.6169
X3.3139Y-3.9769
X3.4039Y-3.4869
X3.5539Y-3.4469
X3.5839Y-3.0169
X3.5939Y-3.2569
X3.7639Y-4.3669
X3.8939Y-3.0769
X3.9639Y-3.6869
X4.0139Y-4.6469
X4.0839Y-2.6869
X4.1239Y-2.6169
X4.2739Y-2.5969
X4.3339Y-3.6922
X4.3939Y-5.0269
X4.4439Y-4.1469
X4.5039Y-4.8169
X4.5639Y-5.3269
X4.6439Y-2.6569
X4.9239Y-5.2869
X5.0939Y-4.2569
X5.1139Y-4.5269
X5.1439Y-5.1069
X5.1739Y-3.3769
X5.2439Y-4.9669
X5.7139Y-4.0569
X5.7839Y-4.5569
X6.0339Y-4.5969
X6.0539Y-3.8669
X6.0739Y-3.9469
X6.1139Y-4.1269
X6.1239Y-3.1769
X6.5339Y-3.1969
X6.6939Y-3.3869
X6.7139Y-4.4169
X6.7639Y-3.1569
X6.8739Y-3.1869
X6.8739Y-4.3869
X6.9039Y-3.4369
X7.0039Y-3.4269
X7.0239Y-4.2769
X7.1339Y-3.2969
X7.2239Y-3.8669
X7.2439Y-4.0869
X7.2539Y-4.2169
X7.2689Y-4.3588
X7.2839Y-4.2896
X7.437Y-3.2369
X7.4983Y-4.4283
X7.6139Y-4.3569
X7.6739Y-3.7269
X7.7139Y-5.4369
X7.7239Y-5.2569
X7.7509Y-4.0698
X7.7739Y-4.8669
X7.8239Y-2.9069
X7.8539Y-4.4269
X8.0039Y-3.1869
X8.0839Y-3.5369
X8.1939Y-4.9569
X8.2139Y-3.2569
X8.2139Y-3.3369
X8.3439Y-4.8669
X8.6539Y-4.9969
X8.7439Y-4.7069
X8.8139Y-3.8969
X8.8439Y-4.8069
X8.8939Y-4.7569
X8.9539Y-4.5369
T2
X7.5639Y-3.848
X7.5639Y-3.898
X7.5639Y-3.948
X7.5639Y-3.998
X7.5639Y-4.048
X7.5639Y-4.098
X7.5639Y-4.148
T4
X3.2148Y-4.4548
X3.2539Y-4.5469
X3.3465Y-3.2988
X3.4039Y-3.2169
X3.4139Y-3.9769
X3.4139Y-4.0769
X3.4139Y-4.1769
X3.4139Y-4.2769
X3.7802Y-4.8205
X3.9194Y-4.9597
X4.0339Y-3.4685
X4.1839Y-4.4169
X4.2535Y-4.4864
X4.291Y-4.174
X4.3231Y-4.556
X4.3617Y-4.2447
X4.4324Y-4.3154
X4.5031Y-4.3861
X4.5739Y-4.4569
X4.6139Y-3.6417
X4.6139Y-3.7417
X4.6139Y-3.8417
X4.6139Y-3.9417
X4.6139Y-4.0417
X4.6139Y-4.1417
X5.2739Y-3.6417
X5.2739Y-3.7417
X5.2739Y-3.8417
X5.2739Y-3.9417
X5.7539Y-3.7069
X5.8539Y-3.7069
X6.2139Y-3.7169
X6.3139Y-3.7169
X6.4139Y-3.7169
X6.5139Y-3.7169
X6.5339Y-3.5869
X6.9087Y-3.5827
X7.0087Y-3.5827
X7.0939Y-3.4269
X7.1087Y-3.5827
X7.2087Y-3.5827
X7.3087Y-3.5827
X7.4087Y-3.5827
X7.5087Y-3.5827
X7.5139Y-3.4169
X7.6087Y-3.5827
X7.6139Y-3.4169
X7.6239Y-4.7126
X7.7239Y-4.7126
X7.8239Y-4.7126
X7.8425Y-4.9738
X7.9067Y-5.0504
X7.9239Y-4.7126
X7.971Y-5.127
X8.0353Y-5.2036
X8.0739Y-2.7469
X8.0996Y-5.2802
X8.1639Y-5.3569
X8.3239Y-3.6469
X8.3239Y-3.7869
X8.3239Y-4.3577
X8.4223Y-3.7869
X8.4239Y-3.6469
X8.5207Y-3.7869
X8.5207Y-4.3577
X8.5239Y-3.6469
X8.6239Y-3.6469
X8.7239Y-3.6469
T5
X3.7402Y-3.9169
X3.8402Y-3.6669
X4.7244Y-2.6772
X4.7244Y-4.9606
X4.9744Y-2.7772
X4.9744Y-5.0606
X5.5906Y-2.6772
X5.5906Y-4.9606
X5.8406Y-2.7772
X5.8406Y-5.0606
X6.4567Y-2.6772
X6.4567Y-4.9606
X6.7067Y-2.7772
X6.7067Y-5.0606
X7.3228Y-2.6772
X7.3228Y-4.9606
X7.5728Y-2.7772
X7.5728Y-5.0606
T6
X7.8139Y-3.6069
T7
X3.3439Y-4.8169
X3.7205Y-5.1181
X4.5939Y-4.6369
X7.874Y-2.6378
X7.874Y-5.2756
X8.1439Y-4.7569
X8.9339Y-3.7469
T8
X3.1758Y-3.9327
X3.1758Y-4.161
T9
X3.9402Y-3.6169
X3.9402Y-4.0169
X4.6244Y-2.8772
X4.6244Y-5.1606
X5.0244Y-2.8772
X5.0244Y-5.1606
X5.4906Y-2.8772
X5.4906Y-5.1606
X5.8906Y-2.8772
X5.8906Y-5.1606
X6.3567Y-2.8772
X6.3567Y-5.1606
X6.7567Y-2.8772
X6.7567Y-5.1606
X7.2228Y-2.8772
X7.2228Y-5.1606
X7.6228Y-2.8772
X7.6228Y-5.1606
T10
X3.9402Y-3.8169
X4.8244Y-2.8772
X4.8244Y-5.1606
X5.6906Y-2.8772
X5.6906Y-5.1606
X6.5567Y-2.8772
X6.5567Y-5.1606
X7.4228Y-2.8772
X7.4228Y-5.1606
T3
G00X3.0183Y-3.8766
M15
G01X3.042Y-3.8766
M16
G05
G00X3.0183Y-4.2171
M15
G01X3.042Y-4.2171
M16
G05
G00X3.1798Y-3.8766
M15
G01X3.2113Y-3.8766
M16
G05
G00X3.1798Y-4.2171
M15
G01X3.2113Y-4.2171
M16
G05
T5
G00X3.9069Y-4.5212
M15
G01X3.8707Y-4.5574
M16
G05
G00X4.2187Y-4.833
M15
G01X4.1825Y-4.8692
M16
G05
G00X8.2018Y-4.0565
M15
G01X8.2018Y-4.1077
M16
G05
G00X8.6428Y-4.0565
M15
G01X8.6428Y-4.1077
M16
G05
T0
M30
