%TF.GenerationSoftware,KiCad,Pcbnew,(5.1.10)-1*%
%TF.CreationDate,2022-02-17T21:55:53+01:00*%
%TF.ProjectId,keyboardEink,6b657962-6f61-4726-9445-696e6b2e6b69,rev?*%
%TF.SameCoordinates,Original*%
%TF.FileFunction,Profile,NP*%
%FSLAX46Y46*%
G04 Gerber Fmt 4.6, Leading zero omitted, Abs format (unit mm)*
G04 Created by KiCad (PCBNEW (5.1.10)-1) date 2022-02-17 21:55:53*
%MOMM*%
%LPD*%
G01*
G04 APERTURE LIST*
%TA.AperFunction,Profile*%
%ADD10C,0.150000*%
%TD*%
%TA.AperFunction,Profile*%
%ADD11C,0.050000*%
%TD*%
%TA.AperFunction,Profile*%
%ADD12C,0.100000*%
%TD*%
G04 APERTURE END LIST*
D10*
X172818000Y-120062000D02*
X172818000Y-113966000D01*
X190598000Y-120062000D02*
X172818000Y-120062000D01*
X190598000Y-113966000D02*
X190598000Y-120062000D01*
X172818000Y-113966000D02*
X190598000Y-113966000D01*
X201000000Y-91000000D02*
X206600000Y-91000000D01*
X206600000Y-113500000D02*
X206600000Y-91000000D01*
X201000000Y-113500000D02*
X206600000Y-113500000D01*
X201000000Y-91000000D02*
X201000000Y-113500000D01*
X114000000Y-63000000D02*
X192500000Y-63000000D01*
X192500000Y-141000000D02*
X114000000Y-141000000D01*
X192500000Y-141000000D02*
G75*
G03*
X192500000Y-63000000I0J39000000D01*
G01*
X114000000Y-141000000D02*
G75*
G02*
X114000000Y-63000000I0J39000000D01*
G01*
D11*
X202496000Y-90090000D02*
G75*
G03*
X202496000Y-90090000I-2500000J0D01*
G01*
X197496000Y-87590000D02*
X202496000Y-92590000D01*
X197496000Y-92590000D02*
X202496000Y-87590000D01*
D12*
%TO.C,D11*%
X165673548Y-137563999D02*
X167262452Y-137563999D01*
X164768001Y-135361157D02*
X164768001Y-136766841D01*
X167262452Y-134564000D02*
X165673547Y-134564000D01*
X168167999Y-136766841D02*
X168167999Y-135361157D01*
X167514710Y-137632298D02*
G75*
G03*
X167262452Y-137563999I-252258J-431701D01*
G01*
X165673548Y-137563999D02*
G75*
G03*
X165421289Y-137632298I0J-500000D01*
G01*
X164718516Y-136983718D02*
G75*
G03*
X165421289Y-137632298I450515J-216879D01*
G01*
X164718516Y-136983719D02*
G75*
G03*
X164768001Y-136766841I-450515J216878D01*
G01*
X164768001Y-135361156D02*
G75*
G03*
X164718516Y-135144279I-500000J-1D01*
G01*
X165421289Y-134495702D02*
G75*
G03*
X164718516Y-135144279I-252258J-431700D01*
G01*
X165421289Y-134495701D02*
G75*
G03*
X165673547Y-134564000I252258J431701D01*
G01*
X167262453Y-134563999D02*
G75*
G03*
X167514711Y-134495700I-1J499999D01*
G01*
X168217484Y-135144279D02*
G75*
G03*
X167514711Y-134495700I-450515J216878D01*
G01*
X168217484Y-135144279D02*
G75*
G03*
X168167999Y-135361157I450515J-216878D01*
G01*
X168167999Y-136766842D02*
G75*
G03*
X168217484Y-136983719I500000J1D01*
G01*
X167514711Y-137632296D02*
G75*
G03*
X168217484Y-136983719I252258J431700D01*
G01*
%TO.C,D10*%
X226133999Y-104346452D02*
X226133999Y-102757548D01*
X223931157Y-105251999D02*
X225336841Y-105251999D01*
X223134000Y-102757548D02*
X223134000Y-104346453D01*
X225336841Y-101852001D02*
X223931157Y-101852001D01*
X226202298Y-102505290D02*
G75*
G03*
X226133999Y-102757548I431701J-252258D01*
G01*
X226133999Y-104346452D02*
G75*
G03*
X226202298Y-104598711I500000J0D01*
G01*
X225553718Y-105301484D02*
G75*
G03*
X226202298Y-104598711I216879J450515D01*
G01*
X225553719Y-105301484D02*
G75*
G03*
X225336841Y-105251999I-216878J-450515D01*
G01*
X223931156Y-105251999D02*
G75*
G03*
X223714279Y-105301484I1J-500000D01*
G01*
X223065702Y-104598711D02*
G75*
G03*
X223714279Y-105301484I431700J-252258D01*
G01*
X223065701Y-104598711D02*
G75*
G03*
X223134000Y-104346453I-431701J252258D01*
G01*
X223133999Y-102757547D02*
G75*
G03*
X223065700Y-102505289I-499999J-1D01*
G01*
X223714279Y-101802516D02*
G75*
G03*
X223065700Y-102505289I-216878J-450515D01*
G01*
X223714279Y-101802516D02*
G75*
G03*
X223931157Y-101852001I216878J450515D01*
G01*
X225336842Y-101852001D02*
G75*
G03*
X225553719Y-101802516I-1J500000D01*
G01*
X226202296Y-102505289D02*
G75*
G03*
X225553719Y-101802516I-431700J252258D01*
G01*
%TO.C,D6*%
X187771548Y-137563999D02*
X189360452Y-137563999D01*
X186866001Y-135361157D02*
X186866001Y-136766841D01*
X189360452Y-134564000D02*
X187771547Y-134564000D01*
X190265999Y-136766841D02*
X190265999Y-135361157D01*
X189612710Y-137632298D02*
G75*
G03*
X189360452Y-137563999I-252258J-431701D01*
G01*
X187771548Y-137563999D02*
G75*
G03*
X187519289Y-137632298I0J-500000D01*
G01*
X186816516Y-136983718D02*
G75*
G03*
X187519289Y-137632298I450515J-216879D01*
G01*
X186816516Y-136983719D02*
G75*
G03*
X186866001Y-136766841I-450515J216878D01*
G01*
X186866001Y-135361156D02*
G75*
G03*
X186816516Y-135144279I-500000J-1D01*
G01*
X187519289Y-134495702D02*
G75*
G03*
X186816516Y-135144279I-252258J-431700D01*
G01*
X187519289Y-134495701D02*
G75*
G03*
X187771547Y-134564000I252258J431701D01*
G01*
X189360453Y-134563999D02*
G75*
G03*
X189612711Y-134495700I-1J499999D01*
G01*
X190315484Y-135144279D02*
G75*
G03*
X189612711Y-134495700I-450515J216878D01*
G01*
X190315484Y-135144279D02*
G75*
G03*
X190265999Y-135361157I450515J-216878D01*
G01*
X190265999Y-136766842D02*
G75*
G03*
X190315484Y-136983719I500000J1D01*
G01*
X189612711Y-137632296D02*
G75*
G03*
X190315484Y-136983719I252258J431700D01*
G01*
%TO.C,D5*%
X143829548Y-137563999D02*
X145418452Y-137563999D01*
X142924001Y-135361157D02*
X142924001Y-136766841D01*
X145418452Y-134564000D02*
X143829547Y-134564000D01*
X146323999Y-136766841D02*
X146323999Y-135361157D01*
X145670710Y-137632298D02*
G75*
G03*
X145418452Y-137563999I-252258J-431701D01*
G01*
X143829548Y-137563999D02*
G75*
G03*
X143577289Y-137632298I0J-500000D01*
G01*
X142874516Y-136983718D02*
G75*
G03*
X143577289Y-137632298I450515J-216879D01*
G01*
X142874516Y-136983719D02*
G75*
G03*
X142924001Y-136766841I-450515J216878D01*
G01*
X142924001Y-135361156D02*
G75*
G03*
X142874516Y-135144279I-500000J-1D01*
G01*
X143577289Y-134495702D02*
G75*
G03*
X142874516Y-135144279I-252258J-431700D01*
G01*
X143577289Y-134495701D02*
G75*
G03*
X143829547Y-134564000I252258J431701D01*
G01*
X145418453Y-134563999D02*
G75*
G03*
X145670711Y-134495700I-1J499999D01*
G01*
X146373484Y-135144279D02*
G75*
G03*
X145670711Y-134495700I-450515J216878D01*
G01*
X146373484Y-135144279D02*
G75*
G03*
X146323999Y-135361157I450515J-216878D01*
G01*
X146323999Y-136766842D02*
G75*
G03*
X146373484Y-136983719I500000J1D01*
G01*
X145670711Y-137632296D02*
G75*
G03*
X146373484Y-136983719I252258J431700D01*
G01*
%TO.C,D4*%
X121731548Y-137563999D02*
X123320452Y-137563999D01*
X120826001Y-135361157D02*
X120826001Y-136766841D01*
X123320452Y-134564000D02*
X121731547Y-134564000D01*
X124225999Y-136766841D02*
X124225999Y-135361157D01*
X123572710Y-137632298D02*
G75*
G03*
X123320452Y-137563999I-252258J-431701D01*
G01*
X121731548Y-137563999D02*
G75*
G03*
X121479289Y-137632298I0J-500000D01*
G01*
X120776516Y-136983718D02*
G75*
G03*
X121479289Y-137632298I450515J-216879D01*
G01*
X120776516Y-136983719D02*
G75*
G03*
X120826001Y-136766841I-450515J216878D01*
G01*
X120826001Y-135361156D02*
G75*
G03*
X120776516Y-135144279I-500000J-1D01*
G01*
X121479289Y-134495702D02*
G75*
G03*
X120776516Y-135144279I-252258J-431700D01*
G01*
X121479289Y-134495701D02*
G75*
G03*
X121731547Y-134564000I252258J431701D01*
G01*
X123320453Y-134563999D02*
G75*
G03*
X123572711Y-134495700I-1J499999D01*
G01*
X124275484Y-135144279D02*
G75*
G03*
X123572711Y-134495700I-450515J216878D01*
G01*
X124275484Y-135144279D02*
G75*
G03*
X124225999Y-135361157I450515J-216878D01*
G01*
X124225999Y-136766842D02*
G75*
G03*
X124275484Y-136983719I500000J1D01*
G01*
X123572711Y-137632296D02*
G75*
G03*
X124275484Y-136983719I252258J431700D01*
G01*
%TO.C,D16*%
X103680000Y-96153548D02*
X103680000Y-97742452D01*
X105882842Y-95248001D02*
X104477158Y-95248001D01*
X106679999Y-97742452D02*
X106679999Y-96153547D01*
X104477158Y-98647999D02*
X105882842Y-98647999D01*
X103611701Y-97994710D02*
G75*
G03*
X103680000Y-97742452I-431701J252258D01*
G01*
X103680000Y-96153548D02*
G75*
G03*
X103611701Y-95901289I-500000J0D01*
G01*
X104260281Y-95198516D02*
G75*
G03*
X103611701Y-95901289I-216879J-450515D01*
G01*
X104260280Y-95198516D02*
G75*
G03*
X104477158Y-95248001I216878J450515D01*
G01*
X105882843Y-95248001D02*
G75*
G03*
X106099720Y-95198516I-1J500000D01*
G01*
X106748297Y-95901289D02*
G75*
G03*
X106099720Y-95198516I-431700J252258D01*
G01*
X106748298Y-95901289D02*
G75*
G03*
X106679999Y-96153547I431701J-252258D01*
G01*
X106680000Y-97742453D02*
G75*
G03*
X106748299Y-97994711I499999J1D01*
G01*
X106099720Y-98697484D02*
G75*
G03*
X106748299Y-97994711I216878J450515D01*
G01*
X106099720Y-98697484D02*
G75*
G03*
X105882842Y-98647999I-216878J-450515D01*
G01*
X104477157Y-98647999D02*
G75*
G03*
X104260280Y-98697484I1J-500000D01*
G01*
X103611703Y-97994711D02*
G75*
G03*
X104260280Y-98697484I431700J-252258D01*
G01*
%TO.C,D14*%
X145294452Y-76580000D02*
X143705548Y-76580000D01*
X146199999Y-78782842D02*
X146199999Y-77377158D01*
X143705548Y-79579999D02*
X145294453Y-79579999D01*
X142800001Y-77377158D02*
X142800001Y-78782842D01*
X143453290Y-76511701D02*
G75*
G03*
X143705548Y-76580000I252258J431701D01*
G01*
X145294452Y-76580000D02*
G75*
G03*
X145546711Y-76511701I0J500000D01*
G01*
X146249484Y-77160281D02*
G75*
G03*
X145546711Y-76511701I-450515J216879D01*
G01*
X146249484Y-77160280D02*
G75*
G03*
X146199999Y-77377158I450515J-216878D01*
G01*
X146199999Y-78782843D02*
G75*
G03*
X146249484Y-78999720I500000J1D01*
G01*
X145546711Y-79648297D02*
G75*
G03*
X146249484Y-78999720I252258J431700D01*
G01*
X145546711Y-79648298D02*
G75*
G03*
X145294453Y-79579999I-252258J-431701D01*
G01*
X143705547Y-79580000D02*
G75*
G03*
X143453289Y-79648299I1J-499999D01*
G01*
X142750516Y-78999720D02*
G75*
G03*
X143453289Y-79648299I450515J-216878D01*
G01*
X142750516Y-78999720D02*
G75*
G03*
X142800001Y-78782842I-450515J216878D01*
G01*
X142800001Y-77377157D02*
G75*
G03*
X142750516Y-77160280I-500000J-1D01*
G01*
X143453289Y-76511703D02*
G75*
G03*
X142750516Y-77160280I-252258J-431700D01*
G01*
%TO.C,D13*%
X167262452Y-76580000D02*
X165673548Y-76580000D01*
X168167999Y-78782842D02*
X168167999Y-77377158D01*
X165673548Y-79579999D02*
X167262453Y-79579999D01*
X164768001Y-77377158D02*
X164768001Y-78782842D01*
X165421290Y-76511701D02*
G75*
G03*
X165673548Y-76580000I252258J431701D01*
G01*
X167262452Y-76580000D02*
G75*
G03*
X167514711Y-76511701I0J500000D01*
G01*
X168217484Y-77160281D02*
G75*
G03*
X167514711Y-76511701I-450515J216879D01*
G01*
X168217484Y-77160280D02*
G75*
G03*
X168167999Y-77377158I450515J-216878D01*
G01*
X168167999Y-78782843D02*
G75*
G03*
X168217484Y-78999720I500000J1D01*
G01*
X167514711Y-79648297D02*
G75*
G03*
X168217484Y-78999720I252258J431700D01*
G01*
X167514711Y-79648298D02*
G75*
G03*
X167262453Y-79579999I-252258J-431701D01*
G01*
X165673547Y-79580000D02*
G75*
G03*
X165421289Y-79648299I1J-499999D01*
G01*
X164718516Y-78999720D02*
G75*
G03*
X165421289Y-79648299I450515J-216878D01*
G01*
X164718516Y-78999720D02*
G75*
G03*
X164768001Y-78782842I-450515J216878D01*
G01*
X164768001Y-77377157D02*
G75*
G03*
X164718516Y-77160280I-500000J-1D01*
G01*
X165421289Y-76511703D02*
G75*
G03*
X164718516Y-77160280I-252258J-431700D01*
G01*
%TO.C,D12*%
X189360452Y-76580000D02*
X187771548Y-76580000D01*
X190265999Y-78782842D02*
X190265999Y-77377158D01*
X187771548Y-79579999D02*
X189360453Y-79579999D01*
X186866001Y-77377158D02*
X186866001Y-78782842D01*
X187519290Y-76511701D02*
G75*
G03*
X187771548Y-76580000I252258J431701D01*
G01*
X189360452Y-76580000D02*
G75*
G03*
X189612711Y-76511701I0J500000D01*
G01*
X190315484Y-77160281D02*
G75*
G03*
X189612711Y-76511701I-450515J216879D01*
G01*
X190315484Y-77160280D02*
G75*
G03*
X190265999Y-77377158I450515J-216878D01*
G01*
X190265999Y-78782843D02*
G75*
G03*
X190315484Y-78999720I500000J1D01*
G01*
X189612711Y-79648297D02*
G75*
G03*
X190315484Y-78999720I252258J431700D01*
G01*
X189612711Y-79648298D02*
G75*
G03*
X189360453Y-79579999I-252258J-431701D01*
G01*
X187771547Y-79580000D02*
G75*
G03*
X187519289Y-79648299I1J-499999D01*
G01*
X186816516Y-78999720D02*
G75*
G03*
X187519289Y-79648299I450515J-216878D01*
G01*
X186816516Y-78999720D02*
G75*
G03*
X186866001Y-78782842I-450515J216878D01*
G01*
X186866001Y-77377157D02*
G75*
G03*
X186816516Y-77160280I-500000J-1D01*
G01*
X187519289Y-76511703D02*
G75*
G03*
X186816516Y-77160280I-252258J-431700D01*
G01*
%TO.C,D15*%
X123320452Y-76580000D02*
X121731548Y-76580000D01*
X124225999Y-78782842D02*
X124225999Y-77377158D01*
X121731548Y-79579999D02*
X123320453Y-79579999D01*
X120826001Y-77377158D02*
X120826001Y-78782842D01*
X121479290Y-76511701D02*
G75*
G03*
X121731548Y-76580000I252258J431701D01*
G01*
X123320452Y-76580000D02*
G75*
G03*
X123572711Y-76511701I0J500000D01*
G01*
X124275484Y-77160281D02*
G75*
G03*
X123572711Y-76511701I-450515J216879D01*
G01*
X124275484Y-77160280D02*
G75*
G03*
X124225999Y-77377158I450515J-216878D01*
G01*
X124225999Y-78782843D02*
G75*
G03*
X124275484Y-78999720I500000J1D01*
G01*
X123572711Y-79648297D02*
G75*
G03*
X124275484Y-78999720I252258J431700D01*
G01*
X123572711Y-79648298D02*
G75*
G03*
X123320453Y-79579999I-252258J-431701D01*
G01*
X121731547Y-79580000D02*
G75*
G03*
X121479289Y-79648299I1J-499999D01*
G01*
X120776516Y-78999720D02*
G75*
G03*
X121479289Y-79648299I450515J-216878D01*
G01*
X120776516Y-78999720D02*
G75*
G03*
X120826001Y-78782842I-450515J216878D01*
G01*
X120826001Y-77377157D02*
G75*
G03*
X120776516Y-77160280I-500000J-1D01*
G01*
X121479289Y-76511703D02*
G75*
G03*
X120776516Y-77160280I-252258J-431700D01*
G01*
%TD*%
M02*
