%TF.GenerationSoftware,KiCad,Pcbnew,(5.1.10)-1*%
%TF.CreationDate,2022-02-17T21:55:52+01:00*%
%TF.ProjectId,keyboardEink,6b657962-6f61-4726-9445-696e6b2e6b69,rev?*%
%TF.SameCoordinates,Original*%
%TF.FileFunction,Soldermask,Top*%
%TF.FilePolarity,Negative*%
%FSLAX46Y46*%
G04 Gerber Fmt 4.6, Leading zero omitted, Abs format (unit mm)*
G04 Created by KiCad (PCBNEW (5.1.10)-1) date 2022-02-17 21:55:52*
%MOMM*%
%LPD*%
G01*
G04 APERTURE LIST*
%ADD10O,1.800000X1.200000*%
%ADD11O,2.000000X1.200000*%
%ADD12C,0.750000*%
%ADD13O,1.700000X1.700000*%
%ADD14R,1.700000X1.700000*%
%ADD15R,0.900000X1.200000*%
%ADD16C,0.100000*%
%ADD17R,3.100000X2.300000*%
%ADD18R,1.100000X0.300000*%
%ADD19O,1.000000X1.000000*%
%ADD20R,1.000000X1.000000*%
%ADD21C,2.000000*%
%ADD22R,2.000000X2.000000*%
%ADD23R,2.000000X3.200000*%
%ADD24C,1.700000*%
%ADD25C,4.000000*%
%ADD26C,2.200000*%
%ADD27R,1.000000X1.500000*%
%ADD28R,0.450000X0.700000*%
%ADD29R,1.200000X0.900000*%
G04 APERTURE END LIST*
D10*
%TO.C,U8*%
X76966000Y-107115000D03*
D11*
X81166000Y-107115000D03*
X81166000Y-98465000D03*
D10*
X76966000Y-98465000D03*
D12*
X80666000Y-99890000D03*
X80666000Y-105690000D03*
%TD*%
D13*
%TO.C,J12*%
X201266000Y-119700000D03*
X198726000Y-119700000D03*
X196186000Y-119700000D03*
D14*
X193646000Y-119700000D03*
%TD*%
%TO.C,R34*%
G36*
G01*
X225453999Y-111876000D02*
X226354001Y-111876000D01*
G75*
G02*
X226604000Y-112125999I0J-249999D01*
G01*
X226604000Y-112776001D01*
G75*
G02*
X226354001Y-113026000I-249999J0D01*
G01*
X225453999Y-113026000D01*
G75*
G02*
X225204000Y-112776001I0J249999D01*
G01*
X225204000Y-112125999D01*
G75*
G02*
X225453999Y-111876000I249999J0D01*
G01*
G37*
G36*
G01*
X225453999Y-109826000D02*
X226354001Y-109826000D01*
G75*
G02*
X226604000Y-110075999I0J-249999D01*
G01*
X226604000Y-110726001D01*
G75*
G02*
X226354001Y-110976000I-249999J0D01*
G01*
X225453999Y-110976000D01*
G75*
G02*
X225204000Y-110726001I0J249999D01*
G01*
X225204000Y-110075999D01*
G75*
G02*
X225453999Y-109826000I249999J0D01*
G01*
G37*
%TD*%
D15*
%TO.C,D20*%
X220444000Y-114982000D03*
X223744000Y-114982000D03*
%TD*%
%TO.C,D19*%
X220444000Y-112442000D03*
X223744000Y-112442000D03*
%TD*%
%TO.C,D18*%
X220444000Y-109902000D03*
X223744000Y-109902000D03*
%TD*%
D16*
%TO.C,AE1*%
G36*
X228761905Y-119002650D02*
G01*
X225216597Y-118377516D01*
X225437131Y-117126810D01*
X228982439Y-117751944D01*
X228761905Y-119002650D01*
G37*
G36*
X229343996Y-116277324D02*
G01*
X225207803Y-115548002D01*
X225442228Y-114218512D01*
X229578421Y-114947834D01*
X229343996Y-116277324D01*
G37*
G36*
X228362884Y-121841488D02*
G01*
X224226691Y-121112166D01*
X224461116Y-119782676D01*
X228597309Y-120511998D01*
X228362884Y-121841488D01*
G37*
%TD*%
%TO.C,J19*%
G36*
G01*
X199849735Y-125788867D02*
X199849735Y-125788867D01*
G75*
G02*
X199744966Y-126986374I-651138J-546369D01*
G01*
X199744966Y-126986374D01*
G75*
G02*
X198547459Y-126881605I-546369J651138D01*
G01*
X198547459Y-126881605D01*
G75*
G02*
X198652228Y-125684098I651138J546369D01*
G01*
X198652228Y-125684098D01*
G75*
G02*
X199849735Y-125788867I546369J-651138D01*
G01*
G37*
G36*
G01*
X201482416Y-127734619D02*
X201482416Y-127734619D01*
G75*
G02*
X201377647Y-128932126I-651138J-546369D01*
G01*
X201377647Y-128932126D01*
G75*
G02*
X200180140Y-128827357I-546369J651138D01*
G01*
X200180140Y-128827357D01*
G75*
G02*
X200284909Y-127629850I651138J546369D01*
G01*
X200284909Y-127629850D01*
G75*
G02*
X201482416Y-127734619I546369J-651138D01*
G01*
G37*
G36*
G01*
X203115096Y-129680372D02*
X203115096Y-129680372D01*
G75*
G02*
X203010327Y-130877879I-651138J-546369D01*
G01*
X203010327Y-130877879D01*
G75*
G02*
X201812820Y-130773110I-546369J651138D01*
G01*
X201812820Y-130773110D01*
G75*
G02*
X201917589Y-129575603I651138J546369D01*
G01*
X201917589Y-129575603D01*
G75*
G02*
X203115096Y-129680372I546369J-651138D01*
G01*
G37*
G36*
G01*
X204747777Y-131626125D02*
X204747777Y-131626125D01*
G75*
G02*
X204643008Y-132823632I-651138J-546369D01*
G01*
X204643008Y-132823632D01*
G75*
G02*
X203445501Y-132718863I-546369J651138D01*
G01*
X203445501Y-132718863D01*
G75*
G02*
X203550270Y-131521356I651138J546369D01*
G01*
X203550270Y-131521356D01*
G75*
G02*
X204747777Y-131626125I546369J-651138D01*
G01*
G37*
G36*
G01*
X206380457Y-133571878D02*
X206380457Y-133571878D01*
G75*
G02*
X206275688Y-134769385I-651138J-546369D01*
G01*
X206275688Y-134769385D01*
G75*
G02*
X205078181Y-134664616I-546369J651138D01*
G01*
X205078181Y-134664616D01*
G75*
G02*
X205182950Y-133467109I651138J546369D01*
G01*
X205182950Y-133467109D01*
G75*
G02*
X206380457Y-133571878I546369J-651138D01*
G01*
G37*
G36*
X207466768Y-134866493D02*
G01*
X208559507Y-136168768D01*
X207257232Y-137261507D01*
X206164493Y-135959232D01*
X207466768Y-134866493D01*
G37*
%TD*%
%TO.C,U7*%
G36*
X213372191Y-114393198D02*
G01*
X212729404Y-113627153D01*
X214261493Y-112341578D01*
X214904280Y-113107623D01*
X213372191Y-114393198D01*
G37*
G36*
X214657766Y-115925287D02*
G01*
X214014979Y-115159242D01*
X215547068Y-113873667D01*
X216189855Y-114639712D01*
X214657766Y-115925287D01*
G37*
G36*
X215943342Y-117457376D02*
G01*
X215300555Y-116691331D01*
X216832644Y-115405756D01*
X217475431Y-116171801D01*
X215943342Y-117457376D01*
G37*
G36*
X217228917Y-118989465D02*
G01*
X216586130Y-118223420D01*
X218118219Y-116937845D01*
X218761006Y-117703890D01*
X217228917Y-118989465D01*
G37*
G36*
X218514492Y-120521554D02*
G01*
X217871705Y-119755509D01*
X219403794Y-118469934D01*
X220046581Y-119235979D01*
X218514492Y-120521554D01*
G37*
G36*
X219800067Y-122053642D02*
G01*
X219157280Y-121287597D01*
X220689369Y-120002022D01*
X221332156Y-120768067D01*
X219800067Y-122053642D01*
G37*
G36*
X221085643Y-123585731D02*
G01*
X220442856Y-122819686D01*
X221974945Y-121534111D01*
X222617732Y-122300156D01*
X221085643Y-123585731D01*
G37*
G36*
X222371218Y-125117820D02*
G01*
X221728431Y-124351775D01*
X223260520Y-123066200D01*
X223903307Y-123832245D01*
X222371218Y-125117820D01*
G37*
G36*
X210114507Y-135402422D02*
G01*
X209471720Y-134636377D01*
X211003809Y-133350802D01*
X211646596Y-134116847D01*
X210114507Y-135402422D01*
G37*
G36*
X208828932Y-133870333D02*
G01*
X208186145Y-133104288D01*
X209718234Y-131818713D01*
X210361021Y-132584758D01*
X208828932Y-133870333D01*
G37*
G36*
X207543356Y-132338244D02*
G01*
X206900569Y-131572199D01*
X208432658Y-130286624D01*
X209075445Y-131052669D01*
X207543356Y-132338244D01*
G37*
G36*
X206257781Y-130806155D02*
G01*
X205614994Y-130040110D01*
X207147083Y-128754535D01*
X207789870Y-129520580D01*
X206257781Y-130806155D01*
G37*
G36*
X204972206Y-129274066D02*
G01*
X204329419Y-128508021D01*
X205861508Y-127222446D01*
X206504295Y-127988491D01*
X204972206Y-129274066D01*
G37*
G36*
X203686631Y-127741978D02*
G01*
X203043844Y-126975933D01*
X204575933Y-125690358D01*
X205218720Y-126456403D01*
X203686631Y-127741978D01*
G37*
G36*
X202401055Y-126209889D02*
G01*
X201758268Y-125443844D01*
X203290357Y-124158269D01*
X203933144Y-124924314D01*
X202401055Y-126209889D01*
G37*
G36*
X201115480Y-124677800D02*
G01*
X200472693Y-123911755D01*
X202004782Y-122626180D01*
X202647569Y-123392225D01*
X201115480Y-124677800D01*
G37*
%TD*%
D13*
%TO.C,J18*%
X86712000Y-101012000D03*
X86712000Y-103552000D03*
X86712000Y-106092000D03*
D14*
X86712000Y-108632000D03*
%TD*%
D13*
%TO.C,J17*%
X146148000Y-94154000D03*
D14*
X148688000Y-94154000D03*
%TD*%
%TO.C,J16*%
X165960000Y-91106000D03*
%TD*%
%TO.C,J15*%
X205076000Y-69770000D03*
%TD*%
%TO.C,R31*%
G36*
G01*
X206854001Y-84119604D02*
X206217604Y-84756001D01*
G75*
G02*
X205864052Y-84756001I-176776J176776D01*
G01*
X205404431Y-84296380D01*
G75*
G02*
X205404431Y-83942828I176776J176776D01*
G01*
X206040828Y-83306431D01*
G75*
G02*
X206394380Y-83306431I176776J-176776D01*
G01*
X206854001Y-83766052D01*
G75*
G02*
X206854001Y-84119604I-176776J-176776D01*
G01*
G37*
G36*
G01*
X208303569Y-85569172D02*
X207667172Y-86205569D01*
G75*
G02*
X207313620Y-86205569I-176776J176776D01*
G01*
X206853999Y-85745948D01*
G75*
G02*
X206853999Y-85392396I176776J176776D01*
G01*
X207490396Y-84755999D01*
G75*
G02*
X207843948Y-84755999I176776J-176776D01*
G01*
X208303569Y-85215620D01*
G75*
G02*
X208303569Y-85569172I-176776J-176776D01*
G01*
G37*
%TD*%
D13*
%TO.C,J13*%
X190852000Y-86788000D03*
D14*
X193392000Y-86788000D03*
%TD*%
D16*
%TO.C,JP5*%
G36*
X162008000Y-91601398D02*
G01*
X161983466Y-91601398D01*
X161934635Y-91596588D01*
X161886510Y-91587016D01*
X161839555Y-91572772D01*
X161794222Y-91553995D01*
X161750949Y-91530864D01*
X161710150Y-91503604D01*
X161672221Y-91472476D01*
X161637524Y-91437779D01*
X161606396Y-91399850D01*
X161579136Y-91359051D01*
X161556005Y-91315778D01*
X161537228Y-91270445D01*
X161522984Y-91223490D01*
X161513412Y-91175365D01*
X161508602Y-91126534D01*
X161508602Y-91102000D01*
X161508000Y-91102000D01*
X161508000Y-90602000D01*
X161508602Y-90602000D01*
X161508602Y-90577466D01*
X161513412Y-90528635D01*
X161522984Y-90480510D01*
X161537228Y-90433555D01*
X161556005Y-90388222D01*
X161579136Y-90344949D01*
X161606396Y-90304150D01*
X161637524Y-90266221D01*
X161672221Y-90231524D01*
X161710150Y-90200396D01*
X161750949Y-90173136D01*
X161794222Y-90150005D01*
X161839555Y-90131228D01*
X161886510Y-90116984D01*
X161934635Y-90107412D01*
X161983466Y-90102602D01*
X162008000Y-90102602D01*
X162008000Y-90102000D01*
X162508000Y-90102000D01*
X162508000Y-91602000D01*
X162008000Y-91602000D01*
X162008000Y-91601398D01*
G37*
G36*
X162808000Y-90102000D02*
G01*
X163308000Y-90102000D01*
X163308000Y-90102602D01*
X163332534Y-90102602D01*
X163381365Y-90107412D01*
X163429490Y-90116984D01*
X163476445Y-90131228D01*
X163521778Y-90150005D01*
X163565051Y-90173136D01*
X163605850Y-90200396D01*
X163643779Y-90231524D01*
X163678476Y-90266221D01*
X163709604Y-90304150D01*
X163736864Y-90344949D01*
X163759995Y-90388222D01*
X163778772Y-90433555D01*
X163793016Y-90480510D01*
X163802588Y-90528635D01*
X163807398Y-90577466D01*
X163807398Y-90602000D01*
X163808000Y-90602000D01*
X163808000Y-91102000D01*
X163807398Y-91102000D01*
X163807398Y-91126534D01*
X163802588Y-91175365D01*
X163793016Y-91223490D01*
X163778772Y-91270445D01*
X163759995Y-91315778D01*
X163736864Y-91359051D01*
X163709604Y-91399850D01*
X163678476Y-91437779D01*
X163643779Y-91472476D01*
X163605850Y-91503604D01*
X163565051Y-91530864D01*
X163521778Y-91553995D01*
X163476445Y-91572772D01*
X163429490Y-91587016D01*
X163381365Y-91596588D01*
X163332534Y-91601398D01*
X163308000Y-91601398D01*
X163308000Y-91602000D01*
X162808000Y-91602000D01*
X162808000Y-90102000D01*
G37*
%TD*%
%TO.C,JP4*%
G36*
X162008000Y-89061398D02*
G01*
X161983466Y-89061398D01*
X161934635Y-89056588D01*
X161886510Y-89047016D01*
X161839555Y-89032772D01*
X161794222Y-89013995D01*
X161750949Y-88990864D01*
X161710150Y-88963604D01*
X161672221Y-88932476D01*
X161637524Y-88897779D01*
X161606396Y-88859850D01*
X161579136Y-88819051D01*
X161556005Y-88775778D01*
X161537228Y-88730445D01*
X161522984Y-88683490D01*
X161513412Y-88635365D01*
X161508602Y-88586534D01*
X161508602Y-88562000D01*
X161508000Y-88562000D01*
X161508000Y-88062000D01*
X161508602Y-88062000D01*
X161508602Y-88037466D01*
X161513412Y-87988635D01*
X161522984Y-87940510D01*
X161537228Y-87893555D01*
X161556005Y-87848222D01*
X161579136Y-87804949D01*
X161606396Y-87764150D01*
X161637524Y-87726221D01*
X161672221Y-87691524D01*
X161710150Y-87660396D01*
X161750949Y-87633136D01*
X161794222Y-87610005D01*
X161839555Y-87591228D01*
X161886510Y-87576984D01*
X161934635Y-87567412D01*
X161983466Y-87562602D01*
X162008000Y-87562602D01*
X162008000Y-87562000D01*
X162508000Y-87562000D01*
X162508000Y-89062000D01*
X162008000Y-89062000D01*
X162008000Y-89061398D01*
G37*
G36*
X162808000Y-87562000D02*
G01*
X163308000Y-87562000D01*
X163308000Y-87562602D01*
X163332534Y-87562602D01*
X163381365Y-87567412D01*
X163429490Y-87576984D01*
X163476445Y-87591228D01*
X163521778Y-87610005D01*
X163565051Y-87633136D01*
X163605850Y-87660396D01*
X163643779Y-87691524D01*
X163678476Y-87726221D01*
X163709604Y-87764150D01*
X163736864Y-87804949D01*
X163759995Y-87848222D01*
X163778772Y-87893555D01*
X163793016Y-87940510D01*
X163802588Y-87988635D01*
X163807398Y-88037466D01*
X163807398Y-88062000D01*
X163808000Y-88062000D01*
X163808000Y-88562000D01*
X163807398Y-88562000D01*
X163807398Y-88586534D01*
X163802588Y-88635365D01*
X163793016Y-88683490D01*
X163778772Y-88730445D01*
X163759995Y-88775778D01*
X163736864Y-88819051D01*
X163709604Y-88859850D01*
X163678476Y-88897779D01*
X163643779Y-88932476D01*
X163605850Y-88963604D01*
X163565051Y-88990864D01*
X163521778Y-89013995D01*
X163476445Y-89032772D01*
X163429490Y-89047016D01*
X163381365Y-89056588D01*
X163332534Y-89061398D01*
X163308000Y-89061398D01*
X163308000Y-89062000D01*
X162808000Y-89062000D01*
X162808000Y-87562000D01*
G37*
%TD*%
D17*
%TO.C,U2*%
X197552000Y-94608000D03*
X197552000Y-109448000D03*
D18*
X195852000Y-96278000D03*
X195852000Y-96778000D03*
X195852000Y-97278000D03*
X195852000Y-97778000D03*
X195852000Y-98278000D03*
X195852000Y-98778000D03*
X195852000Y-99278000D03*
X195852000Y-99778000D03*
X195852000Y-100278000D03*
X195852000Y-100778000D03*
X195852000Y-101278000D03*
X195852000Y-101778000D03*
X195852000Y-102278000D03*
X195852000Y-102778000D03*
X195852000Y-103278000D03*
X195852000Y-103778000D03*
X195852000Y-104278000D03*
X195852000Y-104778000D03*
X195852000Y-105278000D03*
X195852000Y-105778000D03*
X195852000Y-106278000D03*
X195852000Y-106778000D03*
X195852000Y-107278000D03*
X195852000Y-107778000D03*
%TD*%
D19*
%TO.C,J11*%
X192122000Y-105360000D03*
X192122000Y-104090000D03*
X192122000Y-102820000D03*
X192122000Y-101550000D03*
X192122000Y-100280000D03*
X192122000Y-99010000D03*
D20*
X192122000Y-97740000D03*
%TD*%
D14*
%TO.C,J4*%
X102460000Y-88100000D03*
%TD*%
%TO.C,D11*%
G36*
G01*
X163150000Y-136403999D02*
X164586000Y-136403999D01*
G75*
G02*
X164668000Y-136485999I0J-82000D01*
G01*
X164668000Y-137141999D01*
G75*
G02*
X164586000Y-137223999I-82000J0D01*
G01*
X163150000Y-137223999D01*
G75*
G02*
X163068000Y-137141999I0J82000D01*
G01*
X163068000Y-136485999D01*
G75*
G02*
X163150000Y-136403999I82000J0D01*
G01*
G37*
G36*
G01*
X163150000Y-134903999D02*
X164586000Y-134903999D01*
G75*
G02*
X164668000Y-134985999I0J-82000D01*
G01*
X164668000Y-135641999D01*
G75*
G02*
X164586000Y-135723999I-82000J0D01*
G01*
X163150000Y-135723999D01*
G75*
G02*
X163068000Y-135641999I0J82000D01*
G01*
X163068000Y-134985999D01*
G75*
G02*
X163150000Y-134903999I82000J0D01*
G01*
G37*
G36*
G01*
X168350000Y-136403999D02*
X169786000Y-136403999D01*
G75*
G02*
X169868000Y-136485999I0J-82000D01*
G01*
X169868000Y-137141999D01*
G75*
G02*
X169786000Y-137223999I-82000J0D01*
G01*
X168350000Y-137223999D01*
G75*
G02*
X168268000Y-137141999I0J82000D01*
G01*
X168268000Y-136485999D01*
G75*
G02*
X168350000Y-136403999I82000J0D01*
G01*
G37*
G36*
G01*
X168350000Y-134903999D02*
X169786000Y-134903999D01*
G75*
G02*
X169868000Y-134985999I0J-82000D01*
G01*
X169868000Y-135641999D01*
G75*
G02*
X169786000Y-135723999I-82000J0D01*
G01*
X168350000Y-135723999D01*
G75*
G02*
X168268000Y-135641999I0J82000D01*
G01*
X168268000Y-134985999D01*
G75*
G02*
X168350000Y-134903999I82000J0D01*
G01*
G37*
%TD*%
%TO.C,D10*%
G36*
G01*
X224973999Y-106870000D02*
X224973999Y-105434000D01*
G75*
G02*
X225055999Y-105352000I82000J0D01*
G01*
X225711999Y-105352000D01*
G75*
G02*
X225793999Y-105434000I0J-82000D01*
G01*
X225793999Y-106870000D01*
G75*
G02*
X225711999Y-106952000I-82000J0D01*
G01*
X225055999Y-106952000D01*
G75*
G02*
X224973999Y-106870000I0J82000D01*
G01*
G37*
G36*
G01*
X223473999Y-106870000D02*
X223473999Y-105434000D01*
G75*
G02*
X223555999Y-105352000I82000J0D01*
G01*
X224211999Y-105352000D01*
G75*
G02*
X224293999Y-105434000I0J-82000D01*
G01*
X224293999Y-106870000D01*
G75*
G02*
X224211999Y-106952000I-82000J0D01*
G01*
X223555999Y-106952000D01*
G75*
G02*
X223473999Y-106870000I0J82000D01*
G01*
G37*
G36*
G01*
X224973999Y-101670000D02*
X224973999Y-100234000D01*
G75*
G02*
X225055999Y-100152000I82000J0D01*
G01*
X225711999Y-100152000D01*
G75*
G02*
X225793999Y-100234000I0J-82000D01*
G01*
X225793999Y-101670000D01*
G75*
G02*
X225711999Y-101752000I-82000J0D01*
G01*
X225055999Y-101752000D01*
G75*
G02*
X224973999Y-101670000I0J82000D01*
G01*
G37*
G36*
G01*
X223473999Y-101670000D02*
X223473999Y-100234000D01*
G75*
G02*
X223555999Y-100152000I82000J0D01*
G01*
X224211999Y-100152000D01*
G75*
G02*
X224293999Y-100234000I0J-82000D01*
G01*
X224293999Y-101670000D01*
G75*
G02*
X224211999Y-101752000I-82000J0D01*
G01*
X223555999Y-101752000D01*
G75*
G02*
X223473999Y-101670000I0J82000D01*
G01*
G37*
%TD*%
%TO.C,D6*%
G36*
G01*
X185248000Y-136403999D02*
X186684000Y-136403999D01*
G75*
G02*
X186766000Y-136485999I0J-82000D01*
G01*
X186766000Y-137141999D01*
G75*
G02*
X186684000Y-137223999I-82000J0D01*
G01*
X185248000Y-137223999D01*
G75*
G02*
X185166000Y-137141999I0J82000D01*
G01*
X185166000Y-136485999D01*
G75*
G02*
X185248000Y-136403999I82000J0D01*
G01*
G37*
G36*
G01*
X185248000Y-134903999D02*
X186684000Y-134903999D01*
G75*
G02*
X186766000Y-134985999I0J-82000D01*
G01*
X186766000Y-135641999D01*
G75*
G02*
X186684000Y-135723999I-82000J0D01*
G01*
X185248000Y-135723999D01*
G75*
G02*
X185166000Y-135641999I0J82000D01*
G01*
X185166000Y-134985999D01*
G75*
G02*
X185248000Y-134903999I82000J0D01*
G01*
G37*
G36*
G01*
X190448000Y-136403999D02*
X191884000Y-136403999D01*
G75*
G02*
X191966000Y-136485999I0J-82000D01*
G01*
X191966000Y-137141999D01*
G75*
G02*
X191884000Y-137223999I-82000J0D01*
G01*
X190448000Y-137223999D01*
G75*
G02*
X190366000Y-137141999I0J82000D01*
G01*
X190366000Y-136485999D01*
G75*
G02*
X190448000Y-136403999I82000J0D01*
G01*
G37*
G36*
G01*
X190448000Y-134903999D02*
X191884000Y-134903999D01*
G75*
G02*
X191966000Y-134985999I0J-82000D01*
G01*
X191966000Y-135641999D01*
G75*
G02*
X191884000Y-135723999I-82000J0D01*
G01*
X190448000Y-135723999D01*
G75*
G02*
X190366000Y-135641999I0J82000D01*
G01*
X190366000Y-134985999D01*
G75*
G02*
X190448000Y-134903999I82000J0D01*
G01*
G37*
%TD*%
%TO.C,D5*%
G36*
G01*
X141306000Y-136403999D02*
X142742000Y-136403999D01*
G75*
G02*
X142824000Y-136485999I0J-82000D01*
G01*
X142824000Y-137141999D01*
G75*
G02*
X142742000Y-137223999I-82000J0D01*
G01*
X141306000Y-137223999D01*
G75*
G02*
X141224000Y-137141999I0J82000D01*
G01*
X141224000Y-136485999D01*
G75*
G02*
X141306000Y-136403999I82000J0D01*
G01*
G37*
G36*
G01*
X141306000Y-134903999D02*
X142742000Y-134903999D01*
G75*
G02*
X142824000Y-134985999I0J-82000D01*
G01*
X142824000Y-135641999D01*
G75*
G02*
X142742000Y-135723999I-82000J0D01*
G01*
X141306000Y-135723999D01*
G75*
G02*
X141224000Y-135641999I0J82000D01*
G01*
X141224000Y-134985999D01*
G75*
G02*
X141306000Y-134903999I82000J0D01*
G01*
G37*
G36*
G01*
X146506000Y-136403999D02*
X147942000Y-136403999D01*
G75*
G02*
X148024000Y-136485999I0J-82000D01*
G01*
X148024000Y-137141999D01*
G75*
G02*
X147942000Y-137223999I-82000J0D01*
G01*
X146506000Y-137223999D01*
G75*
G02*
X146424000Y-137141999I0J82000D01*
G01*
X146424000Y-136485999D01*
G75*
G02*
X146506000Y-136403999I82000J0D01*
G01*
G37*
G36*
G01*
X146506000Y-134903999D02*
X147942000Y-134903999D01*
G75*
G02*
X148024000Y-134985999I0J-82000D01*
G01*
X148024000Y-135641999D01*
G75*
G02*
X147942000Y-135723999I-82000J0D01*
G01*
X146506000Y-135723999D01*
G75*
G02*
X146424000Y-135641999I0J82000D01*
G01*
X146424000Y-134985999D01*
G75*
G02*
X146506000Y-134903999I82000J0D01*
G01*
G37*
%TD*%
%TO.C,D4*%
G36*
G01*
X119208000Y-136403999D02*
X120644000Y-136403999D01*
G75*
G02*
X120726000Y-136485999I0J-82000D01*
G01*
X120726000Y-137141999D01*
G75*
G02*
X120644000Y-137223999I-82000J0D01*
G01*
X119208000Y-137223999D01*
G75*
G02*
X119126000Y-137141999I0J82000D01*
G01*
X119126000Y-136485999D01*
G75*
G02*
X119208000Y-136403999I82000J0D01*
G01*
G37*
G36*
G01*
X119208000Y-134903999D02*
X120644000Y-134903999D01*
G75*
G02*
X120726000Y-134985999I0J-82000D01*
G01*
X120726000Y-135641999D01*
G75*
G02*
X120644000Y-135723999I-82000J0D01*
G01*
X119208000Y-135723999D01*
G75*
G02*
X119126000Y-135641999I0J82000D01*
G01*
X119126000Y-134985999D01*
G75*
G02*
X119208000Y-134903999I82000J0D01*
G01*
G37*
G36*
G01*
X124408000Y-136403999D02*
X125844000Y-136403999D01*
G75*
G02*
X125926000Y-136485999I0J-82000D01*
G01*
X125926000Y-137141999D01*
G75*
G02*
X125844000Y-137223999I-82000J0D01*
G01*
X124408000Y-137223999D01*
G75*
G02*
X124326000Y-137141999I0J82000D01*
G01*
X124326000Y-136485999D01*
G75*
G02*
X124408000Y-136403999I82000J0D01*
G01*
G37*
G36*
G01*
X124408000Y-134903999D02*
X125844000Y-134903999D01*
G75*
G02*
X125926000Y-134985999I0J-82000D01*
G01*
X125926000Y-135641999D01*
G75*
G02*
X125844000Y-135723999I-82000J0D01*
G01*
X124408000Y-135723999D01*
G75*
G02*
X124326000Y-135641999I0J82000D01*
G01*
X124326000Y-134985999D01*
G75*
G02*
X124408000Y-134903999I82000J0D01*
G01*
G37*
%TD*%
%TO.C,D16*%
G36*
G01*
X104840000Y-93630000D02*
X104840000Y-95066000D01*
G75*
G02*
X104758000Y-95148000I-82000J0D01*
G01*
X104102000Y-95148000D01*
G75*
G02*
X104020000Y-95066000I0J82000D01*
G01*
X104020000Y-93630000D01*
G75*
G02*
X104102000Y-93548000I82000J0D01*
G01*
X104758000Y-93548000D01*
G75*
G02*
X104840000Y-93630000I0J-82000D01*
G01*
G37*
G36*
G01*
X106340000Y-93630000D02*
X106340000Y-95066000D01*
G75*
G02*
X106258000Y-95148000I-82000J0D01*
G01*
X105602000Y-95148000D01*
G75*
G02*
X105520000Y-95066000I0J82000D01*
G01*
X105520000Y-93630000D01*
G75*
G02*
X105602000Y-93548000I82000J0D01*
G01*
X106258000Y-93548000D01*
G75*
G02*
X106340000Y-93630000I0J-82000D01*
G01*
G37*
G36*
G01*
X104840000Y-98830000D02*
X104840000Y-100266000D01*
G75*
G02*
X104758000Y-100348000I-82000J0D01*
G01*
X104102000Y-100348000D01*
G75*
G02*
X104020000Y-100266000I0J82000D01*
G01*
X104020000Y-98830000D01*
G75*
G02*
X104102000Y-98748000I82000J0D01*
G01*
X104758000Y-98748000D01*
G75*
G02*
X104840000Y-98830000I0J-82000D01*
G01*
G37*
G36*
G01*
X106340000Y-98830000D02*
X106340000Y-100266000D01*
G75*
G02*
X106258000Y-100348000I-82000J0D01*
G01*
X105602000Y-100348000D01*
G75*
G02*
X105520000Y-100266000I0J82000D01*
G01*
X105520000Y-98830000D01*
G75*
G02*
X105602000Y-98748000I82000J0D01*
G01*
X106258000Y-98748000D01*
G75*
G02*
X106340000Y-98830000I0J-82000D01*
G01*
G37*
%TD*%
%TO.C,D14*%
G36*
G01*
X147818000Y-77740000D02*
X146382000Y-77740000D01*
G75*
G02*
X146300000Y-77658000I0J82000D01*
G01*
X146300000Y-77002000D01*
G75*
G02*
X146382000Y-76920000I82000J0D01*
G01*
X147818000Y-76920000D01*
G75*
G02*
X147900000Y-77002000I0J-82000D01*
G01*
X147900000Y-77658000D01*
G75*
G02*
X147818000Y-77740000I-82000J0D01*
G01*
G37*
G36*
G01*
X147818000Y-79240000D02*
X146382000Y-79240000D01*
G75*
G02*
X146300000Y-79158000I0J82000D01*
G01*
X146300000Y-78502000D01*
G75*
G02*
X146382000Y-78420000I82000J0D01*
G01*
X147818000Y-78420000D01*
G75*
G02*
X147900000Y-78502000I0J-82000D01*
G01*
X147900000Y-79158000D01*
G75*
G02*
X147818000Y-79240000I-82000J0D01*
G01*
G37*
G36*
G01*
X142618000Y-77740000D02*
X141182000Y-77740000D01*
G75*
G02*
X141100000Y-77658000I0J82000D01*
G01*
X141100000Y-77002000D01*
G75*
G02*
X141182000Y-76920000I82000J0D01*
G01*
X142618000Y-76920000D01*
G75*
G02*
X142700000Y-77002000I0J-82000D01*
G01*
X142700000Y-77658000D01*
G75*
G02*
X142618000Y-77740000I-82000J0D01*
G01*
G37*
G36*
G01*
X142618000Y-79240000D02*
X141182000Y-79240000D01*
G75*
G02*
X141100000Y-79158000I0J82000D01*
G01*
X141100000Y-78502000D01*
G75*
G02*
X141182000Y-78420000I82000J0D01*
G01*
X142618000Y-78420000D01*
G75*
G02*
X142700000Y-78502000I0J-82000D01*
G01*
X142700000Y-79158000D01*
G75*
G02*
X142618000Y-79240000I-82000J0D01*
G01*
G37*
%TD*%
%TO.C,D13*%
G36*
G01*
X169786000Y-77740000D02*
X168350000Y-77740000D01*
G75*
G02*
X168268000Y-77658000I0J82000D01*
G01*
X168268000Y-77002000D01*
G75*
G02*
X168350000Y-76920000I82000J0D01*
G01*
X169786000Y-76920000D01*
G75*
G02*
X169868000Y-77002000I0J-82000D01*
G01*
X169868000Y-77658000D01*
G75*
G02*
X169786000Y-77740000I-82000J0D01*
G01*
G37*
G36*
G01*
X169786000Y-79240000D02*
X168350000Y-79240000D01*
G75*
G02*
X168268000Y-79158000I0J82000D01*
G01*
X168268000Y-78502000D01*
G75*
G02*
X168350000Y-78420000I82000J0D01*
G01*
X169786000Y-78420000D01*
G75*
G02*
X169868000Y-78502000I0J-82000D01*
G01*
X169868000Y-79158000D01*
G75*
G02*
X169786000Y-79240000I-82000J0D01*
G01*
G37*
G36*
G01*
X164586000Y-77740000D02*
X163150000Y-77740000D01*
G75*
G02*
X163068000Y-77658000I0J82000D01*
G01*
X163068000Y-77002000D01*
G75*
G02*
X163150000Y-76920000I82000J0D01*
G01*
X164586000Y-76920000D01*
G75*
G02*
X164668000Y-77002000I0J-82000D01*
G01*
X164668000Y-77658000D01*
G75*
G02*
X164586000Y-77740000I-82000J0D01*
G01*
G37*
G36*
G01*
X164586000Y-79240000D02*
X163150000Y-79240000D01*
G75*
G02*
X163068000Y-79158000I0J82000D01*
G01*
X163068000Y-78502000D01*
G75*
G02*
X163150000Y-78420000I82000J0D01*
G01*
X164586000Y-78420000D01*
G75*
G02*
X164668000Y-78502000I0J-82000D01*
G01*
X164668000Y-79158000D01*
G75*
G02*
X164586000Y-79240000I-82000J0D01*
G01*
G37*
%TD*%
%TO.C,D12*%
G36*
G01*
X191884000Y-77740000D02*
X190448000Y-77740000D01*
G75*
G02*
X190366000Y-77658000I0J82000D01*
G01*
X190366000Y-77002000D01*
G75*
G02*
X190448000Y-76920000I82000J0D01*
G01*
X191884000Y-76920000D01*
G75*
G02*
X191966000Y-77002000I0J-82000D01*
G01*
X191966000Y-77658000D01*
G75*
G02*
X191884000Y-77740000I-82000J0D01*
G01*
G37*
G36*
G01*
X191884000Y-79240000D02*
X190448000Y-79240000D01*
G75*
G02*
X190366000Y-79158000I0J82000D01*
G01*
X190366000Y-78502000D01*
G75*
G02*
X190448000Y-78420000I82000J0D01*
G01*
X191884000Y-78420000D01*
G75*
G02*
X191966000Y-78502000I0J-82000D01*
G01*
X191966000Y-79158000D01*
G75*
G02*
X191884000Y-79240000I-82000J0D01*
G01*
G37*
G36*
G01*
X186684000Y-77740000D02*
X185248000Y-77740000D01*
G75*
G02*
X185166000Y-77658000I0J82000D01*
G01*
X185166000Y-77002000D01*
G75*
G02*
X185248000Y-76920000I82000J0D01*
G01*
X186684000Y-76920000D01*
G75*
G02*
X186766000Y-77002000I0J-82000D01*
G01*
X186766000Y-77658000D01*
G75*
G02*
X186684000Y-77740000I-82000J0D01*
G01*
G37*
G36*
G01*
X186684000Y-79240000D02*
X185248000Y-79240000D01*
G75*
G02*
X185166000Y-79158000I0J82000D01*
G01*
X185166000Y-78502000D01*
G75*
G02*
X185248000Y-78420000I82000J0D01*
G01*
X186684000Y-78420000D01*
G75*
G02*
X186766000Y-78502000I0J-82000D01*
G01*
X186766000Y-79158000D01*
G75*
G02*
X186684000Y-79240000I-82000J0D01*
G01*
G37*
%TD*%
%TO.C,D15*%
G36*
G01*
X125844000Y-77740000D02*
X124408000Y-77740000D01*
G75*
G02*
X124326000Y-77658000I0J82000D01*
G01*
X124326000Y-77002000D01*
G75*
G02*
X124408000Y-76920000I82000J0D01*
G01*
X125844000Y-76920000D01*
G75*
G02*
X125926000Y-77002000I0J-82000D01*
G01*
X125926000Y-77658000D01*
G75*
G02*
X125844000Y-77740000I-82000J0D01*
G01*
G37*
G36*
G01*
X125844000Y-79240000D02*
X124408000Y-79240000D01*
G75*
G02*
X124326000Y-79158000I0J82000D01*
G01*
X124326000Y-78502000D01*
G75*
G02*
X124408000Y-78420000I82000J0D01*
G01*
X125844000Y-78420000D01*
G75*
G02*
X125926000Y-78502000I0J-82000D01*
G01*
X125926000Y-79158000D01*
G75*
G02*
X125844000Y-79240000I-82000J0D01*
G01*
G37*
G36*
G01*
X120644000Y-77740000D02*
X119208000Y-77740000D01*
G75*
G02*
X119126000Y-77658000I0J82000D01*
G01*
X119126000Y-77002000D01*
G75*
G02*
X119208000Y-76920000I82000J0D01*
G01*
X120644000Y-76920000D01*
G75*
G02*
X120726000Y-77002000I0J-82000D01*
G01*
X120726000Y-77658000D01*
G75*
G02*
X120644000Y-77740000I-82000J0D01*
G01*
G37*
G36*
G01*
X120644000Y-79240000D02*
X119208000Y-79240000D01*
G75*
G02*
X119126000Y-79158000I0J82000D01*
G01*
X119126000Y-78502000D01*
G75*
G02*
X119208000Y-78420000I82000J0D01*
G01*
X120644000Y-78420000D01*
G75*
G02*
X120726000Y-78502000I0J-82000D01*
G01*
X120726000Y-79158000D01*
G75*
G02*
X120644000Y-79240000I-82000J0D01*
G01*
G37*
%TD*%
%TO.C,F2*%
G36*
G01*
X162715999Y-105476000D02*
X163616001Y-105476000D01*
G75*
G02*
X163866000Y-105725999I0J-249999D01*
G01*
X163866000Y-106426001D01*
G75*
G02*
X163616001Y-106676000I-249999J0D01*
G01*
X162715999Y-106676000D01*
G75*
G02*
X162466000Y-106426001I0J249999D01*
G01*
X162466000Y-105725999D01*
G75*
G02*
X162715999Y-105476000I249999J0D01*
G01*
G37*
G36*
G01*
X162715999Y-103476000D02*
X163616001Y-103476000D01*
G75*
G02*
X163866000Y-103725999I0J-249999D01*
G01*
X163866000Y-104426001D01*
G75*
G02*
X163616001Y-104676000I-249999J0D01*
G01*
X162715999Y-104676000D01*
G75*
G02*
X162466000Y-104426001I0J249999D01*
G01*
X162466000Y-103725999D01*
G75*
G02*
X162715999Y-103476000I249999J0D01*
G01*
G37*
%TD*%
D13*
%TO.C,J10*%
X175480000Y-91000000D03*
X178020000Y-91000000D03*
X180560000Y-91000000D03*
X183100000Y-91000000D03*
X185640000Y-91000000D03*
X188180000Y-91000000D03*
X190720000Y-91000000D03*
D14*
X193260000Y-91000000D03*
%TD*%
%TO.C,R4*%
G36*
G01*
X113636001Y-114091604D02*
X112999604Y-114728001D01*
G75*
G02*
X112646052Y-114728001I-176776J176776D01*
G01*
X112186431Y-114268380D01*
G75*
G02*
X112186431Y-113914828I176776J176776D01*
G01*
X112822828Y-113278431D01*
G75*
G02*
X113176380Y-113278431I176776J-176776D01*
G01*
X113636001Y-113738052D01*
G75*
G02*
X113636001Y-114091604I-176776J-176776D01*
G01*
G37*
G36*
G01*
X115085569Y-115541172D02*
X114449172Y-116177569D01*
G75*
G02*
X114095620Y-116177569I-176776J176776D01*
G01*
X113635999Y-115717948D01*
G75*
G02*
X113635999Y-115364396I176776J176776D01*
G01*
X114272396Y-114727999D01*
G75*
G02*
X114625948Y-114727999I176776J-176776D01*
G01*
X115085569Y-115187620D01*
G75*
G02*
X115085569Y-115541172I-176776J-176776D01*
G01*
G37*
%TD*%
%TO.C,R3*%
G36*
G01*
X110588001Y-111043604D02*
X109951604Y-111680001D01*
G75*
G02*
X109598052Y-111680001I-176776J176776D01*
G01*
X109138431Y-111220380D01*
G75*
G02*
X109138431Y-110866828I176776J176776D01*
G01*
X109774828Y-110230431D01*
G75*
G02*
X110128380Y-110230431I176776J-176776D01*
G01*
X110588001Y-110690052D01*
G75*
G02*
X110588001Y-111043604I-176776J-176776D01*
G01*
G37*
G36*
G01*
X112037569Y-112493172D02*
X111401172Y-113129569D01*
G75*
G02*
X111047620Y-113129569I-176776J176776D01*
G01*
X110587999Y-112669948D01*
G75*
G02*
X110587999Y-112316396I176776J176776D01*
G01*
X111224396Y-111679999D01*
G75*
G02*
X111577948Y-111679999I176776J-176776D01*
G01*
X112037569Y-112139620D01*
G75*
G02*
X112037569Y-112493172I-176776J-176776D01*
G01*
G37*
%TD*%
D15*
%TO.C,D17*%
X168120000Y-84502000D03*
X171420000Y-84502000D03*
%TD*%
D14*
%TO.C,J5*%
X180184000Y-87042000D03*
%TD*%
D16*
%TO.C,SW11*%
G36*
X106270000Y-110773786D02*
G01*
X107684214Y-112188000D01*
X106270000Y-113602214D01*
X104855786Y-112188000D01*
X106270000Y-110773786D01*
G37*
D21*
X108037767Y-113955767D03*
X109805534Y-115723534D03*
D16*
G36*
X99198932Y-113460792D02*
G01*
X100613146Y-114875006D01*
X98350404Y-117137748D01*
X96936190Y-115723534D01*
X99198932Y-113460792D01*
G37*
G36*
X107118528Y-121380388D02*
G01*
X108532742Y-122794602D01*
X106270000Y-125057344D01*
X104855786Y-123643130D01*
X107118528Y-121380388D01*
G37*
D21*
X96016952Y-122441048D03*
X99552486Y-125976582D03*
%TD*%
D13*
%TO.C,J9*%
X221586000Y-92630000D03*
X219046000Y-92630000D03*
X216506000Y-92630000D03*
X213966000Y-92630000D03*
D14*
X211426000Y-92630000D03*
%TD*%
%TO.C,J8*%
G36*
G01*
X109592836Y-105418754D02*
X109592836Y-105418754D01*
G75*
G02*
X109592836Y-106620836I-601041J-601041D01*
G01*
X109592836Y-106620836D01*
G75*
G02*
X108390754Y-106620836I-601041J601041D01*
G01*
X108390754Y-106620836D01*
G75*
G02*
X108390754Y-105418754I601041J601041D01*
G01*
X108390754Y-105418754D01*
G75*
G02*
X109592836Y-105418754I601041J-601041D01*
G01*
G37*
G36*
G01*
X111388887Y-107214805D02*
X111388887Y-107214805D01*
G75*
G02*
X111388887Y-108416887I-601041J-601041D01*
G01*
X111388887Y-108416887D01*
G75*
G02*
X110186805Y-108416887I-601041J601041D01*
G01*
X110186805Y-108416887D01*
G75*
G02*
X110186805Y-107214805I601041J601041D01*
G01*
X110186805Y-107214805D01*
G75*
G02*
X111388887Y-107214805I601041J-601041D01*
G01*
G37*
G36*
G01*
X113184939Y-109010857D02*
X113184939Y-109010857D01*
G75*
G02*
X113184939Y-110212939I-601041J-601041D01*
G01*
X113184939Y-110212939D01*
G75*
G02*
X111982857Y-110212939I-601041J601041D01*
G01*
X111982857Y-110212939D01*
G75*
G02*
X111982857Y-109010857I601041J601041D01*
G01*
X111982857Y-109010857D01*
G75*
G02*
X113184939Y-109010857I601041J-601041D01*
G01*
G37*
G36*
G01*
X114980990Y-110806908D02*
X114980990Y-110806908D01*
G75*
G02*
X114980990Y-112008990I-601041J-601041D01*
G01*
X114980990Y-112008990D01*
G75*
G02*
X113778908Y-112008990I-601041J601041D01*
G01*
X113778908Y-112008990D01*
G75*
G02*
X113778908Y-110806908I601041J601041D01*
G01*
X113778908Y-110806908D01*
G75*
G02*
X114980990Y-110806908I601041J-601041D01*
G01*
G37*
D16*
G36*
X116176000Y-112001918D02*
G01*
X117378082Y-113204000D01*
X116176000Y-114406082D01*
X114973918Y-113204000D01*
X116176000Y-112001918D01*
G37*
%TD*%
D13*
%TO.C,J1*%
X165452000Y-94408000D03*
X162912000Y-94408000D03*
X160372000Y-94408000D03*
D14*
X157832000Y-94408000D03*
%TD*%
D22*
%TO.C,SW7*%
X211426000Y-96186000D03*
D21*
X213926000Y-96186000D03*
X216426000Y-96186000D03*
D23*
X208326000Y-103686000D03*
X219526000Y-103686000D03*
D21*
X211426000Y-110686000D03*
X216426000Y-110686000D03*
%TD*%
D24*
%TO.C,SW10*%
X183460000Y-73080000D03*
X193620000Y-73080000D03*
D25*
X188540000Y-73080000D03*
D26*
X192350000Y-70540000D03*
X186000000Y-68000000D03*
%TD*%
D24*
%TO.C,SW9*%
X183460000Y-131080000D03*
X193620000Y-131080000D03*
D25*
X188540000Y-131080000D03*
D26*
X192350000Y-128540000D03*
X186000000Y-126000000D03*
%TD*%
D24*
%TO.C,SW8*%
X100080000Y-102028000D03*
X100080000Y-91868000D03*
D25*
X100080000Y-96948000D03*
D26*
X97540000Y-93138000D03*
X95000000Y-99488000D03*
%TD*%
D24*
%TO.C,SW6*%
X161460000Y-131080000D03*
X171620000Y-131080000D03*
D25*
X166540000Y-131080000D03*
D26*
X170350000Y-128540000D03*
X164000000Y-126000000D03*
%TD*%
D24*
%TO.C,SW5*%
X161460000Y-73080000D03*
X171620000Y-73080000D03*
D25*
X166540000Y-73080000D03*
D26*
X170350000Y-70540000D03*
X164000000Y-68000000D03*
%TD*%
D24*
%TO.C,SW4*%
X139460000Y-131080000D03*
X149620000Y-131080000D03*
D25*
X144540000Y-131080000D03*
D26*
X148350000Y-128540000D03*
X142000000Y-126000000D03*
%TD*%
D24*
%TO.C,SW3*%
X139460000Y-73080000D03*
X149620000Y-73080000D03*
D25*
X144540000Y-73080000D03*
D26*
X148350000Y-70540000D03*
X142000000Y-68000000D03*
%TD*%
D24*
%TO.C,SW2*%
X117460000Y-131080000D03*
X127620000Y-131080000D03*
D25*
X122540000Y-131080000D03*
D26*
X126350000Y-128540000D03*
X120000000Y-126000000D03*
%TD*%
D24*
%TO.C,SW1*%
X117460000Y-73080000D03*
X127620000Y-73080000D03*
D25*
X122540000Y-73080000D03*
D26*
X126350000Y-70540000D03*
X120000000Y-68000000D03*
%TD*%
%TO.C,R25*%
G36*
G01*
X218342000Y-89385999D02*
X218342000Y-90286001D01*
G75*
G02*
X218092001Y-90536000I-249999J0D01*
G01*
X217441999Y-90536000D01*
G75*
G02*
X217192000Y-90286001I0J249999D01*
G01*
X217192000Y-89385999D01*
G75*
G02*
X217441999Y-89136000I249999J0D01*
G01*
X218092001Y-89136000D01*
G75*
G02*
X218342000Y-89385999I0J-249999D01*
G01*
G37*
G36*
G01*
X220392000Y-89385999D02*
X220392000Y-90286001D01*
G75*
G02*
X220142001Y-90536000I-249999J0D01*
G01*
X219491999Y-90536000D01*
G75*
G02*
X219242000Y-90286001I0J249999D01*
G01*
X219242000Y-89385999D01*
G75*
G02*
X219491999Y-89136000I249999J0D01*
G01*
X220142001Y-89136000D01*
G75*
G02*
X220392000Y-89385999I0J-249999D01*
G01*
G37*
%TD*%
%TO.C,R24*%
G36*
G01*
X214670000Y-90286001D02*
X214670000Y-89385999D01*
G75*
G02*
X214919999Y-89136000I249999J0D01*
G01*
X215570001Y-89136000D01*
G75*
G02*
X215820000Y-89385999I0J-249999D01*
G01*
X215820000Y-90286001D01*
G75*
G02*
X215570001Y-90536000I-249999J0D01*
G01*
X214919999Y-90536000D01*
G75*
G02*
X214670000Y-90286001I0J249999D01*
G01*
G37*
G36*
G01*
X212620000Y-90286001D02*
X212620000Y-89385999D01*
G75*
G02*
X212869999Y-89136000I249999J0D01*
G01*
X213520001Y-89136000D01*
G75*
G02*
X213770000Y-89385999I0J-249999D01*
G01*
X213770000Y-90286001D01*
G75*
G02*
X213520001Y-90536000I-249999J0D01*
G01*
X212869999Y-90536000D01*
G75*
G02*
X212620000Y-90286001I0J249999D01*
G01*
G37*
%TD*%
%TO.C,Shot1*%
G36*
G01*
X85697395Y-84276186D02*
X85697395Y-84276186D01*
G75*
G02*
X84513576Y-84484925I-696279J487540D01*
G01*
X84513576Y-84484925D01*
G75*
G02*
X84304837Y-83301106I487540J696279D01*
G01*
X84304837Y-83301106D01*
G75*
G02*
X85488656Y-83092367I696279J-487540D01*
G01*
X85488656Y-83092367D01*
G75*
G02*
X85697395Y-84276186I-487540J-696279D01*
G01*
G37*
D16*
G36*
X87641819Y-81499261D02*
G01*
X86666739Y-82891819D01*
X85274181Y-81916739D01*
X86249261Y-80524181D01*
X87641819Y-81499261D01*
G37*
%TD*%
%TO.C,R16*%
G36*
G01*
X139601999Y-98414000D02*
X140502001Y-98414000D01*
G75*
G02*
X140752000Y-98663999I0J-249999D01*
G01*
X140752000Y-99314001D01*
G75*
G02*
X140502001Y-99564000I-249999J0D01*
G01*
X139601999Y-99564000D01*
G75*
G02*
X139352000Y-99314001I0J249999D01*
G01*
X139352000Y-98663999D01*
G75*
G02*
X139601999Y-98414000I249999J0D01*
G01*
G37*
G36*
G01*
X139601999Y-96364000D02*
X140502001Y-96364000D01*
G75*
G02*
X140752000Y-96613999I0J-249999D01*
G01*
X140752000Y-97264001D01*
G75*
G02*
X140502001Y-97514000I-249999J0D01*
G01*
X139601999Y-97514000D01*
G75*
G02*
X139352000Y-97264001I0J249999D01*
G01*
X139352000Y-96613999D01*
G75*
G02*
X139601999Y-96364000I249999J0D01*
G01*
G37*
%TD*%
%TO.C,R15*%
G36*
G01*
X137061999Y-96890000D02*
X137962001Y-96890000D01*
G75*
G02*
X138212000Y-97139999I0J-249999D01*
G01*
X138212000Y-97790001D01*
G75*
G02*
X137962001Y-98040000I-249999J0D01*
G01*
X137061999Y-98040000D01*
G75*
G02*
X136812000Y-97790001I0J249999D01*
G01*
X136812000Y-97139999D01*
G75*
G02*
X137061999Y-96890000I249999J0D01*
G01*
G37*
G36*
G01*
X137061999Y-94840000D02*
X137962001Y-94840000D01*
G75*
G02*
X138212000Y-95089999I0J-249999D01*
G01*
X138212000Y-95740001D01*
G75*
G02*
X137962001Y-95990000I-249999J0D01*
G01*
X137061999Y-95990000D01*
G75*
G02*
X136812000Y-95740001I0J249999D01*
G01*
X136812000Y-95089999D01*
G75*
G02*
X137061999Y-94840000I249999J0D01*
G01*
G37*
%TD*%
%TO.C,R12*%
G36*
G01*
X123599999Y-101970000D02*
X124500001Y-101970000D01*
G75*
G02*
X124750000Y-102219999I0J-249999D01*
G01*
X124750000Y-102870001D01*
G75*
G02*
X124500001Y-103120000I-249999J0D01*
G01*
X123599999Y-103120000D01*
G75*
G02*
X123350000Y-102870001I0J249999D01*
G01*
X123350000Y-102219999D01*
G75*
G02*
X123599999Y-101970000I249999J0D01*
G01*
G37*
G36*
G01*
X123599999Y-99920000D02*
X124500001Y-99920000D01*
G75*
G02*
X124750000Y-100169999I0J-249999D01*
G01*
X124750000Y-100820001D01*
G75*
G02*
X124500001Y-101070000I-249999J0D01*
G01*
X123599999Y-101070000D01*
G75*
G02*
X123350000Y-100820001I0J249999D01*
G01*
X123350000Y-100169999D01*
G75*
G02*
X123599999Y-99920000I249999J0D01*
G01*
G37*
%TD*%
%TO.C,R10*%
G36*
G01*
X120551999Y-101970000D02*
X121452001Y-101970000D01*
G75*
G02*
X121702000Y-102219999I0J-249999D01*
G01*
X121702000Y-102870001D01*
G75*
G02*
X121452001Y-103120000I-249999J0D01*
G01*
X120551999Y-103120000D01*
G75*
G02*
X120302000Y-102870001I0J249999D01*
G01*
X120302000Y-102219999D01*
G75*
G02*
X120551999Y-101970000I249999J0D01*
G01*
G37*
G36*
G01*
X120551999Y-99920000D02*
X121452001Y-99920000D01*
G75*
G02*
X121702000Y-100169999I0J-249999D01*
G01*
X121702000Y-100820001D01*
G75*
G02*
X121452001Y-101070000I-249999J0D01*
G01*
X120551999Y-101070000D01*
G75*
G02*
X120302000Y-100820001I0J249999D01*
G01*
X120302000Y-100169999D01*
G75*
G02*
X120551999Y-99920000I249999J0D01*
G01*
G37*
%TD*%
%TO.C,PWR2*%
G36*
G01*
X82437972Y-112819797D02*
X82437972Y-112819797D01*
G75*
G02*
X81987664Y-113934347I-782429J-332121D01*
G01*
X81987664Y-113934347D01*
G75*
G02*
X80873114Y-113484039I-332121J782429D01*
G01*
X80873114Y-113484039D01*
G75*
G02*
X81323422Y-112369489I782429J332121D01*
G01*
X81323422Y-112369489D01*
G75*
G02*
X82437972Y-112819797I332121J-782429D01*
G01*
G37*
G36*
X83098308Y-114375449D02*
G01*
X83762551Y-115940308D01*
X82197692Y-116604551D01*
X81533449Y-115039692D01*
X83098308Y-114375449D01*
G37*
%TD*%
D13*
%TO.C,J7*%
X133956000Y-100120000D03*
X133956000Y-97580000D03*
X133956000Y-95040000D03*
D14*
X133956000Y-92500000D03*
%TD*%
D13*
%TO.C,J6*%
X117192000Y-105200000D03*
X117192000Y-102660000D03*
X117192000Y-100120000D03*
X117192000Y-97580000D03*
X117192000Y-95040000D03*
D14*
X117192000Y-92500000D03*
%TD*%
%TO.C,C13*%
G36*
G01*
X122468001Y-94212000D02*
X121567999Y-94212000D01*
G75*
G02*
X121318000Y-93962001I0J249999D01*
G01*
X121318000Y-93311999D01*
G75*
G02*
X121567999Y-93062000I249999J0D01*
G01*
X122468001Y-93062000D01*
G75*
G02*
X122718000Y-93311999I0J-249999D01*
G01*
X122718000Y-93962001D01*
G75*
G02*
X122468001Y-94212000I-249999J0D01*
G01*
G37*
G36*
G01*
X122468001Y-96262000D02*
X121567999Y-96262000D01*
G75*
G02*
X121318000Y-96012001I0J249999D01*
G01*
X121318000Y-95361999D01*
G75*
G02*
X121567999Y-95112000I249999J0D01*
G01*
X122468001Y-95112000D01*
G75*
G02*
X122718000Y-95361999I0J-249999D01*
G01*
X122718000Y-96012001D01*
G75*
G02*
X122468001Y-96262000I-249999J0D01*
G01*
G37*
%TD*%
%TO.C,R8*%
G36*
G01*
X178856001Y-100882000D02*
X177955999Y-100882000D01*
G75*
G02*
X177706000Y-100632001I0J249999D01*
G01*
X177706000Y-99931999D01*
G75*
G02*
X177955999Y-99682000I249999J0D01*
G01*
X178856001Y-99682000D01*
G75*
G02*
X179106000Y-99931999I0J-249999D01*
G01*
X179106000Y-100632001D01*
G75*
G02*
X178856001Y-100882000I-249999J0D01*
G01*
G37*
G36*
G01*
X178856001Y-102882000D02*
X177955999Y-102882000D01*
G75*
G02*
X177706000Y-102632001I0J249999D01*
G01*
X177706000Y-101931999D01*
G75*
G02*
X177955999Y-101682000I249999J0D01*
G01*
X178856001Y-101682000D01*
G75*
G02*
X179106000Y-101931999I0J-249999D01*
G01*
X179106000Y-102632001D01*
G75*
G02*
X178856001Y-102882000I-249999J0D01*
G01*
G37*
%TD*%
D16*
%TO.C,JP1*%
G36*
X178926000Y-98714000D02*
G01*
X178376000Y-98714000D01*
X178376000Y-98713398D01*
X178351466Y-98713398D01*
X178302635Y-98708588D01*
X178254510Y-98699016D01*
X178207555Y-98684772D01*
X178162222Y-98665995D01*
X178118949Y-98642864D01*
X178078150Y-98615604D01*
X178040221Y-98584476D01*
X178005524Y-98549779D01*
X177974396Y-98511850D01*
X177947136Y-98471051D01*
X177924005Y-98427778D01*
X177905228Y-98382445D01*
X177890984Y-98335490D01*
X177881412Y-98287365D01*
X177876602Y-98238534D01*
X177876602Y-98214000D01*
X177876000Y-98214000D01*
X177876000Y-97714000D01*
X177876602Y-97714000D01*
X177876602Y-97689466D01*
X177881412Y-97640635D01*
X177890984Y-97592510D01*
X177905228Y-97545555D01*
X177924005Y-97500222D01*
X177947136Y-97456949D01*
X177974396Y-97416150D01*
X178005524Y-97378221D01*
X178040221Y-97343524D01*
X178078150Y-97312396D01*
X178118949Y-97285136D01*
X178162222Y-97262005D01*
X178207555Y-97243228D01*
X178254510Y-97228984D01*
X178302635Y-97219412D01*
X178351466Y-97214602D01*
X178376000Y-97214602D01*
X178376000Y-97214000D01*
X178926000Y-97214000D01*
X178926000Y-98714000D01*
G37*
D27*
X179676000Y-97964000D03*
D16*
G36*
X180976000Y-97214602D02*
G01*
X181000534Y-97214602D01*
X181049365Y-97219412D01*
X181097490Y-97228984D01*
X181144445Y-97243228D01*
X181189778Y-97262005D01*
X181233051Y-97285136D01*
X181273850Y-97312396D01*
X181311779Y-97343524D01*
X181346476Y-97378221D01*
X181377604Y-97416150D01*
X181404864Y-97456949D01*
X181427995Y-97500222D01*
X181446772Y-97545555D01*
X181461016Y-97592510D01*
X181470588Y-97640635D01*
X181475398Y-97689466D01*
X181475398Y-97714000D01*
X181476000Y-97714000D01*
X181476000Y-98214000D01*
X181475398Y-98214000D01*
X181475398Y-98238534D01*
X181470588Y-98287365D01*
X181461016Y-98335490D01*
X181446772Y-98382445D01*
X181427995Y-98427778D01*
X181404864Y-98471051D01*
X181377604Y-98511850D01*
X181346476Y-98549779D01*
X181311779Y-98584476D01*
X181273850Y-98615604D01*
X181233051Y-98642864D01*
X181189778Y-98665995D01*
X181144445Y-98684772D01*
X181097490Y-98699016D01*
X181049365Y-98708588D01*
X181000534Y-98713398D01*
X180976000Y-98713398D01*
X180976000Y-98714000D01*
X180426000Y-98714000D01*
X180426000Y-97214000D01*
X180976000Y-97214000D01*
X180976000Y-97214602D01*
G37*
%TD*%
%TO.C,U3*%
G36*
G01*
X163458000Y-111901000D02*
X163758000Y-111901000D01*
G75*
G02*
X163908000Y-112051000I0J-150000D01*
G01*
X163908000Y-113076000D01*
G75*
G02*
X163758000Y-113226000I-150000J0D01*
G01*
X163458000Y-113226000D01*
G75*
G02*
X163308000Y-113076000I0J150000D01*
G01*
X163308000Y-112051000D01*
G75*
G02*
X163458000Y-111901000I150000J0D01*
G01*
G37*
G36*
G01*
X161558000Y-111901000D02*
X161858000Y-111901000D01*
G75*
G02*
X162008000Y-112051000I0J-150000D01*
G01*
X162008000Y-113076000D01*
G75*
G02*
X161858000Y-113226000I-150000J0D01*
G01*
X161558000Y-113226000D01*
G75*
G02*
X161408000Y-113076000I0J150000D01*
G01*
X161408000Y-112051000D01*
G75*
G02*
X161558000Y-111901000I150000J0D01*
G01*
G37*
G36*
G01*
X161558000Y-109626000D02*
X161858000Y-109626000D01*
G75*
G02*
X162008000Y-109776000I0J-150000D01*
G01*
X162008000Y-110801000D01*
G75*
G02*
X161858000Y-110951000I-150000J0D01*
G01*
X161558000Y-110951000D01*
G75*
G02*
X161408000Y-110801000I0J150000D01*
G01*
X161408000Y-109776000D01*
G75*
G02*
X161558000Y-109626000I150000J0D01*
G01*
G37*
G36*
G01*
X162508000Y-109626000D02*
X162808000Y-109626000D01*
G75*
G02*
X162958000Y-109776000I0J-150000D01*
G01*
X162958000Y-110801000D01*
G75*
G02*
X162808000Y-110951000I-150000J0D01*
G01*
X162508000Y-110951000D01*
G75*
G02*
X162358000Y-110801000I0J150000D01*
G01*
X162358000Y-109776000D01*
G75*
G02*
X162508000Y-109626000I150000J0D01*
G01*
G37*
G36*
G01*
X163458000Y-109626000D02*
X163758000Y-109626000D01*
G75*
G02*
X163908000Y-109776000I0J-150000D01*
G01*
X163908000Y-110801000D01*
G75*
G02*
X163758000Y-110951000I-150000J0D01*
G01*
X163458000Y-110951000D01*
G75*
G02*
X163308000Y-110801000I0J150000D01*
G01*
X163308000Y-109776000D01*
G75*
G02*
X163458000Y-109626000I150000J0D01*
G01*
G37*
%TD*%
%TO.C,R5*%
G36*
G01*
X163058000Y-108574001D02*
X163058000Y-107673999D01*
G75*
G02*
X163307999Y-107424000I249999J0D01*
G01*
X164008001Y-107424000D01*
G75*
G02*
X164258000Y-107673999I0J-249999D01*
G01*
X164258000Y-108574001D01*
G75*
G02*
X164008001Y-108824000I-249999J0D01*
G01*
X163307999Y-108824000D01*
G75*
G02*
X163058000Y-108574001I0J249999D01*
G01*
G37*
G36*
G01*
X161058000Y-108574001D02*
X161058000Y-107673999D01*
G75*
G02*
X161307999Y-107424000I249999J0D01*
G01*
X162008001Y-107424000D01*
G75*
G02*
X162258000Y-107673999I0J-249999D01*
G01*
X162258000Y-108574001D01*
G75*
G02*
X162008001Y-108824000I-249999J0D01*
G01*
X161307999Y-108824000D01*
G75*
G02*
X161058000Y-108574001I0J249999D01*
G01*
G37*
%TD*%
%TO.C,C17*%
G36*
G01*
X167074000Y-111967000D02*
X167074000Y-112917000D01*
G75*
G02*
X166824000Y-113167000I-250000J0D01*
G01*
X166149000Y-113167000D01*
G75*
G02*
X165899000Y-112917000I0J250000D01*
G01*
X165899000Y-111967000D01*
G75*
G02*
X166149000Y-111717000I250000J0D01*
G01*
X166824000Y-111717000D01*
G75*
G02*
X167074000Y-111967000I0J-250000D01*
G01*
G37*
G36*
G01*
X169149000Y-111967000D02*
X169149000Y-112917000D01*
G75*
G02*
X168899000Y-113167000I-250000J0D01*
G01*
X168224000Y-113167000D01*
G75*
G02*
X167974000Y-112917000I0J250000D01*
G01*
X167974000Y-111967000D01*
G75*
G02*
X168224000Y-111717000I250000J0D01*
G01*
X168899000Y-111717000D01*
G75*
G02*
X169149000Y-111967000I0J-250000D01*
G01*
G37*
%TD*%
%TO.C,C16*%
G36*
G01*
X167074000Y-109681000D02*
X167074000Y-110631000D01*
G75*
G02*
X166824000Y-110881000I-250000J0D01*
G01*
X166149000Y-110881000D01*
G75*
G02*
X165899000Y-110631000I0J250000D01*
G01*
X165899000Y-109681000D01*
G75*
G02*
X166149000Y-109431000I250000J0D01*
G01*
X166824000Y-109431000D01*
G75*
G02*
X167074000Y-109681000I0J-250000D01*
G01*
G37*
G36*
G01*
X169149000Y-109681000D02*
X169149000Y-110631000D01*
G75*
G02*
X168899000Y-110881000I-250000J0D01*
G01*
X168224000Y-110881000D01*
G75*
G02*
X167974000Y-110631000I0J250000D01*
G01*
X167974000Y-109681000D01*
G75*
G02*
X168224000Y-109431000I250000J0D01*
G01*
X168899000Y-109431000D01*
G75*
G02*
X169149000Y-109681000I0J-250000D01*
G01*
G37*
%TD*%
%TO.C,C15*%
G36*
G01*
X168279000Y-102732000D02*
X169229000Y-102732000D01*
G75*
G02*
X169479000Y-102982000I0J-250000D01*
G01*
X169479000Y-103657000D01*
G75*
G02*
X169229000Y-103907000I-250000J0D01*
G01*
X168279000Y-103907000D01*
G75*
G02*
X168029000Y-103657000I0J250000D01*
G01*
X168029000Y-102982000D01*
G75*
G02*
X168279000Y-102732000I250000J0D01*
G01*
G37*
G36*
G01*
X168279000Y-100657000D02*
X169229000Y-100657000D01*
G75*
G02*
X169479000Y-100907000I0J-250000D01*
G01*
X169479000Y-101582000D01*
G75*
G02*
X169229000Y-101832000I-250000J0D01*
G01*
X168279000Y-101832000D01*
G75*
G02*
X168029000Y-101582000I0J250000D01*
G01*
X168029000Y-100907000D01*
G75*
G02*
X168279000Y-100657000I250000J0D01*
G01*
G37*
%TD*%
%TO.C,L1*%
G36*
G01*
X172759000Y-104835000D02*
X174909000Y-104835000D01*
G75*
G02*
X175159000Y-105085000I0J-250000D01*
G01*
X175159000Y-105835000D01*
G75*
G02*
X174909000Y-106085000I-250000J0D01*
G01*
X172759000Y-106085000D01*
G75*
G02*
X172509000Y-105835000I0J250000D01*
G01*
X172509000Y-105085000D01*
G75*
G02*
X172759000Y-104835000I250000J0D01*
G01*
G37*
G36*
G01*
X172759000Y-102035000D02*
X174909000Y-102035000D01*
G75*
G02*
X175159000Y-102285000I0J-250000D01*
G01*
X175159000Y-103035000D01*
G75*
G02*
X174909000Y-103285000I-250000J0D01*
G01*
X172759000Y-103285000D01*
G75*
G02*
X172509000Y-103035000I0J250000D01*
G01*
X172509000Y-102285000D01*
G75*
G02*
X172759000Y-102035000I250000J0D01*
G01*
G37*
%TD*%
D28*
%TO.C,Q1*%
X177390000Y-93508000D03*
X178040000Y-95508000D03*
X176740000Y-95508000D03*
%TD*%
%TO.C,R2*%
G36*
G01*
X174918000Y-98783999D02*
X174918000Y-99684001D01*
G75*
G02*
X174668001Y-99934000I-249999J0D01*
G01*
X173967999Y-99934000D01*
G75*
G02*
X173718000Y-99684001I0J249999D01*
G01*
X173718000Y-98783999D01*
G75*
G02*
X173967999Y-98534000I249999J0D01*
G01*
X174668001Y-98534000D01*
G75*
G02*
X174918000Y-98783999I0J-249999D01*
G01*
G37*
G36*
G01*
X176918000Y-98783999D02*
X176918000Y-99684001D01*
G75*
G02*
X176668001Y-99934000I-249999J0D01*
G01*
X175967999Y-99934000D01*
G75*
G02*
X175718000Y-99684001I0J249999D01*
G01*
X175718000Y-98783999D01*
G75*
G02*
X175967999Y-98534000I249999J0D01*
G01*
X176668001Y-98534000D01*
G75*
G02*
X176918000Y-98783999I0J-249999D01*
G01*
G37*
%TD*%
%TO.C,R1*%
G36*
G01*
X174918000Y-96751999D02*
X174918000Y-97652001D01*
G75*
G02*
X174668001Y-97902000I-249999J0D01*
G01*
X173967999Y-97902000D01*
G75*
G02*
X173718000Y-97652001I0J249999D01*
G01*
X173718000Y-96751999D01*
G75*
G02*
X173967999Y-96502000I249999J0D01*
G01*
X174668001Y-96502000D01*
G75*
G02*
X174918000Y-96751999I0J-249999D01*
G01*
G37*
G36*
G01*
X176918000Y-96751999D02*
X176918000Y-97652001D01*
G75*
G02*
X176668001Y-97902000I-249999J0D01*
G01*
X175967999Y-97902000D01*
G75*
G02*
X175718000Y-97652001I0J249999D01*
G01*
X175718000Y-96751999D01*
G75*
G02*
X175967999Y-96502000I249999J0D01*
G01*
X176668001Y-96502000D01*
G75*
G02*
X176918000Y-96751999I0J-249999D01*
G01*
G37*
%TD*%
D29*
%TO.C,D1*%
X178660000Y-103934000D03*
X178660000Y-107234000D03*
%TD*%
D15*
%TO.C,D2*%
X175738000Y-108886000D03*
X172438000Y-108886000D03*
%TD*%
D29*
%TO.C,D3*%
X169730000Y-96314000D03*
X169730000Y-99614000D03*
%TD*%
%TO.C,C12*%
G36*
G01*
X172328000Y-93933000D02*
X172328000Y-94883000D01*
G75*
G02*
X172078000Y-95133000I-250000J0D01*
G01*
X171403000Y-95133000D01*
G75*
G02*
X171153000Y-94883000I0J250000D01*
G01*
X171153000Y-93933000D01*
G75*
G02*
X171403000Y-93683000I250000J0D01*
G01*
X172078000Y-93683000D01*
G75*
G02*
X172328000Y-93933000I0J-250000D01*
G01*
G37*
G36*
G01*
X174403000Y-93933000D02*
X174403000Y-94883000D01*
G75*
G02*
X174153000Y-95133000I-250000J0D01*
G01*
X173478000Y-95133000D01*
G75*
G02*
X173228000Y-94883000I0J250000D01*
G01*
X173228000Y-93933000D01*
G75*
G02*
X173478000Y-93683000I250000J0D01*
G01*
X174153000Y-93683000D01*
G75*
G02*
X174403000Y-93933000I0J-250000D01*
G01*
G37*
%TD*%
%TO.C,C9*%
G36*
G01*
X187960000Y-97169000D02*
X187960000Y-96219000D01*
G75*
G02*
X188210000Y-95969000I250000J0D01*
G01*
X188885000Y-95969000D01*
G75*
G02*
X189135000Y-96219000I0J-250000D01*
G01*
X189135000Y-97169000D01*
G75*
G02*
X188885000Y-97419000I-250000J0D01*
G01*
X188210000Y-97419000D01*
G75*
G02*
X187960000Y-97169000I0J250000D01*
G01*
G37*
G36*
G01*
X185885000Y-97169000D02*
X185885000Y-96219000D01*
G75*
G02*
X186135000Y-95969000I250000J0D01*
G01*
X186810000Y-95969000D01*
G75*
G02*
X187060000Y-96219000I0J-250000D01*
G01*
X187060000Y-97169000D01*
G75*
G02*
X186810000Y-97419000I-250000J0D01*
G01*
X186135000Y-97419000D01*
G75*
G02*
X185885000Y-97169000I0J250000D01*
G01*
G37*
%TD*%
%TO.C,C6*%
G36*
G01*
X182626000Y-102249000D02*
X182626000Y-101299000D01*
G75*
G02*
X182876000Y-101049000I250000J0D01*
G01*
X183551000Y-101049000D01*
G75*
G02*
X183801000Y-101299000I0J-250000D01*
G01*
X183801000Y-102249000D01*
G75*
G02*
X183551000Y-102499000I-250000J0D01*
G01*
X182876000Y-102499000D01*
G75*
G02*
X182626000Y-102249000I0J250000D01*
G01*
G37*
G36*
G01*
X180551000Y-102249000D02*
X180551000Y-101299000D01*
G75*
G02*
X180801000Y-101049000I250000J0D01*
G01*
X181476000Y-101049000D01*
G75*
G02*
X181726000Y-101299000I0J-250000D01*
G01*
X181726000Y-102249000D01*
G75*
G02*
X181476000Y-102499000I-250000J0D01*
G01*
X180801000Y-102499000D01*
G75*
G02*
X180551000Y-102249000I0J250000D01*
G01*
G37*
%TD*%
%TO.C,C4*%
G36*
G01*
X182626000Y-105805000D02*
X182626000Y-104855000D01*
G75*
G02*
X182876000Y-104605000I250000J0D01*
G01*
X183551000Y-104605000D01*
G75*
G02*
X183801000Y-104855000I0J-250000D01*
G01*
X183801000Y-105805000D01*
G75*
G02*
X183551000Y-106055000I-250000J0D01*
G01*
X182876000Y-106055000D01*
G75*
G02*
X182626000Y-105805000I0J250000D01*
G01*
G37*
G36*
G01*
X180551000Y-105805000D02*
X180551000Y-104855000D01*
G75*
G02*
X180801000Y-104605000I250000J0D01*
G01*
X181476000Y-104605000D01*
G75*
G02*
X181726000Y-104855000I0J-250000D01*
G01*
X181726000Y-105805000D01*
G75*
G02*
X181476000Y-106055000I-250000J0D01*
G01*
X180801000Y-106055000D01*
G75*
G02*
X180551000Y-105805000I0J250000D01*
G01*
G37*
%TD*%
%TO.C,C2*%
G36*
G01*
X182626000Y-109107000D02*
X182626000Y-108157000D01*
G75*
G02*
X182876000Y-107907000I250000J0D01*
G01*
X183551000Y-107907000D01*
G75*
G02*
X183801000Y-108157000I0J-250000D01*
G01*
X183801000Y-109107000D01*
G75*
G02*
X183551000Y-109357000I-250000J0D01*
G01*
X182876000Y-109357000D01*
G75*
G02*
X182626000Y-109107000I0J250000D01*
G01*
G37*
G36*
G01*
X180551000Y-109107000D02*
X180551000Y-108157000D01*
G75*
G02*
X180801000Y-107907000I250000J0D01*
G01*
X181476000Y-107907000D01*
G75*
G02*
X181726000Y-108157000I0J-250000D01*
G01*
X181726000Y-109107000D01*
G75*
G02*
X181476000Y-109357000I-250000J0D01*
G01*
X180801000Y-109357000D01*
G75*
G02*
X180551000Y-109107000I0J250000D01*
G01*
G37*
%TD*%
%TO.C,C10*%
G36*
G01*
X169001000Y-93588000D02*
X169951000Y-93588000D01*
G75*
G02*
X170201000Y-93838000I0J-250000D01*
G01*
X170201000Y-94513000D01*
G75*
G02*
X169951000Y-94763000I-250000J0D01*
G01*
X169001000Y-94763000D01*
G75*
G02*
X168751000Y-94513000I0J250000D01*
G01*
X168751000Y-93838000D01*
G75*
G02*
X169001000Y-93588000I250000J0D01*
G01*
G37*
G36*
G01*
X169001000Y-91513000D02*
X169951000Y-91513000D01*
G75*
G02*
X170201000Y-91763000I0J-250000D01*
G01*
X170201000Y-92438000D01*
G75*
G02*
X169951000Y-92688000I-250000J0D01*
G01*
X169001000Y-92688000D01*
G75*
G02*
X168751000Y-92438000I0J250000D01*
G01*
X168751000Y-91763000D01*
G75*
G02*
X169001000Y-91513000I250000J0D01*
G01*
G37*
%TD*%
%TO.C,C7*%
G36*
G01*
X182626000Y-95391000D02*
X182626000Y-94441000D01*
G75*
G02*
X182876000Y-94191000I250000J0D01*
G01*
X183551000Y-94191000D01*
G75*
G02*
X183801000Y-94441000I0J-250000D01*
G01*
X183801000Y-95391000D01*
G75*
G02*
X183551000Y-95641000I-250000J0D01*
G01*
X182876000Y-95641000D01*
G75*
G02*
X182626000Y-95391000I0J250000D01*
G01*
G37*
G36*
G01*
X180551000Y-95391000D02*
X180551000Y-94441000D01*
G75*
G02*
X180801000Y-94191000I250000J0D01*
G01*
X181476000Y-94191000D01*
G75*
G02*
X181726000Y-94441000I0J-250000D01*
G01*
X181726000Y-95391000D01*
G75*
G02*
X181476000Y-95641000I-250000J0D01*
G01*
X180801000Y-95641000D01*
G75*
G02*
X180551000Y-95391000I0J250000D01*
G01*
G37*
%TD*%
%TO.C,C11*%
G36*
G01*
X187960000Y-100725000D02*
X187960000Y-99775000D01*
G75*
G02*
X188210000Y-99525000I250000J0D01*
G01*
X188885000Y-99525000D01*
G75*
G02*
X189135000Y-99775000I0J-250000D01*
G01*
X189135000Y-100725000D01*
G75*
G02*
X188885000Y-100975000I-250000J0D01*
G01*
X188210000Y-100975000D01*
G75*
G02*
X187960000Y-100725000I0J250000D01*
G01*
G37*
G36*
G01*
X185885000Y-100725000D02*
X185885000Y-99775000D01*
G75*
G02*
X186135000Y-99525000I250000J0D01*
G01*
X186810000Y-99525000D01*
G75*
G02*
X187060000Y-99775000I0J-250000D01*
G01*
X187060000Y-100725000D01*
G75*
G02*
X186810000Y-100975000I-250000J0D01*
G01*
X186135000Y-100975000D01*
G75*
G02*
X185885000Y-100725000I0J250000D01*
G01*
G37*
%TD*%
%TO.C,C5*%
G36*
G01*
X187706000Y-104281000D02*
X187706000Y-103331000D01*
G75*
G02*
X187956000Y-103081000I250000J0D01*
G01*
X188631000Y-103081000D01*
G75*
G02*
X188881000Y-103331000I0J-250000D01*
G01*
X188881000Y-104281000D01*
G75*
G02*
X188631000Y-104531000I-250000J0D01*
G01*
X187956000Y-104531000D01*
G75*
G02*
X187706000Y-104281000I0J250000D01*
G01*
G37*
G36*
G01*
X185631000Y-104281000D02*
X185631000Y-103331000D01*
G75*
G02*
X185881000Y-103081000I250000J0D01*
G01*
X186556000Y-103081000D01*
G75*
G02*
X186806000Y-103331000I0J-250000D01*
G01*
X186806000Y-104281000D01*
G75*
G02*
X186556000Y-104531000I-250000J0D01*
G01*
X185881000Y-104531000D01*
G75*
G02*
X185631000Y-104281000I0J250000D01*
G01*
G37*
%TD*%
%TO.C,C3*%
G36*
G01*
X187706000Y-107583000D02*
X187706000Y-106633000D01*
G75*
G02*
X187956000Y-106383000I250000J0D01*
G01*
X188631000Y-106383000D01*
G75*
G02*
X188881000Y-106633000I0J-250000D01*
G01*
X188881000Y-107583000D01*
G75*
G02*
X188631000Y-107833000I-250000J0D01*
G01*
X187956000Y-107833000D01*
G75*
G02*
X187706000Y-107583000I0J250000D01*
G01*
G37*
G36*
G01*
X185631000Y-107583000D02*
X185631000Y-106633000D01*
G75*
G02*
X185881000Y-106383000I250000J0D01*
G01*
X186556000Y-106383000D01*
G75*
G02*
X186806000Y-106633000I0J-250000D01*
G01*
X186806000Y-107583000D01*
G75*
G02*
X186556000Y-107833000I-250000J0D01*
G01*
X185881000Y-107833000D01*
G75*
G02*
X185631000Y-107583000I0J250000D01*
G01*
G37*
%TD*%
%TO.C,C1*%
G36*
G01*
X187706000Y-110885000D02*
X187706000Y-109935000D01*
G75*
G02*
X187956000Y-109685000I250000J0D01*
G01*
X188631000Y-109685000D01*
G75*
G02*
X188881000Y-109935000I0J-250000D01*
G01*
X188881000Y-110885000D01*
G75*
G02*
X188631000Y-111135000I-250000J0D01*
G01*
X187956000Y-111135000D01*
G75*
G02*
X187706000Y-110885000I0J250000D01*
G01*
G37*
G36*
G01*
X185631000Y-110885000D02*
X185631000Y-109935000D01*
G75*
G02*
X185881000Y-109685000I250000J0D01*
G01*
X186556000Y-109685000D01*
G75*
G02*
X186806000Y-109935000I0J-250000D01*
G01*
X186806000Y-110885000D01*
G75*
G02*
X186556000Y-111135000I-250000J0D01*
G01*
X185881000Y-111135000D01*
G75*
G02*
X185631000Y-110885000I0J250000D01*
G01*
G37*
%TD*%
M02*
