%TF.GenerationSoftware,KiCad,Pcbnew,(5.1.10)-1*%
%TF.CreationDate,2022-02-17T21:55:53+01:00*%
%TF.ProjectId,keyboardEink,6b657962-6f61-4726-9445-696e6b2e6b69,rev?*%
%TF.SameCoordinates,Original*%
%TF.FileFunction,OtherDrawing,Comment*%
%FSLAX46Y46*%
G04 Gerber Fmt 4.6, Leading zero omitted, Abs format (unit mm)*
G04 Created by KiCad (PCBNEW (5.1.10)-1) date 2022-02-17 21:55:53*
%MOMM*%
%LPD*%
G01*
G04 APERTURE LIST*
%ADD10C,0.150000*%
%ADD11C,0.100000*%
%ADD12C,0.120000*%
%ADD13C,0.080000*%
G04 APERTURE END LIST*
D10*
X100000000Y-121450000D02*
X200000000Y-121450000D01*
X100000000Y-82450000D02*
X200000000Y-82450000D01*
X224223404Y-133025380D02*
X223651976Y-133025380D01*
X223937690Y-133025380D02*
X223937690Y-132025380D01*
X223842452Y-132168238D01*
X223747214Y-132263476D01*
X223651976Y-132311095D01*
X224794833Y-132453952D02*
X224699595Y-132406333D01*
X224651976Y-132358714D01*
X224604357Y-132263476D01*
X224604357Y-132215857D01*
X224651976Y-132120619D01*
X224699595Y-132073000D01*
X224794833Y-132025380D01*
X224985309Y-132025380D01*
X225080547Y-132073000D01*
X225128166Y-132120619D01*
X225175785Y-132215857D01*
X225175785Y-132263476D01*
X225128166Y-132358714D01*
X225080547Y-132406333D01*
X224985309Y-132453952D01*
X224794833Y-132453952D01*
X224699595Y-132501571D01*
X224651976Y-132549190D01*
X224604357Y-132644428D01*
X224604357Y-132834904D01*
X224651976Y-132930142D01*
X224699595Y-132977761D01*
X224794833Y-133025380D01*
X224985309Y-133025380D01*
X225080547Y-132977761D01*
X225128166Y-132930142D01*
X225175785Y-132834904D01*
X225175785Y-132644428D01*
X225128166Y-132549190D01*
X225080547Y-132501571D01*
X224985309Y-132453952D01*
X225604357Y-133025380D02*
X225604357Y-132358714D01*
X225604357Y-132453952D02*
X225651976Y-132406333D01*
X225747214Y-132358714D01*
X225890071Y-132358714D01*
X225985309Y-132406333D01*
X226032928Y-132501571D01*
X226032928Y-133025380D01*
X226032928Y-132501571D02*
X226080547Y-132406333D01*
X226175785Y-132358714D01*
X226318642Y-132358714D01*
X226413880Y-132406333D01*
X226461500Y-132501571D01*
X226461500Y-133025380D01*
X226937690Y-133025380D02*
X226937690Y-132358714D01*
X226937690Y-132453952D02*
X226985309Y-132406333D01*
X227080547Y-132358714D01*
X227223404Y-132358714D01*
X227318642Y-132406333D01*
X227366261Y-132501571D01*
X227366261Y-133025380D01*
X227366261Y-132501571D02*
X227413880Y-132406333D01*
X227509119Y-132358714D01*
X227651976Y-132358714D01*
X227747214Y-132406333D01*
X227794833Y-132501571D01*
X227794833Y-133025380D01*
X229366261Y-132501571D02*
X229032928Y-132501571D01*
X229032928Y-133025380D02*
X229032928Y-132025380D01*
X229509119Y-132025380D01*
X229890071Y-133025380D02*
X229890071Y-132025380D01*
X230271023Y-132025380D01*
X230366261Y-132073000D01*
X230413880Y-132120619D01*
X230461500Y-132215857D01*
X230461500Y-132358714D01*
X230413880Y-132453952D01*
X230366261Y-132501571D01*
X230271023Y-132549190D01*
X229890071Y-132549190D01*
X231461500Y-132930142D02*
X231413880Y-132977761D01*
X231271023Y-133025380D01*
X231175785Y-133025380D01*
X231032928Y-132977761D01*
X230937690Y-132882523D01*
X230890071Y-132787285D01*
X230842452Y-132596809D01*
X230842452Y-132453952D01*
X230890071Y-132263476D01*
X230937690Y-132168238D01*
X231032928Y-132073000D01*
X231175785Y-132025380D01*
X231271023Y-132025380D01*
X231413880Y-132073000D01*
X231461500Y-132120619D01*
X233223404Y-132930142D02*
X233175785Y-132977761D01*
X233032928Y-133025380D01*
X232937690Y-133025380D01*
X232794833Y-132977761D01*
X232699595Y-132882523D01*
X232651976Y-132787285D01*
X232604357Y-132596809D01*
X232604357Y-132453952D01*
X232651976Y-132263476D01*
X232699595Y-132168238D01*
X232794833Y-132073000D01*
X232937690Y-132025380D01*
X233032928Y-132025380D01*
X233175785Y-132073000D01*
X233223404Y-132120619D01*
X233794833Y-133025380D02*
X233699595Y-132977761D01*
X233651976Y-132930142D01*
X233604357Y-132834904D01*
X233604357Y-132549190D01*
X233651976Y-132453952D01*
X233699595Y-132406333D01*
X233794833Y-132358714D01*
X233937690Y-132358714D01*
X234032928Y-132406333D01*
X234080547Y-132453952D01*
X234128166Y-132549190D01*
X234128166Y-132834904D01*
X234080547Y-132930142D01*
X234032928Y-132977761D01*
X233937690Y-133025380D01*
X233794833Y-133025380D01*
X234556738Y-132358714D02*
X234556738Y-133025380D01*
X234556738Y-132453952D02*
X234604357Y-132406333D01*
X234699595Y-132358714D01*
X234842452Y-132358714D01*
X234937690Y-132406333D01*
X234985309Y-132501571D01*
X234985309Y-133025380D01*
X235461500Y-132358714D02*
X235461500Y-133025380D01*
X235461500Y-132453952D02*
X235509119Y-132406333D01*
X235604357Y-132358714D01*
X235747214Y-132358714D01*
X235842452Y-132406333D01*
X235890071Y-132501571D01*
X235890071Y-133025380D01*
X236747214Y-132977761D02*
X236651976Y-133025380D01*
X236461500Y-133025380D01*
X236366261Y-132977761D01*
X236318642Y-132882523D01*
X236318642Y-132501571D01*
X236366261Y-132406333D01*
X236461500Y-132358714D01*
X236651976Y-132358714D01*
X236747214Y-132406333D01*
X236794833Y-132501571D01*
X236794833Y-132596809D01*
X236318642Y-132692047D01*
X237651976Y-132977761D02*
X237556738Y-133025380D01*
X237366261Y-133025380D01*
X237271023Y-132977761D01*
X237223404Y-132930142D01*
X237175785Y-132834904D01*
X237175785Y-132549190D01*
X237223404Y-132453952D01*
X237271023Y-132406333D01*
X237366261Y-132358714D01*
X237556738Y-132358714D01*
X237651976Y-132406333D01*
X237937690Y-132358714D02*
X238318642Y-132358714D01*
X238080547Y-132025380D02*
X238080547Y-132882523D01*
X238128166Y-132977761D01*
X238223404Y-133025380D01*
X238318642Y-133025380D01*
X238794833Y-133025380D02*
X238699595Y-132977761D01*
X238651976Y-132930142D01*
X238604357Y-132834904D01*
X238604357Y-132549190D01*
X238651976Y-132453952D01*
X238699595Y-132406333D01*
X238794833Y-132358714D01*
X238937690Y-132358714D01*
X239032928Y-132406333D01*
X239080547Y-132453952D01*
X239128166Y-132549190D01*
X239128166Y-132834904D01*
X239080547Y-132930142D01*
X239032928Y-132977761D01*
X238937690Y-133025380D01*
X238794833Y-133025380D01*
X239556738Y-133025380D02*
X239556738Y-132358714D01*
X239556738Y-132549190D02*
X239604357Y-132453952D01*
X239651976Y-132406333D01*
X239747214Y-132358714D01*
X239842452Y-132358714D01*
X223651976Y-133770619D02*
X223699595Y-133723000D01*
X223794833Y-133675380D01*
X224032928Y-133675380D01*
X224128166Y-133723000D01*
X224175785Y-133770619D01*
X224223404Y-133865857D01*
X224223404Y-133961095D01*
X224175785Y-134103952D01*
X223604357Y-134675380D01*
X224223404Y-134675380D01*
X224556738Y-133675380D02*
X225175785Y-133675380D01*
X224842452Y-134056333D01*
X224985309Y-134056333D01*
X225080547Y-134103952D01*
X225128166Y-134151571D01*
X225175785Y-134246809D01*
X225175785Y-134484904D01*
X225128166Y-134580142D01*
X225080547Y-134627761D01*
X224985309Y-134675380D01*
X224699595Y-134675380D01*
X224604357Y-134627761D01*
X224556738Y-134580142D01*
X225651976Y-134627761D02*
X225651976Y-134675380D01*
X225604357Y-134770619D01*
X225556738Y-134818238D01*
X226509119Y-133675380D02*
X226318642Y-133675380D01*
X226223404Y-133723000D01*
X226175785Y-133770619D01*
X226080547Y-133913476D01*
X226032928Y-134103952D01*
X226032928Y-134484904D01*
X226080547Y-134580142D01*
X226128166Y-134627761D01*
X226223404Y-134675380D01*
X226413880Y-134675380D01*
X226509119Y-134627761D01*
X226556738Y-134580142D01*
X226604357Y-134484904D01*
X226604357Y-134246809D01*
X226556738Y-134151571D01*
X226509119Y-134103952D01*
X226413880Y-134056333D01*
X226223404Y-134056333D01*
X226128166Y-134103952D01*
X226080547Y-134151571D01*
X226032928Y-134246809D01*
X227794833Y-134675380D02*
X227794833Y-133675380D01*
X228175785Y-133675380D01*
X228271023Y-133723000D01*
X228318642Y-133770619D01*
X228366261Y-133865857D01*
X228366261Y-134008714D01*
X228318642Y-134103952D01*
X228271023Y-134151571D01*
X228175785Y-134199190D01*
X227794833Y-134199190D01*
X228937690Y-134675380D02*
X228842452Y-134627761D01*
X228794833Y-134532523D01*
X228794833Y-133675380D01*
X229747214Y-134675380D02*
X229747214Y-134151571D01*
X229699595Y-134056333D01*
X229604357Y-134008714D01*
X229413880Y-134008714D01*
X229318642Y-134056333D01*
X229747214Y-134627761D02*
X229651976Y-134675380D01*
X229413880Y-134675380D01*
X229318642Y-134627761D01*
X229271023Y-134532523D01*
X229271023Y-134437285D01*
X229318642Y-134342047D01*
X229413880Y-134294428D01*
X229651976Y-134294428D01*
X229747214Y-134246809D01*
X230080547Y-134008714D02*
X230461500Y-134008714D01*
X230223404Y-133675380D02*
X230223404Y-134532523D01*
X230271023Y-134627761D01*
X230366261Y-134675380D01*
X230461500Y-134675380D01*
X230794833Y-134675380D02*
X230794833Y-134008714D01*
X230794833Y-133675380D02*
X230747214Y-133723000D01*
X230794833Y-133770619D01*
X230842452Y-133723000D01*
X230794833Y-133675380D01*
X230794833Y-133770619D01*
X231271023Y-134008714D02*
X231271023Y-134675380D01*
X231271023Y-134103952D02*
X231318642Y-134056333D01*
X231413880Y-134008714D01*
X231556738Y-134008714D01*
X231651976Y-134056333D01*
X231699595Y-134151571D01*
X231699595Y-134675380D01*
X232556738Y-134627761D02*
X232461500Y-134675380D01*
X232271023Y-134675380D01*
X232175785Y-134627761D01*
X232128166Y-134532523D01*
X232128166Y-134151571D01*
X232175785Y-134056333D01*
X232271023Y-134008714D01*
X232461500Y-134008714D01*
X232556738Y-134056333D01*
X232604357Y-134151571D01*
X232604357Y-134246809D01*
X232128166Y-134342047D01*
X233032928Y-134008714D02*
X233032928Y-134675380D01*
X233032928Y-134103952D02*
X233080547Y-134056333D01*
X233175785Y-134008714D01*
X233318642Y-134008714D01*
X233413880Y-134056333D01*
X233461500Y-134151571D01*
X233461500Y-134675380D01*
X233937690Y-134675380D02*
X233937690Y-133675380D01*
X233937690Y-134056333D02*
X234032928Y-134008714D01*
X234223404Y-134008714D01*
X234318642Y-134056333D01*
X234366261Y-134103952D01*
X234413880Y-134199190D01*
X234413880Y-134484904D01*
X234366261Y-134580142D01*
X234318642Y-134627761D01*
X234223404Y-134675380D01*
X234032928Y-134675380D01*
X233937690Y-134627761D01*
X234842452Y-134675380D02*
X234842452Y-134008714D01*
X234842452Y-134199190D02*
X234890071Y-134103952D01*
X234937690Y-134056333D01*
X235032928Y-134008714D01*
X235128166Y-134008714D01*
X235842452Y-134627761D02*
X235747214Y-134675380D01*
X235556738Y-134675380D01*
X235461500Y-134627761D01*
X235413880Y-134532523D01*
X235413880Y-134151571D01*
X235461500Y-134056333D01*
X235556738Y-134008714D01*
X235747214Y-134008714D01*
X235842452Y-134056333D01*
X235890071Y-134151571D01*
X235890071Y-134246809D01*
X235413880Y-134342047D01*
X236318642Y-134675380D02*
X236318642Y-134008714D01*
X236318642Y-133675380D02*
X236271023Y-133723000D01*
X236318642Y-133770619D01*
X236366261Y-133723000D01*
X236318642Y-133675380D01*
X236318642Y-133770619D01*
X236651976Y-134008714D02*
X237032928Y-134008714D01*
X236794833Y-133675380D02*
X236794833Y-134532523D01*
X236842452Y-134627761D01*
X236937690Y-134675380D01*
X237032928Y-134675380D01*
X237747214Y-134627761D02*
X237651976Y-134675380D01*
X237461500Y-134675380D01*
X237366261Y-134627761D01*
X237318642Y-134532523D01*
X237318642Y-134151571D01*
X237366261Y-134056333D01*
X237461500Y-134008714D01*
X237651976Y-134008714D01*
X237747214Y-134056333D01*
X237794833Y-134151571D01*
X237794833Y-134246809D01*
X237318642Y-134342047D01*
X223890071Y-135325380D02*
X224080547Y-135325380D01*
X224175785Y-135373000D01*
X224271023Y-135468238D01*
X224318642Y-135658714D01*
X224318642Y-135992047D01*
X224271023Y-136182523D01*
X224175785Y-136277761D01*
X224080547Y-136325380D01*
X223890071Y-136325380D01*
X223794833Y-136277761D01*
X223699595Y-136182523D01*
X223651976Y-135992047D01*
X223651976Y-135658714D01*
X223699595Y-135468238D01*
X223794833Y-135373000D01*
X223890071Y-135325380D01*
X225175785Y-135658714D02*
X225175785Y-136325380D01*
X224747214Y-135658714D02*
X224747214Y-136182523D01*
X224794833Y-136277761D01*
X224890071Y-136325380D01*
X225032928Y-136325380D01*
X225128166Y-136277761D01*
X225175785Y-136230142D01*
X225509119Y-135658714D02*
X225890071Y-135658714D01*
X225651976Y-135325380D02*
X225651976Y-136182523D01*
X225699595Y-136277761D01*
X225794833Y-136325380D01*
X225890071Y-136325380D01*
X226366261Y-136325380D02*
X226271023Y-136277761D01*
X226223404Y-136182523D01*
X226223404Y-135325380D01*
X226747214Y-136325380D02*
X226747214Y-135658714D01*
X226747214Y-135325380D02*
X226699595Y-135373000D01*
X226747214Y-135420619D01*
X226794833Y-135373000D01*
X226747214Y-135325380D01*
X226747214Y-135420619D01*
X227223404Y-135658714D02*
X227223404Y-136325380D01*
X227223404Y-135753952D02*
X227271023Y-135706333D01*
X227366261Y-135658714D01*
X227509119Y-135658714D01*
X227604357Y-135706333D01*
X227651976Y-135801571D01*
X227651976Y-136325380D01*
X228509119Y-136277761D02*
X228413880Y-136325380D01*
X228223404Y-136325380D01*
X228128166Y-136277761D01*
X228080547Y-136182523D01*
X228080547Y-135801571D01*
X228128166Y-135706333D01*
X228223404Y-135658714D01*
X228413880Y-135658714D01*
X228509119Y-135706333D01*
X228556738Y-135801571D01*
X228556738Y-135896809D01*
X228080547Y-135992047D01*
X230175785Y-136325380D02*
X230175785Y-135325380D01*
X230175785Y-136277761D02*
X230080547Y-136325380D01*
X229890071Y-136325380D01*
X229794833Y-136277761D01*
X229747214Y-136230142D01*
X229699595Y-136134904D01*
X229699595Y-135849190D01*
X229747214Y-135753952D01*
X229794833Y-135706333D01*
X229890071Y-135658714D01*
X230080547Y-135658714D01*
X230175785Y-135706333D01*
X230651976Y-136325380D02*
X230651976Y-135658714D01*
X230651976Y-135325380D02*
X230604357Y-135373000D01*
X230651976Y-135420619D01*
X230699595Y-135373000D01*
X230651976Y-135325380D01*
X230651976Y-135420619D01*
X231128166Y-136325380D02*
X231128166Y-135658714D01*
X231128166Y-135753952D02*
X231175785Y-135706333D01*
X231271023Y-135658714D01*
X231413880Y-135658714D01*
X231509119Y-135706333D01*
X231556738Y-135801571D01*
X231556738Y-136325380D01*
X231556738Y-135801571D02*
X231604357Y-135706333D01*
X231699595Y-135658714D01*
X231842452Y-135658714D01*
X231937690Y-135706333D01*
X231985309Y-135801571D01*
X231985309Y-136325380D01*
X232842452Y-136277761D02*
X232747214Y-136325380D01*
X232556738Y-136325380D01*
X232461500Y-136277761D01*
X232413880Y-136182523D01*
X232413880Y-135801571D01*
X232461500Y-135706333D01*
X232556738Y-135658714D01*
X232747214Y-135658714D01*
X232842452Y-135706333D01*
X232890071Y-135801571D01*
X232890071Y-135896809D01*
X232413880Y-135992047D01*
X233318642Y-135658714D02*
X233318642Y-136325380D01*
X233318642Y-135753952D02*
X233366261Y-135706333D01*
X233461500Y-135658714D01*
X233604357Y-135658714D01*
X233699595Y-135706333D01*
X233747214Y-135801571D01*
X233747214Y-136325380D01*
X234175785Y-136277761D02*
X234271023Y-136325380D01*
X234461500Y-136325380D01*
X234556738Y-136277761D01*
X234604357Y-136182523D01*
X234604357Y-136134904D01*
X234556738Y-136039666D01*
X234461500Y-135992047D01*
X234318642Y-135992047D01*
X234223404Y-135944428D01*
X234175785Y-135849190D01*
X234175785Y-135801571D01*
X234223404Y-135706333D01*
X234318642Y-135658714D01*
X234461500Y-135658714D01*
X234556738Y-135706333D01*
X235032928Y-136325380D02*
X235032928Y-135658714D01*
X235032928Y-135325380D02*
X234985309Y-135373000D01*
X235032928Y-135420619D01*
X235080547Y-135373000D01*
X235032928Y-135325380D01*
X235032928Y-135420619D01*
X235651976Y-136325380D02*
X235556738Y-136277761D01*
X235509119Y-136230142D01*
X235461500Y-136134904D01*
X235461500Y-135849190D01*
X235509119Y-135753952D01*
X235556738Y-135706333D01*
X235651976Y-135658714D01*
X235794833Y-135658714D01*
X235890071Y-135706333D01*
X235937690Y-135753952D01*
X235985309Y-135849190D01*
X235985309Y-136134904D01*
X235937690Y-136230142D01*
X235890071Y-136277761D01*
X235794833Y-136325380D01*
X235651976Y-136325380D01*
X236413880Y-135658714D02*
X236413880Y-136325380D01*
X236413880Y-135753952D02*
X236461500Y-135706333D01*
X236556738Y-135658714D01*
X236699595Y-135658714D01*
X236794833Y-135706333D01*
X236842452Y-135801571D01*
X236842452Y-136325380D01*
X237318642Y-136230142D02*
X237366261Y-136277761D01*
X237318642Y-136325380D01*
X237271023Y-136277761D01*
X237318642Y-136230142D01*
X237318642Y-136325380D01*
X237318642Y-135706333D02*
X237366261Y-135753952D01*
X237318642Y-135801571D01*
X237271023Y-135753952D01*
X237318642Y-135706333D01*
X237318642Y-135801571D01*
X238461500Y-135325380D02*
X239080547Y-135325380D01*
X238747214Y-135706333D01*
X238890071Y-135706333D01*
X238985309Y-135753952D01*
X239032928Y-135801571D01*
X239080547Y-135896809D01*
X239080547Y-136134904D01*
X239032928Y-136230142D01*
X238985309Y-136277761D01*
X238890071Y-136325380D01*
X238604357Y-136325380D01*
X238509119Y-136277761D01*
X238461500Y-136230142D01*
X239937690Y-135325380D02*
X239747214Y-135325380D01*
X239651976Y-135373000D01*
X239604357Y-135420619D01*
X239509119Y-135563476D01*
X239461500Y-135753952D01*
X239461500Y-136134904D01*
X239509119Y-136230142D01*
X239556738Y-136277761D01*
X239651976Y-136325380D01*
X239842452Y-136325380D01*
X239937690Y-136277761D01*
X239985309Y-136230142D01*
X240032928Y-136134904D01*
X240032928Y-135896809D01*
X239985309Y-135801571D01*
X239937690Y-135753952D01*
X239842452Y-135706333D01*
X239651976Y-135706333D01*
X239556738Y-135753952D01*
X239509119Y-135801571D01*
X239461500Y-135896809D01*
X240461500Y-136230142D02*
X240509119Y-136277761D01*
X240461500Y-136325380D01*
X240413880Y-136277761D01*
X240461500Y-136230142D01*
X240461500Y-136325380D01*
X240842452Y-135325380D02*
X241509119Y-135325380D01*
X241080547Y-136325380D01*
X241890071Y-136325380D02*
X241890071Y-135658714D01*
X241890071Y-135753952D02*
X241937690Y-135706333D01*
X242032928Y-135658714D01*
X242175785Y-135658714D01*
X242271023Y-135706333D01*
X242318642Y-135801571D01*
X242318642Y-136325380D01*
X242318642Y-135801571D02*
X242366261Y-135706333D01*
X242461500Y-135658714D01*
X242604357Y-135658714D01*
X242699595Y-135706333D01*
X242747214Y-135801571D01*
X242747214Y-136325380D01*
X243223404Y-136325380D02*
X243223404Y-135658714D01*
X243223404Y-135753952D02*
X243271023Y-135706333D01*
X243366261Y-135658714D01*
X243509119Y-135658714D01*
X243604357Y-135706333D01*
X243651976Y-135801571D01*
X243651976Y-136325380D01*
X243651976Y-135801571D02*
X243699595Y-135706333D01*
X243794833Y-135658714D01*
X243937690Y-135658714D01*
X244032928Y-135706333D01*
X244080547Y-135801571D01*
X244080547Y-136325380D01*
X245413880Y-135658714D02*
X245985309Y-136230142D01*
X245985309Y-135658714D02*
X245413880Y-136230142D01*
X247223404Y-135325380D02*
X247890071Y-135325380D01*
X247461500Y-136325380D01*
X248318642Y-136325380D02*
X248509119Y-136325380D01*
X248604357Y-136277761D01*
X248651976Y-136230142D01*
X248747214Y-136087285D01*
X248794833Y-135896809D01*
X248794833Y-135515857D01*
X248747214Y-135420619D01*
X248699595Y-135373000D01*
X248604357Y-135325380D01*
X248413880Y-135325380D01*
X248318642Y-135373000D01*
X248271023Y-135420619D01*
X248223404Y-135515857D01*
X248223404Y-135753952D01*
X248271023Y-135849190D01*
X248318642Y-135896809D01*
X248413880Y-135944428D01*
X248604357Y-135944428D01*
X248699595Y-135896809D01*
X248747214Y-135849190D01*
X248794833Y-135753952D01*
X249223404Y-136230142D02*
X249271023Y-136277761D01*
X249223404Y-136325380D01*
X249175785Y-136277761D01*
X249223404Y-136230142D01*
X249223404Y-136325380D01*
X249890071Y-135325380D02*
X249985309Y-135325380D01*
X250080547Y-135373000D01*
X250128166Y-135420619D01*
X250175785Y-135515857D01*
X250223404Y-135706333D01*
X250223404Y-135944428D01*
X250175785Y-136134904D01*
X250128166Y-136230142D01*
X250080547Y-136277761D01*
X249985309Y-136325380D01*
X249890071Y-136325380D01*
X249794833Y-136277761D01*
X249747214Y-136230142D01*
X249699595Y-136134904D01*
X249651976Y-135944428D01*
X249651976Y-135706333D01*
X249699595Y-135515857D01*
X249747214Y-135420619D01*
X249794833Y-135373000D01*
X249890071Y-135325380D01*
X250651976Y-136325380D02*
X250651976Y-135658714D01*
X250651976Y-135753952D02*
X250699595Y-135706333D01*
X250794833Y-135658714D01*
X250937690Y-135658714D01*
X251032928Y-135706333D01*
X251080547Y-135801571D01*
X251080547Y-136325380D01*
X251080547Y-135801571D02*
X251128166Y-135706333D01*
X251223404Y-135658714D01*
X251366261Y-135658714D01*
X251461500Y-135706333D01*
X251509119Y-135801571D01*
X251509119Y-136325380D01*
X251985309Y-136325380D02*
X251985309Y-135658714D01*
X251985309Y-135753952D02*
X252032928Y-135706333D01*
X252128166Y-135658714D01*
X252271023Y-135658714D01*
X252366261Y-135706333D01*
X252413880Y-135801571D01*
X252413880Y-136325380D01*
X252413880Y-135801571D02*
X252461500Y-135706333D01*
X252556738Y-135658714D01*
X252699595Y-135658714D01*
X252794833Y-135706333D01*
X252842452Y-135801571D01*
X252842452Y-136325380D01*
X254175785Y-135658714D02*
X254747214Y-136230142D01*
X254747214Y-135658714D02*
X254175785Y-136230142D01*
X256604357Y-136325380D02*
X256032928Y-136325380D01*
X256318642Y-136325380D02*
X256318642Y-135325380D01*
X256223404Y-135468238D01*
X256128166Y-135563476D01*
X256032928Y-135611095D01*
X257032928Y-136230142D02*
X257080547Y-136277761D01*
X257032928Y-136325380D01*
X256985309Y-136277761D01*
X257032928Y-136230142D01*
X257032928Y-136325380D01*
X257699595Y-135325380D02*
X257794833Y-135325380D01*
X257890071Y-135373000D01*
X257937690Y-135420619D01*
X257985309Y-135515857D01*
X258032928Y-135706333D01*
X258032928Y-135944428D01*
X257985309Y-136134904D01*
X257937690Y-136230142D01*
X257890071Y-136277761D01*
X257794833Y-136325380D01*
X257699595Y-136325380D01*
X257604357Y-136277761D01*
X257556738Y-136230142D01*
X257509119Y-136134904D01*
X257461500Y-135944428D01*
X257461500Y-135706333D01*
X257509119Y-135515857D01*
X257556738Y-135420619D01*
X257604357Y-135373000D01*
X257699595Y-135325380D01*
X258937690Y-135325380D02*
X258461500Y-135325380D01*
X258413880Y-135801571D01*
X258461500Y-135753952D01*
X258556738Y-135706333D01*
X258794833Y-135706333D01*
X258890071Y-135753952D01*
X258937690Y-135801571D01*
X258985309Y-135896809D01*
X258985309Y-136134904D01*
X258937690Y-136230142D01*
X258890071Y-136277761D01*
X258794833Y-136325380D01*
X258556738Y-136325380D01*
X258461500Y-136277761D01*
X258413880Y-136230142D01*
X259413880Y-136325380D02*
X259413880Y-135658714D01*
X259413880Y-135753952D02*
X259461500Y-135706333D01*
X259556738Y-135658714D01*
X259699595Y-135658714D01*
X259794833Y-135706333D01*
X259842452Y-135801571D01*
X259842452Y-136325380D01*
X259842452Y-135801571D02*
X259890071Y-135706333D01*
X259985309Y-135658714D01*
X260128166Y-135658714D01*
X260223404Y-135706333D01*
X260271023Y-135801571D01*
X260271023Y-136325380D01*
X260747214Y-136325380D02*
X260747214Y-135658714D01*
X260747214Y-135753952D02*
X260794833Y-135706333D01*
X260890071Y-135658714D01*
X261032928Y-135658714D01*
X261128166Y-135706333D01*
X261175785Y-135801571D01*
X261175785Y-136325380D01*
X261175785Y-135801571D02*
X261223404Y-135706333D01*
X261318642Y-135658714D01*
X261461500Y-135658714D01*
X261556738Y-135706333D01*
X261604357Y-135801571D01*
X261604357Y-136325380D01*
X223699595Y-137975380D02*
X223699595Y-136975380D01*
X223937690Y-136975380D01*
X224080547Y-137023000D01*
X224175785Y-137118238D01*
X224223404Y-137213476D01*
X224271023Y-137403952D01*
X224271023Y-137546809D01*
X224223404Y-137737285D01*
X224175785Y-137832523D01*
X224080547Y-137927761D01*
X223937690Y-137975380D01*
X223699595Y-137975380D01*
X224699595Y-137975380D02*
X224699595Y-137308714D01*
X224699595Y-136975380D02*
X224651976Y-137023000D01*
X224699595Y-137070619D01*
X224747214Y-137023000D01*
X224699595Y-136975380D01*
X224699595Y-137070619D01*
X225128166Y-137927761D02*
X225223404Y-137975380D01*
X225413880Y-137975380D01*
X225509119Y-137927761D01*
X225556738Y-137832523D01*
X225556738Y-137784904D01*
X225509119Y-137689666D01*
X225413880Y-137642047D01*
X225271023Y-137642047D01*
X225175785Y-137594428D01*
X225128166Y-137499190D01*
X225128166Y-137451571D01*
X225175785Y-137356333D01*
X225271023Y-137308714D01*
X225413880Y-137308714D01*
X225509119Y-137356333D01*
X225985309Y-137308714D02*
X225985309Y-138308714D01*
X225985309Y-137356333D02*
X226080547Y-137308714D01*
X226271023Y-137308714D01*
X226366261Y-137356333D01*
X226413880Y-137403952D01*
X226461500Y-137499190D01*
X226461500Y-137784904D01*
X226413880Y-137880142D01*
X226366261Y-137927761D01*
X226271023Y-137975380D01*
X226080547Y-137975380D01*
X225985309Y-137927761D01*
X227032928Y-137975380D02*
X226937690Y-137927761D01*
X226890071Y-137832523D01*
X226890071Y-136975380D01*
X227842452Y-137975380D02*
X227842452Y-137451571D01*
X227794833Y-137356333D01*
X227699595Y-137308714D01*
X227509119Y-137308714D01*
X227413880Y-137356333D01*
X227842452Y-137927761D02*
X227747214Y-137975380D01*
X227509119Y-137975380D01*
X227413880Y-137927761D01*
X227366261Y-137832523D01*
X227366261Y-137737285D01*
X227413880Y-137642047D01*
X227509119Y-137594428D01*
X227747214Y-137594428D01*
X227842452Y-137546809D01*
X228223404Y-137308714D02*
X228461500Y-137975380D01*
X228699595Y-137308714D02*
X228461500Y-137975380D01*
X228366261Y-138213476D01*
X228318642Y-138261095D01*
X228223404Y-138308714D01*
X229794833Y-137927761D02*
X229890071Y-137975380D01*
X230080547Y-137975380D01*
X230175785Y-137927761D01*
X230223404Y-137832523D01*
X230223404Y-137784904D01*
X230175785Y-137689666D01*
X230080547Y-137642047D01*
X229937690Y-137642047D01*
X229842452Y-137594428D01*
X229794833Y-137499190D01*
X229794833Y-137451571D01*
X229842452Y-137356333D01*
X229937690Y-137308714D01*
X230080547Y-137308714D01*
X230175785Y-137356333D01*
X230651976Y-137975380D02*
X230651976Y-137308714D01*
X230651976Y-136975380D02*
X230604357Y-137023000D01*
X230651976Y-137070619D01*
X230699595Y-137023000D01*
X230651976Y-136975380D01*
X230651976Y-137070619D01*
X231032928Y-137308714D02*
X231556738Y-137308714D01*
X231032928Y-137975380D01*
X231556738Y-137975380D01*
X232318642Y-137927761D02*
X232223404Y-137975380D01*
X232032928Y-137975380D01*
X231937690Y-137927761D01*
X231890071Y-137832523D01*
X231890071Y-137451571D01*
X231937690Y-137356333D01*
X232032928Y-137308714D01*
X232223404Y-137308714D01*
X232318642Y-137356333D01*
X232366261Y-137451571D01*
X232366261Y-137546809D01*
X231890071Y-137642047D01*
X232794833Y-137880142D02*
X232842452Y-137927761D01*
X232794833Y-137975380D01*
X232747214Y-137927761D01*
X232794833Y-137880142D01*
X232794833Y-137975380D01*
X232794833Y-137356333D02*
X232842452Y-137403952D01*
X232794833Y-137451571D01*
X232747214Y-137403952D01*
X232794833Y-137356333D01*
X232794833Y-137451571D01*
X234461500Y-136975380D02*
X234271023Y-136975380D01*
X234175785Y-137023000D01*
X234128166Y-137070619D01*
X234032928Y-137213476D01*
X233985309Y-137403952D01*
X233985309Y-137784904D01*
X234032928Y-137880142D01*
X234080547Y-137927761D01*
X234175785Y-137975380D01*
X234366261Y-137975380D01*
X234461500Y-137927761D01*
X234509119Y-137880142D01*
X234556738Y-137784904D01*
X234556738Y-137546809D01*
X234509119Y-137451571D01*
X234461500Y-137403952D01*
X234366261Y-137356333D01*
X234175785Y-137356333D01*
X234080547Y-137403952D01*
X234032928Y-137451571D01*
X233985309Y-137546809D01*
X235413880Y-136975380D02*
X235223404Y-136975380D01*
X235128166Y-137023000D01*
X235080547Y-137070619D01*
X234985309Y-137213476D01*
X234937690Y-137403952D01*
X234937690Y-137784904D01*
X234985309Y-137880142D01*
X235032928Y-137927761D01*
X235128166Y-137975380D01*
X235318642Y-137975380D01*
X235413880Y-137927761D01*
X235461500Y-137880142D01*
X235509119Y-137784904D01*
X235509119Y-137546809D01*
X235461500Y-137451571D01*
X235413880Y-137403952D01*
X235318642Y-137356333D01*
X235128166Y-137356333D01*
X235032928Y-137403952D01*
X234985309Y-137451571D01*
X234937690Y-137546809D01*
X235937690Y-137880142D02*
X235985309Y-137927761D01*
X235937690Y-137975380D01*
X235890071Y-137927761D01*
X235937690Y-137880142D01*
X235937690Y-137975380D01*
X236556738Y-137403952D02*
X236461500Y-137356333D01*
X236413880Y-137308714D01*
X236366261Y-137213476D01*
X236366261Y-137165857D01*
X236413880Y-137070619D01*
X236461500Y-137023000D01*
X236556738Y-136975380D01*
X236747214Y-136975380D01*
X236842452Y-137023000D01*
X236890071Y-137070619D01*
X236937690Y-137165857D01*
X236937690Y-137213476D01*
X236890071Y-137308714D01*
X236842452Y-137356333D01*
X236747214Y-137403952D01*
X236556738Y-137403952D01*
X236461500Y-137451571D01*
X236413880Y-137499190D01*
X236366261Y-137594428D01*
X236366261Y-137784904D01*
X236413880Y-137880142D01*
X236461500Y-137927761D01*
X236556738Y-137975380D01*
X236747214Y-137975380D01*
X236842452Y-137927761D01*
X236890071Y-137880142D01*
X236937690Y-137784904D01*
X236937690Y-137594428D01*
X236890071Y-137499190D01*
X236842452Y-137451571D01*
X236747214Y-137403952D01*
X237413880Y-137975380D02*
X237604357Y-137975380D01*
X237699595Y-137927761D01*
X237747214Y-137880142D01*
X237842452Y-137737285D01*
X237890071Y-137546809D01*
X237890071Y-137165857D01*
X237842452Y-137070619D01*
X237794833Y-137023000D01*
X237699595Y-136975380D01*
X237509119Y-136975380D01*
X237413880Y-137023000D01*
X237366261Y-137070619D01*
X237318642Y-137165857D01*
X237318642Y-137403952D01*
X237366261Y-137499190D01*
X237413880Y-137546809D01*
X237509119Y-137594428D01*
X237699595Y-137594428D01*
X237794833Y-137546809D01*
X237842452Y-137499190D01*
X237890071Y-137403952D01*
X238318642Y-137975380D02*
X238318642Y-137308714D01*
X238318642Y-137403952D02*
X238366261Y-137356333D01*
X238461500Y-137308714D01*
X238604357Y-137308714D01*
X238699595Y-137356333D01*
X238747214Y-137451571D01*
X238747214Y-137975380D01*
X238747214Y-137451571D02*
X238794833Y-137356333D01*
X238890071Y-137308714D01*
X239032928Y-137308714D01*
X239128166Y-137356333D01*
X239175785Y-137451571D01*
X239175785Y-137975380D01*
X239651976Y-137975380D02*
X239651976Y-137308714D01*
X239651976Y-137403952D02*
X239699595Y-137356333D01*
X239794833Y-137308714D01*
X239937690Y-137308714D01*
X240032928Y-137356333D01*
X240080547Y-137451571D01*
X240080547Y-137975380D01*
X240080547Y-137451571D02*
X240128166Y-137356333D01*
X240223404Y-137308714D01*
X240366261Y-137308714D01*
X240461500Y-137356333D01*
X240509119Y-137451571D01*
X240509119Y-137975380D01*
X241842452Y-137308714D02*
X242413880Y-137880142D01*
X242413880Y-137308714D02*
X241842452Y-137880142D01*
X243699595Y-137070619D02*
X243747214Y-137023000D01*
X243842452Y-136975380D01*
X244080547Y-136975380D01*
X244175785Y-137023000D01*
X244223404Y-137070619D01*
X244271023Y-137165857D01*
X244271023Y-137261095D01*
X244223404Y-137403952D01*
X243651976Y-137975380D01*
X244271023Y-137975380D01*
X244747214Y-137975380D02*
X244937690Y-137975380D01*
X245032928Y-137927761D01*
X245080547Y-137880142D01*
X245175785Y-137737285D01*
X245223404Y-137546809D01*
X245223404Y-137165857D01*
X245175785Y-137070619D01*
X245128166Y-137023000D01*
X245032928Y-136975380D01*
X244842452Y-136975380D01*
X244747214Y-137023000D01*
X244699595Y-137070619D01*
X244651976Y-137165857D01*
X244651976Y-137403952D01*
X244699595Y-137499190D01*
X244747214Y-137546809D01*
X244842452Y-137594428D01*
X245032928Y-137594428D01*
X245128166Y-137546809D01*
X245175785Y-137499190D01*
X245223404Y-137403952D01*
X245651976Y-137880142D02*
X245699595Y-137927761D01*
X245651976Y-137975380D01*
X245604357Y-137927761D01*
X245651976Y-137880142D01*
X245651976Y-137975380D01*
X246318642Y-136975380D02*
X246413880Y-136975380D01*
X246509119Y-137023000D01*
X246556738Y-137070619D01*
X246604357Y-137165857D01*
X246651976Y-137356333D01*
X246651976Y-137594428D01*
X246604357Y-137784904D01*
X246556738Y-137880142D01*
X246509119Y-137927761D01*
X246413880Y-137975380D01*
X246318642Y-137975380D01*
X246223404Y-137927761D01*
X246175785Y-137880142D01*
X246128166Y-137784904D01*
X246080547Y-137594428D01*
X246080547Y-137356333D01*
X246128166Y-137165857D01*
X246175785Y-137070619D01*
X246223404Y-137023000D01*
X246318642Y-136975380D01*
X247556738Y-136975380D02*
X247080547Y-136975380D01*
X247032928Y-137451571D01*
X247080547Y-137403952D01*
X247175785Y-137356333D01*
X247413880Y-137356333D01*
X247509119Y-137403952D01*
X247556738Y-137451571D01*
X247604357Y-137546809D01*
X247604357Y-137784904D01*
X247556738Y-137880142D01*
X247509119Y-137927761D01*
X247413880Y-137975380D01*
X247175785Y-137975380D01*
X247080547Y-137927761D01*
X247032928Y-137880142D01*
X248032928Y-137975380D02*
X248032928Y-137308714D01*
X248032928Y-137403952D02*
X248080547Y-137356333D01*
X248175785Y-137308714D01*
X248318642Y-137308714D01*
X248413880Y-137356333D01*
X248461500Y-137451571D01*
X248461500Y-137975380D01*
X248461500Y-137451571D02*
X248509119Y-137356333D01*
X248604357Y-137308714D01*
X248747214Y-137308714D01*
X248842452Y-137356333D01*
X248890071Y-137451571D01*
X248890071Y-137975380D01*
X249366261Y-137975380D02*
X249366261Y-137308714D01*
X249366261Y-137403952D02*
X249413880Y-137356333D01*
X249509119Y-137308714D01*
X249651976Y-137308714D01*
X249747214Y-137356333D01*
X249794833Y-137451571D01*
X249794833Y-137975380D01*
X249794833Y-137451571D02*
X249842452Y-137356333D01*
X249937690Y-137308714D01*
X250080547Y-137308714D01*
X250175785Y-137356333D01*
X250223404Y-137451571D01*
X250223404Y-137975380D01*
X150863047Y-102591619D02*
X150910666Y-102544000D01*
X151005904Y-102496380D01*
X151244000Y-102496380D01*
X151339238Y-102544000D01*
X151386857Y-102591619D01*
X151434476Y-102686857D01*
X151434476Y-102782095D01*
X151386857Y-102924952D01*
X150815428Y-103496380D01*
X151434476Y-103496380D01*
X151863047Y-103401142D02*
X151910666Y-103448761D01*
X151863047Y-103496380D01*
X151815428Y-103448761D01*
X151863047Y-103401142D01*
X151863047Y-103496380D01*
X152386857Y-103496380D02*
X152577333Y-103496380D01*
X152672571Y-103448761D01*
X152720190Y-103401142D01*
X152815428Y-103258285D01*
X152863047Y-103067809D01*
X152863047Y-102686857D01*
X152815428Y-102591619D01*
X152767809Y-102544000D01*
X152672571Y-102496380D01*
X152482095Y-102496380D01*
X152386857Y-102544000D01*
X152339238Y-102591619D01*
X152291619Y-102686857D01*
X152291619Y-102924952D01*
X152339238Y-103020190D01*
X152386857Y-103067809D01*
X152482095Y-103115428D01*
X152672571Y-103115428D01*
X152767809Y-103067809D01*
X152815428Y-103020190D01*
X152863047Y-102924952D01*
X153244000Y-102496380D02*
X153244000Y-102686857D01*
X153624952Y-102496380D02*
X153624952Y-102686857D01*
X295008000Y-88621619D02*
X295055619Y-88574000D01*
X295150857Y-88526380D01*
X295388952Y-88526380D01*
X295484190Y-88574000D01*
X295531809Y-88621619D01*
X295579428Y-88716857D01*
X295579428Y-88812095D01*
X295531809Y-88954952D01*
X294960380Y-89526380D01*
X295579428Y-89526380D01*
X296008000Y-89431142D02*
X296055619Y-89478761D01*
X296008000Y-89526380D01*
X295960380Y-89478761D01*
X296008000Y-89431142D01*
X296008000Y-89526380D01*
X296388952Y-88526380D02*
X297055619Y-88526380D01*
X296627047Y-89526380D01*
X140015000Y-68373000D02*
X140052000Y-135556000D01*
X228952000Y-103806000D02*
G75*
G03*
X228952000Y-103806000I-15000000J0D01*
G01*
X328150000Y-66632000D02*
X328150000Y-112632000D01*
X257150000Y-66632000D02*
X257150000Y-112632000D01*
X257150000Y-112632000D02*
X328150000Y-112632000D01*
X257150000Y-66632000D02*
X328150000Y-66632000D01*
X161060000Y-113712000D02*
X200060000Y-113712000D01*
X161060000Y-90090000D02*
X161060000Y-113712000D01*
X200060000Y-90090000D02*
X200060000Y-113712000D01*
X161060000Y-90090000D02*
X200060000Y-90090000D01*
D11*
%TO.C,AE1*%
X229578421Y-114947834D02*
X228362884Y-121841488D01*
%TO.C,U2*%
X199952000Y-93423000D02*
X199952000Y-110633000D01*
D12*
%TO.C,D11*%
X164868000Y-136963999D02*
X165368000Y-137463999D01*
X164868000Y-136963999D02*
X164868000Y-134663999D01*
X168068000Y-137463999D02*
X165368000Y-137463999D01*
X168068000Y-134663999D02*
X168068000Y-137463999D01*
X164868000Y-134663999D02*
X168068000Y-134663999D01*
D10*
X175993000Y-140509000D02*
X175993000Y-121459000D01*
X156943000Y-140509000D02*
X175993000Y-140509000D01*
X156943000Y-121459000D02*
X156943000Y-140509000D01*
X175993000Y-121459000D02*
X156943000Y-121459000D01*
D12*
%TO.C,D10*%
X225533999Y-105152000D02*
X226033999Y-104652000D01*
X225533999Y-105152000D02*
X223233999Y-105152000D01*
X226033999Y-101952000D02*
X226033999Y-104652000D01*
X223233999Y-101952000D02*
X226033999Y-101952000D01*
X223233999Y-105152000D02*
X223233999Y-101952000D01*
D10*
X229079000Y-94027000D02*
X210029000Y-94027000D01*
X229079000Y-113077000D02*
X229079000Y-94027000D01*
X210029000Y-113077000D02*
X229079000Y-113077000D01*
X210029000Y-94027000D02*
X210029000Y-113077000D01*
D12*
%TO.C,D6*%
X186966000Y-136963999D02*
X187466000Y-137463999D01*
X186966000Y-136963999D02*
X186966000Y-134663999D01*
X190166000Y-137463999D02*
X187466000Y-137463999D01*
X190166000Y-134663999D02*
X190166000Y-137463999D01*
X186966000Y-134663999D02*
X190166000Y-134663999D01*
D10*
X198091000Y-140509000D02*
X198091000Y-121459000D01*
X179041000Y-140509000D02*
X198091000Y-140509000D01*
X179041000Y-121459000D02*
X179041000Y-140509000D01*
X198091000Y-121459000D02*
X179041000Y-121459000D01*
D12*
%TO.C,D5*%
X143024000Y-136963999D02*
X143524000Y-137463999D01*
X143024000Y-136963999D02*
X143024000Y-134663999D01*
X146224000Y-137463999D02*
X143524000Y-137463999D01*
X146224000Y-134663999D02*
X146224000Y-137463999D01*
X143024000Y-134663999D02*
X146224000Y-134663999D01*
D10*
X154149000Y-140509000D02*
X154149000Y-121459000D01*
X135099000Y-140509000D02*
X154149000Y-140509000D01*
X135099000Y-121459000D02*
X135099000Y-140509000D01*
X154149000Y-121459000D02*
X135099000Y-121459000D01*
D12*
%TO.C,D4*%
X120926000Y-136963999D02*
X121426000Y-137463999D01*
X120926000Y-136963999D02*
X120926000Y-134663999D01*
X124126000Y-137463999D02*
X121426000Y-137463999D01*
X124126000Y-134663999D02*
X124126000Y-137463999D01*
X120926000Y-134663999D02*
X124126000Y-134663999D01*
D10*
X132051000Y-140509000D02*
X132051000Y-121459000D01*
X113001000Y-140509000D02*
X132051000Y-140509000D01*
X113001000Y-121459000D02*
X113001000Y-140509000D01*
X132051000Y-121459000D02*
X113001000Y-121459000D01*
D12*
%TO.C,D16*%
X104280000Y-95348000D02*
X103780000Y-95848000D01*
X104280000Y-95348000D02*
X106580000Y-95348000D01*
X103780000Y-98548000D02*
X103780000Y-95848000D01*
X106580000Y-98548000D02*
X103780000Y-98548000D01*
X106580000Y-95348000D02*
X106580000Y-98548000D01*
D10*
X109625000Y-87423000D02*
X90575000Y-87423000D01*
X109625000Y-106473000D02*
X109625000Y-87423000D01*
X90575000Y-106473000D02*
X109625000Y-106473000D01*
X90575000Y-87423000D02*
X90575000Y-106473000D01*
D12*
%TO.C,D14*%
X146100000Y-77180000D02*
X145600000Y-76680000D01*
X146100000Y-77180000D02*
X146100000Y-79480000D01*
X142900000Y-76680000D02*
X145600000Y-76680000D01*
X142900000Y-79480000D02*
X142900000Y-76680000D01*
X146100000Y-79480000D02*
X142900000Y-79480000D01*
D10*
X154025000Y-82525000D02*
X154025000Y-63475000D01*
X134975000Y-82525000D02*
X154025000Y-82525000D01*
X134975000Y-63475000D02*
X134975000Y-82525000D01*
X154025000Y-63475000D02*
X134975000Y-63475000D01*
D12*
%TO.C,D13*%
X168068000Y-77180000D02*
X167568000Y-76680000D01*
X168068000Y-77180000D02*
X168068000Y-79480000D01*
X164868000Y-76680000D02*
X167568000Y-76680000D01*
X164868000Y-79480000D02*
X164868000Y-76680000D01*
X168068000Y-79480000D02*
X164868000Y-79480000D01*
D10*
X175993000Y-82525000D02*
X175993000Y-63475000D01*
X156943000Y-82525000D02*
X175993000Y-82525000D01*
X156943000Y-63475000D02*
X156943000Y-82525000D01*
X175993000Y-63475000D02*
X156943000Y-63475000D01*
D12*
%TO.C,D12*%
X190166000Y-77180000D02*
X189666000Y-76680000D01*
X190166000Y-77180000D02*
X190166000Y-79480000D01*
X186966000Y-76680000D02*
X189666000Y-76680000D01*
X186966000Y-79480000D02*
X186966000Y-76680000D01*
X190166000Y-79480000D02*
X186966000Y-79480000D01*
D10*
X198091000Y-82525000D02*
X198091000Y-63475000D01*
X179041000Y-82525000D02*
X198091000Y-82525000D01*
X179041000Y-63475000D02*
X179041000Y-82525000D01*
X198091000Y-63475000D02*
X179041000Y-63475000D01*
D12*
%TO.C,D15*%
X124126000Y-77180000D02*
X123626000Y-76680000D01*
X124126000Y-77180000D02*
X124126000Y-79480000D01*
X120926000Y-76680000D02*
X123626000Y-76680000D01*
X120926000Y-79480000D02*
X120926000Y-76680000D01*
X124126000Y-79480000D02*
X120926000Y-79480000D01*
D10*
X132051000Y-82525000D02*
X132051000Y-63475000D01*
X113001000Y-82525000D02*
X132051000Y-82525000D01*
X113001000Y-63475000D02*
X113001000Y-82525000D01*
X132051000Y-63475000D02*
X113001000Y-63475000D01*
%TO.C,SW10*%
X198065000Y-63555000D02*
X179015000Y-63555000D01*
X179015000Y-63555000D02*
X179015000Y-82605000D01*
X179015000Y-82605000D02*
X198065000Y-82605000D01*
X198065000Y-82605000D02*
X198065000Y-63555000D01*
%TO.C,SW9*%
X198065000Y-121555000D02*
X179015000Y-121555000D01*
X179015000Y-121555000D02*
X179015000Y-140605000D01*
X179015000Y-140605000D02*
X198065000Y-140605000D01*
X198065000Y-140605000D02*
X198065000Y-121555000D01*
%TO.C,SW8*%
X90555000Y-87423000D02*
X90555000Y-106473000D01*
X90555000Y-106473000D02*
X109605000Y-106473000D01*
X109605000Y-106473000D02*
X109605000Y-87423000D01*
X109605000Y-87423000D02*
X90555000Y-87423000D01*
%TO.C,SW6*%
X176065000Y-121555000D02*
X157015000Y-121555000D01*
X157015000Y-121555000D02*
X157015000Y-140605000D01*
X157015000Y-140605000D02*
X176065000Y-140605000D01*
X176065000Y-140605000D02*
X176065000Y-121555000D01*
%TO.C,SW5*%
X176065000Y-63555000D02*
X157015000Y-63555000D01*
X157015000Y-63555000D02*
X157015000Y-82605000D01*
X157015000Y-82605000D02*
X176065000Y-82605000D01*
X176065000Y-82605000D02*
X176065000Y-63555000D01*
%TO.C,SW4*%
X154065000Y-121555000D02*
X135015000Y-121555000D01*
X135015000Y-121555000D02*
X135015000Y-140605000D01*
X135015000Y-140605000D02*
X154065000Y-140605000D01*
X154065000Y-140605000D02*
X154065000Y-121555000D01*
%TO.C,SW3*%
X154065000Y-63555000D02*
X135015000Y-63555000D01*
X135015000Y-63555000D02*
X135015000Y-82605000D01*
X135015000Y-82605000D02*
X154065000Y-82605000D01*
X154065000Y-82605000D02*
X154065000Y-63555000D01*
%TO.C,SW2*%
X132065000Y-121555000D02*
X113015000Y-121555000D01*
X113015000Y-121555000D02*
X113015000Y-140605000D01*
X113015000Y-140605000D02*
X132065000Y-140605000D01*
X132065000Y-140605000D02*
X132065000Y-121555000D01*
%TO.C,SW1*%
X132065000Y-63555000D02*
X113015000Y-63555000D01*
X113015000Y-63555000D02*
X113015000Y-82605000D01*
X113015000Y-82605000D02*
X132065000Y-82605000D01*
X132065000Y-82605000D02*
X132065000Y-63555000D01*
%TD*%
%TO.C,AE1*%
D11*
X229388127Y-120209004D02*
X228895723Y-120122180D01*
X228928799Y-119934597D01*
X228960516Y-119891836D01*
X228988098Y-119872523D01*
X229039128Y-119857344D01*
X229109472Y-119869748D01*
X229152233Y-119901464D01*
X229171546Y-119929047D01*
X229186725Y-119980077D01*
X229153649Y-120167659D01*
X229477669Y-119426957D02*
X229496983Y-119454540D01*
X229508027Y-119529018D01*
X229499758Y-119575913D01*
X229463907Y-119642122D01*
X229408742Y-119680749D01*
X229357712Y-119695928D01*
X229259786Y-119702838D01*
X229189443Y-119690434D01*
X229099786Y-119650448D01*
X229057025Y-119618732D01*
X229018399Y-119563567D01*
X229007354Y-119489089D01*
X229015623Y-119442194D01*
X229051474Y-119375985D01*
X229079057Y-119356671D01*
X229332791Y-119014582D02*
X229368642Y-118948373D01*
X229396224Y-118929060D01*
X229447254Y-118913881D01*
X229517598Y-118926285D01*
X229560359Y-118958001D01*
X229579672Y-118985584D01*
X229594851Y-119036614D01*
X229561775Y-119224196D01*
X229069371Y-119137372D01*
X229098313Y-118973237D01*
X229130029Y-118930476D01*
X229157612Y-118911163D01*
X229208642Y-118895984D01*
X229255537Y-118904253D01*
X229298299Y-118935970D01*
X229317612Y-118963552D01*
X229332791Y-119014582D01*
X229303849Y-119178717D01*
X229456825Y-118311148D02*
X229485767Y-118147014D01*
X229756096Y-118122149D02*
X229714751Y-118356627D01*
X229222347Y-118269803D01*
X229263692Y-118035325D01*
X229830516Y-117700089D02*
X229338113Y-117613265D01*
X229807069Y-117695954D02*
X229822247Y-117746985D01*
X229805710Y-117840776D01*
X229773993Y-117883537D01*
X229746411Y-117902850D01*
X229695380Y-117918029D01*
X229554694Y-117893222D01*
X229511932Y-117861505D01*
X229492619Y-117833923D01*
X229477440Y-117782893D01*
X229493978Y-117689102D01*
X229525695Y-117646341D01*
X229580802Y-117196698D02*
X229979415Y-117266984D01*
X230022176Y-117298701D01*
X230041489Y-117326283D01*
X230056668Y-117377313D01*
X230044265Y-117447657D01*
X230012548Y-117490418D01*
X229885624Y-117250446D02*
X229900803Y-117301476D01*
X229884265Y-117395267D01*
X229852548Y-117438029D01*
X229824966Y-117457342D01*
X229773936Y-117472521D01*
X229633249Y-117447714D01*
X229590488Y-117415997D01*
X229571174Y-117388415D01*
X229555995Y-117337385D01*
X229572533Y-117243594D01*
X229604250Y-117200832D01*
X229960044Y-116828386D02*
X229975223Y-116879416D01*
X229958685Y-116973207D01*
X229926969Y-117015968D01*
X229875938Y-117031147D01*
X229688356Y-116998071D01*
X229645595Y-116966354D01*
X229630416Y-116915324D01*
X229646954Y-116821533D01*
X229678671Y-116778772D01*
X229729701Y-116763593D01*
X229776596Y-116771862D01*
X229782147Y-117014609D01*
%TO.C,U2*%
D13*
X200416285Y-103385142D02*
X200416285Y-103551809D01*
X200678190Y-103551809D02*
X200178190Y-103551809D01*
X200178190Y-103313714D01*
X200678190Y-103123238D02*
X200178190Y-103123238D01*
X200178190Y-102932761D01*
X200202000Y-102885142D01*
X200225809Y-102861333D01*
X200273428Y-102837523D01*
X200344857Y-102837523D01*
X200392476Y-102861333D01*
X200416285Y-102885142D01*
X200440095Y-102932761D01*
X200440095Y-103123238D01*
X200630571Y-102337523D02*
X200654380Y-102361333D01*
X200678190Y-102432761D01*
X200678190Y-102480380D01*
X200654380Y-102551809D01*
X200606761Y-102599428D01*
X200559142Y-102623238D01*
X200463904Y-102647047D01*
X200392476Y-102647047D01*
X200297238Y-102623238D01*
X200249619Y-102599428D01*
X200202000Y-102551809D01*
X200178190Y-102480380D01*
X200178190Y-102432761D01*
X200202000Y-102361333D01*
X200225809Y-102337523D01*
X200630571Y-101837523D02*
X200654380Y-101861333D01*
X200678190Y-101932761D01*
X200678190Y-101980380D01*
X200654380Y-102051809D01*
X200606761Y-102099428D01*
X200559142Y-102123238D01*
X200463904Y-102147047D01*
X200392476Y-102147047D01*
X200297238Y-102123238D01*
X200249619Y-102099428D01*
X200202000Y-102051809D01*
X200178190Y-101980380D01*
X200178190Y-101932761D01*
X200202000Y-101861333D01*
X200225809Y-101837523D01*
X200678190Y-101551809D02*
X200654380Y-101599428D01*
X200630571Y-101623238D01*
X200582952Y-101647047D01*
X200440095Y-101647047D01*
X200392476Y-101623238D01*
X200368666Y-101599428D01*
X200344857Y-101551809D01*
X200344857Y-101480380D01*
X200368666Y-101432761D01*
X200392476Y-101408952D01*
X200440095Y-101385142D01*
X200582952Y-101385142D01*
X200630571Y-101408952D01*
X200654380Y-101432761D01*
X200678190Y-101480380D01*
X200678190Y-101551809D01*
X200344857Y-101170857D02*
X200678190Y-101170857D01*
X200392476Y-101170857D02*
X200368666Y-101147047D01*
X200344857Y-101099428D01*
X200344857Y-101028000D01*
X200368666Y-100980380D01*
X200416285Y-100956571D01*
X200678190Y-100956571D01*
X200344857Y-100718476D02*
X200678190Y-100718476D01*
X200392476Y-100718476D02*
X200368666Y-100694666D01*
X200344857Y-100647047D01*
X200344857Y-100575619D01*
X200368666Y-100528000D01*
X200416285Y-100504190D01*
X200678190Y-100504190D01*
%TD*%
M02*
