%TF.GenerationSoftware,KiCad,Pcbnew,(5.1.10)-1*%
%TF.CreationDate,2022-02-17T21:55:53+01:00*%
%TF.ProjectId,keyboardEink,6b657962-6f61-4726-9445-696e6b2e6b69,rev?*%
%TF.SameCoordinates,Original*%
%TF.FileFunction,Other,User*%
%FSLAX46Y46*%
G04 Gerber Fmt 4.6, Leading zero omitted, Abs format (unit mm)*
G04 Created by KiCad (PCBNEW (5.1.10)-1) date 2022-02-17 21:55:53*
%MOMM*%
%LPD*%
G01*
G04 APERTURE LIST*
%ADD10C,0.050000*%
%ADD11C,0.120000*%
G04 APERTURE END LIST*
D10*
%TO.C,R38*%
X157136000Y-92448000D02*
X159036000Y-92448000D01*
X159036000Y-92448000D02*
X159036000Y-88748000D01*
X159036000Y-88748000D02*
X157136000Y-88748000D01*
X157136000Y-88748000D02*
X157136000Y-92448000D01*
%TO.C,R37*%
X159168000Y-90162000D02*
X161068000Y-90162000D01*
X161068000Y-90162000D02*
X161068000Y-86462000D01*
X161068000Y-86462000D02*
X159168000Y-86462000D01*
X159168000Y-86462000D02*
X159168000Y-90162000D01*
%TO.C,R36*%
X76480000Y-108444000D02*
X76480000Y-110344000D01*
X76480000Y-110344000D02*
X80180000Y-110344000D01*
X80180000Y-110344000D02*
X80180000Y-108444000D01*
X80180000Y-108444000D02*
X76480000Y-108444000D01*
%TO.C,R35*%
X87038000Y-98914000D02*
X87038000Y-97014000D01*
X87038000Y-97014000D02*
X83338000Y-97014000D01*
X83338000Y-97014000D02*
X83338000Y-98914000D01*
X83338000Y-98914000D02*
X87038000Y-98914000D01*
%TO.C,AE1*%
X229075562Y-122982579D02*
X229162387Y-122490176D01*
X238057009Y-124566251D02*
X229075562Y-122982579D01*
X230638396Y-114119310D02*
X230551572Y-114611714D01*
X239619843Y-115702981D02*
X230638396Y-114119310D01*
X223647463Y-121517746D02*
X225036649Y-113639284D01*
X229162387Y-122490176D02*
X223647463Y-121517746D01*
X239619843Y-115702981D02*
X238057009Y-124566251D01*
X230551572Y-114611714D02*
X225036649Y-113639284D01*
%TO.C,D7*%
X88102000Y-93074000D02*
X88102000Y-97774000D01*
X88102000Y-97774000D02*
X90402000Y-97774000D01*
X90402000Y-97774000D02*
X90402000Y-93074000D01*
X88102000Y-93074000D02*
X90402000Y-93074000D01*
%TO.C,SI3*%
X88568000Y-87014000D02*
X91968000Y-87014000D01*
X91968000Y-87014000D02*
X91968000Y-83514000D01*
X91968000Y-83514000D02*
X88568000Y-83514000D01*
X88568000Y-83514000D02*
X88568000Y-87014000D01*
%TO.C,R33*%
X90202000Y-88240000D02*
X88302000Y-88240000D01*
X88302000Y-88240000D02*
X88302000Y-91940000D01*
X88302000Y-91940000D02*
X90202000Y-91940000D01*
X90202000Y-91940000D02*
X90202000Y-88240000D01*
%TO.C,R11*%
X167794000Y-95016000D02*
X171494000Y-95016000D01*
X167794000Y-93116000D02*
X167794000Y-95016000D01*
X171494000Y-93116000D02*
X167794000Y-93116000D01*
X171494000Y-95016000D02*
X171494000Y-93116000D01*
%TO.C,J16*%
X164160000Y-89306000D02*
X167760000Y-89306000D01*
X164160000Y-92906000D02*
X164160000Y-89306000D01*
X167760000Y-92906000D02*
X164160000Y-92906000D01*
X167760000Y-89306000D02*
X167760000Y-92906000D01*
%TO.C,C26*%
X84354000Y-92818000D02*
X88054000Y-92818000D01*
X84354000Y-90918000D02*
X84354000Y-92818000D01*
X88054000Y-90918000D02*
X84354000Y-90918000D01*
X88054000Y-92818000D02*
X88054000Y-90918000D01*
%TO.C,C25*%
X84354000Y-94850000D02*
X88054000Y-94850000D01*
X84354000Y-92950000D02*
X84354000Y-94850000D01*
X88054000Y-92950000D02*
X84354000Y-92950000D01*
X88054000Y-94850000D02*
X88054000Y-92950000D01*
%TO.C,R32*%
X201708000Y-72746000D02*
X199808000Y-72746000D01*
X199808000Y-72746000D02*
X199808000Y-76446000D01*
X199808000Y-76446000D02*
X201708000Y-76446000D01*
X201708000Y-76446000D02*
X201708000Y-72746000D01*
%TO.C,R30*%
X196760000Y-81018000D02*
X198660000Y-81018000D01*
X198660000Y-81018000D02*
X198660000Y-77318000D01*
X198660000Y-77318000D02*
X196760000Y-77318000D01*
X196760000Y-77318000D02*
X196760000Y-81018000D01*
%TO.C,R29*%
X205904000Y-83812000D02*
X207804000Y-83812000D01*
X207804000Y-83812000D02*
X207804000Y-80112000D01*
X207804000Y-80112000D02*
X205904000Y-80112000D01*
X205904000Y-80112000D02*
X205904000Y-83812000D01*
%TO.C,R28*%
X202724000Y-79350000D02*
X200824000Y-79350000D01*
X200824000Y-79350000D02*
X200824000Y-83050000D01*
X200824000Y-83050000D02*
X202724000Y-83050000D01*
X202724000Y-83050000D02*
X202724000Y-79350000D01*
%TO.C,R27*%
X198792000Y-82288000D02*
X200692000Y-82288000D01*
X200692000Y-82288000D02*
X200692000Y-78588000D01*
X200692000Y-78588000D02*
X198792000Y-78588000D01*
X198792000Y-78588000D02*
X198792000Y-82288000D01*
%TO.C,C23*%
X205772000Y-80112000D02*
X203872000Y-80112000D01*
X203872000Y-80112000D02*
X203872000Y-83812000D01*
X203872000Y-83812000D02*
X205772000Y-83812000D01*
X205772000Y-83812000D02*
X205772000Y-80112000D01*
%TO.C,JP8*%
X174978000Y-89308000D02*
X178278000Y-89308000D01*
X174978000Y-89308000D02*
X174978000Y-86808000D01*
X178278000Y-86808000D02*
X178278000Y-89308000D01*
X178278000Y-86808000D02*
X174978000Y-86808000D01*
%TO.C,JP7*%
X189486000Y-85792000D02*
X186186000Y-85792000D01*
X189486000Y-85792000D02*
X189486000Y-88292000D01*
X186186000Y-88292000D02*
X186186000Y-85792000D01*
X186186000Y-88292000D02*
X189486000Y-88292000D01*
%TO.C,JP6*%
X185390000Y-85792000D02*
X182090000Y-85792000D01*
X185390000Y-85792000D02*
X185390000Y-88292000D01*
X182090000Y-88292000D02*
X182090000Y-85792000D01*
X182090000Y-88292000D02*
X185390000Y-88292000D01*
%TO.C,JP2*%
X107780000Y-92610000D02*
X112380000Y-92610000D01*
X107780000Y-92610000D02*
X107780000Y-90110000D01*
X112380000Y-90110000D02*
X112380000Y-92610000D01*
X112380000Y-90110000D02*
X107780000Y-90110000D01*
%TO.C,J5*%
X178384000Y-88842000D02*
X178384000Y-85242000D01*
X178384000Y-85242000D02*
X181984000Y-85242000D01*
X181984000Y-85242000D02*
X181984000Y-88842000D01*
X181984000Y-88842000D02*
X178384000Y-88842000D01*
%TO.C,JP3*%
X173566000Y-86768000D02*
X178166000Y-86768000D01*
X173566000Y-86768000D02*
X173566000Y-84268000D01*
X178166000Y-84268000D02*
X178166000Y-86768000D01*
X178166000Y-84268000D02*
X173566000Y-84268000D01*
%TO.C,SW11*%
X101744517Y-130289934D02*
X114118885Y-117915565D01*
X101744517Y-130289934D02*
X91703600Y-120249017D01*
X104077969Y-107874649D02*
X114118885Y-117915565D01*
X104077969Y-107874649D02*
X91703600Y-120249017D01*
%TO.C,J9*%
X209626000Y-90830000D02*
X223376000Y-90830000D01*
X223376000Y-90830000D02*
X223376000Y-94430000D01*
X223376000Y-94430000D02*
X209626000Y-94430000D01*
X209626000Y-94430000D02*
X209626000Y-90830000D01*
%TO.C,SW7*%
X206826000Y-94686000D02*
X206826000Y-112186000D01*
X206826000Y-94686000D02*
X221026000Y-94686000D01*
X221026000Y-112186000D02*
X206826000Y-112186000D01*
X221026000Y-112186000D02*
X221026000Y-94686000D01*
%TO.C,SW10*%
X195140000Y-79680000D02*
X195140000Y-66480000D01*
X181940000Y-79680000D02*
X195140000Y-79680000D01*
X181940000Y-66480000D02*
X181940000Y-79680000D01*
X195140000Y-66480000D02*
X181940000Y-66480000D01*
%TO.C,SW9*%
X195140000Y-137680000D02*
X195140000Y-124480000D01*
X181940000Y-137680000D02*
X195140000Y-137680000D01*
X181940000Y-124480000D02*
X181940000Y-137680000D01*
X195140000Y-124480000D02*
X181940000Y-124480000D01*
%TO.C,SW8*%
X106680000Y-90348000D02*
X93480000Y-90348000D01*
X106680000Y-103548000D02*
X106680000Y-90348000D01*
X93480000Y-103548000D02*
X106680000Y-103548000D01*
X93480000Y-90348000D02*
X93480000Y-103548000D01*
%TO.C,SW6*%
X173140000Y-137680000D02*
X173140000Y-124480000D01*
X159940000Y-137680000D02*
X173140000Y-137680000D01*
X159940000Y-124480000D02*
X159940000Y-137680000D01*
X173140000Y-124480000D02*
X159940000Y-124480000D01*
%TO.C,SW5*%
X173140000Y-79680000D02*
X173140000Y-66480000D01*
X159940000Y-79680000D02*
X173140000Y-79680000D01*
X159940000Y-66480000D02*
X159940000Y-79680000D01*
X173140000Y-66480000D02*
X159940000Y-66480000D01*
%TO.C,SW4*%
X151140000Y-137680000D02*
X151140000Y-124480000D01*
X137940000Y-137680000D02*
X151140000Y-137680000D01*
X137940000Y-124480000D02*
X137940000Y-137680000D01*
X151140000Y-124480000D02*
X137940000Y-124480000D01*
%TO.C,SW3*%
X151140000Y-79680000D02*
X151140000Y-66480000D01*
X137940000Y-79680000D02*
X151140000Y-79680000D01*
X137940000Y-66480000D02*
X137940000Y-79680000D01*
X151140000Y-66480000D02*
X137940000Y-66480000D01*
%TO.C,SW2*%
X129140000Y-137680000D02*
X129140000Y-124480000D01*
X115940000Y-137680000D02*
X129140000Y-137680000D01*
X115940000Y-124480000D02*
X115940000Y-137680000D01*
X129140000Y-124480000D02*
X115940000Y-124480000D01*
%TO.C,SW1*%
X129140000Y-79680000D02*
X129140000Y-66480000D01*
X115940000Y-79680000D02*
X129140000Y-79680000D01*
X115940000Y-66480000D02*
X115940000Y-79680000D01*
X129140000Y-66480000D02*
X115940000Y-66480000D01*
%TO.C,R26*%
X197384000Y-117710000D02*
X201084000Y-117710000D01*
X197384000Y-115810000D02*
X197384000Y-117710000D01*
X201084000Y-115810000D02*
X197384000Y-115810000D01*
X201084000Y-117710000D02*
X201084000Y-115810000D01*
%TO.C,U1*%
X96794000Y-80550000D02*
X96794000Y-77050000D01*
X93394000Y-80550000D02*
X96794000Y-80550000D01*
X93394000Y-77050000D02*
X93394000Y-80550000D01*
X96794000Y-77050000D02*
X93394000Y-77050000D01*
%TO.C,TPL51*%
X100406000Y-82348000D02*
X104006000Y-82348000D01*
X104006000Y-82348000D02*
X104006000Y-86148000D01*
X104006000Y-86148000D02*
X100406000Y-86148000D01*
X100406000Y-86148000D02*
X100406000Y-82348000D01*
%TO.C,SI2*%
X113812000Y-88538000D02*
X113812000Y-85038000D01*
X110412000Y-88538000D02*
X113812000Y-88538000D01*
X110412000Y-85038000D02*
X110412000Y-88538000D01*
X113812000Y-85038000D02*
X110412000Y-85038000D01*
%TO.C,SI1*%
X99638000Y-81024000D02*
X96138000Y-81024000D01*
X99638000Y-84424000D02*
X99638000Y-81024000D01*
X96138000Y-84424000D02*
X99638000Y-84424000D01*
X96138000Y-81024000D02*
X96138000Y-84424000D01*
%TO.C,Shot1*%
X78848384Y-74182295D02*
X88964911Y-81265964D01*
X75320888Y-79220080D02*
X78848384Y-74182295D01*
X85437416Y-86303749D02*
X75320888Y-79220080D01*
X88964911Y-81265964D02*
X85437416Y-86303749D01*
%TO.C,RV1*%
X109532000Y-70930000D02*
X109532000Y-76230000D01*
X104532000Y-70930000D02*
X109532000Y-70930000D01*
X104532000Y-76230000D02*
X104532000Y-70930000D01*
X109532000Y-76230000D02*
X104532000Y-76230000D01*
%TO.C,R23*%
X91350000Y-76302000D02*
X91350000Y-80002000D01*
X93250000Y-76302000D02*
X91350000Y-76302000D01*
X93250000Y-80002000D02*
X93250000Y-76302000D01*
X91350000Y-80002000D02*
X93250000Y-80002000D01*
%TO.C,R22*%
X108120000Y-84568000D02*
X104420000Y-84568000D01*
X108120000Y-86468000D02*
X108120000Y-84568000D01*
X104420000Y-86468000D02*
X108120000Y-86468000D01*
X104420000Y-84568000D02*
X104420000Y-86468000D01*
%TO.C,R21*%
X97954000Y-84684000D02*
X97954000Y-88384000D01*
X99854000Y-84684000D02*
X97954000Y-84684000D01*
X99854000Y-88384000D02*
X99854000Y-84684000D01*
X97954000Y-88384000D02*
X99854000Y-88384000D01*
%TO.C,R20*%
X84244000Y-92950000D02*
X80544000Y-92950000D01*
X84244000Y-94850000D02*
X84244000Y-92950000D01*
X80544000Y-94850000D02*
X84244000Y-94850000D01*
X80544000Y-92950000D02*
X80544000Y-94850000D01*
%TO.C,R19*%
X94144000Y-80620000D02*
X94144000Y-84320000D01*
X96044000Y-80620000D02*
X94144000Y-80620000D01*
X96044000Y-84320000D02*
X96044000Y-80620000D01*
X94144000Y-84320000D02*
X96044000Y-84320000D01*
%TO.C,R18*%
X108374000Y-79488000D02*
X104674000Y-79488000D01*
X108374000Y-81388000D02*
X108374000Y-79488000D01*
X104674000Y-81388000D02*
X108374000Y-81388000D01*
X104674000Y-79488000D02*
X104674000Y-81388000D01*
%TO.C,R17*%
X95668000Y-85192000D02*
X95668000Y-88892000D01*
X97568000Y-85192000D02*
X95668000Y-85192000D01*
X97568000Y-88892000D02*
X97568000Y-85192000D01*
X95668000Y-88892000D02*
X97568000Y-88892000D01*
%TO.C,R14*%
X78396000Y-89510000D02*
X78396000Y-93210000D01*
X80296000Y-89510000D02*
X78396000Y-89510000D01*
X80296000Y-93210000D02*
X80296000Y-89510000D01*
X78396000Y-93210000D02*
X80296000Y-93210000D01*
%TO.C,R13*%
X108374000Y-76948000D02*
X104674000Y-76948000D01*
X108374000Y-78848000D02*
X108374000Y-76948000D01*
X104674000Y-78848000D02*
X108374000Y-78848000D01*
X104674000Y-76948000D02*
X104674000Y-78848000D01*
%TO.C,D9*%
X107950000Y-82028000D02*
X104590000Y-82028000D01*
X107950000Y-83928000D02*
X107950000Y-82028000D01*
X104590000Y-83928000D02*
X107950000Y-83928000D01*
X104590000Y-82028000D02*
X104590000Y-83928000D01*
%TO.C,D8*%
X79534000Y-97104000D02*
X79534000Y-93744000D01*
X77634000Y-97104000D02*
X79534000Y-97104000D01*
X77634000Y-93744000D02*
X77634000Y-97104000D01*
X79534000Y-93744000D02*
X77634000Y-93744000D01*
%TO.C,C24*%
X104420000Y-88500000D02*
X108120000Y-88500000D01*
X104420000Y-86600000D02*
X104420000Y-88500000D01*
X108120000Y-86600000D02*
X104420000Y-86600000D01*
X108120000Y-88500000D02*
X108120000Y-86600000D01*
%TO.C,C22*%
X92112000Y-80620000D02*
X92112000Y-84320000D01*
X94012000Y-80620000D02*
X92112000Y-80620000D01*
X94012000Y-84320000D02*
X94012000Y-80620000D01*
X92112000Y-84320000D02*
X94012000Y-84320000D01*
%TO.C,C21*%
X104056000Y-78218000D02*
X100356000Y-78218000D01*
X104056000Y-80118000D02*
X104056000Y-78218000D01*
X100356000Y-80118000D02*
X104056000Y-80118000D01*
X100356000Y-78218000D02*
X100356000Y-80118000D01*
%TO.C,C20*%
X82974000Y-84822000D02*
X79274000Y-84822000D01*
X82974000Y-86722000D02*
X82974000Y-84822000D01*
X79274000Y-86722000D02*
X82974000Y-86722000D01*
X79274000Y-84822000D02*
X79274000Y-86722000D01*
%TO.C,C14*%
X104056000Y-80250000D02*
X100356000Y-80250000D01*
X104056000Y-82150000D02*
X104056000Y-80250000D01*
X100356000Y-82150000D02*
X104056000Y-82150000D01*
X100356000Y-80250000D02*
X100356000Y-82150000D01*
%TO.C,R9*%
X171636000Y-90664000D02*
X167936000Y-90664000D01*
X171636000Y-92564000D02*
X171636000Y-90664000D01*
X167936000Y-92564000D02*
X171636000Y-92564000D01*
X167936000Y-90664000D02*
X167936000Y-92564000D01*
%TO.C,F1*%
X153326000Y-94988000D02*
X155226000Y-94988000D01*
X155226000Y-94988000D02*
X155226000Y-91288000D01*
X155226000Y-91288000D02*
X153326000Y-91288000D01*
X153326000Y-91288000D02*
X153326000Y-94988000D01*
%TO.C,J2*%
X199174000Y-110232000D02*
X192274000Y-110232000D01*
X199174000Y-93932000D02*
X199174000Y-110232000D01*
X192274000Y-93932000D02*
X199174000Y-93932000D01*
X192274000Y-110232000D02*
X192274000Y-93932000D01*
%TO.C,R7*%
X197010000Y-90272000D02*
X195110000Y-90272000D01*
X195110000Y-90272000D02*
X195110000Y-93972000D01*
X195110000Y-93972000D02*
X197010000Y-93972000D01*
X197010000Y-93972000D02*
X197010000Y-90272000D01*
%TO.C,R6*%
X193320000Y-110730000D02*
X193320000Y-112630000D01*
X193320000Y-112630000D02*
X197020000Y-112630000D01*
X197020000Y-112630000D02*
X197020000Y-110730000D01*
X197020000Y-110730000D02*
X193320000Y-110730000D01*
%TO.C,C19*%
X169552000Y-113052000D02*
X171512000Y-113052000D01*
X171512000Y-113052000D02*
X171512000Y-109292000D01*
X171512000Y-109292000D02*
X169552000Y-109292000D01*
X169552000Y-109292000D02*
X169552000Y-113052000D01*
%TO.C,C18*%
X164842000Y-108414000D02*
X164842000Y-110374000D01*
X164842000Y-110374000D02*
X168602000Y-110374000D01*
X168602000Y-110374000D02*
X168602000Y-108414000D01*
X168602000Y-108414000D02*
X164842000Y-108414000D01*
D11*
%TO.C,U4*%
X191508000Y-120268000D02*
X171908000Y-120268000D01*
X171908000Y-93668000D02*
X191508000Y-93668000D01*
X171908000Y-120268000D02*
X171908000Y-93668000D01*
X191508000Y-120268000D02*
X191508000Y-93668000D01*
D10*
%TO.C,J3*%
X103882000Y-70354000D02*
X103882000Y-77314000D01*
X97482000Y-70354000D02*
X103882000Y-70354000D01*
X97482000Y-77314000D02*
X97482000Y-70354000D01*
X103882000Y-77314000D02*
X97482000Y-77314000D01*
%TO.C,C8*%
X201114000Y-115708000D02*
X201114000Y-113748000D01*
X201114000Y-113748000D02*
X197354000Y-113748000D01*
X197354000Y-113748000D02*
X197354000Y-115708000D01*
X197354000Y-115708000D02*
X201114000Y-115708000D01*
%TD*%
M02*
