%TF.GenerationSoftware,KiCad,Pcbnew,(5.1.10)-1*%
%TF.CreationDate,2022-02-17T21:55:53+01:00*%
%TF.ProjectId,keyboardEink,6b657962-6f61-4726-9445-696e6b2e6b69,rev?*%
%TF.SameCoordinates,Original*%
%TF.FileFunction,Other,ECO2*%
%FSLAX46Y46*%
G04 Gerber Fmt 4.6, Leading zero omitted, Abs format (unit mm)*
G04 Created by KiCad (PCBNEW (5.1.10)-1) date 2022-02-17 21:55:53*
%MOMM*%
%LPD*%
G01*
G04 APERTURE LIST*
%ADD10C,0.120000*%
%ADD11C,0.150000*%
G04 APERTURE END LIST*
D10*
%TO.C,U4*%
X172708000Y-114028000D02*
X190708000Y-114028000D01*
X190708000Y-94468000D02*
X172708000Y-94468000D01*
X190708000Y-119968000D02*
X190708000Y-94468000D01*
X172708000Y-119968000D02*
X190708000Y-119968000D01*
X172708000Y-94468000D02*
X172708000Y-119968000D01*
%TD*%
%TO.C,U4*%
D11*
X176946095Y-117134666D02*
X177422285Y-117134666D01*
X176850857Y-117420380D02*
X177184190Y-116420380D01*
X177517523Y-117420380D01*
X177850857Y-116753714D02*
X177850857Y-117420380D01*
X177850857Y-116848952D02*
X177898476Y-116801333D01*
X177993714Y-116753714D01*
X178136571Y-116753714D01*
X178231809Y-116801333D01*
X178279428Y-116896571D01*
X178279428Y-117420380D01*
X178612761Y-116753714D02*
X178993714Y-116753714D01*
X178755619Y-116420380D02*
X178755619Y-117277523D01*
X178803238Y-117372761D01*
X178898476Y-117420380D01*
X178993714Y-117420380D01*
X179708000Y-117372761D02*
X179612761Y-117420380D01*
X179422285Y-117420380D01*
X179327047Y-117372761D01*
X179279428Y-117277523D01*
X179279428Y-116896571D01*
X179327047Y-116801333D01*
X179422285Y-116753714D01*
X179612761Y-116753714D01*
X179708000Y-116801333D01*
X179755619Y-116896571D01*
X179755619Y-116991809D01*
X179279428Y-117087047D01*
X180184190Y-116753714D02*
X180184190Y-117420380D01*
X180184190Y-116848952D02*
X180231809Y-116801333D01*
X180327047Y-116753714D01*
X180469904Y-116753714D01*
X180565142Y-116801333D01*
X180612761Y-116896571D01*
X180612761Y-117420380D01*
X181088952Y-116753714D02*
X181088952Y-117420380D01*
X181088952Y-116848952D02*
X181136571Y-116801333D01*
X181231809Y-116753714D01*
X181374666Y-116753714D01*
X181469904Y-116801333D01*
X181517523Y-116896571D01*
X181517523Y-117420380D01*
X182422285Y-117420380D02*
X182422285Y-116896571D01*
X182374666Y-116801333D01*
X182279428Y-116753714D01*
X182088952Y-116753714D01*
X181993714Y-116801333D01*
X182422285Y-117372761D02*
X182327047Y-117420380D01*
X182088952Y-117420380D01*
X181993714Y-117372761D01*
X181946095Y-117277523D01*
X181946095Y-117182285D01*
X181993714Y-117087047D01*
X182088952Y-117039428D01*
X182327047Y-117039428D01*
X182422285Y-116991809D01*
X183612761Y-117134666D02*
X184088952Y-117134666D01*
X183517523Y-117420380D02*
X183850857Y-116420380D01*
X184184190Y-117420380D01*
X184517523Y-117420380D02*
X184517523Y-116753714D01*
X184517523Y-116944190D02*
X184565142Y-116848952D01*
X184612761Y-116801333D01*
X184708000Y-116753714D01*
X184803238Y-116753714D01*
X185517523Y-117372761D02*
X185422285Y-117420380D01*
X185231809Y-117420380D01*
X185136571Y-117372761D01*
X185088952Y-117277523D01*
X185088952Y-116896571D01*
X185136571Y-116801333D01*
X185231809Y-116753714D01*
X185422285Y-116753714D01*
X185517523Y-116801333D01*
X185565142Y-116896571D01*
X185565142Y-116991809D01*
X185088952Y-117087047D01*
X186422285Y-117420380D02*
X186422285Y-116896571D01*
X186374666Y-116801333D01*
X186279428Y-116753714D01*
X186088952Y-116753714D01*
X185993714Y-116801333D01*
X186422285Y-117372761D02*
X186327047Y-117420380D01*
X186088952Y-117420380D01*
X185993714Y-117372761D01*
X185946095Y-117277523D01*
X185946095Y-117182285D01*
X185993714Y-117087047D01*
X186088952Y-117039428D01*
X186327047Y-117039428D01*
X186422285Y-116991809D01*
%TD*%
M02*
